<?xml version="1.0" encoding="utf-8"?>
<!-- Generator: Adobe Illustrator 17.1.0, SVG Export Plug-In . SVG Version: 6.00 Build 0)  -->
<!DOCTYPE svg PUBLIC "-//W3C//DTD SVG 1.1//EN" "http://www.w3.org/Graphics/SVG/1.1/DTD/svg11.dtd">
<svg version="1.1" id="Layer_1" xmlns="http://www.w3.org/2000/svg" xmlns:xlink="http://www.w3.org/1999/xlink" x="0px" y="0px"
	 viewBox="0 0 841.9 595.3" enable-background="new 0 0 841.9 595.3" xml:space="preserve">
<g>
	<path fill="#00A79D" d="M348.8,292H335v11.3h-10.3v-32.9h24.1v10.2H335v1.1h13.9V292z"/>
	<path fill="#00A79D" d="M377.2,287.1c0,3.7-1.3,6.9-3.9,9.5c-2.6,2.6-5.8,3.9-9.5,3.9s-6.9-1.3-9.5-3.9s-4-5.8-4-9.5v-16.6h10.2
		v16.6c0,2.1,1.7,3.2,3.4,3.2c1.6,0,3.2-1,3.2-3.2v-16.6h10.2V287.1z"/>
	<path fill="#00A79D" d="M403.1,280.7H396v22.7h-10.2v-22.7h-7.2v-10.2h24.5V280.7z"/>
	<path fill="#00A79D" d="M431.5,287.1c0,3.7-1.3,6.9-3.9,9.5c-2.6,2.6-5.8,3.9-9.5,3.9s-6.9-1.3-9.5-3.9s-4-5.8-4-9.5v-16.6h10.2
		v16.6c0,2.1,1.7,3.2,3.4,3.2c1.6,0,3.2-1,3.2-3.2v-16.6h10.2V287.1z"/>
	<path fill="#00A79D" d="M469.3,301.7c-2.7,1.5-5.6,2.4-8.4,2.8c-0.8,0.1-1.7,0.1-2.5,0.1c-1.9,0-3.8-0.2-5.7-0.8l0,0
		c-3.5-0.9-6.7-2.7-9.4-5.2h-0.1v4.7h-10.2v-32.9h16.2c3.9,0,7.2,1.4,9.9,4.1c2.7,2.7,4.1,6.1,4.1,10c0,3.8-1.5,7.3-4,9.8
		c1.7-0.1,3.5-0.6,5-1.5L469.3,301.7z M449.1,280.7h-6v7.8h6c2.1,0,3.9-1.8,3.9-3.9C453,282.4,451.2,280.7,449.1,280.7z"/>
	<path fill="#00A79D" d="M493.6,292.1h-14v1.1h10.1v10.2h-20.4v-32.8h20.4v10.2h-10.1v1.1h14V292.1z"/>
	<path fill="#00A79D" d="M224.8,342.4c-4,4-8.8,6-14.5,6h-16.7v-41h16.7c5.6,0,10.4,2,14.5,6.1s6.1,8.8,6.1,14.5
		C230.8,333.5,228.8,338.4,224.8,342.4z M218.1,327.9c0-2-0.7-3.8-2.2-5.4c-1.4-1.6-3.3-2.4-5.6-2.4h-4v15.5h1.3
		c2.9,0.1,5.9,0.1,8.3-2.3C217.4,331.8,218.1,329.8,218.1,327.9z"/>
	<path fill="#00A79D" d="M262.9,334.3h-17.5v1.4h12.7v12.7h-25.4v-41h25.4v12.8h-12.7v1.4h17.5V334.3z"/>
	<path fill="#00A79D" d="M308.4,307.3l-25.1,43.6l-25.1-43.6h14.7l10.4,18.1l10.4-18.1H308.4z"/>
	<path fill="#00A79D" d="M338.7,334.3h-17.5v1.4h12.7v12.7h-25.4v-41h25.4v12.8h-12.7v1.4h17.5V334.3z"/>
	<path fill="#00A79D" d="M362,348.4h-21.5v-41h12.7v28.3h8.8V348.4z"/>
	<path fill="#00A79D" d="M393.1,339.1c-3.8,3.8-8.3,5.6-13.6,5.6c-5.3,0-9.8-1.9-13.6-5.6c-3.8-3.8-5.6-8.3-5.6-13.6
		s1.9-9.8,5.6-13.6c3.8-3.8,8.3-5.6,13.6-5.6c5.3,0,9.8,1.9,13.6,5.6c3.8,3.8,5.7,8.3,5.7,13.6S396.8,335.3,393.1,339.1z
		 M379.4,318.9c-3.6,0-6.5,2.9-6.5,6.5s2.9,6.5,6.5,6.5c3.6,0,6.5-2.9,6.5-6.5S383,318.9,379.4,318.9z"/>
	<path fill="#00A79D" d="M433.3,337.3c-3.4,3.4-7.6,5.2-12.5,5.2h-7.4v5.9h-12.8v-41.1h20.2c4.9,0,9.1,1.7,12.5,5.2
		c3.4,3.4,5.2,7.6,5.2,12.5S436.7,333.9,433.3,337.3z M420.8,320.1h-7.4v9.7h7.4c2.7,0,4.9-2.2,4.9-4.9
		C425.6,322.2,423.5,320.1,420.8,320.1z"/>
	<path fill="#00A79D" d="M498.5,348.4H484l-9.1-16.4c-1.7,3.2-3.4,6.4-5.2,9.5l-5.2,9.4l-10.4-19l-9.1,16.4h-14.5l23.7-42.8
		l10.3,18.8l10.2-18.8L498.5,348.4z"/>
	<path fill="#00A79D" d="M528.8,334.3h-17.5v1.4H524v12.7h-25.4v-41H524v12.8h-12.7v1.4h17.5V334.3z"/>
	<path fill="#00A79D" d="M572,353.4l-28.6-22.6v17.6h-12.8v-43.9l28.6,22.6v-19.7H572V353.4z"/>
	<path fill="#00A79D" d="M604.4,320h-8.9v28.4h-12.7V320h-8.9v-12.7h30.6V320z"/>
	<path fill="#00A79D" d="M630.1,307.3l-11.3,11.3c-0.5,0.5-0.8,1.2-1,1.9v0.4c0,0.9,0.3,1.7,1,2.4l2,2c2.9,2.9,4.6,6.8,4.7,10.7v0.7
		c0,4.1-1.6,8.3-4.7,11.4l-0.2,0.2h-18l9.2-9.2c0.7-0.7,1-1.5,1-2.4v-0.4c-0.1-0.7-0.4-1.4-1-1.9l-2-2c-3.2-3.1-4.7-7.3-4.7-11.4
		v-0.7c0.2-3.8,1.7-7.7,4.7-10.7l2.3-2.3H630.1z"/>
</g>
<line fill="none" stroke="#00A79D" stroke-width="49" stroke-miterlimit="10" x1="32.6" y1="306.7" x2="168" y2="306.7"/>
<g>
	<g>
		<line fill="none" stroke="#00A79D" stroke-width="49" stroke-miterlimit="10" x1="649.9" y1="306.7" x2="713" y2="306.7"/>
		<g>
			<polygon fill="#00A79D" points="693.7,372.6 807.9,306.7 693.7,240.7 			"/>
		</g>
	</g>
</g>
</svg>
