<?xml version="1.0" encoding="utf-8"?>
<!-- Generator: Adobe Illustrator 17.1.0, SVG Export Plug-In . SVG Version: 6.00 Build 0)  -->
<!DOCTYPE svg PUBLIC "-//W3C//DTD SVG 1.1//EN" "http://www.w3.org/Graphics/SVG/1.1/DTD/svg11.dtd">
<svg version="1.1" id="Layer_1" xmlns="http://www.w3.org/2000/svg" xmlns:xlink="http://www.w3.org/1999/xlink" x="0px" y="0px"
	 viewBox="0 0 841.9 595.3" enable-background="new 0 0 841.9 595.3" xml:space="preserve">
<g>
	<path fill="#00A79D" d="M348.8,292H335v11.3h-10.3v-32.9h24.1v10.2H335v1.1h13.9V292z"/>
	<path fill="#00A79D" d="M377.2,287.1c0,3.7-1.3,6.9-3.9,9.5c-2.6,2.6-5.8,3.9-9.5,3.9s-6.9-1.3-9.5-3.9s-4-5.8-4-9.5v-16.6h10.2
		v16.6c0,2.1,1.7,3.2,3.4,3.2c1.6,0,3.2-1,3.2-3.2v-16.6h10.2V287.1z"/>
	<path fill="#00A79D" d="M403.1,280.7H396v22.7h-10.2v-22.7h-7.2v-10.2h24.5V280.7z"/>
	<path fill="#00A79D" d="M431.5,287.1c0,3.7-1.3,6.9-3.9,9.5c-2.6,2.6-5.8,3.9-9.5,3.9s-6.9-1.3-9.5-3.9s-4-5.8-4-9.5v-16.6h10.2
		v16.6c0,2.1,1.7,3.2,3.4,3.2c1.6,0,3.2-1,3.2-3.2v-16.6h10.2V287.1z"/>
	<path fill="#00A79D" d="M469.3,301.7c-2.7,1.5-5.6,2.4-8.4,2.8c-0.8,0.1-1.7,0.1-2.5,0.1c-1.9,0-3.8-0.2-5.7-0.8l0,0
		c-3.5-0.9-6.7-2.7-9.4-5.2h-0.1v4.7h-10.2v-32.9h16.2c3.9,0,7.2,1.4,9.9,4.1c2.7,2.7,4.1,6.1,4.1,10c0,3.8-1.5,7.3-4,9.8
		c1.7-0.1,3.5-0.6,5-1.5L469.3,301.7z M449.1,280.7h-6v7.8h6c2.1,0,3.9-1.8,3.9-3.9C453,282.4,451.2,280.7,449.1,280.7z"/>
	<path fill="#00A79D" d="M493.6,292.1h-14v1.1h10.1v10.2h-20.4v-32.8h20.4v10.2h-10.1v1.1h14V292.1z"/>
	<path fill="#00A79D" d="M224.8,342.4c-4,4-8.8,6-14.5,6h-16.7v-41h16.7c5.6,0,10.4,2,14.5,6.1s6.1,8.8,6.1,14.5
		C230.8,333.5,228.8,338.4,224.8,342.4z M218.1,327.9c0-2-0.7-3.8-2.2-5.4c-1.4-1.6-3.3-2.4-5.6-2.4h-4v15.5h1.3
		c2.9,0.1,5.9,0.1,8.3-2.3C217.4,331.8,218.1,329.8,218.1,327.9z"/>
	<path fill="#00A79D" d="M262.9,334.3h-17.5v1.4h12.7v12.7h-25.4v-41h25.4v12.8h-12.7v1.4h17.5V334.3z"/>
	<path fill="#00A79D" d="M308.4,307.3l-25.1,43.6l-25.1-43.6h14.7l10.4,18.1l10.4-18.1H308.4z"/>
	<path fill="#00A79D" d="M338.7,334.3h-17.5v1.4h12.7v12.7h-25.4v-41h25.4v12.8h-12.7v1.4h17.5V334.3z"/>
	<path fill="#00A79D" d="M362,348.4h-21.5v-41h12.7v28.3h8.8V348.4z"/>
	<path fill="#00A79D" d="M393.1,339.1c-3.8,3.8-8.3,5.6-13.6,5.6c-5.3,0-9.8-1.9-13.6-5.6c-3.8-3.8-5.6-8.3-5.6-13.6
		s1.9-9.8,5.6-13.6c3.8-3.8,8.3-5.6,13.6-5.6c5.3,0,9.8,1.9,13.6,5.6c3.8,3.8,5.7,8.3,5.7,13.6S396.8,335.3,393.1,339.1z
		 M379.4,318.9c-3.6,0-6.5,2.9-6.5,6.5s2.9,6.5,6.5,6.5c3.6,0,6.5-2.9,6.5-6.5S383,318.9,379.4,318.9z"/>
	<path fill="#00A79D" d="M433.3,337.3c-3.4,3.4-7.6,5.2-12.5,5.2h-7.4v5.9h-12.8v-41.1h20.2c4.9,0,9.1,1.7,12.5,5.2
		c3.4,3.4,5.2,7.6,5.2,12.5S436.7,333.9,433.3,337.3z M420.8,320.1h-7.4v9.7h7.4c2.7,0,4.9-2.2,4.9-4.9
		C425.6,322.2,423.5,320.1,420.8,320.1z"/>
	<path fill="#00A79D" d="M498.5,348.4H484l-9.1-16.4c-1.7,3.2-3.4,6.4-5.2,9.5l-5.2,9.4l-10.4-19l-9.1,16.4h-14.5l23.7-42.8
		l10.3,18.8l10.2-18.8L498.5,348.4z"/>
	<path fill="#00A79D" d="M528.8,334.3h-17.5v1.4H524v12.7h-25.4v-41H524v12.8h-12.7v1.4h17.5V334.3z"/>
	<path fill="#00A79D" d="M572,353.4l-28.6-22.6v17.6h-12.8v-43.9l28.6,22.6v-19.7H572V353.4z"/>
	<path fill="#00A79D" d="M604.4,320h-8.9v28.4h-12.7V320h-8.9v-12.7h30.6V320z"/>
	<path fill="#00A79D" d="M630.1,307.3l-11.3,11.3c-0.5,0.5-0.8,1.2-1,1.9v0.4c0,0.9,0.3,1.7,1,2.4l2,2c2.9,2.9,4.6,6.8,4.7,10.7v0.7
		c0,4.1-1.6,8.3-4.7,11.4l-0.2,0.2h-18l9.2-9.2c0.7-0.7,1-1.5,1-2.4v-0.4c-0.1-0.7-0.4-1.4-1-1.9l-2-2c-3.2-3.1-4.7-7.3-4.7-11.4
		v-0.7c0.2-3.8,1.7-7.7,4.7-10.7l2.3-2.3H630.1z"/>
</g>
<line fill="none" stroke="#00A79D" stroke-width="49" stroke-miterlimit="10" x1="32.6" y1="306.7" x2="168" y2="306.7"/>
<g>
	<g>
		<line fill="none" stroke="#00A79D" stroke-width="49" stroke-miterlimit="10" x1="649.9" y1="306.7" x2="713" y2="306.7"/>
		<g>
			<polygon fill="#00A79D" points="693.7,372.6 807.9,306.7 693.7,240.7 			"/>
		</g>
	</g>
</g>
<g>
	<g>
		<path fill="#414042" d="M160.2,113.7l-7.1,7.1c3.7,3.6,5.9,8.7,5.9,14.2c0,5.6-2.3,10.6-5.9,14.2l7.1,7.1c5.5-5.5,8.8-13,8.8-21.3
			C169.1,126.7,165.7,119.2,160.2,113.7z"/>
		<path fill="#414042" d="M189.1,135c0-13.9-5.6-26.4-14.7-35.5l-7,7c7.3,7.3,11.8,17.3,11.8,28.4c0,11.1-4.5,21.1-11.8,28.4l7,7
			C183.5,161.4,189.1,148.9,189.1,135z"/>
		<path fill="#414042" d="M209.1,135c0-19.4-7.9-36.9-20.6-49.6l-7.1,7.1c10.9,10.9,17.7,25.9,17.7,42.5c0,16.6-6.7,31.7-17.7,42.5
			l7.1,7.1C201.2,172,209.1,154.4,209.1,135z"/>
		<polygon fill="#414042" points="84.5,155.1 110.9,155.1 139.6,181.6 139.6,88.5 111.4,115 84.5,115 		"/>
	</g>
	<g>
		<path d="M125.6,206.9c0,1.1-0.4,1.9-1.2,2.5s-1.8,0.9-3.1,0.9c-1.6,0-2.8-0.2-3.6-0.5V209c0.9,0.4,2.1,0.6,3.5,0.6
			c1.1,0,1.9-0.2,2.5-0.7s0.9-1.1,0.9-1.9c0-0.5-0.1-0.9-0.3-1.2s-0.5-0.6-1-0.9s-1.1-0.5-2-0.9c-1.3-0.5-2.2-0.9-2.7-1.5
			s-0.8-1.2-0.8-2.1c0-1,0.4-1.7,1.1-2.4s1.7-0.9,2.9-0.9c1.2,0,2.3,0.2,3.4,0.7l-0.3,0.8c-1.1-0.4-2.1-0.7-3.1-0.7
			c-0.9,0-1.7,0.2-2.3,0.7s-0.8,1-0.8,1.8c0,0.5,0.1,0.9,0.3,1.2s0.5,0.6,0.8,0.8s1.1,0.5,2,0.9c1,0.3,1.8,0.7,2.3,1
			s0.9,0.7,1.1,1.1S125.6,206.4,125.6,206.9z"/>
		<path d="M136,205.5c0,1.6-0.4,2.8-1.1,3.7s-1.8,1.3-3.1,1.3c-0.8,0-1.6-0.2-2.2-0.6s-1.1-1-1.5-1.7s-0.5-1.6-0.5-2.6
			c0-1.6,0.4-2.8,1.1-3.6s1.8-1.3,3.1-1.3c1.3,0,2.3,0.4,3.1,1.3S136,203.9,136,205.5z M128.4,205.5c0,1.3,0.3,2.3,0.9,3.1
			s1.4,1.1,2.4,1.1s1.9-0.4,2.4-1.1s0.9-1.8,0.9-3.1c0-1.3-0.3-2.3-0.9-3.1s-1.4-1.1-2.5-1.1s-1.9,0.4-2.4,1.1
			S128.4,204.1,128.4,205.5z"/>
		<path d="M139.4,200.7v6.2c0,1,0.2,1.7,0.6,2.1s1,0.7,1.9,0.7c1.1,0,2-0.3,2.5-0.9s0.8-1.5,0.8-2.8v-5.3h0.9v9.6h-0.7l-0.2-1.3
			h-0.1c-0.6,1-1.7,1.5-3.3,1.5c-2.2,0-3.3-1.2-3.3-3.5v-6.2H139.4z"/>
		<path d="M155.9,210.3v-6.2c0-1-0.2-1.7-0.6-2.1s-1-0.7-1.9-0.7c-1.1,0-2,0.3-2.5,0.9s-0.8,1.5-0.8,2.8v5.3h-0.9v-9.6h0.7l0.2,1.3
			h0.1c0.6-1,1.7-1.5,3.3-1.5c2.2,0,3.3,1.2,3.3,3.5v6.2H155.9z"/>
		<path d="M163.3,200.5c0.7,0,1.3,0.1,1.8,0.4s1,0.7,1.4,1.3h0.1c0-0.7-0.1-1.5-0.1-2.2v-3.4h0.9v13.7h-0.6l-0.2-1.5h-0.1
			c-0.7,1.1-1.8,1.6-3.1,1.6c-1.3,0-2.3-0.4-3-1.2s-1-2-1-3.6c0-1.7,0.3-2.9,1-3.8S162,200.5,163.3,200.5z M163.3,201.3
			c-1,0-1.8,0.4-2.4,1.1s-0.8,1.8-0.8,3.2c0,2.7,1.1,4.1,3.2,4.1c1.1,0,1.9-0.3,2.4-0.9s0.8-1.7,0.8-3.1v-0.1c0-1.5-0.2-2.5-0.7-3.2
			S164.5,201.3,163.3,201.3z"/>
		<path d="M176.5,207.8c0,0.9-0.3,1.5-1,2s-1.6,0.7-2.8,0.7c-1.3,0-2.3-0.2-3-0.6v-0.9c1,0.5,2,0.7,3,0.7c0.9,0,1.7-0.2,2.1-0.5
			s0.7-0.7,0.7-1.3c0-0.5-0.2-0.9-0.6-1.2s-1-0.7-1.9-1c-1-0.3-1.6-0.6-2-0.9s-0.7-0.5-0.9-0.8s-0.3-0.7-0.3-1.1
			c0-0.7,0.3-1.3,0.9-1.7s1.4-0.6,2.5-0.6c1,0,2,0.2,2.9,0.6l-0.3,0.8c-0.9-0.4-1.8-0.6-2.6-0.6c-0.8,0-1.4,0.1-1.9,0.4
			s-0.7,0.6-0.7,1.1c0,0.5,0.2,0.9,0.5,1.2s1,0.6,2.1,1c0.9,0.3,1.5,0.6,1.9,0.8s0.7,0.5,0.9,0.8S176.5,207.3,176.5,207.8z"/>
	</g>
</g>
<g>
	<g>
		<circle fill="#414042" cx="402.2" cy="38" r="23.7"/>
		<path fill="#414042" d="M361.1,113.5c0-22.7,18.4-41.2,41.2-41.2s41.2,18.4,41.2,41.2H361.1z"/>
	</g>
	<g>
		<path d="M355,128.2v8.3c0,1.5-0.4,2.6-1.3,3.5s-2,1.2-3.6,1.2c-1.5,0-2.6-0.4-3.5-1.3s-1.3-2-1.3-3.5v-8.3h0.9v8.3
			c0,1.2,0.3,2.2,1,2.9s1.7,1,2.9,1c1.2,0,2.2-0.3,2.8-1s1-1.6,1-2.8v-8.4H355z"/>
		<path d="M364.2,138.5c0,0.9-0.3,1.5-1,2s-1.6,0.7-2.8,0.7c-1.3,0-2.3-0.2-3-0.6v-0.9c1,0.5,2,0.7,3,0.7c0.9,0,1.7-0.2,2.1-0.5
			s0.7-0.7,0.7-1.3c0-0.5-0.2-0.9-0.6-1.2s-1-0.7-1.9-1c-1-0.3-1.6-0.6-2-0.9s-0.7-0.5-0.9-0.8s-0.3-0.7-0.3-1.1
			c0-0.7,0.3-1.3,0.9-1.7s1.4-0.6,2.5-0.6c1,0,2,0.2,2.9,0.6l-0.3,0.8c-0.9-0.4-1.8-0.6-2.6-0.6c-0.8,0-1.4,0.1-1.9,0.4
			s-0.7,0.6-0.7,1.1c0,0.5,0.2,0.9,0.5,1.2s1,0.6,2.1,1c0.9,0.3,1.5,0.6,1.9,0.8s0.7,0.5,0.9,0.8S364.2,138.1,364.2,138.5z"/>
		<path d="M370.5,141.2c-1.4,0-2.5-0.4-3.2-1.3s-1.2-2.1-1.2-3.6c0-1.5,0.4-2.7,1.1-3.7s1.8-1.4,3-1.4c1.1,0,2,0.4,2.7,1.2
			s1,1.9,1,3.2v0.7H367c0,1.3,0.3,2.3,0.9,3s1.5,1,2.6,1c0.5,0,1,0,1.4-0.1s0.9-0.2,1.6-0.5v0.8c-0.5,0.2-1,0.4-1.5,0.5
			S371.1,141.2,370.5,141.2z M370.3,132.1c-0.9,0-1.7,0.3-2.2,0.9s-0.9,1.5-1,2.6h5.9c0-1.1-0.2-2-0.7-2.6S371.1,132.1,370.3,132.1z
			"/>
		<path d="M380.3,131.3c0.4,0,0.8,0,1.3,0.1l-0.2,0.8c-0.4-0.1-0.8-0.1-1.2-0.1c-0.8,0-1.5,0.3-2,1s-0.8,1.6-0.8,2.6v5.3h-0.9v-9.6
			h0.7l0.1,1.7h0.1c0.4-0.7,0.8-1.2,1.3-1.5S379.7,131.3,380.3,131.3z"/>
		<path d="M394.7,136.5h-5.2l-1.8,4.5h-1l5.2-12.9h0.6l5.1,12.9h-1L394.7,136.5z M389.8,135.7h4.6l-1.7-4.6
			c-0.1-0.4-0.3-0.9-0.5-1.5c-0.2,0.6-0.3,1.1-0.5,1.5L389.8,135.7z"/>
		<path d="M402.9,141.2c-1.4,0-2.4-0.4-3.2-1.3s-1.2-2.1-1.2-3.6c0-1.6,0.4-2.8,1.2-3.7s1.9-1.3,3.3-1.3c0.8,0,1.6,0.1,2.4,0.4
			l-0.2,0.8c-0.8-0.3-1.5-0.4-2.2-0.4c-1.2,0-2.1,0.4-2.7,1.1s-0.9,1.8-0.9,3.1c0,1.3,0.3,2.3,0.9,3s1.4,1.1,2.5,1.1
			c0.9,0,1.7-0.2,2.4-0.5v0.8C404.7,141.1,403.9,141.2,402.9,141.2z"/>
		<path d="M411.4,141.2c-1.4,0-2.4-0.4-3.2-1.3s-1.2-2.1-1.2-3.6c0-1.6,0.4-2.8,1.2-3.7s1.9-1.3,3.3-1.3c0.8,0,1.6,0.1,2.4,0.4
			l-0.2,0.8c-0.8-0.3-1.5-0.4-2.2-0.4c-1.2,0-2.1,0.4-2.7,1.1s-0.9,1.8-0.9,3.1c0,1.3,0.3,2.3,0.9,3s1.4,1.1,2.5,1.1
			c0.9,0,1.7-0.2,2.4-0.5v0.8C413.2,141.1,412.4,141.2,411.4,141.2z"/>
		<path d="M424.1,136.2c0,1.6-0.4,2.8-1.1,3.7s-1.8,1.3-3.1,1.3c-0.8,0-1.6-0.2-2.2-0.6s-1.1-1-1.5-1.7s-0.5-1.6-0.5-2.6
			c0-1.6,0.4-2.8,1.1-3.6s1.8-1.3,3.1-1.3c1.3,0,2.3,0.4,3.1,1.3S424.1,134.7,424.1,136.2z M416.5,136.2c0,1.3,0.3,2.3,0.9,3.1
			s1.4,1.1,2.4,1.1s1.9-0.4,2.4-1.1c0.6-0.7,0.9-1.8,0.9-3.1c0-1.3-0.3-2.3-0.9-3.1c-0.6-0.7-1.4-1.1-2.5-1.1s-1.9,0.4-2.4,1.1
			S416.5,134.9,416.5,136.2z"/>
		<path d="M427.5,131.5v6.2c0,1,0.2,1.7,0.6,2.1s1,0.7,1.9,0.7c1.1,0,2-0.3,2.5-0.9s0.8-1.5,0.8-2.8v-5.3h0.9v9.6h-0.7l-0.2-1.3
			h-0.1c-0.6,1-1.7,1.5-3.3,1.5c-2.2,0-3.3-1.2-3.3-3.5v-6.2H427.5z"/>
		<path d="M444,141v-6.2c0-1-0.2-1.7-0.6-2.1s-1-0.7-1.9-0.7c-1.1,0-2,0.3-2.5,0.9s-0.8,1.5-0.8,2.8v5.3h-0.9v-9.6h0.7l0.2,1.3h0.1
			c0.6-1,1.7-1.5,3.3-1.5c2.2,0,3.3,1.2,3.3,3.5v6.2H444z"/>
		<path d="M450.5,140.4c0.6,0,1,0,1.4-0.1v0.7c-0.4,0.1-0.9,0.2-1.5,0.2c-0.8,0-1.5-0.2-1.9-0.7s-0.6-1.2-0.6-2.1v-6.2h-1.4v-0.5
			l1.4-0.4l0.4-2.2h0.4v2.3h2.8v0.8h-2.8v6c0,0.7,0.1,1.3,0.4,1.6S449.9,140.4,450.5,140.4z"/>
		<path d="M459.9,138.5c0,0.9-0.3,1.5-1,2s-1.6,0.7-2.8,0.7c-1.3,0-2.3-0.2-3-0.6v-0.9c1,0.5,2,0.7,3,0.7c0.9,0,1.7-0.2,2.1-0.5
			s0.7-0.7,0.7-1.3c0-0.5-0.2-0.9-0.6-1.2s-1-0.7-1.9-1c-1-0.3-1.6-0.6-2-0.9s-0.7-0.5-0.9-0.8s-0.3-0.7-0.3-1.1
			c0-0.7,0.3-1.3,0.9-1.7s1.4-0.6,2.5-0.6c1,0,2,0.2,2.9,0.6l-0.3,0.8c-0.9-0.4-1.8-0.6-2.6-0.6c-0.8,0-1.4,0.1-1.9,0.4
			s-0.7,0.6-0.7,1.1c0,0.5,0.2,0.9,0.5,1.2s1,0.6,2.1,1c0.9,0.3,1.5,0.6,1.9,0.8s0.7,0.5,0.9,0.8S459.9,138.1,459.9,138.5z"/>
	</g>
</g>
</svg>
