<?xml version="1.0" encoding="utf-8"?>
<!-- Generator: Adobe Illustrator 17.1.0, SVG Export Plug-In . SVG Version: 6.00 Build 0)  -->
<!DOCTYPE svg PUBLIC "-//W3C//DTD SVG 1.1//EN" "http://www.w3.org/Graphics/SVG/1.1/DTD/svg11.dtd">
<svg version="1.1" id="Layer_1" xmlns="http://www.w3.org/2000/svg" xmlns:xlink="http://www.w3.org/1999/xlink" x="0px" y="0px"
	 viewBox="0 0 841.9 595.3" enable-background="new 0 0 841.9 595.3" xml:space="preserve">
<ellipse fill="#5BCAEF" cx="417.3" cy="353.1" rx="178.9" ry="176"/>
<path fill="#2B3990" d="M318.9,595.3H541c-1.8-9.4-3-19.6-3-30.5c0-25.6,2.5-63.5,20.9-83.7c23-25.3,53.5-61.1,60.6-114.9
	c8.8-66.9-18.3-147.1-98.5-183c-63.4-28.4-175.3-28.4-234.3,25.4c-51.5,46.9-63.1,113.5-63.1,113.5s-5.3,24.7-5.3,33
	c0,7.9,8.8,10.9,7.8,15c-1,4-10.9,15.6-18.5,28.2c-7.6,12.6-26.9,40.7-26.9,48.2c0,7.6,4.5,10.4,13.6,13.4c9.1,3,16.1,5.5,17.7,9.1
	c1.5,3.5-4.3,13.6-4.6,20.8c-0.3,6.1,2,6.8,6.6,8.6c5.7,2.2,14.5,2.5,14.5,2.5s-19.5,3.7-17.6,11.7c2,8.3,13.8,10,14.8,16.5
	c0.5,3.3-9.9,20-8.6,36.4c1.8,21.3,22,30.8,54,25.7C299.6,586.5,314,582.2,318.9,595.3z M290.3,330.4c0,0-8.3,1.4-15.2-7.4
	c-4.9-6.2-8.5-21.4,0.5-39.2c8-15.9,22.1-21.4,22.1-21.4s-5.2-6.6,5.8-15.9c5.7-4.8,15.9-4.7,15.9-4.7s2.5-10.6,17.7-17.5
	c17.3-7.8,28.8-1.3,28.8-1.3s4.6-10.1,18-14.7c13.4-4.6,26.7,3.2,26.7,3.2s9-8.2,25.6-8.2c16.6,0,22.7,8.6,22.7,8.6s10-5.1,22.1-0.9
	c11.5,4,14.8,15.1,14.8,15.1s8.3-5.9,19.8-1.3c11.5,4.6,16.1,17,16.1,17s7.9-1.2,15.8,5.8c5.9,5.2,4,14.9,4,14.9s9.8,3.2,15.6,14.9
	c5.4,10.9-2.3,20.1-2.3,20.1s16.1,12,18.4,43.3c2.8,38.2-21.6,45.6-21.6,45.6s4.8,12.1-3.7,25.3c-11.6,18-35,7.4-35,7.4
	s-3.1,33.5-27.6,37.8c-21,3.7-35-16.6-35-16.6l-6.9,32.7h-14.7c0,0-13.4-49.3-22.6-57.6c-9.2-8.3-23.5-10.6-23.5-10.6
	s-19.3-1.4-31.8-13.8c-12.4-12.4-0.9-27.6-0.9-27.6s-15.7,0.9-47.4-6C280.6,350.6,290.3,330.4,290.3,330.4z"/>
<g>
	<g>
		<path fill="#2B3990" d="M365.5,291.5h-17.2v-32.8h10.2v22.7h7V291.5z"/>
		<path fill="#2B3990" d="M391.2,280.3h-14v1.1h10.1v10.2H367v-32.8h20.4v10.2h-10.1v1.1h14V280.3z"/>
		<path fill="#2B3990" d="M412.2,258.7l-9.1,9.1c-0.4,0.4-0.6,1-0.8,1.5v0.3c0,0.7,0.2,1.4,0.8,1.9l1.6,1.6c2.4,2.4,3.6,5.4,3.8,8.5
			v0.5c0,3.3-1.2,6.6-3.8,9.1l-0.1,0.1h-14.4l7.3-7.3c0.5-0.5,0.8-1.2,0.8-1.9v-0.3c0-0.6-0.3-1.2-0.8-1.5l-1.6-1.6
			c-2.5-2.5-3.8-5.8-3.8-9.1V269c0.1-3.1,1.4-6.2,3.7-8.5l1.8-1.8H412.2z"/>
		<path fill="#2B3990" d="M431.3,258.7l-9.1,9.1c-0.4,0.4-0.6,1-0.8,1.5v0.3c0,0.7,0.2,1.4,0.8,1.9l1.6,1.6c2.4,2.4,3.6,5.4,3.8,8.5
			v0.5c0,3.3-1.2,6.6-3.8,9.1l-0.1,0.1h-14.4l7.3-7.3c0.5-0.5,0.8-1.2,0.8-1.9v-0.3c0-0.6-0.3-1.2-0.8-1.5l-1.6-1.6
			c-2.5-2.5-3.8-5.8-3.8-9.1V269c0.1-3.1,1.4-6.2,3.7-8.5l1.8-1.8H431.3z"/>
		<path fill="#2B3990" d="M454.3,284.1c-3,3-6.6,4.5-10.9,4.5s-7.9-1.5-10.9-4.5s-4.5-6.6-4.5-10.9s1.5-7.9,4.5-10.9
			s6.6-4.5,10.9-4.5s7.9,1.5,10.9,4.5c3,3,4.6,6.6,4.6,10.9S457.3,281.1,454.3,284.1z M443.4,268c-2.9,0-5.2,2.4-5.2,5.2
			c0,2.9,2.3,5.2,5.2,5.2c2.9,0,5.2-2.4,5.2-5.2C448.6,270.3,446.2,268,443.4,268z"/>
		<path fill="#2B3990" d="M493.3,295.5l-22.9-18.1v14.1h-10.2v-35.1l22.8,18v-15.8h10.2V295.5z"/>
		<path fill="#2B3990" d="M515.4,258.7l-9.1,9.1c-0.4,0.4-0.6,1-0.8,1.5v0.3c0,0.7,0.2,1.4,0.8,1.9l1.6,1.6c2.4,2.4,3.6,5.4,3.8,8.5
			v0.5c0,3.3-1.2,6.6-3.8,9.1l-0.1,0.1h-14.4l7.3-7.3c0.5-0.5,0.8-1.2,0.8-1.9v-0.3c0-0.6-0.3-1.2-0.8-1.5l-1.6-1.6
			c-2.5-2.5-3.8-5.8-3.8-9.1V269c0.1-3.1,1.4-6.2,3.7-8.5l1.8-1.8H515.4z"/>
		<path fill="#2B3990" d="M324.6,336.5h-21.5v-41h12.7v28.3h8.8V336.5z"/>
		<path fill="#2B3990" d="M356.7,322.4h-17.5v1.4h12.7v12.7h-25.4v-41h25.4v12.8h-12.7v1.4h17.5V322.4z"/>
		<path fill="#2B3990" d="M352.5,336.5l26.1-45.3l26.1,45.3H352.5z M382.6,323.8l-4-6.9l-4,6.9H382.6z"/>
		<path fill="#2B3990" d="M450.2,334.4c-3.4,1.9-7,3.1-10.6,3.5c-1,0.2-2.1,0.2-3.1,0.2c-2.4,0-4.8-0.3-7.1-1l-0.1,0.1
			c-4.3-1.1-8.4-3.4-11.8-6.5h-0.1v5.9h-12.7v-41.1h20.2c4.9,0,9,1.7,12.4,5.2s5.2,7.6,5.2,12.5c0,4.8-1.9,9.1-5,12.3
			c2.2-0.2,4.3-0.8,6.3-1.9L450.2,334.4z M424.9,308.2h-7.5v9.7h7.5c2.6,0,4.9-2.2,4.9-4.9C429.8,310.4,427.6,308.2,424.9,308.2z"/>
		<path fill="#2B3990" d="M491.5,341.5L463,318.9v17.6h-12.8v-43.9l28.6,22.6v-19.7h12.8V341.5z"/>
		<path fill="#2B3990" d="M523.7,322.4h-17.5v1.4h12.7v12.7h-25.4v-41h25.4v12.8h-12.7v1.4h17.5V322.4z"/>
		<path fill="#2B3990" d="M556.7,330.5c-4,4-8.8,6-14.5,6h-16.7v-41h16.7c5.6,0,10.4,2,14.5,6.1c4,4,6.1,8.8,6.1,14.5
			C562.8,321.7,560.7,326.5,556.7,330.5z M550,316.1c0-2-0.7-3.8-2.2-5.4c-1.4-1.6-3.3-2.4-5.6-2.4h-4v15.5h1.3
			c2.9,0.1,5.9,0.1,8.3-2.3C549.4,319.9,550,318,550,316.1z"/>
	</g>
	<g>
		<circle fill="#2B3990" cx="533.9" cy="282" r="5.5"/>
	</g>
	<g>
		<circle fill="#2B3990" cx="325.9" cy="282" r="5.5"/>
	</g>
</g>
</svg>
