<?xml version="1.0" encoding="utf-8"?>
<!-- Generator: Adobe Illustrator 17.1.0, SVG Export Plug-In . SVG Version: 6.00 Build 0)  -->
<!DOCTYPE svg PUBLIC "-//W3C//DTD SVG 1.1//EN" "http://www.w3.org/Graphics/SVG/1.1/DTD/svg11.dtd">
<svg version="1.1" id="Layer_1" xmlns="http://www.w3.org/2000/svg" xmlns:xlink="http://www.w3.org/1999/xlink" x="0px" y="0px"
	 viewBox="0 0 841.9 595.3" enable-background="new 0 0 841.9 595.3" xml:space="preserve">
<ellipse fill="#5BCAEF" cx="417.3" cy="353.1" rx="178.9" ry="176"/>
<path fill="#2B3990" d="M318.9,595.3H541c-1.8-9.4-3-19.6-3-30.5c0-25.6,2.5-63.5,20.9-83.7c23-25.3,53.5-61.1,60.6-114.9
	c8.8-66.9-18.3-147.1-98.5-183c-63.4-28.4-175.3-28.4-234.3,25.4c-51.5,46.9-63.1,113.5-63.1,113.5s-5.3,24.7-5.3,33
	c0,7.9,8.8,10.9,7.8,15c-1,4-10.9,15.6-18.5,28.2c-7.6,12.6-26.9,40.7-26.9,48.2c0,7.6,4.5,10.4,13.6,13.4c9.1,3,16.1,5.5,17.7,9.1
	c1.5,3.5-4.3,13.6-4.6,20.8c-0.3,6.1,2,6.8,6.6,8.6c5.7,2.2,14.5,2.5,14.5,2.5s-19.5,3.7-17.6,11.7c2,8.3,13.8,10,14.8,16.5
	c0.5,3.3-9.9,20-8.6,36.4c1.8,21.3,22,30.8,54,25.7C299.6,586.5,314,582.2,318.9,595.3z M290.3,330.4c0,0-8.3,1.4-15.2-7.4
	c-4.9-6.2-8.5-21.4,0.5-39.2c8-15.9,22.1-21.4,22.1-21.4s-5.2-6.6,5.8-15.9c5.7-4.8,15.9-4.7,15.9-4.7s2.5-10.6,17.7-17.5
	c17.3-7.8,28.8-1.3,28.8-1.3s4.6-10.1,18-14.7c13.4-4.6,26.7,3.2,26.7,3.2s9-8.2,25.6-8.2c16.6,0,22.7,8.6,22.7,8.6s10-5.1,22.1-0.9
	c11.5,4,14.8,15.1,14.8,15.1s8.3-5.9,19.8-1.3c11.5,4.6,16.1,17,16.1,17s7.9-1.2,15.8,5.8c5.9,5.2,4,14.9,4,14.9s9.8,3.2,15.6,14.9
	c5.4,10.9-2.3,20.1-2.3,20.1s16.1,12,18.4,43.3c2.8,38.2-21.6,45.6-21.6,45.6s4.8,12.1-3.7,25.3c-11.6,18-35,7.4-35,7.4
	s-3.1,33.5-27.6,37.8c-21,3.7-35-16.6-35-16.6l-6.9,32.7h-14.7c0,0-13.4-49.3-22.6-57.6c-9.2-8.3-23.5-10.6-23.5-10.6
	s-19.3-1.4-31.8-13.8c-12.4-12.4-0.9-27.6-0.9-27.6s-15.7,0.9-47.4-6C280.6,350.6,290.3,330.4,290.3,330.4z"/>
<g>
	<g>
		<path fill="#2B3990" d="M365.5,291.5h-17.2v-32.8h10.2v22.7h7V291.5z"/>
		<path fill="#2B3990" d="M391.2,280.3h-14v1.1h10.1v10.2H367v-32.8h20.4v10.2h-10.1v1.1h14V280.3z"/>
		<path fill="#2B3990" d="M412.2,258.7l-9.1,9.1c-0.4,0.4-0.6,1-0.8,1.5v0.3c0,0.7,0.2,1.4,0.8,1.9l1.6,1.6c2.4,2.4,3.6,5.4,3.8,8.5
			v0.5c0,3.3-1.2,6.6-3.8,9.1l-0.1,0.1h-14.4l7.3-7.3c0.5-0.5,0.8-1.2,0.8-1.9v-0.3c0-0.6-0.3-1.2-0.8-1.5l-1.6-1.6
			c-2.5-2.5-3.8-5.8-3.8-9.1V269c0.1-3.1,1.4-6.2,3.7-8.5l1.8-1.8H412.2z"/>
		<path fill="#2B3990" d="M431.3,258.7l-9.1,9.1c-0.4,0.4-0.6,1-0.8,1.5v0.3c0,0.7,0.2,1.4,0.8,1.9l1.6,1.6c2.4,2.4,3.6,5.4,3.8,8.5
			v0.5c0,3.3-1.2,6.6-3.8,9.1l-0.1,0.1h-14.4l7.3-7.3c0.5-0.5,0.8-1.2,0.8-1.9v-0.3c0-0.6-0.3-1.2-0.8-1.5l-1.6-1.6
			c-2.5-2.5-3.8-5.8-3.8-9.1V269c0.1-3.1,1.4-6.2,3.7-8.5l1.8-1.8H431.3z"/>
		<path fill="#2B3990" d="M454.3,284.1c-3,3-6.6,4.5-10.9,4.5s-7.9-1.5-10.9-4.5s-4.5-6.6-4.5-10.9s1.5-7.9,4.5-10.9
			s6.6-4.5,10.9-4.5s7.9,1.5,10.9,4.5c3,3,4.6,6.6,4.6,10.9S457.3,281.1,454.3,284.1z M443.4,268c-2.9,0-5.2,2.4-5.2,5.2
			c0,2.9,2.3,5.2,5.2,5.2c2.9,0,5.2-2.4,5.2-5.2C448.6,270.3,446.2,268,443.4,268z"/>
		<path fill="#2B3990" d="M493.3,295.5l-22.9-18.1v14.1h-10.2v-35.1l22.8,18v-15.8h10.2V295.5z"/>
		<path fill="#2B3990" d="M515.4,258.7l-9.1,9.1c-0.4,0.4-0.6,1-0.8,1.5v0.3c0,0.7,0.2,1.4,0.8,1.9l1.6,1.6c2.4,2.4,3.6,5.4,3.8,8.5
			v0.5c0,3.3-1.2,6.6-3.8,9.1l-0.1,0.1h-14.4l7.3-7.3c0.5-0.5,0.8-1.2,0.8-1.9v-0.3c0-0.6-0.3-1.2-0.8-1.5l-1.6-1.6
			c-2.5-2.5-3.8-5.8-3.8-9.1V269c0.1-3.1,1.4-6.2,3.7-8.5l1.8-1.8H515.4z"/>
		<path fill="#2B3990" d="M324.6,336.5h-21.5v-41h12.7v28.3h8.8V336.5z"/>
		<path fill="#2B3990" d="M356.7,322.4h-17.5v1.4h12.7v12.7h-25.4v-41h25.4v12.8h-12.7v1.4h17.5V322.4z"/>
		<path fill="#2B3990" d="M352.5,336.5l26.1-45.3l26.1,45.3H352.5z M382.6,323.8l-4-6.9l-4,6.9H382.6z"/>
		<path fill="#2B3990" d="M450.2,334.4c-3.4,1.9-7,3.1-10.6,3.5c-1,0.2-2.1,0.2-3.1,0.2c-2.4,0-4.8-0.3-7.1-1l-0.1,0.1
			c-4.3-1.1-8.4-3.4-11.8-6.5h-0.1v5.9h-12.7v-41.1h20.2c4.9,0,9,1.7,12.4,5.2s5.2,7.6,5.2,12.5c0,4.8-1.9,9.1-5,12.3
			c2.2-0.2,4.3-0.8,6.3-1.9L450.2,334.4z M424.9,308.2h-7.5v9.7h7.5c2.6,0,4.9-2.2,4.9-4.9C429.8,310.4,427.6,308.2,424.9,308.2z"/>
		<path fill="#2B3990" d="M491.5,341.5L463,318.9v17.6h-12.8v-43.9l28.6,22.6v-19.7h12.8V341.5z"/>
		<path fill="#2B3990" d="M523.7,322.4h-17.5v1.4h12.7v12.7h-25.4v-41h25.4v12.8h-12.7v1.4h17.5V322.4z"/>
		<path fill="#2B3990" d="M556.7,330.5c-4,4-8.8,6-14.5,6h-16.7v-41h16.7c5.6,0,10.4,2,14.5,6.1c4,4,6.1,8.8,6.1,14.5
			C562.8,321.7,560.7,326.5,556.7,330.5z M550,316.1c0-2-0.7-3.8-2.2-5.4c-1.4-1.6-3.3-2.4-5.6-2.4h-4v15.5h1.3
			c2.9,0.1,5.9,0.1,8.3-2.3C549.4,319.9,550,318,550,316.1z"/>
	</g>
	<g>
		<circle fill="#2B3990" cx="533.9" cy="282" r="5.5"/>
	</g>
	<g>
		<circle fill="#2B3990" cx="325.9" cy="282" r="5.5"/>
	</g>
</g>
<g>
	<g>
		<path fill="#414042" d="M648.7,45.6h-74.4c-3.4,0-6.2,2.8-6.2,6.2v86.8c0,3.4,2.8,6.2,6.2,6.2h55.8l24.8-24.8V51.8
			C654.9,48.4,652.2,45.6,648.7,45.6z M630.1,136.1v-16h16L630.1,136.1z M648.7,113.8h-18.6c-3.4,0-6.2,2.8-6.2,6.2v18.6h-49.6V51.8
			h74.4V113.8z"/>
		<g>
			<path fill="#414042" d="M607.3,70.1c0-1.7,1.4-3.1,3.1-3.1h29.9c1.7,0,3.1,1.4,3.1,3.1c0,1.7-1.4,3.1-3.1,3.1h-29.9
				C608.7,73.2,607.3,71.8,607.3,70.1z"/>
			<g>
				<path fill="#414042" d="M589.2,74.9c0,0,0-5.5-5.3-6.9l4-2.5l3.4,4.2c0,0,8-7.4,10.7-7.6c0,0,2.5,0.6,3.4,2.7
					C605.4,64.8,595.9,67.4,589.2,74.9z"/>
				<path fill="#414042" d="M598.1,62.3V61h-18.3v18.3h18.3v-9.5c-1,0.6-2,1.3-3.1,2v4.5h-12.2V64H595v0.5
					C596,63.8,597.1,63,598.1,62.3z"/>
			</g>
		</g>
		<g>
			<path fill="#414042" d="M607.3,94.7c0-1.7,1.4-3.1,3.1-3.1h29.9c1.7,0,3.1,1.4,3.1,3.1c0,1.7-1.4,3.1-3.1,3.1h-29.9
				C608.7,97.8,607.3,96.4,607.3,94.7z"/>
			<g>
				<path fill="#414042" d="M589.2,99.4c0,0,0-5.5-5.3-6.9l4-2.5l3.4,4.2c0,0,8-7.4,10.7-7.6c0,0,2.5,0.6,3.4,2.7
					C605.4,89.3,595.9,92,589.2,99.4z"/>
				<path fill="#414042" d="M598.1,86.9v-1.4h-18.3v18.3h18.3v-9.5c-1,0.6-2,1.3-3.1,2v4.5h-12.2V88.6H595v0.5
					C596,88.3,597.1,87.5,598.1,86.9z"/>
			</g>
		</g>
		<path fill="#414042" d="M589.2,124c0,0,0-5.5-5.3-6.9l4-2.5l3.4,4.2c0,0,8-7.4,10.7-7.6c0,0,2.5,0.6,3.4,2.7
			C605.4,113.9,595.9,116.5,589.2,124z"/>
		<path fill="#414042" d="M598.1,111.4v-1.4h-18.3v18.3h18.3v-9.5c-1,0.6-2,1.3-3.1,2v4.5h-12.2v-12.2H595v0.5
			C596,112.8,597.1,112.1,598.1,111.4z"/>
		<path fill="#414042" d="M622.6,116.1h-12.2c-1.7,0-3.1,1.4-3.1,3.1c0,1.7,1.4,3.1,3.1,3.1h11.3V120
			C621.7,118.6,622,117.3,622.6,116.1z"/>
	</g>
	<g>
		<path d="M582.2,159c0,1.2-0.4,2.2-1.3,2.9s-2,1-3.6,1h-2v5.3h-0.9v-12.8h3.1C580.7,155.3,582.2,156.5,582.2,159z M575.4,162.1h1.8
			c1.4,0,2.5-0.2,3.1-0.7s1-1.3,1-2.3c0-1-0.3-1.7-0.9-2.2s-1.6-0.7-2.8-0.7h-2.1V162.1z"/>
		<path d="M588.5,158.4c0.4,0,0.8,0,1.3,0.1l-0.2,0.8c-0.4-0.1-0.8-0.1-1.2-0.1c-0.8,0-1.5,0.3-2,1s-0.8,1.6-0.8,2.6v5.3h-0.9v-9.6
			h0.7l0.1,1.7h0.1c0.4-0.7,0.8-1.2,1.3-1.5S587.9,158.4,588.5,158.4z"/>
		<path d="M591.7,156c0-0.6,0.2-0.8,0.6-0.8c0.2,0,0.3,0.1,0.4,0.2c0.1,0.1,0.2,0.4,0.2,0.6c0,0.3-0.1,0.5-0.2,0.6
			c-0.1,0.2-0.2,0.2-0.4,0.2C591.8,156.8,591.7,156.5,591.7,156z M592.6,168.2h-0.9v-9.6h0.9V168.2z"/>
		<path d="M603.7,163.4c0,1.6-0.4,2.8-1.1,3.7s-1.8,1.3-3.1,1.3c-0.8,0-1.6-0.2-2.2-0.6s-1.1-1-1.5-1.7s-0.5-1.6-0.5-2.6
			c0-1.6,0.4-2.8,1.1-3.6s1.8-1.3,3.1-1.3c1.3,0,2.3,0.4,3.1,1.3C603.4,160.6,603.7,161.8,603.7,163.4z M596.2,163.4
			c0,1.3,0.3,2.3,0.9,3.1c0.6,0.7,1.4,1.1,2.4,1.1s1.9-0.4,2.4-1.1s0.9-1.8,0.9-3.1c0-1.3-0.3-2.3-0.9-3.1c-0.6-0.7-1.4-1.1-2.5-1.1
			s-1.9,0.4-2.4,1.1C596.5,161,596.2,162.1,596.2,163.4z"/>
		<path d="M610.2,158.4c0.4,0,0.8,0,1.3,0.1l-0.2,0.8c-0.4-0.1-0.8-0.1-1.2-0.1c-0.8,0-1.5,0.3-2,1s-0.8,1.6-0.8,2.6v5.3h-0.9v-9.6
			h0.7l0.1,1.7h0.1c0.4-0.7,0.8-1.2,1.3-1.5S609.5,158.4,610.2,158.4z"/>
		<path d="M613.3,156c0-0.6,0.2-0.8,0.6-0.8c0.2,0,0.3,0.1,0.4,0.2c0.1,0.1,0.2,0.4,0.2,0.6c0,0.3-0.1,0.5-0.2,0.6
			c-0.1,0.2-0.2,0.2-0.4,0.2C613.5,156.8,613.3,156.5,613.3,156z M614.3,168.2h-0.9v-9.6h0.9V168.2z"/>
		<path d="M620,167.6c0.6,0,1,0,1.4-0.1v0.7c-0.4,0.1-0.9,0.2-1.5,0.2c-0.8,0-1.5-0.2-1.9-0.7s-0.6-1.2-0.6-2.1v-6.2h-1.4v-0.5
			l1.4-0.4l0.4-2.2h0.4v2.3h2.8v0.8h-2.8v6c0,0.7,0.1,1.3,0.4,1.6S619.4,167.6,620,167.6z"/>
		<path d="M623.4,156c0-0.6,0.2-0.8,0.6-0.8c0.2,0,0.3,0.1,0.4,0.2c0.1,0.1,0.2,0.4,0.2,0.6c0,0.3-0.1,0.5-0.2,0.6
			c-0.1,0.2-0.2,0.2-0.4,0.2C623.6,156.8,623.4,156.5,623.4,156z M624.4,168.2h-0.9v-9.6h0.9V168.2z"/>
		<path d="M633.5,165.7c0,0.9-0.3,1.5-1,2s-1.6,0.7-2.8,0.7c-1.3,0-2.3-0.2-3-0.6v-0.9c1,0.5,2,0.7,3,0.7c0.9,0,1.7-0.2,2.1-0.5
			s0.7-0.7,0.7-1.3c0-0.5-0.2-0.9-0.6-1.2c-0.4-0.3-1-0.7-1.9-1c-1-0.3-1.6-0.6-2-0.9s-0.7-0.5-0.9-0.8s-0.3-0.7-0.3-1.1
			c0-0.7,0.3-1.3,0.9-1.7c0.6-0.4,1.4-0.6,2.5-0.6c1,0,2,0.2,2.9,0.6l-0.3,0.8c-0.9-0.4-1.8-0.6-2.6-0.6c-0.8,0-1.4,0.1-1.9,0.4
			s-0.7,0.6-0.7,1.1c0,0.5,0.2,0.9,0.5,1.2c0.4,0.3,1,0.6,2.1,1c0.9,0.3,1.5,0.6,1.9,0.8s0.7,0.5,0.9,0.8S633.5,165.3,633.5,165.7z"
			/>
		<path d="M639.8,168.3c-1.4,0-2.5-0.4-3.2-1.3c-0.8-0.9-1.2-2.1-1.2-3.6c0-1.5,0.4-2.7,1.1-3.7s1.8-1.4,3-1.4c1.1,0,2,0.4,2.7,1.2
			s1,1.9,1,3.2v0.7h-6.9c0,1.3,0.3,2.3,0.9,3c0.6,0.7,1.5,1,2.6,1c0.5,0,1,0,1.4-0.1c0.4-0.1,0.9-0.2,1.6-0.5v0.8
			c-0.5,0.2-1,0.4-1.5,0.5S640.4,168.3,639.8,168.3z M639.6,159.2c-0.9,0-1.7,0.3-2.2,0.9s-0.9,1.5-1,2.6h5.9c0-1.1-0.2-2-0.7-2.6
			S640.4,159.2,639.6,159.2z"/>
		<path d="M576,189.8h-0.9v-12.8h7v0.8H576v5.4h5.8v0.8H576V189.8z"/>
		<path d="M587.7,189.9c-1.4,0-2.5-0.4-3.2-1.3c-0.8-0.9-1.2-2.1-1.2-3.6c0-1.5,0.4-2.7,1.1-3.7c0.8-0.9,1.8-1.4,3-1.4
			c1.1,0,2,0.4,2.7,1.2s1,1.9,1,3.2v0.7h-6.9c0,1.3,0.3,2.3,0.9,3c0.6,0.7,1.5,1,2.6,1c0.5,0,1,0,1.4-0.1c0.4-0.1,0.9-0.2,1.6-0.5
			v0.8c-0.5,0.2-1,0.4-1.5,0.5C588.8,189.9,588.3,189.9,587.7,189.9z M587.5,180.8c-0.9,0-1.7,0.3-2.2,0.9c-0.6,0.6-0.9,1.5-1,2.6
			h5.9c0-1.1-0.2-2-0.7-2.6C589,181.1,588.3,180.8,587.5,180.8z"/>
		<path d="M599.6,189.8l-0.2-1.5h-0.1c-0.5,0.6-1,1.1-1.5,1.3c-0.5,0.3-1.1,0.4-1.8,0.4c-0.9,0-1.7-0.2-2.2-0.7s-0.8-1.1-0.8-2
			c0-0.9,0.4-1.7,1.2-2.2s1.9-0.8,3.4-0.8l1.8-0.1v-0.6c0-0.9-0.2-1.6-0.6-2.1s-1-0.7-1.8-0.7c-0.9,0-1.8,0.2-2.8,0.7l-0.3-0.8
			c1-0.5,2.1-0.7,3.1-0.7c1,0,1.8,0.3,2.4,0.8c0.5,0.5,0.8,1.4,0.8,2.5v6.4H599.6z M596.1,189.2c1,0,1.8-0.3,2.4-0.9
			c0.6-0.6,0.9-1.4,0.9-2.4v-0.9l-1.7,0.1c-1.3,0.1-2.3,0.3-2.9,0.6c-0.6,0.4-0.9,0.9-0.9,1.7c0,0.6,0.2,1.1,0.5,1.4
			C594.9,189,595.4,189.2,596.1,189.2z"/>
		<path d="M605.8,189.2c0.6,0,1,0,1.4-0.1v0.7c-0.4,0.1-0.9,0.2-1.5,0.2c-0.8,0-1.5-0.2-1.9-0.7s-0.6-1.2-0.6-2.1V181h-1.4v-0.5
			l1.4-0.4l0.4-2.2h0.4v2.3h2.8v0.8h-2.8v6c0,0.7,0.1,1.3,0.4,1.6S605.3,189.2,605.8,189.2z"/>
		<path d="M610.1,180.2v6.2c0,1,0.2,1.7,0.6,2.1s1,0.7,1.9,0.7c1.1,0,2-0.3,2.5-0.9c0.5-0.6,0.8-1.5,0.8-2.8v-5.3h0.9v9.6H616
			l-0.2-1.3h-0.1c-0.6,1-1.7,1.5-3.3,1.5c-2.2,0-3.3-1.2-3.3-3.5v-6.2H610.1z"/>
		<path d="M623.7,180c0.4,0,0.8,0,1.3,0.1l-0.2,0.8c-0.4-0.1-0.8-0.1-1.2-0.1c-0.8,0-1.5,0.3-2,1s-0.8,1.6-0.8,2.6v5.3h-0.9v-9.6
			h0.7l0.1,1.7h0.1c0.4-0.7,0.8-1.2,1.3-1.5C622.5,180.2,623.1,180,623.7,180z"/>
		<path d="M630.8,189.9c-1.4,0-2.5-0.4-3.2-1.3c-0.8-0.9-1.2-2.1-1.2-3.6c0-1.5,0.4-2.7,1.1-3.7c0.8-0.9,1.8-1.4,3-1.4
			c1.1,0,2,0.4,2.7,1.2s1,1.9,1,3.2v0.7h-6.9c0,1.3,0.3,2.3,0.9,3c0.6,0.7,1.5,1,2.6,1c0.5,0,1,0,1.4-0.1c0.4-0.1,0.9-0.2,1.6-0.5
			v0.8c-0.5,0.2-1,0.4-1.5,0.5C631.9,189.9,631.4,189.9,630.8,189.9z M630.6,180.8c-0.9,0-1.7,0.3-2.2,0.9c-0.6,0.6-0.9,1.5-1,2.6
			h5.9c0-1.1-0.2-2-0.7-2.6C632.1,181.1,631.4,180.8,630.6,180.8z"/>
		<path d="M642.8,187.3c0,0.9-0.3,1.5-1,2s-1.6,0.7-2.8,0.7c-1.3,0-2.3-0.2-3-0.6v-0.9c1,0.5,2,0.7,3,0.7c0.9,0,1.7-0.2,2.1-0.5
			c0.5-0.3,0.7-0.7,0.7-1.3c0-0.5-0.2-0.9-0.6-1.2c-0.4-0.3-1-0.7-1.9-1c-1-0.3-1.6-0.6-2-0.9c-0.4-0.2-0.7-0.5-0.9-0.8
			c-0.2-0.3-0.3-0.7-0.3-1.1c0-0.7,0.3-1.3,0.9-1.7c0.6-0.4,1.4-0.6,2.5-0.6c1,0,2,0.2,2.9,0.6l-0.3,0.8c-0.9-0.4-1.8-0.6-2.6-0.6
			c-0.8,0-1.4,0.1-1.9,0.4s-0.7,0.6-0.7,1.1c0,0.5,0.2,0.9,0.5,1.2c0.4,0.3,1,0.6,2.1,1c0.9,0.3,1.5,0.6,1.9,0.8s0.7,0.5,0.9,0.8
			S642.8,186.9,642.8,187.3z"/>
	</g>
</g>
<g>
	<g>
		<g>
			<g>
				<path fill="#414042" d="M129.7,157.3l-14-3.5c-1-0.3-2.1,0.4-2.3,1.4l-3.5,14c-0.3,1,0.4,2.1,1.4,2.3c0.2,0,0.3,0.1,0.5,0.1
					c0.9,0,1.7-0.6,1.9-1.5l2.3-9.5l1.1,1.8c3.5,5.8,4.5,12.6,2.9,19.2c-1.6,6.6-5.7,12.1-11.5,15.6c-0.9,0.6-1.9,1.1-2.9,1.5
					c-1.5-2.7-4.1-4.7-7.3-5.4c-0.7-0.2-1.5-0.2-2.2-0.2c-5.1,0-9.6,3.6-10.6,8.6c-0.6,2.8,0,5.8,1.5,8.2c1.6,2.4,4,4.1,6.9,4.7
					c0.7,0.2,1.5,0.2,2.2,0.2c5.1,0,9.6-3.6,10.6-8.6c0.3-1.3,0.3-2.6,0.1-3.8c1.3-0.5,2.5-1.2,3.7-1.9c6.7-4,11.4-10.4,13.3-18
					c1.9-7.6,0.7-15.4-3.3-22.1l-1.1-1.8l9.5,2.3c1,0.3,2.1-0.4,2.3-1.4C131.4,158.6,130.8,157.6,129.7,157.3z M102.9,205.5
					c-0.7,3.2-3.6,5.6-6.9,5.6c-0.5,0-1,0-1.5-0.1c-1.8-0.4-3.4-1.5-4.4-3c-1-1.6-1.4-3.5-1-5.3c0.7-3.2,3.6-5.6,6.9-5.6
					c0.5,0,1,0,1.5,0.1C101.3,198,103.7,201.7,102.9,205.5z"/>
			</g>
		</g>
		<g>
			<path fill="#414042" d="M142.6,201c0.8,0.7,0.8,2,0,2.7c-0.4,0.4-0.9,0.6-1.4,0.6c-0.5,0-1-0.2-1.4-0.6l-4.6-4.6l-4.6,4.6
				c-0.4,0.4-0.9,0.6-1.4,0.6c-0.5,0-1-0.2-1.4-0.6c-0.8-0.7-0.8-2,0-2.7l4.6-4.6l-4.6-4.6c-0.8-0.7-0.8-2,0-2.7
				c0.7-0.8,2-0.8,2.7,0l4.6,4.6l4.6-4.6c0.7-0.8,2-0.8,2.7,0c0.8,0.7,0.8,2,0,2.7l-4.6,4.6L142.6,201z"/>
			<path fill="#414042" d="M102.5,172.6c0.8,0.7,0.8,2,0,2.7c-0.4,0.4-0.9,0.6-1.4,0.6s-1-0.2-1.4-0.6l-4.6-4.6l-4.6,4.6
				c-0.4,0.4-0.9,0.6-1.4,0.6c-0.5,0-1-0.2-1.4-0.6c-0.7-0.7-0.7-2,0-2.7l4.6-4.6l-4.6-4.6c-0.7-0.7-0.7-2,0-2.7
				c0.8-0.8,2-0.8,2.7,0l4.6,4.6l4.6-4.6c0.8-0.8,2-0.8,2.7,0c0.8,0.7,0.8,2,0,2.7l-4.6,4.6L102.5,172.6z"/>
			<path fill="#414042" d="M80.4,191.5c0.7,0.7,0.7,2,0,2.7c-0.4,0.4-0.9,0.6-1.4,0.6c-0.5,0-1-0.2-1.4-0.6l-4.6-4.6l-4.6,4.6
				c-0.4,0.4-0.9,0.6-1.4,0.6s-1-0.2-1.4-0.6c-0.8-0.7-0.8-2,0-2.7l4.6-4.6l-4.6-4.6c-0.8-0.7-0.8-2,0-2.7c0.8-0.8,2-0.8,2.7,0
				l4.6,4.6l4.6-4.6c0.8-0.8,2-0.8,2.7,0c0.7,0.7,0.7,2,0,2.7l-4.6,4.6L80.4,191.5z"/>
		</g>
		<g>
			<path fill="#414042" d="M164.5,142H42c-1.1,0-1.9,0.9-1.9,1.9v79.7c0,1.1,0.9,1.9,1.9,1.9h59.3v11.8H75.8c-1.1,0-1.9,0.9-1.9,1.9
				s0.9,1.9,1.9,1.9h55.1c1.1,0,1.9-0.9,1.9-1.9c0-1.1-0.9-1.9-1.9-1.9h-25.6v-11.8h59.3c1.1,0,1.9-0.9,1.9-1.9v-79.7
				C166.5,142.9,165.6,142,164.5,142z M162.6,221.7H44v-75.8h118.6V221.7z"/>
		</g>
	</g>
	<g>
		<path d="M59.6,265.4h-0.9v-12h-4.2v-0.8h9.3v0.8h-4.2V265.4z"/>
		<path d="M69.3,265.6c-1.4,0-2.5-0.4-3.2-1.3c-0.8-0.9-1.2-2.1-1.2-3.6c0-1.5,0.4-2.7,1.1-3.7s1.8-1.4,3-1.4c1.1,0,2,0.4,2.7,1.2
			s1,1.9,1,3.2v0.7h-6.9c0,1.3,0.3,2.3,0.9,3c0.6,0.7,1.5,1,2.6,1c0.5,0,1,0,1.4-0.1c0.4-0.1,0.9-0.2,1.6-0.5v0.8
			c-0.5,0.2-1,0.4-1.5,0.5S69.9,265.6,69.3,265.6z M69.1,256.4c-0.9,0-1.7,0.3-2.2,0.9s-0.9,1.5-1,2.6h5.9c0-1.1-0.2-2-0.7-2.6
			S69.9,256.4,69.1,256.4z"/>
		<path d="M81.3,262.9c0,0.9-0.3,1.5-1,2s-1.6,0.7-2.8,0.7c-1.3,0-2.3-0.2-3-0.6V264c1,0.5,2,0.7,3,0.7c0.9,0,1.7-0.2,2.1-0.5
			s0.7-0.7,0.7-1.3c0-0.5-0.2-0.9-0.6-1.2c-0.4-0.3-1-0.7-1.9-1c-1-0.3-1.6-0.6-2-0.9s-0.7-0.5-0.9-0.8s-0.3-0.7-0.3-1.1
			c0-0.7,0.3-1.3,0.9-1.7c0.6-0.4,1.4-0.6,2.5-0.6c1,0,2,0.2,2.9,0.6l-0.3,0.8c-0.9-0.4-1.8-0.6-2.6-0.6c-0.8,0-1.4,0.1-1.9,0.4
			s-0.7,0.6-0.7,1.1c0,0.5,0.2,0.9,0.5,1.2c0.4,0.3,1,0.6,2.1,1c0.9,0.3,1.5,0.6,1.9,0.8s0.7,0.5,0.9,0.8S81.3,262.5,81.3,262.9z"/>
		<path d="M86.3,264.8c0.6,0,1,0,1.4-0.1v0.7c-0.4,0.1-0.9,0.2-1.5,0.2c-0.8,0-1.5-0.2-1.9-0.7s-0.6-1.2-0.6-2.1v-6.2h-1.4v-0.5
			l1.4-0.4l0.4-2.2h0.4v2.3h2.8v0.8h-2.8v6c0,0.7,0.1,1.3,0.4,1.6S85.7,264.8,86.3,264.8z"/>
		<path d="M89.6,253.2c0-0.6,0.2-0.8,0.6-0.8c0.2,0,0.3,0.1,0.4,0.2c0.1,0.1,0.2,0.4,0.2,0.6c0,0.3-0.1,0.5-0.2,0.6
			c-0.1,0.2-0.2,0.2-0.4,0.2C89.8,254,89.6,253.7,89.6,253.2z M90.6,265.4h-0.9v-9.6h0.9V265.4z"/>
		<path d="M100.5,265.4v-6.2c0-1-0.2-1.7-0.6-2.1s-1-0.7-1.9-0.7c-1.1,0-2,0.3-2.5,0.9c-0.5,0.6-0.8,1.5-0.8,2.8v5.3h-0.9v-9.6h0.7
			l0.2,1.3h0.1c0.6-1,1.7-1.5,3.3-1.5c2.2,0,3.3,1.2,3.3,3.5v6.2H100.5z"/>
		<path d="M111.9,255.8v0.6l-2,0.1c0.5,0.7,0.8,1.4,0.8,2.2c0,0.9-0.3,1.7-0.9,2.2s-1.4,0.9-2.5,0.9c-0.4,0-0.7,0-0.9-0.1
			c-0.3,0.2-0.6,0.4-0.8,0.6s-0.3,0.5-0.3,0.8c0,0.3,0.1,0.5,0.3,0.7s0.6,0.2,1.2,0.2h1.7c1,0,1.8,0.2,2.4,0.6s0.8,1,0.8,1.9
			c0,1-0.4,1.8-1.2,2.3c-0.8,0.5-2,0.8-3.5,0.8c-1.2,0-2.1-0.2-2.8-0.7c-0.7-0.5-1-1.1-1-1.9c0-0.7,0.2-1.2,0.6-1.6s1-0.7,1.7-0.9
			c-0.3-0.1-0.5-0.3-0.7-0.5s-0.3-0.5-0.3-0.8c0-0.6,0.4-1.2,1.2-1.7c-0.6-0.2-1-0.6-1.3-1.1s-0.5-1.1-0.5-1.7c0-1,0.3-1.7,0.9-2.3
			c0.6-0.6,1.4-0.9,2.5-0.9c0.6,0,1.1,0.1,1.5,0.2H111.9z M104.2,267c0,1.3,1,2,2.9,2c2.5,0,3.8-0.8,3.8-2.4c0-0.6-0.2-1-0.6-1.2
			s-1-0.4-1.9-0.4h-1.6C105,264.9,104.2,265.6,104.2,267z M104.9,258.8c0,0.7,0.2,1.3,0.7,1.7c0.4,0.4,1,0.6,1.8,0.6
			c0.8,0,1.4-0.2,1.8-0.6s0.6-1,0.6-1.8c0-0.8-0.2-1.4-0.7-1.8s-1-0.6-1.8-0.6c-0.8,0-1.4,0.2-1.8,0.7
			C105.1,257.4,104.9,258,104.9,258.8z"/>
		<path d="M126.5,256.2c0,1.2-0.4,2.2-1.3,2.9s-2,1-3.6,1h-2v5.3h-0.9v-12.8h3.1C125,252.5,126.5,253.8,126.5,256.2z M119.6,259.3
			h1.8c1.4,0,2.5-0.2,3.1-0.7s1-1.3,1-2.3c0-1-0.3-1.7-0.9-2.2s-1.6-0.7-2.8-0.7h-2.1V259.3z"/>
		<path d="M129.9,265.4h-0.9v-13.7h0.9V265.4z"/>
		<path d="M138.9,265.4l-0.2-1.5h-0.1c-0.5,0.6-1,1.1-1.5,1.3s-1.1,0.4-1.8,0.4c-0.9,0-1.7-0.2-2.2-0.7s-0.8-1.1-0.8-2
			c0-0.9,0.4-1.7,1.2-2.2s1.9-0.8,3.4-0.8l1.8-0.1v-0.6c0-0.9-0.2-1.6-0.6-2.1s-1-0.7-1.8-0.7c-0.9,0-1.8,0.2-2.8,0.7l-0.3-0.8
			c1-0.5,2.1-0.7,3.1-0.7c1,0,1.8,0.3,2.4,0.8c0.5,0.5,0.8,1.4,0.8,2.5v6.4H138.9z M135.4,264.8c1,0,1.8-0.3,2.4-0.9
			c0.6-0.6,0.9-1.4,0.9-2.4v-0.9l-1.7,0.1c-1.3,0.1-2.3,0.3-2.9,0.6c-0.6,0.4-0.9,0.9-0.9,1.7c0,0.6,0.2,1.1,0.5,1.4
			C134.2,264.6,134.7,264.8,135.4,264.8z"/>
		<path d="M149.3,265.4v-6.2c0-1-0.2-1.7-0.6-2.1s-1-0.7-1.9-0.7c-1.1,0-2,0.3-2.5,0.9c-0.5,0.6-0.8,1.5-0.8,2.8v5.3h-0.9v-9.6h0.7
			l0.2,1.3h0.1c0.6-1,1.7-1.5,3.3-1.5c2.2,0,3.3,1.2,3.3,3.5v6.2H149.3z"/>
	</g>
</g>
<g>
	<g>
		<path fill="#414042" d="M486.5,93.4V12.3c0-2.8-2.3-5.1-5.1-5.1c-2.8,0-5.1,2.3-5.1,5.1v2.5c0-0.2-0.2-0.2-0.2-0.3
			c-0.8-0.7-1.8-1.2-2.8-1.2c-1.2,0-2.3,0.5-3.2,1.3c-1.3,1.5-1.5,3.5-0.5,5.1l-0.5,0.7l0,0c-2.5-1.5-5.8-0.8-7.5,1.7
			c-0.8,1.2-1.7,2.3-2.8,3.3l7.8,8.1c1.7-1.7,3.2-3.3,4.3-5.1c1.3-2,1.2-4.6-0.2-6.6l0,0l0.5-0.7c0.7,0.3,1.3,0.5,2,0.5
			c1.2,0,2.3-0.5,3.2-1.3l0,0v72.8c-4.6,0.3-9.1,1.7-9.1,6.3c0,6.5,8.6,6.5,14.3,6.5s14.3,0,14.3-6.5
			C495.7,95.1,491.2,93.8,486.5,93.4z M474.6,19.1c-0.5,0.5-1.2,0.7-1.8,0.5c0.2-0.5,0.2-1-0.2-1.3c-0.3-0.3-1-0.3-1.3-0.2
			c-0.2-0.7,0-1.3,0.5-1.8c0.3-0.3,0.8-0.7,1.5-0.7c0.5,0,1,0.2,1.3,0.5c0.3,0.3,0.7,0.8,0.7,1.3C475.3,18.1,474.9,18.6,474.6,19.1z
			"/>
		<path fill="#414042" d="M420.8,39.4L420.8,39.4c-1,0-2,0-3.2,0c-1,0-2,0-3.2,0l0,0c-14.8-0.5-28.2-5.1-36.2-12.1l-7.8,8.1
			c10.6,9.5,27.9,15.3,46.6,15.3c0.2,0,0.3,0,0.5,0s0.3,0,0.5,0c18.7,0,36-5.8,46.6-15.3l-7.8-8.1C449.1,34.2,435.6,38.9,420.8,39.4
			z"/>
		<path fill="#414042" d="M364.8,28.6c1.2,1.8,2.7,3.5,4.3,5.1l7.8-8.1c-1-1-2-2.2-2.8-3.3c-1.7-2.5-5-3.2-7.5-1.7l0,0l-0.5-0.7
			c1-1.7,0.8-3.6-0.5-5.1c-0.8-0.8-2-1.3-3.2-1.3c-1,0-2.2,0.3-2.8,1.2c-0.2,0.2-0.2,0.2-0.2,0.3v-2.5c0-2.8-2.3-5.1-5.1-5.1
			c-2.8,0-5.1,2.3-5.1,5.1v81.1c-4.6,0.3-9.1,1.7-9.1,6.3c0,6.5,8.6,6.5,14.3,6.5c5.6,0,14.3,0,14.3-6.5c0-4.6-4.5-6-9.1-6.3v-73
			l0,0c0.8,0.8,2,1.3,3.2,1.3c0.7,0,1.3-0.2,2-0.5l0.5,0.7l0,0C363.6,23.9,363.4,26.6,364.8,28.6z M364.3,18.1
			c-0.5-0.3-1-0.2-1.3,0.2s-0.5,0.8-0.2,1.3c-0.7,0.2-1.3-0.2-1.8-0.5c-0.3-0.3-0.5-0.8-0.5-1.3s0.2-1,0.7-1.3
			c0.3-0.3,0.8-0.5,1.3-0.5c0.5,0,1,0.2,1.5,0.7C364.3,17,364.4,17.6,364.3,18.1z"/>
	</g>
	<g>
		<path d="M373.5,112.9c-1.6,0-2.9,0.5-3.8,1.5s-1.4,2.4-1.4,4.2c0,1.8,0.4,3.3,1.3,4.3s2.1,1.5,3.7,1.5c1.1,0,2.1-0.1,3-0.4v0.8
			c-0.8,0.3-1.9,0.4-3.2,0.4c-1.8,0-3.2-0.6-4.3-1.7s-1.6-2.8-1.6-4.9c0-1.3,0.2-2.5,0.7-3.5c0.5-1,1.2-1.8,2.1-2.3s2-0.8,3.2-0.8
			c1.3,0,2.4,0.2,3.4,0.7l-0.4,0.8C375.5,113.1,374.6,112.9,373.5,112.9z"/>
		<path d="M379.9,125.1H379v-13.7h0.9V125.1z"/>
		<path d="M386.9,125.3c-1.4,0-2.5-0.4-3.2-1.3c-0.8-0.9-1.2-2.1-1.2-3.6c0-1.5,0.4-2.7,1.1-3.7s1.8-1.4,3-1.4c1.1,0,2,0.4,2.7,1.2
			s1,1.9,1,3.2v0.7h-6.9c0,1.3,0.3,2.3,0.9,3c0.6,0.7,1.5,1,2.6,1c0.5,0,1,0,1.4-0.1c0.4-0.1,0.9-0.2,1.6-0.5v0.8
			c-0.5,0.2-1,0.4-1.5,0.5S387.5,125.3,386.9,125.3z M386.7,116.2c-0.9,0-1.7,0.3-2.2,0.9s-0.9,1.5-1,2.6h5.9c0-1.1-0.2-2-0.7-2.6
			S387.5,116.2,386.7,116.2z"/>
		<path d="M398.7,125.1l-0.2-1.5h-0.1c-0.5,0.6-1,1.1-1.5,1.3s-1.1,0.4-1.8,0.4c-0.9,0-1.7-0.2-2.2-0.7s-0.8-1.1-0.8-2
			c0-0.9,0.4-1.7,1.2-2.2s1.9-0.8,3.4-0.8l1.8-0.1v-0.6c0-0.9-0.2-1.6-0.6-2.1s-1-0.7-1.8-0.7c-0.9,0-1.8,0.2-2.8,0.7l-0.3-0.8
			c1-0.5,2.1-0.7,3.1-0.7c1,0,1.8,0.3,2.4,0.8c0.5,0.5,0.8,1.4,0.8,2.5v6.4H398.7z M395.2,124.5c1,0,1.8-0.3,2.4-0.9
			c0.6-0.6,0.9-1.4,0.9-2.4v-0.9l-1.7,0.1c-1.3,0.1-2.3,0.3-2.9,0.6c-0.6,0.4-0.9,0.9-0.9,1.7c0,0.6,0.2,1.1,0.5,1.4
			C394,124.4,394.6,124.5,395.2,124.5z"/>
		<path d="M406.2,115.4c0.4,0,0.8,0,1.3,0.1l-0.2,0.8c-0.4-0.1-0.8-0.1-1.2-0.1c-0.8,0-1.5,0.3-2,1s-0.8,1.6-0.8,2.6v5.3h-0.9v-9.6
			h0.7l0.1,1.7h0.1c0.4-0.7,0.8-1.2,1.3-1.5S405.6,115.4,406.2,115.4z"/>
		<path d="M422.1,116c0,1.2-0.4,2.2-1.3,2.9s-2,1-3.6,1h-2v5.3h-0.9v-12.8h3.1C420.6,112.3,422.1,113.5,422.1,116z M415.3,119.1h1.8
			c1.4,0,2.5-0.2,3.1-0.7s1-1.3,1-2.3c0-1-0.3-1.7-0.9-2.2s-1.6-0.7-2.8-0.7h-2.1V119.1z"/>
		<path d="M428.5,115.4c0.4,0,0.8,0,1.3,0.1l-0.2,0.8c-0.4-0.1-0.8-0.1-1.2-0.1c-0.8,0-1.5,0.3-2,1s-0.8,1.6-0.8,2.6v5.3h-0.9v-9.6
			h0.7l0.1,1.7h0.1c0.4-0.7,0.8-1.2,1.3-1.5S427.8,115.4,428.5,115.4z"/>
		<path d="M439.6,120.3c0,1.6-0.4,2.8-1.1,3.7s-1.8,1.3-3.1,1.3c-0.8,0-1.6-0.2-2.2-0.6s-1.1-1-1.5-1.7s-0.5-1.6-0.5-2.6
			c0-1.6,0.4-2.8,1.1-3.6s1.8-1.3,3.1-1.3c1.3,0,2.3,0.4,3.1,1.3C439.2,117.6,439.6,118.8,439.6,120.3z M432.1,120.3
			c0,1.3,0.3,2.3,0.9,3.1c0.6,0.7,1.4,1.1,2.4,1.1s1.9-0.4,2.4-1.1s0.9-1.8,0.9-3.1c0-1.3-0.3-2.3-0.9-3.1c-0.6-0.7-1.4-1.1-2.5-1.1
			s-1.9,0.4-2.4,1.1C432.3,118,432.1,119,432.1,120.3z"/>
		<path d="M441,129.5c-0.5,0-0.9-0.1-1.2-0.2v-0.8c0.4,0.1,0.8,0.2,1.1,0.2c0.9,0,1.3-0.5,1.3-1.5v-11.5h0.9V127
			c0,0.8-0.2,1.4-0.6,1.8C442.2,129.2,441.7,129.5,441,129.5z M442.1,112.9c0-0.6,0.2-0.8,0.6-0.8c0.2,0,0.3,0.1,0.4,0.2
			c0.1,0.1,0.2,0.4,0.2,0.6c0,0.3-0.1,0.5-0.2,0.6c-0.1,0.2-0.2,0.2-0.4,0.2C442.3,113.8,442.1,113.5,442.1,112.9z"/>
		<path d="M450.2,125.3c-1.4,0-2.5-0.4-3.2-1.3c-0.8-0.9-1.2-2.1-1.2-3.6c0-1.5,0.4-2.7,1.1-3.7s1.8-1.4,3-1.4c1.1,0,2,0.4,2.7,1.2
			s1,1.9,1,3.2v0.7h-6.9c0,1.3,0.3,2.3,0.9,3c0.6,0.7,1.5,1,2.6,1c0.5,0,1,0,1.4-0.1c0.4-0.1,0.9-0.2,1.6-0.5v0.8
			c-0.5,0.2-1,0.4-1.5,0.5S450.7,125.3,450.2,125.3z M449.9,116.2c-0.9,0-1.7,0.3-2.2,0.9s-0.9,1.5-1,2.6h5.9c0-1.1-0.2-2-0.7-2.6
			S450.8,116.2,449.9,116.2z"/>
		<path d="M460,125.3c-1.4,0-2.4-0.4-3.2-1.3s-1.2-2.1-1.2-3.6c0-1.6,0.4-2.8,1.2-3.7s1.9-1.3,3.3-1.3c0.8,0,1.6,0.1,2.4,0.4
			l-0.2,0.8c-0.8-0.3-1.5-0.4-2.2-0.4c-1.2,0-2.1,0.4-2.7,1.1s-0.9,1.8-0.9,3.1c0,1.3,0.3,2.3,0.9,3s1.4,1.1,2.5,1.1
			c0.9,0,1.7-0.2,2.4-0.5v0.8C461.8,125.2,461,125.3,460,125.3z"/>
		<path d="M467.3,124.5c0.6,0,1,0,1.4-0.1v0.7c-0.4,0.1-0.9,0.2-1.5,0.2c-0.8,0-1.5-0.2-1.9-0.7s-0.6-1.2-0.6-2.1v-6.2h-1.4v-0.5
			l1.4-0.4l0.4-2.2h0.4v2.3h2.8v0.8h-2.8v6c0,0.7,0.1,1.3,0.4,1.6S466.7,124.5,467.3,124.5z"/>
		<path d="M373.2,133.9h3.5c1.6,0,2.8,0.3,3.5,0.8s1.1,1.4,1.1,2.4c0,0.7-0.2,1.4-0.7,1.9c-0.5,0.5-1.1,0.8-2,1v0.1
			c1,0.2,1.8,0.5,2.3,1c0.5,0.5,0.7,1.2,0.7,2.1c0,1.2-0.4,2.1-1.2,2.7s-1.9,1-3.3,1h-3.9V133.9z M374.1,139.6h2.8
			c1.2,0,2.1-0.2,2.6-0.6c0.5-0.4,0.8-1,0.8-1.9s-0.3-1.5-0.9-1.9s-1.5-0.6-2.8-0.6h-2.6V139.6z M374.1,140.4v5.5h3
			c2.4,0,3.6-1,3.6-2.9c0-1.8-1.3-2.6-3.8-2.6H374.1z"/>
		<path d="M392.2,141.9c0,1.6-0.4,2.8-1.1,3.7c-0.8,0.9-1.8,1.3-3.1,1.3c-0.8,0-1.6-0.2-2.2-0.6s-1.1-1-1.5-1.7s-0.5-1.6-0.5-2.6
			c0-1.6,0.4-2.8,1.1-3.6c0.8-0.9,1.8-1.3,3.1-1.3c1.3,0,2.3,0.4,3.1,1.3C391.8,139.2,392.2,140.4,392.2,141.9z M384.6,141.9
			c0,1.3,0.3,2.3,0.9,3.1c0.6,0.7,1.4,1.1,2.4,1.1s1.9-0.4,2.4-1.1c0.6-0.7,0.9-1.8,0.9-3.1c0-1.3-0.3-2.3-0.9-3.1
			c-0.6-0.7-1.4-1.1-2.5-1.1s-1.9,0.4-2.4,1.1C384.9,139.6,384.6,140.6,384.6,141.9z"/>
		<path d="M395.6,137.2v6.2c0,1,0.2,1.7,0.6,2.1s1,0.7,1.9,0.7c1.1,0,2-0.3,2.5-0.9c0.5-0.6,0.8-1.5,0.8-2.8v-5.3h0.9v9.6h-0.7
			l-0.2-1.3h-0.1c-0.6,1-1.7,1.5-3.3,1.5c-2.2,0-3.3-1.2-3.3-3.5v-6.2H395.6z"/>
		<path d="M412.1,146.7v-6.2c0-1-0.2-1.7-0.6-2.1c-0.4-0.4-1-0.7-1.9-0.7c-1.1,0-2,0.3-2.5,0.9c-0.5,0.6-0.8,1.5-0.8,2.8v5.3h-0.9
			v-9.6h0.7l0.2,1.3h0.1c0.6-1,1.7-1.5,3.3-1.5c2.2,0,3.3,1.2,3.3,3.5v6.2H412.1z"/>
		<path d="M419.5,137c0.7,0,1.3,0.1,1.8,0.4s1,0.7,1.4,1.3h0.1c0-0.7-0.1-1.5-0.1-2.2v-3.4h0.9v13.7H423l-0.2-1.5h-0.1
			c-0.7,1.1-1.8,1.6-3.1,1.6c-1.3,0-2.3-0.4-3-1.2s-1-2-1-3.6c0-1.7,0.3-2.9,1-3.8S418.2,137,419.5,137z M419.5,137.8
			c-1,0-1.8,0.4-2.4,1.1s-0.8,1.8-0.8,3.2c0,2.7,1.1,4.1,3.2,4.1c1.1,0,1.9-0.3,2.4-0.9c0.5-0.6,0.8-1.7,0.8-3.1v-0.1
			c0-1.5-0.2-2.5-0.7-3.2C421.4,138.1,420.6,137.8,419.5,137.8z"/>
		<path d="M432.5,146.7l-0.2-1.5h-0.1c-0.5,0.6-1,1.1-1.5,1.3c-0.5,0.3-1.1,0.4-1.8,0.4c-0.9,0-1.7-0.2-2.2-0.7s-0.8-1.1-0.8-2
			c0-0.9,0.4-1.7,1.2-2.2s1.9-0.8,3.4-0.8l1.8-0.1v-0.6c0-0.9-0.2-1.6-0.6-2.1s-1-0.7-1.8-0.7c-0.9,0-1.8,0.2-2.8,0.7l-0.3-0.8
			c1-0.5,2.1-0.7,3.1-0.7c1,0,1.8,0.3,2.4,0.8c0.5,0.5,0.8,1.4,0.8,2.5v6.4H432.5z M429,146.1c1,0,1.8-0.3,2.4-0.9
			c0.6-0.6,0.9-1.4,0.9-2.4v-0.9l-1.7,0.1c-1.3,0.1-2.3,0.3-2.9,0.6c-0.6,0.4-0.9,0.9-0.9,1.7c0,0.6,0.2,1.1,0.5,1.4
			C427.8,146,428.4,146.1,429,146.1z"/>
		<path d="M440,137c0.4,0,0.8,0,1.3,0.1l-0.2,0.8c-0.4-0.1-0.8-0.1-1.2-0.1c-0.8,0-1.5,0.3-2,1s-0.8,1.6-0.8,2.6v5.3h-0.9v-9.6h0.7
			l0.1,1.7h0.1c0.4-0.7,0.8-1.2,1.3-1.5C438.9,137.1,439.4,137,440,137z"/>
		<path d="M443.2,134.5c0-0.6,0.2-0.8,0.6-0.8c0.2,0,0.3,0.1,0.4,0.2c0.1,0.1,0.2,0.4,0.2,0.6c0,0.3-0.1,0.5-0.2,0.6
			c-0.1,0.2-0.2,0.2-0.4,0.2C443.4,135.4,443.2,135.1,443.2,134.5z M444.2,146.7h-0.9v-9.6h0.9V146.7z"/>
		<path d="M451.2,146.9c-1.4,0-2.5-0.4-3.2-1.3c-0.8-0.9-1.2-2.1-1.2-3.6c0-1.5,0.4-2.7,1.1-3.7c0.8-0.9,1.8-1.4,3-1.4
			c1.1,0,2,0.4,2.7,1.2s1,1.9,1,3.2v0.7h-6.9c0,1.3,0.3,2.3,0.9,3c0.6,0.7,1.5,1,2.6,1c0.5,0,1,0,1.4-0.1c0.4-0.1,0.9-0.2,1.6-0.5
			v0.8c-0.5,0.2-1,0.4-1.5,0.5C452.3,146.9,451.8,146.9,451.2,146.9z M451,137.8c-0.9,0-1.7,0.3-2.2,0.9c-0.6,0.6-0.9,1.5-1,2.6h5.9
			c0-1.1-0.2-2-0.7-2.6C452.5,138.1,451.8,137.8,451,137.8z"/>
		<path d="M463.2,144.2c0,0.9-0.3,1.5-1,2s-1.6,0.7-2.8,0.7c-1.3,0-2.3-0.2-3-0.6v-0.9c1,0.5,2,0.7,3,0.7c0.9,0,1.7-0.2,2.1-0.5
			c0.5-0.3,0.7-0.7,0.7-1.3c0-0.5-0.2-0.9-0.6-1.2c-0.4-0.3-1-0.7-1.9-1c-1-0.3-1.6-0.6-2-0.9c-0.4-0.2-0.7-0.5-0.9-0.8
			c-0.2-0.3-0.3-0.7-0.3-1.1c0-0.7,0.3-1.3,0.9-1.7c0.6-0.4,1.4-0.6,2.5-0.6c1,0,2,0.2,2.9,0.6l-0.3,0.8c-0.9-0.4-1.8-0.6-2.6-0.6
			c-0.8,0-1.4,0.1-1.9,0.4s-0.7,0.6-0.7,1.1c0,0.5,0.2,0.9,0.5,1.2c0.4,0.3,1,0.6,2.1,1c0.9,0.3,1.5,0.6,1.9,0.8s0.7,0.5,0.9,0.8
			S463.2,143.8,463.2,144.2z"/>
	</g>
</g>
<g>
	<g id="Layer_2">
		<path fill="#414042" d="M267.6,47.7c4.1-2.5,5.4-7.9,2.8-12c-2.5-4.1-7.9-5.4-12-2.8c-4.1,2.5-5.4,7.9-2.8,12
			C258.2,49,263.5,50.2,267.6,47.7z"/>
		<path fill="#414042" d="M245.9,60l-8.6-4.7c1.9-4.8,2.1-10.1,0.4-14.7c-1.1-2.9-3.8-4.8-6.9-4.8c-0.9,0-1.7,0.2-2.5,0.5
			c-3.8,1.4-5.7,5.6-4.3,9.4c0.5,1.4,0.3,3.2-0.5,4.8c-1.1,2.1-2.7,3.2-3.8,3.4c-1.9,0.4-3.6,1.5-4.7,3.1c-1.1,1.6-1.5,3.6-1.1,5.5
			c0.7,3.4,3.7,5.9,7.2,5.9c0.5,0,1,0,1.4-0.1c4.9-1,9.3-4,12.4-8.4l8.6,4.7L245.9,60z M223.5,62.3c-0.7,1.4-2.4,2-3.8,1.3
			c-1.4-0.7-2-2.4-1.3-3.8c0.7-1.4,2.4-2,3.8-1.3C223.7,59.2,224.2,60.9,223.5,62.3z M229.5,45.7c-1.4-0.7-2-2.4-1.3-3.8
			c0.7-1.4,2.4-2,3.8-1.3c1.4,0.7,2,2.4,1.3,3.8C232.6,45.8,230.9,46.4,229.5,45.7z"/>
		<path fill="#414042" d="M295.6,58.8c-0.7-1-1.7-1.7-2.8-1.9l-31.1-6.3c-1.1-0.3-2.7-0.2-4.5,0.4c-1.5,0.5-3.1,2-4.6,3.6
			c-0.3,0.2-0.5,0.5-0.7,0.8c-2.1,2.6-3.8,5.2-3.8,5.2l-9.9,16.2c-1,1.9-1.3,4.1-0.9,6.3c0,0.2,0,0.4,0.1,0.5l3.6,15.1l-14.3,4.2
			c-2.8,0.8-4.4,3.7-3.6,6.5c0.8,2.8,3.7,4.4,6.5,3.6l19.1-5.6c0.9-0.3,1.7-0.8,2.3-1.4c1.2-1.2,1.8-3.1,1.3-4.9l-1.7-7l4.8,8.1
			l-6.4,21.7c-0.8,2.8,0.8,5.7,3.5,6.5c1.9,0.6,4,0,5.3-1.4c0.6-0.6,1-1.3,1.2-2.2l7.1-24c0.4-1.6,0.2-2.8-0.5-4.2l-9.3-17.2
			l7.9-12.4l-6.7-5.5l0.9-1.5l22.3,18.3c0.8,0.6,1.7,0.9,2.6,0.9c1.2,0,2.4-0.5,3.2-1.5c1.4-1.8,1.2-4.4-0.6-5.8l-16.3-13.6
			l21.3,4.4c1,0.2,2.2,0.1,3.1-0.5C296.2,63.4,296.8,60.8,295.6,58.8z"/>
	</g>
	<g>
		<path d="M214.3,151.2h-5.2l-1.8,4.5h-1l5.2-12.9h0.6l5.1,12.9h-1L214.3,151.2z M209.4,150.4h4.6l-1.7-4.6
			c-0.1-0.4-0.3-0.9-0.5-1.5c-0.2,0.6-0.3,1.1-0.5,1.5L209.4,150.4z"/>
		<path d="M219.4,146.2v6.2c0,1,0.2,1.7,0.6,2.1s1,0.7,1.9,0.7c1.1,0,2-0.3,2.5-0.9c0.5-0.6,0.8-1.5,0.8-2.8v-5.3h0.9v9.6h-0.7
			l-0.2-1.3h-0.1c-0.6,1-1.7,1.5-3.3,1.5c-2.2,0-3.3-1.2-3.3-3.5v-6.2H219.4z"/>
		<path d="M231.8,155.1c0.6,0,1,0,1.4-0.1v0.7c-0.4,0.1-0.9,0.2-1.5,0.2c-0.8,0-1.5-0.2-1.9-0.7s-0.6-1.2-0.6-2.1v-6.2h-1.4v-0.5
			l1.4-0.4l0.4-2.2h0.4v2.3h2.8v0.8h-2.8v6c0,0.7,0.1,1.3,0.4,1.6S231.3,155.1,231.8,155.1z"/>
		<path d="M243.2,150.9c0,1.6-0.4,2.8-1.1,3.7s-1.8,1.3-3.1,1.3c-0.8,0-1.6-0.2-2.2-0.6s-1.1-1-1.5-1.7s-0.5-1.6-0.5-2.6
			c0-1.6,0.4-2.8,1.1-3.6s1.8-1.3,3.1-1.3c1.3,0,2.3,0.4,3.1,1.3C242.9,148.2,243.2,149.4,243.2,150.9z M235.7,150.9
			c0,1.3,0.3,2.3,0.9,3.1c0.6,0.7,1.4,1.1,2.4,1.1s1.9-0.4,2.4-1.1s0.9-1.8,0.9-3.1c0-1.3-0.3-2.3-0.9-3.1c-0.6-0.7-1.4-1.1-2.5-1.1
			s-1.9,0.4-2.4,1.1C236,148.6,235.7,149.6,235.7,150.9z"/>
		<path d="M257.8,155.7v-6.3c0-0.9-0.2-1.6-0.5-2s-0.9-0.6-1.7-0.6c-1,0-1.7,0.3-2.2,0.8s-0.7,1.4-0.7,2.5v5.6h-0.9v-6.5
			c0-1.6-0.7-2.4-2.2-2.4c-1,0-1.7,0.3-2.2,0.9s-0.7,1.5-0.7,2.8v5.3h-0.9v-9.6h0.7l0.2,1.3h0.1c0.3-0.5,0.6-0.8,1.1-1.1
			s1-0.4,1.6-0.4c1.5,0,2.5,0.6,2.9,1.7h0c0.3-0.5,0.7-1,1.3-1.3s1.1-0.4,1.8-0.4c1,0,1.8,0.3,2.3,0.8s0.8,1.4,0.8,2.7v6.2H257.8z"
			/>
		<path d="M267.6,155.7l-0.2-1.5h-0.1c-0.5,0.6-1,1.1-1.5,1.3s-1.1,0.4-1.8,0.4c-0.9,0-1.7-0.2-2.2-0.7s-0.8-1.1-0.8-2
			c0-0.9,0.4-1.7,1.2-2.2s1.9-0.8,3.4-0.8l1.8-0.1v-0.6c0-0.9-0.2-1.6-0.6-2.1s-1-0.7-1.8-0.7c-0.9,0-1.8,0.2-2.8,0.7l-0.3-0.8
			c1-0.5,2.1-0.7,3.1-0.7c1,0,1.8,0.3,2.4,0.8c0.5,0.5,0.8,1.4,0.8,2.5v6.4H267.6z M264.1,155.1c1,0,1.8-0.3,2.4-0.9
			c0.6-0.6,0.9-1.4,0.9-2.4v-0.9l-1.7,0.1c-1.3,0.1-2.3,0.3-2.9,0.6c-0.6,0.4-0.9,0.9-0.9,1.7c0,0.6,0.2,1.1,0.5,1.4
			C262.9,154.9,263.4,155.1,264.1,155.1z"/>
		<path d="M273.8,155.1c0.6,0,1,0,1.4-0.1v0.7c-0.4,0.1-0.9,0.2-1.5,0.2c-0.8,0-1.5-0.2-1.9-0.7s-0.6-1.2-0.6-2.1v-6.2h-1.4v-0.5
			l1.4-0.4l0.4-2.2h0.4v2.3h2.8v0.8h-2.8v6c0,0.7,0.1,1.3,0.4,1.6S273.3,155.1,273.8,155.1z"/>
		<path d="M277.2,143.5c0-0.6,0.2-0.8,0.6-0.8c0.2,0,0.3,0.1,0.4,0.2c0.1,0.1,0.2,0.4,0.2,0.6c0,0.3-0.1,0.5-0.2,0.6
			c-0.1,0.2-0.2,0.2-0.4,0.2C277.4,144.4,277.2,144.1,277.2,143.5z M278.2,155.7h-0.9v-9.6h0.9V155.7z"/>
		<path d="M289.3,150.9c0,1.6-0.4,2.8-1.1,3.7s-1.8,1.3-3.1,1.3c-0.8,0-1.6-0.2-2.2-0.6s-1.1-1-1.5-1.7s-0.5-1.6-0.5-2.6
			c0-1.6,0.4-2.8,1.1-3.6s1.8-1.3,3.1-1.3c1.3,0,2.3,0.4,3.1,1.3C288.9,148.2,289.3,149.4,289.3,150.9z M281.8,150.9
			c0,1.3,0.3,2.3,0.9,3.1c0.6,0.7,1.4,1.1,2.4,1.1s1.9-0.4,2.4-1.1s0.9-1.8,0.9-3.1c0-1.3-0.3-2.3-0.9-3.1c-0.6-0.7-1.4-1.1-2.5-1.1
			s-1.9,0.4-2.4,1.1C282,148.6,281.8,149.6,281.8,150.9z"/>
		<path d="M298.6,155.7v-6.2c0-1-0.2-1.7-0.6-2.1s-1-0.7-1.9-0.7c-1.1,0-2,0.3-2.5,0.9c-0.5,0.6-0.8,1.5-0.8,2.8v5.3h-0.9v-9.6h0.7
			l0.2,1.3h0.1c0.6-1,1.7-1.5,3.3-1.5c2.2,0,3.3,1.2,3.3,3.5v6.2H298.6z"/>
	</g>
</g>
<g>
	<g>
		<circle fill="#414042" cx="756" cy="221.1" r="2.4"/>
		<path fill="none" d="M699.3,210.9h113.4V147H699.3V210.9z M765,187.2l15-6.4v-0.1l-15-6.4V170l19.4,8.9v3.7l-19.4,8.9V187.2z
			 M758.6,163.8h4.1l-8.7,29.3h-4.1h0L758.6,163.8z M727.5,182.5V179l19.4-9v4.3l-14.7,6.4v0.1l14.7,6.4v4.3L727.5,182.5
			L727.5,182.5z"/>
		<path fill="#414042" d="M814.2,142H757H755h-57.2c-2,0-3.8,1.5-3.8,3.6v70.5v0.2v6.5v0.4c0,2,1.8,3.8,3.8,3.8h45.8
			c-0.1,1.2-0.4,6.2-2.8,8.6c-1.9,1.9-4.5,3.7-3.5,4.6c0.2,0.6,1.4,0.9,4.1,0.9c5.9,0,12.3,0,14.6,0c0.6,0,0.9,0,0.9,0
			c2.3,0,8.7,0,14.6,0c3,0,4.1-0.5,4.1-1.2h-0.1v-0.2h-0.1c-0.1-1-2.2-2.5-3.7-4c-2.4-2.4-2.8-7.5-2.8-8.6h45.2c2,0,3.7-1.7,3.7-3.8
			v-0.4v-6.5v-0.2v-70.5C817.9,143.5,816.2,142,814.2,142z M756,223.5c-1.3,0-2.4-1.1-2.4-2.4s1.1-2.4,2.4-2.4
			c1.3,0,2.4,1.1,2.4,2.4C758.4,222.4,757.3,223.5,756,223.5z M812.7,210.9H699.3V147h113.4L812.7,210.9L812.7,210.9z"/>
		<polygon fill="#414042" points="746.9,187.2 732.2,180.8 732.2,180.7 746.9,174.3 746.9,170 727.5,179 727.5,182.5 727.5,182.5 
			746.9,191.5 		"/>
		<polygon fill="#414042" points="754,193.1 762.7,163.8 758.6,163.8 749.9,193.1 749.9,193.1 		"/>
		<polygon fill="#414042" points="784.4,178.9 765,170 765,174.3 780,180.7 780,180.8 765,187.2 765,191.5 784.4,182.6 		"/>
	</g>
	<g>
		<path d="M747.5,249.7c-1.6,0-2.9,0.5-3.8,1.5s-1.4,2.4-1.4,4.2c0,1.8,0.4,3.3,1.3,4.3s2.1,1.5,3.7,1.5c1.1,0,2.1-0.1,3-0.4v0.8
			c-0.8,0.3-1.9,0.4-3.2,0.4c-1.8,0-3.2-0.6-4.3-1.7s-1.6-2.8-1.6-4.9c0-1.3,0.2-2.5,0.7-3.5c0.5-1,1.2-1.8,2.1-2.3s2-0.8,3.2-0.8
			c1.3,0,2.4,0.2,3.4,0.7l-0.4,0.8C749.5,249.9,748.5,249.7,747.5,249.7z"/>
		<path d="M760.2,258.6c0,1.1-0.4,1.9-1.2,2.5c-0.8,0.6-1.8,0.9-3.1,0.9c-1.6,0-2.8-0.2-3.6-0.5v-0.9c0.9,0.4,2.1,0.6,3.5,0.6
			c1.1,0,1.9-0.2,2.5-0.7c0.6-0.5,0.9-1.1,0.9-1.9c0-0.5-0.1-0.9-0.3-1.2s-0.5-0.6-1-0.9s-1.1-0.5-2-0.9c-1.3-0.5-2.2-0.9-2.7-1.5
			c-0.5-0.5-0.8-1.2-0.8-2.1c0-1,0.4-1.7,1.1-2.4c0.8-0.6,1.7-0.9,2.9-0.9c1.2,0,2.3,0.2,3.4,0.7l-0.3,0.8c-1.1-0.4-2.1-0.7-3.1-0.7
			c-0.9,0-1.7,0.2-2.3,0.7s-0.8,1-0.8,1.8c0,0.5,0.1,0.9,0.3,1.2c0.2,0.3,0.5,0.6,0.8,0.8s1.1,0.5,2,0.9c1,0.3,1.8,0.7,2.3,1
			s0.9,0.7,1.1,1.1S760.2,258,760.2,258.6z"/>
		<path d="M770.1,258.6c0,1.1-0.4,1.9-1.2,2.5c-0.8,0.6-1.8,0.9-3.1,0.9c-1.6,0-2.8-0.2-3.6-0.5v-0.9c0.9,0.4,2.1,0.6,3.5,0.6
			c1.1,0,1.9-0.2,2.5-0.7c0.6-0.5,0.9-1.1,0.9-1.9c0-0.5-0.1-0.9-0.3-1.2s-0.5-0.6-1-0.9s-1.1-0.5-2-0.9c-1.3-0.5-2.2-0.9-2.7-1.5
			c-0.5-0.5-0.8-1.2-0.8-2.1c0-1,0.4-1.7,1.1-2.4c0.8-0.6,1.7-0.9,2.9-0.9c1.2,0,2.3,0.2,3.4,0.7l-0.3,0.8c-1.1-0.4-2.1-0.7-3.1-0.7
			c-0.9,0-1.7,0.2-2.3,0.7s-0.8,1-0.8,1.8c0,0.5,0.1,0.9,0.3,1.2c0.2,0.3,0.5,0.6,0.8,0.8s1.1,0.5,2,0.9c1,0.3,1.8,0.7,2.3,1
			s0.9,0.7,1.1,1.1S770.1,258,770.1,258.6z"/>
		<path d="M713.1,283.5v-12.8h0.9v12h6.1v0.8H713.1z"/>
		<path d="M722,271.3c0-0.6,0.2-0.8,0.6-0.8c0.2,0,0.3,0.1,0.4,0.2c0.1,0.1,0.2,0.4,0.2,0.6c0,0.3-0.1,0.5-0.2,0.6
			c-0.1,0.2-0.2,0.2-0.4,0.2C722.2,272.1,722,271.8,722,271.3z M723,283.5h-0.9v-9.6h0.9V283.5z"/>
		<path d="M738.2,283.5v-6.3c0-0.9-0.2-1.6-0.5-2s-0.9-0.6-1.7-0.6c-1,0-1.7,0.3-2.2,0.8s-0.7,1.4-0.7,2.5v5.6h-0.9v-6.5
			c0-1.6-0.7-2.4-2.2-2.4c-1,0-1.7,0.3-2.2,0.9s-0.7,1.5-0.7,2.8v5.3h-0.9v-9.6h0.7l0.2,1.3h0.1c0.3-0.5,0.6-0.8,1.1-1.1
			c0.5-0.3,1-0.4,1.6-0.4c1.5,0,2.5,0.6,2.9,1.7h0c0.3-0.5,0.7-1,1.3-1.3s1.1-0.4,1.8-0.4c1,0,1.8,0.3,2.3,0.8s0.8,1.4,0.8,2.7v6.2
			H738.2z"/>
		<path d="M742,271.3c0-0.6,0.2-0.8,0.6-0.8c0.2,0,0.3,0.1,0.4,0.2c0.1,0.1,0.2,0.4,0.2,0.6c0,0.3-0.1,0.5-0.2,0.6
			c-0.1,0.2-0.2,0.2-0.4,0.2C742.2,272.1,742,271.8,742,271.3z M743,283.5h-0.9v-9.6h0.9V283.5z"/>
		<path d="M748.7,282.9c0.6,0,1,0,1.4-0.1v0.7c-0.4,0.1-0.9,0.2-1.5,0.2c-0.8,0-1.5-0.2-1.9-0.7s-0.6-1.2-0.6-2.1v-6.2h-1.4v-0.5
			l1.4-0.4l0.4-2.2h0.4v2.3h2.8v0.8h-2.8v6c0,0.7,0.1,1.3,0.4,1.6S748.2,282.9,748.7,282.9z"/>
		<path d="M758,283.5l-0.2-1.5h-0.1c-0.5,0.6-1,1.1-1.5,1.3c-0.5,0.3-1.1,0.4-1.8,0.4c-0.9,0-1.7-0.2-2.2-0.7s-0.8-1.1-0.8-2
			c0-0.9,0.4-1.7,1.2-2.2s1.9-0.8,3.4-0.8l1.8-0.1v-0.6c0-0.9-0.2-1.6-0.6-2.1s-1-0.7-1.8-0.7c-0.9,0-1.8,0.2-2.8,0.7l-0.3-0.8
			c1-0.5,2.1-0.7,3.1-0.7c1,0,1.8,0.3,2.4,0.8c0.5,0.5,0.8,1.4,0.8,2.5v6.4H758z M754.5,282.9c1,0,1.8-0.3,2.4-0.9
			c0.6-0.6,0.9-1.4,0.9-2.4v-0.9l-1.7,0.1c-1.3,0.1-2.3,0.3-2.9,0.6c-0.6,0.4-0.9,0.9-0.9,1.7c0,0.6,0.2,1.1,0.5,1.4
			C753.3,282.7,753.8,282.9,754.5,282.9z"/>
		<path d="M764.3,282.9c0.6,0,1,0,1.4-0.1v0.7c-0.4,0.1-0.9,0.2-1.5,0.2c-0.8,0-1.5-0.2-1.9-0.7s-0.6-1.2-0.6-2.1v-6.2h-1.4v-0.5
			l1.4-0.4l0.4-2.2h0.4v2.3h2.8v0.8h-2.8v6c0,0.7,0.1,1.3,0.4,1.6S763.7,282.9,764.3,282.9z"/>
		<path d="M767.7,271.3c0-0.6,0.2-0.8,0.6-0.8c0.2,0,0.3,0.1,0.4,0.2c0.1,0.1,0.2,0.4,0.2,0.6c0,0.3-0.1,0.5-0.2,0.6
			c-0.1,0.2-0.2,0.2-0.4,0.2C767.8,272.1,767.7,271.8,767.7,271.3z M768.6,283.5h-0.9v-9.6h0.9V283.5z"/>
		<path d="M779.7,278.7c0,1.6-0.4,2.8-1.1,3.7c-0.8,0.9-1.8,1.3-3.1,1.3c-0.8,0-1.6-0.2-2.2-0.6s-1.1-1-1.5-1.7s-0.5-1.6-0.5-2.6
			c0-1.6,0.4-2.8,1.1-3.6c0.8-0.9,1.8-1.3,3.1-1.3c1.3,0,2.3,0.4,3.1,1.3C779.4,275.9,779.7,277.2,779.7,278.7z M772.2,278.7
			c0,1.3,0.3,2.3,0.9,3.1c0.6,0.7,1.4,1.1,2.4,1.1s1.9-0.4,2.4-1.1c0.6-0.7,0.9-1.8,0.9-3.1c0-1.3-0.3-2.3-0.9-3.1
			c-0.6-0.7-1.4-1.1-2.5-1.1s-1.9,0.4-2.4,1.1C772.5,276.3,772.2,277.4,772.2,278.7z"/>
		<path d="M789.1,283.5v-6.2c0-1-0.2-1.7-0.6-2.1c-0.4-0.4-1-0.7-1.9-0.7c-1.1,0-2,0.3-2.5,0.9c-0.5,0.6-0.8,1.5-0.8,2.8v5.3h-0.9
			v-9.6h0.7l0.2,1.3h0.1c0.6-1,1.7-1.5,3.3-1.5c2.2,0,3.3,1.2,3.3,3.5v6.2H789.1z"/>
		<path d="M798.9,281c0,0.9-0.3,1.5-1,2s-1.6,0.7-2.8,0.7c-1.3,0-2.3-0.2-3-0.6v-0.9c1,0.5,2,0.7,3,0.7c0.9,0,1.7-0.2,2.1-0.5
			c0.5-0.3,0.7-0.7,0.7-1.3c0-0.5-0.2-0.9-0.6-1.2c-0.4-0.3-1-0.7-1.9-1c-1-0.3-1.6-0.6-2-0.9c-0.4-0.2-0.7-0.5-0.9-0.8
			c-0.2-0.3-0.3-0.7-0.3-1.1c0-0.7,0.3-1.3,0.9-1.7c0.6-0.4,1.4-0.6,2.5-0.6c1,0,2,0.2,2.9,0.6l-0.3,0.8c-0.9-0.4-1.8-0.6-2.6-0.6
			c-0.8,0-1.4,0.1-1.9,0.4s-0.7,0.6-0.7,1.1c0,0.5,0.2,0.9,0.5,1.2c0.4,0.3,1,0.6,2.1,1c0.9,0.3,1.5,0.6,1.9,0.8s0.7,0.5,0.9,0.8
			S798.9,280.6,798.9,281z"/>
	</g>
</g>
</svg>
