<?xml version="1.0" encoding="utf-8"?>
<!-- Generator: Adobe Illustrator 17.1.0, SVG Export Plug-In . SVG Version: 6.00 Build 0)  -->
<!DOCTYPE svg PUBLIC "-//W3C//DTD SVG 1.1//EN" "http://www.w3.org/Graphics/SVG/1.1/DTD/svg11.dtd">
<svg version="1.1" id="Layer_1" xmlns="http://www.w3.org/2000/svg" xmlns:xlink="http://www.w3.org/1999/xlink" x="0px" y="0px"
	 viewBox="0 0 841.9 595.3" enable-background="new 0 0 841.9 595.3" xml:space="preserve">
<rect x="162.5" y="195.1" fill="none" width="479" height="221"/>
<g>
	<g>
		<path fill="#ED1C24" d="M245.7,318c-6.3,6.3-14.1,9.5-23,9.5h-13.7v10.8h-23.6v-75.8h37.3c9,0,16.7,3.2,23,9.5s9.5,14.1,9.5,23
			C255.2,304,252,311.6,245.7,318z M222.6,286.1h-13.7V304h13.7c5,0,9-4.1,9-9C231.6,290.1,227.6,286.1,222.6,286.1z"/>
		<path fill="#ED1C24" d="M314.2,341.2c-0.8,0-1.4-0.1-2.2-0.2c-1.5,0-3.1-0.2-4.6-0.4c-1.4-0.2-3-0.7-4.4-1.1
			c-4-0.9-7.9-2.4-11.5-4.4c-3.8-2.1-7.1-4.5-10.3-7.5h-0.2v10.8h-23.5v-76l37.3,0.2c9,0,16.6,3.2,23,9.5c6.3,6.3,9.5,13.9,9.5,23
			c0,4.4-0.9,8.5-2.5,12.5c-1.7,3.9-4,7.2-6.9,10.2c5.1,0,12.2-2.1,14.8-3.3l-16.2,26.9C315.7,341.3,314.9,341.2,314.2,341.2z
			 M294.7,286.1h-13.8V304h13.8c2.4,0,4.6-0.9,6.3-2.7c1.8-1.8,2.7-3.9,2.7-6.3c0-2.5-0.9-4.6-2.7-6.4
			C299.3,287,297.1,286.1,294.7,286.1z"/>
		<path fill="#ED1C24" d="M399.5,329c-7.9,7.9-17.4,11.8-28.6,11.8c-11.2,0-20.7-4-28.7-11.8c-7.9-8-11.8-17.5-11.8-28.7
			c0-11.2,4-20.7,11.8-28.6c8-8,17.5-12,28.7-12c11.2,0,20.7,4,28.6,12c8,7.9,12,17.4,12,28.6C411.5,311.5,407.5,321.1,399.5,329z
			 M382.9,288.4c-3.3-3.3-7.3-5-12-5c-4.8,0-8.7,1.7-12.1,5c-3.3,3.3-5,7.3-5,12c0,4.8,1.7,8.7,5,12.1c3.3,3.3,7.3,5,12.1,5
			c4.6,0,8.6-1.7,12-5c3.4-3.3,5.1-7.3,5.1-12.1C388,295.7,386.3,291.7,382.9,288.4z"/>
		<path fill="#ED1C24" d="M483.2,328.9c-0.1,0.1-0.2,0.2-0.3,0.3c-8,8-17.5,11.8-28.7,11.8c-11.1,0-20.7-3.9-28.6-11.8
			c-8-8-12-17.5-12-28.7c0-11.2,4-20.7,12-28.7c7.9-8,17.5-11.8,28.6-11.8c11.2,0,20.7,3.9,28.7,11.8c0.1,0.1,0.2,0.2,0.3,0.3
			l-16.7,16.6c-0.1-0.1-0.1-0.1-0.2-0.2c-3.3-3.3-7.4-5-12.1-5c-4.6,0-8.7,1.7-12.1,5c-3.3,3.3-5,7.3-5,12c0,4.8,1.7,8.7,5,12.1
			c3.3,3.3,7.4,5,12.1,5c4.6,0,8.7-1.7,12.1-5c0.1-0.1,0.2-0.2,0.3-0.3L483.2,328.9z"/>
		<path fill="#ED1C24" d="M509.2,314.9h32v23.5h-55.7v-75.7h55.7v23.6h-32v2.5h32v23.6h-32V314.9z"/>
		<path fill="#ED1C24" d="M597,318c-1.4,5-4.2,9.4-8.1,13.4c-6.4,6.4-14.1,9.6-23.1,9.6c-9,0-16.6-3.2-23-9.6l16.7-16.7
			c1.8,1.8,3.9,2.7,6.3,2.7c2.5,0,4.6-0.9,6.4-2.7c1.7-1.8,2.5-3.9,2.5-6.3c0-3.1-0.4-9.3-12.1-11.4c-11.7-2-15.3-11.2-15.3-16
			c0-10.2,8.2-18.4,18.4-18.4h20.7v20.7c0.9,0.7,1.7,1.3,2.3,2.1c6.4,6.4,9.6,14.1,9.6,23C598.4,311.6,598,314.9,597,318z"/>
		<path fill="#ED1C24" d="M647.6,318c-1.4,5-4.2,9.4-8.1,13.4c-6.4,6.4-14.1,9.6-23.1,9.6c-9,0-16.6-3.2-23-9.6l16.7-16.7
			c1.8,1.8,3.9,2.7,6.3,2.7c2.5,0,4.6-0.9,6.4-2.7c1.7-1.8,2.5-3.9,2.5-6.3c0-3.1-0.4-9.3-12.1-11.4c-11.7-2-15.3-11.2-15.3-16
			c0-10.2,8.2-18.4,18.4-18.4h20.7v20.7c0.9,0.7,1.7,1.3,2.3,2.1c6.4,6.4,9.6,14.1,9.6,23C649,311.6,648.6,314.9,647.6,318z"/>
	</g>
	<g>
		<polygon fill="#ED1C24" points="167.5,313.8 157.3,309.5 148.2,315.7 149,304.5 140.5,297.5 151.1,294.9 155,284.5 160.7,294 
			171.7,294.5 164.6,303 		"/>
	</g>
	<g>
		<polygon fill="#ED1C24" points="675.8,284.5 680.6,294.7 691.4,296.4 683.6,304.4 685.5,315.7 675.8,310.3 666.2,315.7 668,304.4 
			660.2,296.4 671,294.7 		"/>
	</g>
</g>
<g>
	<g>
		<g>
			<g>
				<path fill="#414042" d="M240.2,89.3V115c0,3-1.3,5.5-3.2,6.7v59.1h0c0,2.4-1.9,4.3-4.3,4.3c-2.4,0-4.3-1.9-4.3-4.3
					c0-0.1,0-0.2,0-0.3v-34.2c0-0.3-0.2-0.5-0.5-0.5c-0.3,0-0.5,0.2-0.5,0.5v34.5c0,2.4-1.9,4.3-4.3,4.3c-2.4,0-4.3-1.9-4.3-4.3
					c0-0.1,0-0.2,0-0.3v-34.7h0v-24.1c-0.5-0.3-1-0.7-1.4-1.3c1-1.5,1.5-3.4,1.5-5.5V89.3c0-1.2-0.5-2.2-1.2-3
					c0.4-0.1,0.7-0.2,1.2-0.2c1.8,0,3.2,1.5,3.2,3.3v6.8c-1.7,1.6-2.7,3.8-2.7,6.2c0,2.5,1,4.7,2.7,6.2v2.7c0,0.3,0.2,0.5,0.5,0.5
					h10.6c0.3,0,0.5-0.2,0.5-0.5v-2.7c1.7-1.6,2.7-3.8,2.7-6.2c0-2.5-1-4.7-2.7-6.2v-6.8c0-1.8,1.4-3.3,3.2-3.3
					C238.7,86,240.2,87.5,240.2,89.3z"/>
				<path fill="#414042" d="M235.5,102.3c0,1.8-0.6,3.5-1.7,4.8c-1.4,1.7-3.5,2.7-5.8,2.7c-2.3,0-4.4-1.1-5.8-2.8
					c-1.1-1.3-1.7-3-1.7-4.8c0-1.8,0.6-3.5,1.7-4.8c1.4-1.7,3.5-2.8,5.8-2.8c2.3,0,4.4,1.1,5.8,2.7
					C234.8,98.8,235.5,100.5,235.5,102.3z"/>
			</g>
			<g>
				<path fill="#414042" d="M192.1,115c0,2.1,0.5,4,1.5,5.5c-0.4,0.5-0.9,0.9-1.4,1.3v59.1h0c0,2.4-1.9,4.3-4.3,4.3
					c-2.4,0-4.3-1.9-4.3-4.3c0-0.1,0-0.2,0-0.3v-34.2c0-0.3-0.2-0.5-0.5-0.5c-0.3,0-0.5,0.2-0.5,0.5v34.5c0,2.4-1.9,4.3-4.3,4.3
					c-2.4,0-4.3-1.9-4.3-4.3c0-0.1,0-0.2,0-0.3v-34.7h0v-24.1c-1.9-1.2-3.2-3.8-3.2-6.7V89.3c0-1.8,1.4-3.3,3.2-3.3
					c1.8,0,3.2,1.5,3.2,3.3v6.8c-1.7,1.6-2.7,3.8-2.7,6.2c0,2.5,1,4.7,2.7,6.2v2.7c0,0.3,0.2,0.5,0.5,0.5h10.6
					c0.3,0,0.5-0.2,0.5-0.5v-2.7c1.7-1.6,2.7-3.8,2.7-6.2c0-2.5-1.1-4.7-2.7-6.2v-6.8c0-1.8,1.4-3.3,3.2-3.3c0.4,0,0.8,0.1,1.2,0.2
					c-0.8,0.8-1.2,1.9-1.2,3L192.1,115z"/>
				<path fill="#414042" d="M190.6,102.3c0,1.8-0.6,3.5-1.7,4.8c-1.4,1.7-3.5,2.7-5.8,2.7c-2.3,0-4.4-1.1-5.8-2.8
					c-1.1-1.3-1.7-3-1.7-4.8c0-1.8,0.6-3.5,1.7-4.8c1.4-1.7,3.5-2.8,5.8-2.8c2.3,0,4.4,1.1,5.8,2.7
					C190,98.8,190.6,100.5,190.6,102.3z"/>
			</g>
			<path fill="#414042" d="M217.8,89.3V115c0,1.7-0.4,3.2-1.1,4.5c0,0,0,0,0,0c-0.5,1-1.2,1.7-2.1,2.3v59.1h0c0,2.4-1.9,4.3-4.3,4.3
				c-2.4,0-4.3-1.9-4.3-4.3c0-0.1,0-0.2,0-0.3v-34.2c0-0.3-0.2-0.5-0.5-0.5c-0.3,0-0.5,0.2-0.5,0.5v34.5c0,2.4-1.9,4.3-4.3,4.3
				c-2.4,0-4.3-1.9-4.3-4.3c0-0.1,0-0.2,0-0.3v-34.7h0v-24.1c-0.8-0.5-1.5-1.3-2.1-2.3c0,0,0,0,0,0c-0.7-1.2-1.1-2.8-1.1-4.5V89.3
				c0-1,0.4-1.8,1.1-2.4c0.6-0.5,1.3-0.8,2.1-0.8c1.8,0,3.2,1.5,3.2,3.3v6.7c-0.3,0.3-0.6,0.6-0.8,0.9c-1.3,1.6-2,3.5-2,5.5
				c0,2,0.7,3.9,2,5.5c0.3,0.3,0.5,0.6,0.9,0.9v2.5c0,0.3,0.2,0.5,0.5,0.5h10.6c0.3,0,0.5-0.2,0.5-0.5v-2.5c0.3-0.3,0.6-0.6,0.8-0.9
				c1.3-1.5,2-3.5,2-5.5c0-2-0.7-4-2-5.5c-0.3-0.3-0.5-0.6-0.8-0.9v-6.6c0-1.8,1.4-3.3,3.2-3.3c0.8,0,1.6,0.3,2.1,0.8
				C217.4,87.4,217.8,88.3,217.8,89.3z"/>
		</g>
		<path fill="#414042" d="M213.1,102.3c0,1.8-0.6,3.5-1.7,4.8c-0.3,0.4-0.7,0.8-1.1,1.1c-1.3,1-2.9,1.7-4.7,1.7
			c-1.8,0-3.4-0.6-4.7-1.7c-0.4-0.3-0.8-0.7-1.1-1.1c-1.1-1.3-1.7-3-1.7-4.8c0-1.8,0.6-3.5,1.7-4.8c0.3-0.4,0.7-0.8,1.1-1.1
			c1.3-1.1,2.9-1.7,4.7-1.7c1.8,0,3.4,0.6,4.7,1.6c0.4,0.3,0.8,0.7,1.1,1.1C212.4,98.8,213.1,100.5,213.1,102.3z"/>
	</g>
	<g>
		<path fill="#414042" d="M176.3,201.4c0,1-0.4,1.7-1.1,2.3c-0.7,0.6-1.6,0.8-2.8,0.8c-1.4,0-2.5-0.2-3.2-0.5v-0.8
			c0.8,0.3,1.9,0.5,3.1,0.5c0.9,0,1.7-0.2,2.2-0.6c0.5-0.4,0.8-1,0.8-1.7c0-0.4-0.1-0.8-0.3-1.1c-0.2-0.3-0.5-0.5-0.9-0.8
			c-0.4-0.2-1-0.5-1.8-0.8c-1.2-0.4-2-0.8-2.4-1.3c-0.4-0.5-0.7-1.1-0.7-1.9c0-0.9,0.3-1.6,1-2.1c0.7-0.5,1.5-0.8,2.6-0.8
			c1.1,0,2.1,0.2,3,0.6l-0.3,0.7c-0.9-0.4-1.9-0.6-2.7-0.6c-0.8,0-1.5,0.2-2,0.6s-0.8,0.9-0.8,1.6c0,0.4,0.1,0.8,0.2,1
			c0.2,0.3,0.4,0.5,0.8,0.7c0.3,0.2,0.9,0.5,1.8,0.8c0.9,0.3,1.6,0.6,2,0.9c0.4,0.3,0.8,0.6,1,1
			C176.2,200.4,176.3,200.8,176.3,201.4z"/>
		<path fill="#414042" d="M180.8,203.8c0.5,0,0.9,0,1.3-0.1v0.6c-0.4,0.1-0.8,0.2-1.3,0.2c-0.8,0-1.3-0.2-1.7-0.6
			c-0.4-0.4-0.5-1-0.5-1.9v-5.5h-1.3V196l1.3-0.4l0.4-1.9h0.4v2.1h2.5v0.7h-2.5v5.4c0,0.7,0.1,1.1,0.3,1.4
			C180,203.6,180.3,203.8,180.8,203.8z"/>
		<path fill="#414042" d="M189.1,204.3l-0.2-1.3h-0.1c-0.4,0.5-0.9,0.9-1.3,1.2c-0.5,0.2-1,0.3-1.6,0.3c-0.8,0-1.5-0.2-1.9-0.6
			c-0.5-0.4-0.7-1-0.7-1.8c0-0.8,0.3-1.5,1-1.9c0.7-0.5,1.7-0.7,3-0.7l1.6,0v-0.6c0-0.8-0.2-1.4-0.5-1.8c-0.3-0.4-0.9-0.6-1.6-0.6
			c-0.8,0-1.6,0.2-2.4,0.7l-0.3-0.7c0.9-0.4,1.9-0.7,2.8-0.7c0.9,0,1.6,0.2,2.1,0.7s0.7,1.2,0.7,2.3v5.6H189.1z M185.9,203.8
			c0.9,0,1.6-0.3,2.1-0.8c0.5-0.5,0.8-1.2,0.8-2.2V200l-1.5,0.1c-1.2,0.1-2,0.2-2.6,0.6c-0.5,0.3-0.8,0.8-0.8,1.5
			c0,0.5,0.2,0.9,0.5,1.2C184.9,203.6,185.4,203.8,185.9,203.8z"/>
		<path fill="#414042" d="M198.3,204.3v-5.5c0-0.9-0.2-1.5-0.5-1.9c-0.4-0.4-0.9-0.6-1.7-0.6c-1,0-1.8,0.3-2.2,0.8
			c-0.5,0.5-0.7,1.3-0.7,2.5v4.7h-0.8v-8.5h0.7l0.1,1.2h0c0.6-0.9,1.5-1.3,2.9-1.3c1.9,0,2.9,1,2.9,3.1v5.6H198.3z"/>
		<path fill="#414042" d="M204.9,195.6c0.6,0,1.1,0.1,1.6,0.3c0.4,0.2,0.8,0.6,1.2,1.1h0c0-0.7,0-1.3,0-1.9v-3.1h0.8v12.2H208
			l-0.2-1.3h-0.1c-0.6,1-1.6,1.5-2.8,1.5c-1.2,0-2.1-0.4-2.7-1.1c-0.6-0.7-0.9-1.8-0.9-3.2c0-1.5,0.3-2.6,0.9-3.4
			C202.9,196,203.8,195.6,204.9,195.6z M204.9,196.3c-0.9,0-1.6,0.3-2.1,1c-0.5,0.7-0.7,1.6-0.7,2.8c0,2.4,0.9,3.6,2.8,3.6
			c1,0,1.7-0.3,2.1-0.8c0.4-0.6,0.7-1.5,0.7-2.8V200c0-1.3-0.2-2.3-0.7-2.8C206.6,196.6,205.9,196.3,204.9,196.3z"/>
		<path fill="#414042" d="M224.1,192.9v7.4c0,1.3-0.4,2.3-1.1,3.1c-0.8,0.7-1.8,1.1-3.2,1.1c-1.3,0-2.4-0.4-3.1-1.1
			s-1.1-1.8-1.1-3.1v-7.4h0.8v7.4c0,1.1,0.3,2,0.9,2.6c0.6,0.6,1.5,0.9,2.6,0.9c1.1,0,1.9-0.3,2.5-0.9c0.6-0.6,0.9-1.4,0.9-2.5v-7.5
			H224.1z"/>
		<path fill="#414042" d="M230.7,204.5c-1.3,0-2.3-0.5-2.9-1.5h-0.1l0,0.7c0,0.4,0,0.8,0,1.3v3.2H227v-12.3h0.7l0.1,1.2h0
			c0.6-0.9,1.5-1.4,2.8-1.4c1.1,0,2,0.4,2.6,1.1c0.6,0.8,0.9,1.8,0.9,3.3c0,1.4-0.3,2.5-0.9,3.2
			C232.6,204.1,231.7,204.5,230.7,204.5z M230.6,203.8c0.9,0,1.5-0.3,2-1c0.5-0.6,0.7-1.5,0.7-2.7c0-2.5-0.9-3.7-2.7-3.7
			c-1,0-1.7,0.3-2.2,0.8c-0.5,0.5-0.7,1.4-0.7,2.7v0.2c0,1.3,0.2,2.3,0.7,2.8C228.9,203.5,229.6,203.8,230.6,203.8z"/>
		<path fill="#414042" d="M241.8,202.1c0,0.8-0.3,1.3-0.9,1.8c-0.6,0.4-1.4,0.6-2.5,0.6c-1.1,0-2-0.2-2.7-0.5v-0.8
			c0.9,0.4,1.8,0.6,2.7,0.6c0.8,0,1.5-0.1,1.9-0.4c0.4-0.3,0.7-0.6,0.7-1.1c0-0.4-0.2-0.8-0.5-1.1c-0.3-0.3-0.9-0.6-1.7-0.9
			c-0.8-0.3-1.4-0.6-1.8-0.8c-0.3-0.2-0.6-0.5-0.8-0.8c-0.2-0.3-0.3-0.6-0.3-1c0-0.6,0.3-1.1,0.8-1.5c0.5-0.4,1.3-0.6,2.2-0.6
			c0.9,0,1.8,0.2,2.6,0.5l-0.3,0.7c-0.8-0.3-1.6-0.5-2.3-0.5c-0.7,0-1.2,0.1-1.6,0.3c-0.4,0.2-0.6,0.5-0.6,1c0,0.4,0.2,0.8,0.5,1.1
			c0.3,0.3,0.9,0.6,1.8,0.9c0.8,0.3,1.3,0.5,1.7,0.7c0.3,0.2,0.6,0.5,0.8,0.8C241.7,201.4,241.8,201.7,241.8,202.1z"/>
	</g>
</g>
<g>
	<g>
		<circle fill="#414042" cx="394" cy="65.2" r="6"/>
		<path fill="#414042" d="M446.7,119.4c3.5,0,6.4,2.9,6.4,6.4c0,3.5-2.9,6.4-6.4,6.4s-6.4-2.9-6.4-6.4
			C440.3,122.3,443.2,119.4,446.7,119.4 M446.7,118.2c-4.2,0-7.6,3.4-7.6,7.6c0,4.2,3.4,7.6,7.6,7.6c4.2,0,7.6-3.4,7.6-7.6
			C454.4,121.6,450.9,118.2,446.7,118.2L446.7,118.2z"/>
		<path fill="#414042" d="M449.7,136.6c1.5,0,2.5,0.8,3.2,1.4c1.2,1.2,1.8,3,1.7,4.9l-0.2,5.1h-15.1l-0.2-5.1
			c-0.1-1.9,0.5-3.7,1.7-4.9c0.6-0.6,1.7-1.4,3.2-1.4H449.7 M449.7,135.4h-5.9c-3.5,0-6.3,3.5-6.1,7.6l0.3,6.3h17.4l0.3-6.3
			C455.9,138.9,453.2,135.4,449.7,135.4L449.7,135.4z"/>
		<path fill="#414042" d="M388.1,136.6c1.5,0,2.5,0.8,3.2,1.4c1.2,1.2,1.8,3,1.7,4.9l-0.2,5.1h-15.1l-0.2-5.1
			c-0.1-1.9,0.5-3.7,1.7-4.9c0.6-0.6,1.7-1.4,3.2-1.4H388.1 M388.1,135.4h-5.9c-3.5,0-6.3,3.5-6.1,7.6l0.3,6.3h17.4l0.3-6.3
			C394.3,138.9,391.6,135.4,388.1,135.4L388.1,135.4z"/>
		<path fill="#414042" d="M418.7,136.6c1.5,0,2.5,0.8,3.2,1.4c1.2,1.2,1.8,3,1.7,4.9l-0.2,5.1h-15.1l-0.2-5.1
			c-0.1-1.9,0.5-3.7,1.7-4.9c0.6-0.6,1.7-1.4,3.2-1.4H418.7 M418.7,135.4h-5.9c-3.5,0-6.3,3.5-6.1,7.6l0.3,6.3h17.4l0.3-6.3
			C424.9,138.9,422.2,135.4,418.7,135.4L418.7,135.4z"/>
		<path fill="#414042" d="M442.8,55.3c-0.7-0.7-1.7-1.1-2.7-1.1h-6.8l0.1-1.5c0.1-1.3-0.9-2.5-2.2-2.6c-1.3-0.1-2.5,0.9-2.6,2.2
			l-0.2,1.9h-6.7c-1.9,0-3.5,1.4-3.7,3.3l-1,10.1c-3.3,1.4-6.8,2.9-6.9,3l-8.6,2.3c-1.2,0.3-2.6,0.4-3.8,0c-0.5-0.2-1-0.2-1.5-0.2
			h-4.6c-5.9,0-7.5,2.4-7.7,4.2l-1.5,13c0,0-0.1,0.5-0.1,0.7l-0.3,13.1c0,0.9,0.7,1.6,1.7,1.7s1.8-0.5,1.9-1.4l1-7.1
			c0,0-0.1,1-0.1,1.5c0,0,0.6,16.8,0.7,17.4l0.1,2.7l0,0c-0.7-0.2-1.5-0.4-2.3-0.4c-4.2,0-7.6,3.4-7.6,7.6c0,4.2,3.4,7.6,7.6,7.6
			c1.2,0,2.3-0.3,3.4-0.8c0.4,0.7,1.1,1.1,1.8,1.1c1.2,0,2.3-1.2,2.3-2.8l0.6-15.1c0-0.6,0.7-14.7,0.7-14.7h0.4c0,0,0.5,14,0.5,14.7
			l0.6,15.1c0.1,1.6,1.1,2.8,2.3,2.8c1.2,0,2.2-1.2,2.3-2.8l0.6-15.1c0-0.6,0.8-17.4,0.8-17.4c0-0.6-0.1-2.1-0.1-2.3V79.9l11.2-4.9
			c0,0,0,0,0,0c0.1,0,1.9-1,4-2.2l-2.7,27.8c-0.1,1,0.2,2.1,0.9,2.8c0.7,0.8,1.7,1.2,2.7,1.2h1.2l-2.2,13.6c-0.3,0-0.6-0.1-1-0.1
			c-4.2,0-7.6,3.4-7.6,7.6c0,4.2,3.4,7.6,7.6,7.6c4.2,0,7.6-3.4,7.6-7.6c0-3-1.8-5.6-4.3-6.9l2.3-14.3h11l0.6,3.8l-0.1,23.4
			c0,0.7,0.5,1.2,1.2,1.2c0,0,0,0,0,0c0.7,0,1.2-0.5,1.2-1.2l0-8.6l1.4,8.8c0.1,0.6,0.6,1,1.2,1c0.1,0,0.1,0,0.2,0
			c0.7-0.1,1.1-0.7,1-1.4l-3.7-23.4l0-3.6h3c2,0,3.6-1.6,3.7-3.5l1.8-43.1C443.9,57,443.5,56,442.8,55.3z M385.2,132.2
			c-3.5,0-6.4-2.9-6.4-6.4c0-3.5,2.9-6.4,6.4-6.4s6.4,2.9,6.4,6.4C391.6,129.3,388.7,132.2,385.2,132.2z M422.2,125.8
			c0,3.5-2.9,6.4-6.4,6.4s-6.4-2.9-6.4-6.4c0-3.5,2.9-6.4,6.4-6.4S422.2,122.3,422.2,125.8z M440.8,101c-0.1,1.3-1.1,2.4-2.5,2.4
			h-20.7c-0.7,0-1.4-0.3-1.8-0.8s-0.7-1.2-0.6-1.9l2.8-28.6c3.2-1.8,6.8-3.7,6.8-3.7c0.8-0.4,1-1.5,0.6-2.3c-0.4-0.9-1.4-1.3-2.2-1
			c0,0-2.1,0.9-4.7,2l0.9-9.5c0.1-1.3,1.2-2.3,2.5-2.3h18.3c0.7,0,1.3,0.3,1.8,0.8c0.5,0.5,0.7,1.1,0.7,1.8L440.8,101z"/>
	</g>
	<g>
		<path fill="#414042" d="M400.5,165.1c0,1.9-0.5,3.4-1.5,4.3c-1,1-2.5,1.5-4.4,1.5h-2.7v-11.4h3.1c1.8,0,3.2,0.5,4.2,1.4
			C400,161.8,400.5,163.2,400.5,165.1z M399.6,165.1c0-1.6-0.4-2.9-1.2-3.7c-0.8-0.8-2.1-1.2-3.7-1.2h-2.1v10h1.9
			C397.9,170.2,399.6,168.5,399.6,165.1z"/>
		<path fill="#414042" d="M406.4,171c-1.2,0-2.2-0.4-2.9-1.1c-0.7-0.8-1-1.8-1-3.2c0-1.4,0.3-2.4,1-3.3c0.7-0.8,1.6-1.2,2.7-1.2
			c1,0,1.8,0.3,2.4,1c0.6,0.7,0.9,1.6,0.9,2.8v0.6h-6.1c0,1.2,0.3,2.1,0.8,2.7c0.5,0.6,1.3,0.9,2.3,0.9c0.5,0,0.9,0,1.3-0.1
			c0.4-0.1,0.8-0.2,1.4-0.4v0.7c-0.5,0.2-0.9,0.4-1.3,0.4S406.9,171,406.4,171z M406.1,162.9c-0.8,0-1.5,0.3-2,0.8
			c-0.5,0.5-0.8,1.3-0.9,2.3h5.2c0-1-0.2-1.8-0.6-2.3C407.5,163.2,406.9,162.9,406.1,162.9z"/>
		<path fill="#414042" d="M422.3,170.9v-5.6c0-0.8-0.2-1.4-0.5-1.8c-0.3-0.4-0.8-0.6-1.5-0.6c-0.9,0-1.5,0.2-1.9,0.7
			c-0.4,0.5-0.6,1.2-0.6,2.3v5H417v-5.8c0-1.4-0.7-2.1-2-2.1c-0.9,0-1.5,0.3-1.9,0.8c-0.4,0.5-0.6,1.3-0.6,2.5v4.7h-0.8v-8.5h0.6
			l0.2,1.2h0c0.2-0.4,0.6-0.7,1-1c0.4-0.2,0.9-0.3,1.4-0.3c1.3,0,2.2,0.5,2.6,1.5h0c0.3-0.5,0.6-0.9,1.1-1.1c0.5-0.3,1-0.4,1.6-0.4
			c0.9,0,1.6,0.2,2.1,0.7c0.5,0.5,0.7,1.3,0.7,2.4v5.6H422.3z"/>
		<path fill="#414042" d="M432.9,166.6c0,1.4-0.3,2.5-1,3.2c-0.7,0.8-1.6,1.2-2.8,1.2c-0.7,0-1.4-0.2-2-0.5c-0.6-0.4-1-0.9-1.3-1.5
			c-0.3-0.7-0.5-1.4-0.5-2.3c0-1.4,0.3-2.5,1-3.2s1.6-1.2,2.8-1.2c1.2,0,2.1,0.4,2.7,1.2C432.5,164.2,432.9,165.3,432.9,166.6z
			 M426.2,166.6c0,1.2,0.3,2.1,0.8,2.7c0.5,0.7,1.2,1,2.2,1s1.7-0.3,2.2-1c0.5-0.7,0.8-1.6,0.8-2.7c0-1.2-0.3-2.1-0.8-2.7
			c-0.5-0.6-1.2-1-2.2-1s-1.7,0.3-2.2,1C426.4,164.5,426.2,165.4,426.2,166.6z"/>
		<path fill="#414042" d="M440.5,168.7c0,0.8-0.3,1.3-0.9,1.8c-0.6,0.4-1.4,0.6-2.5,0.6c-1.1,0-2-0.2-2.7-0.5v-0.8
			c0.9,0.4,1.8,0.6,2.7,0.6c0.8,0,1.5-0.1,1.9-0.4c0.4-0.3,0.7-0.6,0.7-1.1c0-0.4-0.2-0.8-0.5-1.1c-0.3-0.3-0.9-0.6-1.7-0.9
			c-0.8-0.3-1.4-0.6-1.8-0.8c-0.3-0.2-0.6-0.5-0.8-0.8c-0.2-0.3-0.3-0.6-0.3-1c0-0.6,0.3-1.1,0.8-1.5c0.5-0.4,1.3-0.6,2.2-0.6
			c0.9,0,1.8,0.2,2.6,0.5l-0.3,0.7c-0.8-0.3-1.6-0.5-2.3-0.5c-0.7,0-1.2,0.1-1.6,0.3c-0.4,0.2-0.6,0.5-0.6,1c0,0.4,0.2,0.8,0.5,1.1
			c0.3,0.3,0.9,0.6,1.8,0.9c0.8,0.3,1.3,0.5,1.7,0.7c0.3,0.2,0.6,0.5,0.8,0.8C440.4,168,440.5,168.3,440.5,168.7z"/>
	</g>
</g>
<g>
	<g>
		<path fill="#414042" d="M657.9,111.3h-12.3c-5.3,0-5.6-4.7-5.6-5.6V93.3L657.9,111.3z M661.6,152l3.6,3.6v-42.1L640,88.2V88h-0.1
			l-2-2h-42.5c-3.2,0-9.3,1.9-9.3,9.3v80.6c0,3.2,1.9,9.3,9.3,9.3H656c3.2,0,9.3-1.9,9.3-9.3v-5.5l-3.6-3.6v9.1
			c0,5.3-4.7,5.7-5.6,5.7h-60.7c-5.3,0-5.6-4.7-5.6-5.7V95.3c0-5.3,4.7-5.7,5.6-5.7h41l0,0v16c0,0.5,0.1,1.1,0.2,1.7h-34.2
			c-1,0-1.8,0.8-1.8,1.8s0.8,1.8,1.8,1.8h35.6c1.4,2.2,3.7,4,7.7,4h15.9l0.1,0.1V152z M617.1,137.1c0-1.1,0.1-2.2,0.3-3.3h-15.1
			c-1,0-1.8,0.8-1.8,1.8c0,1,0.8,1.8,1.8,1.8h14.8C617.1,137.3,617.1,137.2,617.1,137.1 M602.3,124.2h18.9c1-1.3,2.1-2.6,3.3-3.6
			h-22.2c-1,0-1.8,0.8-1.8,1.8C600.5,123.4,601.3,124.2,602.3,124.2 M619.5,147h-17.2c-1,0-1.8,0.8-1.8,1.8c0,1,0.8,1.8,1.8,1.8
			h19.5C620.9,149.5,620.2,148.3,619.5,147 M649,160.2h-46.7c-1,0-1.8,0.8-1.8,1.8c0,1,0.8,1.8,1.8,1.8H649c1,0,1.8-0.8,1.8-1.8
			C650.8,161.1,650,160.2,649,160.2 M639.3,153.3c-8.9,0-16.2-7.3-16.2-16.2c0-8.9,7.3-16.2,16.2-16.2c8.9,0,16.2,7.3,16.2,16.2
			S648.2,153.3,639.3,153.3 M677.2,170.5l-21.7-21.7c0,0-0.1-0.1-0.1-0.1c2.4-3.3,3.8-7.3,3.8-11.6c0-10.9-8.9-19.8-19.8-19.8
			s-19.8,8.9-19.8,19.8c0,10.9,8.9,19.8,19.8,19.8c4.3,0,8.4-1.4,11.6-3.8c0,0,0.1,0.1,0.1,0.1l21.7,21.7c0.6,0.6,1.4,0.9,2.2,0.9
			s1.6-0.3,2.2-0.9C678.4,173.7,678.4,171.7,677.2,170.5"/>
	</g>
	<g>
		<path fill="#414042" d="M582.1,193.4c-1.4,0-2.6,0.5-3.4,1.4c-0.8,0.9-1.2,2.2-1.2,3.8c0,1.6,0.4,2.9,1.2,3.8
			c0.8,0.9,1.9,1.4,3.3,1.4c1,0,1.8-0.1,2.6-0.4v0.7c-0.8,0.3-1.7,0.4-2.8,0.4c-1.6,0-2.9-0.5-3.8-1.6c-0.9-1-1.4-2.5-1.4-4.3
			c0-1.2,0.2-2.2,0.7-3.1c0.4-0.9,1.1-1.6,1.9-2.1c0.8-0.5,1.8-0.7,2.9-0.7c1.1,0,2.1,0.2,3,0.6l-0.3,0.7
			C583.9,193.6,583,193.4,582.1,193.4z"/>
		<path fill="#414042" d="M594,200c0,1.4-0.3,2.5-1,3.2c-0.7,0.8-1.6,1.2-2.8,1.2c-0.7,0-1.4-0.2-2-0.5c-0.6-0.4-1-0.9-1.3-1.5
			c-0.3-0.7-0.5-1.4-0.5-2.3c0-1.4,0.3-2.5,1-3.2s1.6-1.2,2.8-1.2c1.2,0,2.1,0.4,2.7,1.2C593.6,197.6,594,198.7,594,200z M587.3,200
			c0,1.2,0.3,2.1,0.8,2.7c0.5,0.7,1.2,1,2.2,1s1.7-0.3,2.2-1c0.5-0.7,0.8-1.6,0.8-2.7c0-1.2-0.3-2.1-0.8-2.7c-0.5-0.6-1.2-1-2.2-1
			s-1.7,0.3-2.2,1C587.5,198,587.3,198.9,587.3,200z"/>
		<path fill="#414042" d="M599.4,195.6c0.6,0,1.1,0.1,1.6,0.3c0.4,0.2,0.8,0.6,1.2,1.1h0c0-0.7,0-1.3,0-1.9v-3.1h0.8v12.2h-0.5
			l-0.2-1.3h-0.1c-0.6,1-1.6,1.5-2.8,1.5c-1.2,0-2.1-0.4-2.7-1.1c-0.6-0.7-0.9-1.8-0.9-3.2c0-1.5,0.3-2.6,0.9-3.4
			C597.4,196,598.3,195.6,599.4,195.6z M599.4,196.3c-0.9,0-1.6,0.3-2.1,1c-0.5,0.7-0.7,1.6-0.7,2.8c0,2.4,0.9,3.6,2.8,3.6
			c1,0,1.7-0.3,2.1-0.8c0.4-0.6,0.7-1.5,0.7-2.8V200c0-1.3-0.2-2.3-0.7-2.8C601.1,196.6,600.4,196.3,599.4,196.3z"/>
		<path fill="#414042" d="M609.3,204.5c-1.2,0-2.2-0.4-2.9-1.1c-0.7-0.8-1-1.8-1-3.2c0-1.4,0.3-2.4,1-3.3c0.7-0.8,1.6-1.2,2.7-1.2
			c1,0,1.8,0.3,2.4,1c0.6,0.7,0.9,1.6,0.9,2.8v0.6h-6.1c0,1.2,0.3,2.1,0.8,2.7c0.5,0.6,1.3,0.9,2.3,0.9c0.5,0,0.9,0,1.3-0.1
			c0.4-0.1,0.8-0.2,1.4-0.4v0.7c-0.5,0.2-0.9,0.4-1.3,0.4S609.8,204.5,609.3,204.5z M609,196.3c-0.8,0-1.5,0.3-2,0.8
			c-0.5,0.5-0.8,1.3-0.9,2.3h5.2c0-1-0.2-1.8-0.6-2.3C610.4,196.6,609.8,196.3,609,196.3z"/>
		<path fill="#414042" d="M619.8,199.3v5H619v-11.4h2.7c1.4,0,2.5,0.3,3.1,0.8c0.7,0.5,1,1.3,1,2.4c0,0.8-0.2,1.4-0.6,1.9
			c-0.4,0.5-1,0.9-1.8,1.1l3.1,5.2h-1l-2.9-5H619.8z M619.8,198.6h2.2c1,0,1.7-0.2,2.2-0.6s0.8-1.1,0.8-1.9c0-0.9-0.3-1.5-0.8-1.9
			c-0.5-0.4-1.4-0.6-2.5-0.6h-1.9V198.6z"/>
		<path fill="#414042" d="M631.7,204.5c-1.2,0-2.2-0.4-2.9-1.1c-0.7-0.8-1-1.8-1-3.2c0-1.4,0.3-2.4,1-3.3c0.7-0.8,1.6-1.2,2.7-1.2
			c1,0,1.8,0.3,2.4,1c0.6,0.7,0.9,1.6,0.9,2.8v0.6h-6.1c0,1.2,0.3,2.1,0.8,2.7c0.5,0.6,1.3,0.9,2.3,0.9c0.5,0,0.9,0,1.3-0.1
			c0.4-0.1,0.8-0.2,1.4-0.4v0.7c-0.5,0.2-0.9,0.4-1.3,0.4S632.2,204.5,631.7,204.5z M631.5,196.3c-0.8,0-1.5,0.3-2,0.8
			c-0.5,0.5-0.8,1.3-0.9,2.3h5.2c0-1-0.2-1.8-0.6-2.3C632.8,196.6,632.2,196.3,631.5,196.3z"/>
		<path fill="#414042" d="M638.9,204.3l-3.3-8.5h0.8l2.2,5.8c0.3,0.7,0.5,1.4,0.7,1.9h0c0.2-0.7,0.4-1.4,0.7-2l2.2-5.8h0.8l-3.3,8.5
			H638.9z"/>
		<path fill="#414042" d="M644.3,193.5c0-0.5,0.2-0.8,0.5-0.8c0.2,0,0.3,0.1,0.4,0.2c0.1,0.1,0.1,0.3,0.1,0.6c0,0.2,0,0.4-0.1,0.6
			c-0.1,0.1-0.2,0.2-0.4,0.2C644.5,194.2,644.3,194,644.3,193.5z M645.2,204.3h-0.8v-8.5h0.8V204.3z"/>
		<path fill="#414042" d="M651.5,204.5c-1.2,0-2.2-0.4-2.9-1.1c-0.7-0.8-1-1.8-1-3.2c0-1.4,0.3-2.4,1-3.3c0.7-0.8,1.6-1.2,2.7-1.2
			c1,0,1.8,0.3,2.4,1c0.6,0.7,0.9,1.6,0.9,2.8v0.6h-6.1c0,1.2,0.3,2.1,0.8,2.7c0.5,0.6,1.3,0.9,2.3,0.9c0.5,0,0.9,0,1.3-0.1
			c0.4-0.1,0.8-0.2,1.4-0.4v0.7c-0.5,0.2-0.9,0.4-1.3,0.4S652,204.5,651.5,204.5z M651.2,196.3c-0.8,0-1.5,0.3-2,0.8
			c-0.5,0.5-0.8,1.3-0.9,2.3h5.2c0-1-0.2-1.8-0.6-2.3C652.6,196.6,652,196.3,651.2,196.3z"/>
		<path fill="#414042" d="M663.6,204.3l-1.9-5.7c-0.1-0.4-0.3-1-0.5-1.7h0l-0.2,0.6l-0.4,1.1l-1.9,5.7h-0.8l-2.4-8.5h0.8l1.4,4.9
			c0.3,1.2,0.5,2.1,0.6,2.7h0c0.3-1.2,0.5-2,0.7-2.4l1.8-5.2h0.7l1.7,5.2c0.4,1.2,0.6,2,0.7,2.4h0c0-0.3,0.2-1.2,0.6-2.7l1.3-4.9
			h0.8l-2.3,8.5H663.6z"/>
		<path fill="#414042" d="M673.6,202.1c0,0.8-0.3,1.3-0.9,1.8c-0.6,0.4-1.4,0.6-2.5,0.6c-1.1,0-2-0.2-2.7-0.5v-0.8
			c0.9,0.4,1.8,0.6,2.7,0.6c0.8,0,1.5-0.1,1.9-0.4c0.4-0.3,0.7-0.6,0.7-1.1c0-0.4-0.2-0.8-0.5-1.1c-0.3-0.3-0.9-0.6-1.7-0.9
			c-0.8-0.3-1.4-0.6-1.8-0.8c-0.3-0.2-0.6-0.5-0.8-0.8c-0.2-0.3-0.3-0.6-0.3-1c0-0.6,0.3-1.1,0.8-1.5c0.5-0.4,1.3-0.6,2.2-0.6
			c0.9,0,1.8,0.2,2.6,0.5l-0.3,0.7c-0.8-0.3-1.6-0.5-2.3-0.5c-0.7,0-1.2,0.1-1.6,0.3c-0.4,0.2-0.6,0.5-0.6,1c0,0.4,0.2,0.8,0.5,1.1
			c0.3,0.3,0.9,0.6,1.8,0.9c0.8,0.3,1.3,0.5,1.7,0.7c0.3,0.2,0.6,0.5,0.8,0.8C673.6,201.4,673.6,201.7,673.6,202.1z"/>
	</g>
</g>
<g>
	<g>
		<path fill="#414042" d="M135.8,444.4c-1.5-13.4-12.9-23.7-26.7-23.7c-1.4,0-2.8,0.1-4.1,0.4v-23.1c0-3.4-2.8-6.2-6.2-6.2H57.5
			c-3.4,0-6.2,2.8-6.2,6.2v43.4c0,3.4,2.8,6.2,6.2,6.2h24.8c0,7.6,3.2,14.5,8.3,19.4v24h33.1v-9.3c6.5,0,11.8-5,12.3-11.4h0.1V464
			h4.1c1.1,0,2.1-0.9,2.1-2.1C142.2,461.5,135.8,444.4,135.8,444.4z M100.9,441.3c0,1.1-0.9,2.1-2.1,2.1h-2.1
			c-1.1,0-2.1,0.9-2.1,2.1c0,3.7,2.3,7.3,4.6,9.9c-11.2-2-12.8-9.8-12.9-10.2c-0.2-1-1-1.7-2-1.7H57.5c-1.1,0-2.1-0.9-2.1-2.1v-43.4
			c0-1.1,0.9-2.1,2.1-2.1h41.3c1.1,0,2.1,0.9,2.1,2.1V441.3z M126.7,451.6c-1.7,0-3.1-1.4-3.1-3.1c0-1.7,1.4-3.1,3.1-3.1
			c1.7,0,3.1,1.4,3.1,3.1C129.8,450.2,128.4,451.6,126.7,451.6z"/>
		<rect x="78.1" y="402" fill="#414042" width="18.6" height="4.1"/>
		<rect x="78.1" y="416.5" fill="#414042" width="18.6" height="4.1"/>
		<rect x="78.1" y="430.9" fill="#414042" width="18.6" height="4.1"/>
		<path fill="#414042" d="M65.7,410.3c-0.3,0-0.6-0.1-0.9-0.2l-4.1-2.1c-1-0.5-1.4-1.8-0.9-2.8c0.5-1,1.8-1.4,2.8-0.9l2.6,1.3
			l5.2-6.9c0.7-0.9,2-1.1,2.9-0.4c0.9,0.7,1.1,2,0.4,2.9l-6.2,8.3C67,410,66.4,410.3,65.7,410.3z"/>
		<path fill="#414042" d="M65.7,424.7c-0.3,0-0.6-0.1-0.9-0.2l-4.1-2.1c-1-0.5-1.4-1.8-0.9-2.8c0.5-1,1.8-1.4,2.8-0.9l2.6,1.3
			l5.2-6.9c0.7-0.9,2-1.1,2.9-0.4c0.9,0.7,1.1,2,0.4,2.9l-6.2,8.3C67,424.5,66.4,424.7,65.7,424.7z"/>
		<path fill="#414042" d="M69.7,434l1.6-1.6c0.8-0.8,0.8-2.1,0-2.9c-0.8-0.8-2.1-0.8-2.9,0l-1.6,1.6l-1.6-1.6
			c-0.8-0.8-2.1-0.8-2.9,0s-0.8,2.1,0,2.9l1.6,1.6l-1.6,1.6c-0.8,0.8-0.8,2.1,0,2.9c0.4,0.4,0.9,0.6,1.5,0.6s1.1-0.2,1.5-0.6
			l1.6-1.6l1.6,1.6c0.4,0.4,0.9,0.6,1.5,0.6s1.1-0.2,1.5-0.6c0.8-0.8,0.8-2.1,0-2.9L69.7,434z"/>
	</g>
	<g>
		<path fill="#414042" d="M74.4,501.8v7.4c0,1.3-0.4,2.3-1.1,3.1c-0.8,0.7-1.8,1.1-3.2,1.1c-1.3,0-2.4-0.4-3.1-1.1s-1.1-1.8-1.1-3.1
			v-7.4h0.8v7.4c0,1.1,0.3,2,0.9,2.6s1.5,0.9,2.6,0.9c1.1,0,1.9-0.3,2.5-0.9c0.6-0.6,0.9-1.4,0.9-2.5v-7.5H74.4z"/>
		<path fill="#414042" d="M82.6,511c0,0.8-0.3,1.3-0.9,1.8s-1.4,0.6-2.5,0.6c-1.1,0-2-0.2-2.7-0.5V512c0.9,0.4,1.8,0.6,2.7,0.6
			c0.8,0,1.5-0.1,1.9-0.4c0.4-0.3,0.7-0.6,0.7-1.1c0-0.4-0.2-0.8-0.5-1.1c-0.3-0.3-0.9-0.6-1.7-0.9c-0.8-0.3-1.4-0.6-1.8-0.8
			s-0.6-0.5-0.8-0.8c-0.2-0.3-0.3-0.6-0.3-1c0-0.6,0.3-1.1,0.8-1.5c0.5-0.4,1.3-0.6,2.2-0.6c0.9,0,1.8,0.2,2.6,0.5l-0.3,0.7
			c-0.8-0.3-1.6-0.5-2.3-0.5c-0.7,0-1.2,0.1-1.6,0.3s-0.6,0.5-0.6,1c0,0.4,0.2,0.8,0.5,1.1c0.3,0.3,0.9,0.6,1.8,0.9
			c0.8,0.3,1.3,0.5,1.7,0.7c0.3,0.2,0.6,0.5,0.8,0.8C82.5,510.3,82.6,510.6,82.6,511z"/>
		<path fill="#414042" d="M88.2,513.4c-1.2,0-2.2-0.4-2.9-1.1c-0.7-0.8-1-1.8-1-3.2c0-1.4,0.3-2.4,1-3.3c0.7-0.8,1.6-1.2,2.7-1.2
			c1,0,1.8,0.3,2.4,1s0.9,1.6,0.9,2.8v0.6h-6.1c0,1.2,0.3,2.1,0.8,2.7c0.5,0.6,1.3,0.9,2.3,0.9c0.5,0,0.9,0,1.3-0.1s0.8-0.2,1.4-0.4
			v0.7c-0.5,0.2-0.9,0.4-1.3,0.4S88.7,513.4,88.2,513.4z M88,505.2c-0.8,0-1.5,0.3-2,0.8c-0.5,0.5-0.8,1.3-0.9,2.3h5.2
			c0-1-0.2-1.8-0.6-2.3C89.3,505.5,88.7,505.2,88,505.2z"/>
		<path fill="#414042" d="M96.9,504.6c0.4,0,0.7,0,1.2,0.1l-0.1,0.7c-0.4-0.1-0.7-0.1-1.1-0.1c-0.7,0-1.3,0.3-1.8,0.9
			c-0.5,0.6-0.7,1.4-0.7,2.3v4.7h-0.8v-8.5h0.7l0.1,1.5h0.1c0.3-0.6,0.7-1.1,1.1-1.3C95.8,504.7,96.3,504.6,96.9,504.6z"/>
		<path fill="#414042" d="M107.1,513.2h-0.8v-10.7h-3.7v-0.8h8.2v0.8h-3.7V513.2z"/>
		<path fill="#414042" d="M115.7,513.4c-1.2,0-2.2-0.4-2.9-1.1c-0.7-0.8-1-1.8-1-3.2c0-1.4,0.3-2.4,1-3.3c0.7-0.8,1.6-1.2,2.7-1.2
			c1,0,1.8,0.3,2.4,1s0.9,1.6,0.9,2.8v0.6h-6.1c0,1.2,0.3,2.1,0.8,2.7c0.5,0.6,1.3,0.9,2.3,0.9c0.5,0,0.9,0,1.3-0.1s0.8-0.2,1.4-0.4
			v0.7c-0.5,0.2-0.9,0.4-1.3,0.4S116.2,513.4,115.7,513.4z M115.5,505.2c-0.8,0-1.5,0.3-2,0.8c-0.5,0.5-0.8,1.3-0.9,2.3h5.2
			c0-1-0.2-1.8-0.6-2.3C116.9,505.5,116.3,505.2,115.5,505.2z"/>
		<path fill="#414042" d="M126.4,511c0,0.8-0.3,1.3-0.9,1.8s-1.4,0.6-2.5,0.6c-1.1,0-2-0.2-2.7-0.5V512c0.9,0.4,1.8,0.6,2.7,0.6
			c0.8,0,1.5-0.1,1.9-0.4c0.4-0.3,0.7-0.6,0.7-1.1c0-0.4-0.2-0.8-0.5-1.1c-0.3-0.3-0.9-0.6-1.7-0.9c-0.8-0.3-1.4-0.6-1.8-0.8
			s-0.6-0.5-0.8-0.8c-0.2-0.3-0.3-0.6-0.3-1c0-0.6,0.3-1.1,0.8-1.5c0.5-0.4,1.3-0.6,2.2-0.6c0.9,0,1.8,0.2,2.6,0.5l-0.3,0.7
			c-0.8-0.3-1.6-0.5-2.3-0.5c-0.7,0-1.2,0.1-1.6,0.3s-0.6,0.5-0.6,1c0,0.4,0.2,0.8,0.5,1.1c0.3,0.3,0.9,0.6,1.8,0.9
			c0.8,0.3,1.3,0.5,1.7,0.7c0.3,0.2,0.6,0.5,0.8,0.8C126.3,510.3,126.4,510.6,126.4,511z"/>
		<path fill="#414042" d="M130.8,512.7c0.5,0,0.9,0,1.3-0.1v0.6c-0.4,0.1-0.8,0.2-1.3,0.2c-0.8,0-1.3-0.2-1.7-0.6
			c-0.4-0.4-0.5-1-0.5-1.9v-5.5h-1.3v-0.5l1.3-0.4l0.4-1.9h0.4v2.1h2.5v0.7h-2.5v5.4c0,0.7,0.1,1.1,0.3,1.4
			C129.9,512.5,130.3,512.7,130.8,512.7z"/>
		<path fill="#414042" d="M133.8,502.4c0-0.5,0.2-0.8,0.5-0.8c0.2,0,0.3,0.1,0.4,0.2c0.1,0.1,0.1,0.3,0.1,0.6c0,0.2,0,0.4-0.1,0.6
			c-0.1,0.1-0.2,0.2-0.4,0.2C134,503.1,133.8,502.9,133.8,502.4z M134.7,513.2h-0.8v-8.5h0.8V513.2z"/>
		<path fill="#414042" d="M143.4,513.2v-5.5c0-0.9-0.2-1.5-0.5-1.9s-0.9-0.6-1.7-0.6c-1,0-1.8,0.3-2.2,0.8c-0.5,0.5-0.7,1.3-0.7,2.5
			v4.7h-0.8v-8.5h0.7l0.1,1.2h0c0.6-0.9,1.5-1.3,2.9-1.3c1.9,0,2.9,1,2.9,3.1v5.6H143.4z"/>
		<path fill="#414042" d="M153.6,504.7v0.5l-1.8,0.1c0.5,0.6,0.7,1.2,0.7,1.9c0,0.8-0.3,1.5-0.8,2c-0.5,0.5-1.3,0.8-2.2,0.8
			c-0.4,0-0.7,0-0.8,0c-0.3,0.2-0.5,0.4-0.7,0.6c-0.2,0.2-0.2,0.5-0.2,0.7c0,0.3,0.1,0.5,0.3,0.6c0.2,0.1,0.6,0.2,1,0.2h1.5
			c0.9,0,1.6,0.2,2.1,0.6c0.5,0.4,0.7,0.9,0.7,1.7c0,0.9-0.4,1.6-1.1,2.1c-0.7,0.5-1.8,0.7-3.1,0.7c-1.1,0-1.9-0.2-2.5-0.6
			c-0.6-0.4-0.9-1-0.9-1.7c0-0.6,0.2-1.1,0.5-1.5c0.4-0.4,0.9-0.6,1.5-0.8c-0.3-0.1-0.5-0.3-0.6-0.5c-0.2-0.2-0.2-0.4-0.2-0.7
			c0-0.6,0.4-1.1,1.1-1.5c-0.5-0.2-0.9-0.5-1.2-1c-0.3-0.4-0.4-0.9-0.4-1.5c0-0.8,0.3-1.5,0.8-2s1.3-0.8,2.2-0.8
			c0.6,0,1,0.1,1.3,0.2H153.6z M146.7,514.7c0,1.2,0.9,1.8,2.6,1.8c2.2,0,3.3-0.7,3.3-2.1c0-0.5-0.2-0.9-0.5-1.1
			c-0.3-0.2-0.9-0.3-1.7-0.3H149C147.5,512.8,146.7,513.4,146.7,514.7z M147.4,507.4c0,0.7,0.2,1.2,0.6,1.5s0.9,0.5,1.6,0.5
			c0.7,0,1.3-0.2,1.6-0.5c0.4-0.4,0.6-0.9,0.6-1.6c0-0.7-0.2-1.3-0.6-1.6c-0.4-0.4-0.9-0.5-1.6-0.5c-0.7,0-1.2,0.2-1.6,0.6
			C147.5,506.1,147.4,506.7,147.4,507.4z"/>
	</g>
</g>
<g>
	<g>
		<circle fill="#414042" cx="322.2" cy="448.9" r="9.9"/>
		<path fill="#414042" d="M344.8,464.6c-2.3-1.5-5.4-0.9-6.9,1.4l-6.6,9.8l-10.6-10.6c-0.2-0.2-0.4-0.3-0.7-0.4
			c-0.2-0.2-0.4-0.4-0.6-0.5l-9.9-5c0,0-0.1,0-0.1,0c-0.3-0.1-0.6-0.2-1-0.3c-0.3-0.1-0.6-0.2-0.9-0.2c-0.1,0-0.1,0-0.2,0h-19.8
			c-1.7,0-3.2,0.8-4.1,2.2l-9.9,14.9c-1.5,2.3-0.9,5.4,1.4,6.9c0.8,0.6,1.8,0.8,2.7,0.8c1.6,0,3.2-0.8,4.1-2.2l8.4-12.7h9.2
			L288,491.4c-0.1,0.2-0.1,0.4-0.2,0.6c-0.1,0.2-0.2,0.4-0.3,0.6l-3.9,19.7l-14.8-3.7c-2.7-0.7-5.4,0.9-6,3.6c-0.7,2.7,1,5.3,3.6,6
			l19.8,5c0.4,0.1,0.8,0.1,1.2,0.1c0.9,0,1.9-0.3,2.7-0.8c1.1-0.7,1.9-1.9,2.2-3.2l3.7-18.4l3.4,1.7l11.8,11.8l-8.3,16.6
			c-1.2,2.5-0.2,5.4,2.2,6.7c0.7,0.4,1.5,0.5,2.2,0.5c1.8,0,3.6-1,4.4-2.7l9.9-19.8c1-1.9,0.6-4.2-0.9-5.7l-12.4-12.4l10.2-20.4
			l10,10c0.9,0.9,2.2,1.5,3.5,1.5c0.2,0,0.3,0,0.5,0c1.5-0.1,2.8-0.9,3.6-2.2l9.9-14.9C347.7,469.2,347.1,466.2,344.8,464.6z"/>
	</g>
	<g>
		<path fill="#414042" d="M287.6,559.4c0,1-0.4,1.7-1.1,2.3c-0.7,0.6-1.6,0.8-2.8,0.8c-1.4,0-2.5-0.2-3.2-0.5v-0.8
			c0.8,0.3,1.9,0.5,3.1,0.5c0.9,0,1.7-0.2,2.2-0.6c0.5-0.4,0.8-1,0.8-1.7c0-0.4-0.1-0.8-0.3-1.1c-0.2-0.3-0.5-0.5-0.9-0.8
			c-0.4-0.2-1-0.5-1.8-0.8c-1.2-0.4-2-0.8-2.4-1.3c-0.4-0.5-0.7-1.1-0.7-1.9c0-0.9,0.3-1.6,1-2.1c0.7-0.5,1.5-0.8,2.6-0.8
			c1.1,0,2.1,0.2,3,0.6L287,552c-0.9-0.4-1.9-0.6-2.7-0.6c-0.8,0-1.5,0.2-2,0.6s-0.8,0.9-0.8,1.6c0,0.4,0.1,0.8,0.2,1
			c0.2,0.3,0.4,0.5,0.8,0.7c0.3,0.2,0.9,0.5,1.8,0.8c0.9,0.3,1.6,0.6,2,0.9c0.4,0.3,0.8,0.6,1,1
			C287.5,558.4,287.6,558.8,287.6,559.4z"/>
		<path fill="#414042" d="M293.4,562.5c-1.3,0-2.3-0.5-2.9-1.5h-0.1l0,0.7c0,0.4,0,0.8,0,1.3v3.2h-0.8v-12.3h0.7l0.1,1.2h0
			c0.6-0.9,1.5-1.4,2.8-1.4c1.1,0,2,0.4,2.6,1.1c0.6,0.8,0.9,1.8,0.9,3.3c0,1.4-0.3,2.5-0.9,3.2
			C295.4,562.1,294.5,562.5,293.4,562.5z M293.4,561.8c0.9,0,1.5-0.3,2-1c0.5-0.6,0.7-1.5,0.7-2.7c0-2.5-0.9-3.7-2.7-3.7
			c-1,0-1.7,0.3-2.2,0.8c-0.5,0.5-0.7,1.4-0.7,2.7v0.2c0,1.3,0.2,2.3,0.7,2.8C291.7,561.5,292.4,561.8,293.4,561.8z"/>
		<path fill="#414042" d="M302.7,553.6c0.4,0,0.7,0,1.2,0.1l-0.1,0.7c-0.4-0.1-0.7-0.1-1.1-0.1c-0.7,0-1.3,0.3-1.8,0.9
			c-0.5,0.6-0.7,1.4-0.7,2.3v4.7h-0.8v-8.5h0.7l0.1,1.5h0.1c0.3-0.6,0.7-1.1,1.1-1.3C301.6,553.8,302.1,553.6,302.7,553.6z"/>
		<path fill="#414042" d="M305.4,551.5c0-0.5,0.2-0.8,0.5-0.8c0.2,0,0.3,0.1,0.4,0.2c0.1,0.1,0.1,0.3,0.1,0.6c0,0.2,0,0.4-0.1,0.6
			c-0.1,0.1-0.2,0.2-0.4,0.2C305.6,552.2,305.4,552,305.4,551.5z M306.3,562.3h-0.8v-8.5h0.8V562.3z"/>
		<path fill="#414042" d="M315.1,562.3v-5.5c0-0.9-0.2-1.5-0.5-1.9c-0.4-0.4-0.9-0.6-1.7-0.6c-1,0-1.8,0.3-2.2,0.8
			c-0.5,0.5-0.7,1.3-0.7,2.5v4.7h-0.8v-8.5h0.7l0.1,1.2h0c0.6-0.9,1.5-1.3,2.9-1.3c1.9,0,2.9,1,2.9,3.1v5.6H315.1z"/>
		<path fill="#414042" d="M320.9,561.8c0.5,0,0.9,0,1.3-0.1v0.6c-0.4,0.1-0.8,0.2-1.3,0.2c-0.8,0-1.3-0.2-1.7-0.6
			c-0.4-0.4-0.5-1-0.5-1.9v-5.5h-1.3V554l1.3-0.4l0.4-1.9h0.4v2.1h2.5v0.7h-2.5v5.4c0,0.7,0.1,1.1,0.3,1.4
			C320,561.6,320.4,561.8,320.9,561.8z"/>
		<path fill="#414042" d="M329.2,560.1c0,0.8-0.3,1.3-0.9,1.8c-0.6,0.4-1.4,0.6-2.5,0.6c-1.1,0-2-0.2-2.7-0.5v-0.8
			c0.9,0.4,1.8,0.6,2.7,0.6c0.8,0,1.5-0.1,1.9-0.4c0.4-0.3,0.7-0.6,0.7-1.1c0-0.4-0.2-0.8-0.5-1.1c-0.3-0.3-0.9-0.6-1.7-0.9
			c-0.8-0.3-1.4-0.6-1.8-0.8c-0.3-0.2-0.6-0.5-0.8-0.8c-0.2-0.3-0.3-0.6-0.3-1c0-0.6,0.3-1.1,0.8-1.5c0.5-0.4,1.3-0.6,2.2-0.6
			c0.9,0,1.8,0.2,2.6,0.5l-0.3,0.7c-0.8-0.3-1.6-0.5-2.3-0.5c-0.7,0-1.2,0.1-1.6,0.3c-0.4,0.2-0.6,0.5-0.6,1c0,0.4,0.2,0.8,0.5,1.1
			c0.3,0.3,0.9,0.6,1.8,0.9c0.8,0.3,1.3,0.5,1.7,0.7c0.3,0.2,0.6,0.5,0.8,0.8C329.1,559.4,329.2,559.7,329.2,560.1z"/>
	</g>
</g>
<g>
	<g>
		<g>
			<circle fill="#414042" cx="506.1" cy="472.6" r="8.9"/>
		</g>
		<path fill="#414042" d="M516.8,483.3h-21.3c-4.4,0-8,3.6-8,8v5.8c0,2.2,1.8,4,4,4h9.8c2.2,0,4-1.8,4-4s-1.8-4-4-4h-5.8v-1.8h21.3
			v1.8H511c-2.2,0-4,1.8-4,4c0,2.2,1.8,4,4,4h9.8c2.2,0,4-1.8,4-4v-5.8C524.8,486.9,521.2,483.3,516.8,483.3z"/>
		
			<rect x="535.4" y="453.2" transform="matrix(0.9659 0.2588 -0.2588 0.9659 137.9617 -123.8649)" fill="#414042" width="8" height="17.8"/>
		<circle fill="#414042" cx="543.2" cy="447.9" r="4"/>
		<path fill="#414042" d="M528.1,435.6l-9.2,34.3l15.2,4.1l-7.7,28.8h0l0,0h-48.3v32h55.9v-32h-3.6L538,475l15.2,4.1l9.2-34.3
			L528.1,435.6z M551.7,476.4l-30.1-8.1l8.1-30.1l30.1,8.1L551.7,476.4z"/>
	</g>
	<g>
		<path fill="#414042" d="M456.4,562.3h-0.8v-5.6h-6.7v5.6h-0.8v-11.4h0.8v5.1h6.7v-5.1h0.8V562.3z"/>
		<path fill="#414042" d="M464.6,562.3l-0.2-1.3h-0.1c-0.4,0.5-0.9,0.9-1.3,1.2c-0.5,0.2-1,0.3-1.6,0.3c-0.8,0-1.5-0.2-1.9-0.6
			c-0.5-0.4-0.7-1-0.7-1.8c0-0.8,0.3-1.5,1-1.9c0.7-0.5,1.7-0.7,3-0.7l1.6,0v-0.6c0-0.8-0.2-1.4-0.5-1.8c-0.3-0.4-0.9-0.6-1.6-0.6
			c-0.8,0-1.6,0.2-2.4,0.7l-0.3-0.7c0.9-0.4,1.9-0.7,2.8-0.7c0.9,0,1.6,0.2,2.1,0.7s0.7,1.2,0.7,2.3v5.6H464.6z M461.5,561.8
			c0.9,0,1.6-0.3,2.1-0.8c0.5-0.5,0.8-1.2,0.8-2.2V558l-1.5,0.1c-1.2,0.1-2,0.2-2.6,0.6c-0.5,0.3-0.8,0.8-0.8,1.5
			c0,0.5,0.2,0.9,0.5,1.2C460.4,561.6,460.9,561.8,461.5,561.8z"/>
		<path fill="#414042" d="M468.7,562.3h-0.8v-12.2h0.8V562.3z"/>
		<path fill="#414042" d="M472.3,562.3h-0.8v-12.2h0.8V562.3z"/>
		<path fill="#414042" d="M481.9,562.3l-1.9-5.7c-0.1-0.4-0.3-1-0.5-1.7h0l-0.2,0.6l-0.4,1.1l-1.9,5.7h-0.8l-2.4-8.5h0.8l1.4,4.9
			c0.3,1.2,0.5,2.1,0.6,2.7h0c0.3-1.2,0.5-2,0.7-2.4l1.8-5.2h0.7l1.7,5.2c0.4,1.2,0.6,2,0.7,2.4h0c0-0.3,0.2-1.2,0.6-2.7l1.3-4.9
			h0.8l-2.3,8.5H481.9z"/>
		<path fill="#414042" d="M491.9,562.3l-0.2-1.3h-0.1c-0.4,0.5-0.9,0.9-1.3,1.2c-0.5,0.2-1,0.3-1.6,0.3c-0.8,0-1.5-0.2-1.9-0.6
			c-0.5-0.4-0.7-1-0.7-1.8c0-0.8,0.3-1.5,1-1.9c0.7-0.5,1.7-0.7,3-0.7l1.6,0v-0.6c0-0.8-0.2-1.4-0.5-1.8c-0.3-0.4-0.9-0.6-1.6-0.6
			c-0.8,0-1.6,0.2-2.4,0.7l-0.3-0.7c0.9-0.4,1.9-0.7,2.8-0.7c0.9,0,1.6,0.2,2.1,0.7s0.7,1.2,0.7,2.3v5.6H491.9z M488.7,561.8
			c0.9,0,1.6-0.3,2.1-0.8c0.5-0.5,0.8-1.2,0.8-2.2V558l-1.5,0.1c-1.2,0.1-2,0.2-2.6,0.6c-0.5,0.3-0.8,0.8-0.8,1.5
			c0,0.5,0.2,0.9,0.5,1.2C487.7,561.6,488.2,561.8,488.7,561.8z"/>
		<path fill="#414042" d="M493.8,553.8h0.8l1.8,4.8c0.5,1.5,0.9,2.5,1,3h0c0.2-0.7,0.6-1.7,1.1-3l1.8-4.7h0.8l-3.8,9.9
			c-0.3,0.8-0.6,1.3-0.8,1.6c-0.2,0.3-0.5,0.5-0.7,0.6c-0.3,0.1-0.6,0.2-1,0.2c-0.3,0-0.6-0.1-1-0.2v-0.7c0.3,0.1,0.6,0.1,1,0.1
			c0.3,0,0.5-0.1,0.7-0.2s0.4-0.3,0.6-0.6s0.4-0.7,0.6-1.2c0.2-0.6,0.4-0.9,0.4-1.1L493.8,553.8z"/>
		<path fill="#414042" d="M515.3,550.9v7.4c0,1.3-0.4,2.3-1.1,3.1c-0.8,0.7-1.8,1.1-3.2,1.1c-1.3,0-2.4-0.4-3.1-1.1
			s-1.1-1.8-1.1-3.1v-7.4h0.8v7.4c0,1.1,0.3,2,0.9,2.6c0.6,0.6,1.5,0.9,2.6,0.9c1.1,0,1.9-0.3,2.5-0.9c0.6-0.6,0.9-1.4,0.9-2.5v-7.5
			H515.3z"/>
		<path fill="#414042" d="M523.5,560.1c0,0.8-0.3,1.3-0.9,1.8c-0.6,0.4-1.4,0.6-2.5,0.6c-1.1,0-2-0.2-2.7-0.5v-0.8
			c0.9,0.4,1.8,0.6,2.7,0.6c0.8,0,1.5-0.1,1.9-0.4c0.4-0.3,0.7-0.6,0.7-1.1c0-0.4-0.2-0.8-0.5-1.1c-0.3-0.3-0.9-0.6-1.7-0.9
			c-0.8-0.3-1.4-0.6-1.8-0.8c-0.3-0.2-0.6-0.5-0.8-0.8c-0.2-0.3-0.3-0.6-0.3-1c0-0.6,0.3-1.1,0.8-1.5c0.5-0.4,1.3-0.6,2.2-0.6
			c0.9,0,1.8,0.2,2.6,0.5l-0.3,0.7c-0.8-0.3-1.6-0.5-2.3-0.5c-0.7,0-1.2,0.1-1.6,0.3c-0.4,0.2-0.6,0.5-0.6,1c0,0.4,0.2,0.8,0.5,1.1
			c0.3,0.3,0.9,0.6,1.8,0.9c0.8,0.3,1.3,0.5,1.7,0.7c0.3,0.2,0.6,0.5,0.8,0.8C523.4,559.4,523.5,559.7,523.5,560.1z"/>
		<path fill="#414042" d="M530.8,562.3l-0.2-1.3h-0.1c-0.4,0.5-0.9,0.9-1.3,1.2c-0.5,0.2-1,0.3-1.6,0.3c-0.8,0-1.5-0.2-1.9-0.6
			c-0.5-0.4-0.7-1-0.7-1.8c0-0.8,0.3-1.5,1-1.9c0.7-0.5,1.7-0.7,3-0.7l1.6,0v-0.6c0-0.8-0.2-1.4-0.5-1.8c-0.3-0.4-0.9-0.6-1.6-0.6
			c-0.8,0-1.6,0.2-2.4,0.7l-0.3-0.7c0.9-0.4,1.9-0.7,2.8-0.7c0.9,0,1.6,0.2,2.1,0.7s0.7,1.2,0.7,2.3v5.6H530.8z M527.7,561.8
			c0.9,0,1.6-0.3,2.1-0.8c0.5-0.5,0.8-1.2,0.8-2.2V558l-1.5,0.1c-1.2,0.1-2,0.2-2.6,0.6c-0.5,0.3-0.8,0.8-0.8,1.5
			c0,0.5,0.2,0.9,0.5,1.2C526.6,561.6,527.1,561.8,527.7,561.8z"/>
		<path fill="#414042" d="M537.7,553.6c1.2,0,2.1,0.4,2.7,1.1c0.6,0.7,0.9,1.8,0.9,3.3c0,1.4-0.3,2.5-0.9,3.3s-1.5,1.1-2.7,1.1
			c-0.6,0-1.1-0.1-1.6-0.4s-0.9-0.6-1.1-1.1h-0.1l-0.2,1.3h-0.5v-12.2h0.8v3.1c0,0.5,0,0.9,0,1.3l0,0.7h0.1c0.3-0.5,0.7-0.9,1.2-1.1
			C536.5,553.8,537.1,553.6,537.7,553.6z M537.7,554.3c-1,0-1.7,0.3-2.1,0.9c-0.4,0.6-0.6,1.5-0.6,2.8v0.1c0,1.3,0.2,2.2,0.7,2.8
			c0.5,0.6,1.2,0.8,2.1,0.8c0.9,0,1.6-0.3,2.1-1s0.7-1.6,0.7-2.8C540.5,555.6,539.6,554.3,537.7,554.3z"/>
		<path fill="#414042" d="M543.5,551.5c0-0.5,0.2-0.8,0.5-0.8c0.2,0,0.3,0.1,0.4,0.2c0.1,0.1,0.1,0.3,0.1,0.6c0,0.2,0,0.4-0.1,0.6
			c-0.1,0.1-0.2,0.2-0.4,0.2C543.7,552.2,543.5,552,543.5,551.5z M544.4,562.3h-0.8v-8.5h0.8V562.3z"/>
		<path fill="#414042" d="M548,562.3h-0.8v-12.2h0.8V562.3z"/>
		<path fill="#414042" d="M550.8,551.5c0-0.5,0.2-0.8,0.5-0.8c0.2,0,0.3,0.1,0.4,0.2c0.1,0.1,0.1,0.3,0.1,0.6c0,0.2,0,0.4-0.1,0.6
			c-0.1,0.1-0.2,0.2-0.4,0.2C550.9,552.2,550.8,552,550.8,551.5z M551.7,562.3h-0.8v-8.5h0.8V562.3z"/>
		<path fill="#414042" d="M556.7,561.8c0.5,0,0.9,0,1.3-0.1v0.6c-0.4,0.1-0.8,0.2-1.3,0.2c-0.8,0-1.3-0.2-1.7-0.6
			c-0.4-0.4-0.5-1-0.5-1.9v-5.5h-1.3V554l1.3-0.4l0.4-1.9h0.4v2.1h2.5v0.7h-2.5v5.4c0,0.7,0.1,1.1,0.3,1.4
			C555.9,561.6,556.3,561.8,556.7,561.8z"/>
		<path fill="#414042" d="M558.4,553.8h0.8l1.8,4.8c0.5,1.5,0.9,2.5,1,3h0c0.2-0.7,0.6-1.7,1.1-3l1.8-4.7h0.8l-3.8,9.9
			c-0.3,0.8-0.6,1.3-0.8,1.6c-0.2,0.3-0.5,0.5-0.7,0.6c-0.3,0.1-0.6,0.2-1,0.2c-0.3,0-0.6-0.1-1-0.2v-0.7c0.3,0.1,0.6,0.1,1,0.1
			c0.3,0,0.5-0.1,0.7-0.2s0.4-0.3,0.6-0.6s0.4-0.7,0.6-1.2c0.2-0.6,0.4-0.9,0.4-1.1L558.4,553.8z"/>
	</g>
</g>
<g>
	<g id="Your_Icon_copy_12">
		<g>
			<path fill="#414042" d="M768.8,473.7h11.3v-4.9l11,11l-11,11V486h-26.8C759.3,483,764.5,478.8,768.8,473.7z"/>
			<path fill="#414042" d="M725.9,409.1c-15.8,2.2-27.9,15.8-27.9,32.1c0,11.2,5.7,21.1,14.4,26.9h-17.6c-5.7-7.5-9.1-16.8-9.1-26.9
				c0-22.9,17.3-41.8,39.5-44.4l-5.8,5.8L725.9,409.1z"/>
			<path fill="#414042" d="M686.4,479.9l-6.1-6.1h50.2c17.9,0,32.5-14.6,32.5-32.5c0-16-11.7-29.4-26.9-32v4.4l-11-11l11-11v5.3
				c22.1,2.7,39.2,21.6,39.2,44.4c0,24.7-20.1,44.7-44.7,44.7h-50.2L686.4,479.9z"/>
		</g>
	</g>
	<g>
		<path fill="#414042" d="M679.9,513.2v-11.4h0.8v11.4H679.9z"/>
		<path fill="#414042" d="M686,512.7c0.5,0,0.9,0,1.3-0.1v0.6c-0.4,0.1-0.8,0.2-1.3,0.2c-0.8,0-1.3-0.2-1.7-0.6s-0.5-1-0.5-1.9v-5.5
			h-1.3v-0.5l1.3-0.4l0.4-1.9h0.4v2.1h2.5v0.7h-2.5v5.4c0,0.7,0.1,1.1,0.3,1.4S685.5,512.7,686,512.7z"/>
		<path fill="#414042" d="M692.6,513.4c-1.2,0-2.2-0.4-2.9-1.1s-1-1.8-1-3.2c0-1.4,0.3-2.4,1-3.3s1.6-1.2,2.7-1.2c1,0,1.8,0.3,2.4,1
			s0.9,1.6,0.9,2.8v0.6h-6.1c0,1.2,0.3,2.1,0.8,2.7s1.3,0.9,2.3,0.9c0.5,0,0.9,0,1.3-0.1s0.8-0.2,1.4-0.4v0.7
			c-0.5,0.2-0.9,0.4-1.3,0.4S693,513.4,692.6,513.4z M692.3,505.2c-0.8,0-1.5,0.3-2,0.8s-0.8,1.3-0.9,2.3h5.2c0-1-0.2-1.8-0.6-2.3
			S693.1,505.2,692.3,505.2z"/>
		<path fill="#414042" d="M701.3,504.6c0.4,0,0.7,0,1.2,0.1l-0.1,0.7c-0.4-0.1-0.7-0.1-1.1-0.1c-0.7,0-1.3,0.3-1.8,0.9
			s-0.7,1.4-0.7,2.3v4.7h-0.8v-8.5h0.7l0.1,1.5h0.1c0.3-0.6,0.7-1.1,1.1-1.3S700.7,504.6,701.3,504.6z"/>
		<path fill="#414042" d="M709.3,513.2l-0.2-1.3H709c-0.4,0.5-0.9,0.9-1.3,1.2s-1,0.3-1.6,0.3c-0.8,0-1.5-0.2-1.9-0.6
			s-0.7-1-0.7-1.8c0-0.8,0.3-1.5,1-1.9s1.7-0.7,3-0.7l1.6,0v-0.6c0-0.8-0.2-1.4-0.5-1.8s-0.9-0.6-1.6-0.6c-0.8,0-1.6,0.2-2.4,0.7
			l-0.3-0.7c0.9-0.4,1.9-0.7,2.8-0.7c0.9,0,1.6,0.2,2.1,0.7s0.7,1.2,0.7,2.3v5.6H709.3z M706.2,512.7c0.9,0,1.6-0.3,2.1-0.8
			s0.8-1.2,0.8-2.2v-0.8l-1.5,0.1c-1.2,0.1-2,0.2-2.6,0.6s-0.8,0.8-0.8,1.5c0,0.5,0.2,0.9,0.5,1.2S705.6,512.7,706.2,512.7z"/>
		<path fill="#414042" d="M714.9,512.7c0.5,0,0.9,0,1.3-0.1v0.6c-0.4,0.1-0.8,0.2-1.3,0.2c-0.8,0-1.3-0.2-1.7-0.6s-0.5-1-0.5-1.9
			v-5.5h-1.3v-0.5l1.3-0.4l0.4-1.9h0.4v2.1h2.5v0.7h-2.5v5.4c0,0.7,0.1,1.1,0.3,1.4S714.4,512.7,714.9,512.7z"/>
		<path fill="#414042" d="M717.9,502.4c0-0.5,0.2-0.8,0.5-0.8c0.2,0,0.3,0.1,0.4,0.2s0.1,0.3,0.1,0.6c0,0.2,0,0.4-0.1,0.6
			s-0.2,0.2-0.4,0.2C718,503.1,717.9,502.9,717.9,502.4z M718.7,513.2H718v-8.5h0.8V513.2z"/>
		<path fill="#414042" d="M723.5,513.2l-3.3-8.5h0.8l2.2,5.8c0.3,0.7,0.5,1.4,0.7,1.9h0c0.2-0.7,0.4-1.4,0.7-2l2.2-5.8h0.8l-3.3,8.5
			H723.5z"/>
		<path fill="#414042" d="M732.4,513.4c-1.2,0-2.2-0.4-2.9-1.1s-1-1.8-1-3.2c0-1.4,0.3-2.4,1-3.3s1.6-1.2,2.7-1.2c1,0,1.8,0.3,2.4,1
			s0.9,1.6,0.9,2.8v0.6h-6.1c0,1.2,0.3,2.1,0.8,2.7s1.3,0.9,2.3,0.9c0.5,0,0.9,0,1.3-0.1s0.8-0.2,1.4-0.4v0.7
			c-0.5,0.2-0.9,0.4-1.3,0.4S732.9,513.4,732.4,513.4z M732.1,505.2c-0.8,0-1.5,0.3-2,0.8s-0.8,1.3-0.9,2.3h5.2c0-1-0.2-1.8-0.6-2.3
			S732.9,505.2,732.1,505.2z"/>
		<path fill="#414042" d="M750.7,507.4c0,1.9-0.5,3.4-1.5,4.3s-2.5,1.5-4.4,1.5h-2.7v-11.4h3.1c1.8,0,3.2,0.5,4.2,1.4
			S750.7,505.6,750.7,507.4z M749.9,507.4c0-1.6-0.4-2.9-1.2-3.7s-2.1-1.2-3.7-1.2h-2.1v10h1.9C748.2,512.5,749.9,510.8,749.9,507.4
			z"/>
		<path fill="#414042" d="M756.6,513.4c-1.2,0-2.2-0.4-2.9-1.1s-1-1.8-1-3.2c0-1.4,0.3-2.4,1-3.3s1.6-1.2,2.7-1.2c1,0,1.8,0.3,2.4,1
			s0.9,1.6,0.9,2.8v0.6h-6.1c0,1.2,0.3,2.1,0.8,2.7s1.3,0.9,2.3,0.9c0.5,0,0.9,0,1.3-0.1s0.8-0.2,1.4-0.4v0.7
			c-0.5,0.2-0.9,0.4-1.3,0.4S757.1,513.4,756.6,513.4z M756.4,505.2c-0.8,0-1.5,0.3-2,0.8s-0.8,1.3-0.9,2.3h5.2c0-1-0.2-1.8-0.6-2.3
			S757.1,505.2,756.4,505.2z"/>
		<path fill="#414042" d="M767.2,511c0,0.8-0.3,1.3-0.9,1.8s-1.4,0.6-2.5,0.6c-1.1,0-2-0.2-2.7-0.5V512c0.9,0.4,1.8,0.6,2.7,0.6
			c0.8,0,1.5-0.1,1.9-0.4s0.7-0.6,0.7-1.1c0-0.4-0.2-0.8-0.5-1.1s-0.9-0.6-1.7-0.9c-0.8-0.3-1.4-0.6-1.8-0.8s-0.6-0.5-0.8-0.8
			s-0.3-0.6-0.3-1c0-0.6,0.3-1.1,0.8-1.5s1.3-0.6,2.2-0.6c0.9,0,1.8,0.2,2.6,0.5l-0.3,0.7c-0.8-0.3-1.6-0.5-2.3-0.5
			c-0.7,0-1.2,0.1-1.6,0.3s-0.6,0.5-0.6,1c0,0.4,0.2,0.8,0.5,1.1s0.9,0.6,1.8,0.9c0.8,0.3,1.3,0.5,1.7,0.7s0.6,0.5,0.8,0.8
			S767.2,510.6,767.2,511z"/>
		<path fill="#414042" d="M769.3,502.4c0-0.5,0.2-0.8,0.5-0.8c0.2,0,0.3,0.1,0.4,0.2s0.1,0.3,0.1,0.6c0,0.2,0,0.4-0.1,0.6
			s-0.2,0.2-0.4,0.2C769.5,503.1,769.3,502.9,769.3,502.4z M770.2,513.2h-0.8v-8.5h0.8V513.2z"/>
		<path fill="#414042" d="M779.6,504.7v0.5l-1.8,0.1c0.5,0.6,0.7,1.2,0.7,1.9c0,0.8-0.3,1.5-0.8,2s-1.3,0.8-2.2,0.8
			c-0.4,0-0.7,0-0.8,0c-0.3,0.2-0.5,0.4-0.7,0.6s-0.2,0.5-0.2,0.7c0,0.3,0.1,0.5,0.3,0.6s0.6,0.2,1,0.2h1.5c0.9,0,1.6,0.2,2.1,0.6
			s0.7,0.9,0.7,1.7c0,0.9-0.4,1.6-1.1,2.1c-0.7,0.5-1.8,0.7-3.1,0.7c-1.1,0-1.9-0.2-2.5-0.6c-0.6-0.4-0.9-1-0.9-1.7
			c0-0.6,0.2-1.1,0.5-1.5c0.4-0.4,0.9-0.6,1.5-0.8c-0.3-0.1-0.5-0.3-0.6-0.5s-0.2-0.4-0.2-0.7c0-0.6,0.4-1.1,1.1-1.5
			c-0.5-0.2-0.9-0.5-1.2-1s-0.4-0.9-0.4-1.5c0-0.8,0.3-1.5,0.8-2s1.3-0.8,2.2-0.8c0.6,0,1,0.1,1.3,0.2H779.6z M772.8,514.7
			c0,1.2,0.9,1.8,2.6,1.8c2.2,0,3.3-0.7,3.3-2.1c0-0.5-0.2-0.9-0.5-1.1c-0.3-0.2-0.9-0.3-1.7-0.3h-1.4
			C773.5,512.8,772.8,513.4,772.8,514.7z M773.4,507.4c0,0.7,0.2,1.2,0.6,1.5s0.9,0.5,1.6,0.5c0.7,0,1.3-0.2,1.6-0.5
			s0.6-0.9,0.6-1.6c0-0.7-0.2-1.3-0.6-1.6s-0.9-0.5-1.6-0.5c-0.7,0-1.2,0.2-1.6,0.6S773.4,506.7,773.4,507.4z"/>
		<path fill="#414042" d="M787.3,513.2v-5.5c0-0.9-0.2-1.5-0.5-1.9s-0.9-0.6-1.7-0.6c-1,0-1.8,0.3-2.2,0.8s-0.7,1.3-0.7,2.5v4.7
			h-0.8v-8.5h0.7l0.1,1.2h0c0.6-0.9,1.5-1.3,2.9-1.3c1.9,0,2.9,1,2.9,3.1v5.6H787.3z"/>
	</g>
</g>
</svg>
