<?xml version="1.0" encoding="utf-8"?>
<!-- Generator: Adobe Illustrator 17.1.0, SVG Export Plug-In . SVG Version: 6.00 Build 0)  -->
<!DOCTYPE svg PUBLIC "-//W3C//DTD SVG 1.1//EN" "http://www.w3.org/Graphics/SVG/1.1/DTD/svg11.dtd">
<svg version="1.1" id="Layer_1" xmlns="http://www.w3.org/2000/svg" xmlns:xlink="http://www.w3.org/1999/xlink" x="0px" y="0px"
	 viewBox="0 0 841.9 595.3" enable-background="new 0 0 841.9 595.3" xml:space="preserve">
<rect x="162.5" y="195.1" fill="none" width="479" height="221"/>
<g>
	<g>
		<path fill="#ED1C24" d="M245.7,318c-6.3,6.3-14.1,9.5-23,9.5h-13.7v10.8h-23.6v-75.8h37.3c9,0,16.7,3.2,23,9.5s9.5,14.1,9.5,23
			C255.2,304,252,311.6,245.7,318z M222.6,286.1h-13.7V304h13.7c5,0,9-4.1,9-9C231.6,290.1,227.6,286.1,222.6,286.1z"/>
		<path fill="#ED1C24" d="M314.2,341.2c-0.8,0-1.4-0.1-2.2-0.2c-1.5,0-3.1-0.2-4.6-0.4c-1.4-0.2-3-0.7-4.4-1.1
			c-4-0.9-7.9-2.4-11.5-4.4c-3.8-2.1-7.1-4.5-10.3-7.5h-0.2v10.8h-23.5v-76l37.3,0.2c9,0,16.6,3.2,23,9.5c6.3,6.3,9.5,13.9,9.5,23
			c0,4.4-0.9,8.5-2.5,12.5c-1.7,3.9-4,7.2-6.9,10.2c5.1,0,12.2-2.1,14.8-3.3l-16.2,26.9C315.7,341.3,314.9,341.2,314.2,341.2z
			 M294.7,286.1h-13.8V304h13.8c2.4,0,4.6-0.9,6.3-2.7c1.8-1.8,2.7-3.9,2.7-6.3c0-2.5-0.9-4.6-2.7-6.4
			C299.3,287,297.1,286.1,294.7,286.1z"/>
		<path fill="#ED1C24" d="M399.5,329c-7.9,7.9-17.4,11.8-28.6,11.8c-11.2,0-20.7-4-28.7-11.8c-7.9-8-11.8-17.5-11.8-28.7
			c0-11.2,4-20.7,11.8-28.6c8-8,17.5-12,28.7-12c11.2,0,20.7,4,28.6,12c8,7.9,12,17.4,12,28.6C411.5,311.5,407.5,321.1,399.5,329z
			 M382.9,288.4c-3.3-3.3-7.3-5-12-5c-4.8,0-8.7,1.7-12.1,5c-3.3,3.3-5,7.3-5,12c0,4.8,1.7,8.7,5,12.1c3.3,3.3,7.3,5,12.1,5
			c4.6,0,8.6-1.7,12-5c3.4-3.3,5.1-7.3,5.1-12.1C388,295.7,386.3,291.7,382.9,288.4z"/>
		<path fill="#ED1C24" d="M483.2,328.9c-0.1,0.1-0.2,0.2-0.3,0.3c-8,8-17.5,11.8-28.7,11.8c-11.1,0-20.7-3.9-28.6-11.8
			c-8-8-12-17.5-12-28.7c0-11.2,4-20.7,12-28.7c7.9-8,17.5-11.8,28.6-11.8c11.2,0,20.7,3.9,28.7,11.8c0.1,0.1,0.2,0.2,0.3,0.3
			l-16.7,16.6c-0.1-0.1-0.1-0.1-0.2-0.2c-3.3-3.3-7.4-5-12.1-5c-4.6,0-8.7,1.7-12.1,5c-3.3,3.3-5,7.3-5,12c0,4.8,1.7,8.7,5,12.1
			c3.3,3.3,7.4,5,12.1,5c4.6,0,8.7-1.7,12.1-5c0.1-0.1,0.2-0.2,0.3-0.3L483.2,328.9z"/>
		<path fill="#ED1C24" d="M509.2,314.9h32v23.5h-55.7v-75.7h55.7v23.6h-32v2.5h32v23.6h-32V314.9z"/>
		<path fill="#ED1C24" d="M597,318c-1.4,5-4.2,9.4-8.1,13.4c-6.4,6.4-14.1,9.6-23.1,9.6c-9,0-16.6-3.2-23-9.6l16.7-16.7
			c1.8,1.8,3.9,2.7,6.3,2.7c2.5,0,4.6-0.9,6.4-2.7c1.7-1.8,2.5-3.9,2.5-6.3c0-3.1-0.4-9.3-12.1-11.4c-11.7-2-15.3-11.2-15.3-16
			c0-10.2,8.2-18.4,18.4-18.4h20.7v20.7c0.9,0.7,1.7,1.3,2.3,2.1c6.4,6.4,9.6,14.1,9.6,23C598.4,311.6,598,314.9,597,318z"/>
		<path fill="#ED1C24" d="M647.6,318c-1.4,5-4.2,9.4-8.1,13.4c-6.4,6.4-14.1,9.6-23.1,9.6c-9,0-16.6-3.2-23-9.6l16.7-16.7
			c1.8,1.8,3.9,2.7,6.3,2.7c2.5,0,4.6-0.9,6.4-2.7c1.7-1.8,2.5-3.9,2.5-6.3c0-3.1-0.4-9.3-12.1-11.4c-11.7-2-15.3-11.2-15.3-16
			c0-10.2,8.2-18.4,18.4-18.4h20.7v20.7c0.9,0.7,1.7,1.3,2.3,2.1c6.4,6.4,9.6,14.1,9.6,23C649,311.6,648.6,314.9,647.6,318z"/>
	</g>
	<g>
		<polygon fill="#ED1C24" points="167.5,313.8 157.3,309.5 148.2,315.7 149,304.5 140.5,297.5 151.1,294.9 155,284.5 160.7,294 
			171.7,294.5 164.6,303 		"/>
	</g>
	<g>
		<polygon fill="#ED1C24" points="675.8,284.5 680.6,294.7 691.4,296.4 683.6,304.4 685.5,315.7 675.8,310.3 666.2,315.7 668,304.4 
			660.2,296.4 671,294.7 		"/>
	</g>
</g>
</svg>
