<?xml version="1.0" encoding="utf-8"?>
<!-- Generator: Adobe Illustrator 17.1.0, SVG Export Plug-In . SVG Version: 6.00 Build 0)  -->
<!DOCTYPE svg PUBLIC "-//W3C//DTD SVG 1.1//EN" "http://www.w3.org/Graphics/SVG/1.1/DTD/svg11.dtd">
<svg version="1.1" id="Layer_1" xmlns="http://www.w3.org/2000/svg" xmlns:xlink="http://www.w3.org/1999/xlink" x="0px" y="0px"
	 viewBox="0 0 841.9 595.3" enable-background="new 0 0 841.9 595.3" xml:space="preserve">
<rect x="162.5" y="195.1" fill="none" width="479" height="221"/>
<g>
	<g>
		<path fill="#ED1C24" d="M245.7,318c-6.3,6.3-14.1,9.5-23,9.5h-13.7v10.8h-23.6v-75.8h37.3c9,0,16.7,3.2,23,9.5s9.5,14.1,9.5,23
			C255.2,304,252,311.6,245.7,318z M222.6,286.1h-13.7V304h13.7c5,0,9-4.1,9-9C231.6,290.1,227.6,286.1,222.6,286.1z"/>
		<path fill="#ED1C24" d="M314.2,341.2c-0.8,0-1.4-0.1-2.2-0.2c-1.5,0-3.1-0.2-4.6-0.4c-1.4-0.2-3-0.7-4.4-1.1
			c-4-0.9-7.9-2.4-11.5-4.4c-3.8-2.1-7.1-4.5-10.3-7.5h-0.2v10.8h-23.5v-76l37.3,0.2c9,0,16.6,3.2,23,9.5c6.3,6.3,9.5,13.9,9.5,23
			c0,4.4-0.9,8.5-2.5,12.5c-1.7,3.9-4,7.2-6.9,10.2c5.1,0,12.2-2.1,14.8-3.3l-16.2,26.9C315.7,341.3,314.9,341.2,314.2,341.2z
			 M294.7,286.1h-13.8V304h13.8c2.4,0,4.6-0.9,6.3-2.7c1.8-1.8,2.7-3.9,2.7-6.3c0-2.5-0.9-4.6-2.7-6.4
			C299.3,287,297.1,286.1,294.7,286.1z"/>
		<path fill="#ED1C24" d="M399.5,329c-7.9,7.9-17.4,11.8-28.6,11.8c-11.2,0-20.7-4-28.7-11.8c-7.9-8-11.8-17.5-11.8-28.7
			c0-11.2,4-20.7,11.8-28.6c8-8,17.5-12,28.7-12c11.2,0,20.7,4,28.6,12c8,7.9,12,17.4,12,28.6C411.5,311.5,407.5,321.1,399.5,329z
			 M382.9,288.4c-3.3-3.3-7.3-5-12-5c-4.8,0-8.7,1.7-12.1,5c-3.3,3.3-5,7.3-5,12c0,4.8,1.7,8.7,5,12.1c3.3,3.3,7.3,5,12.1,5
			c4.6,0,8.6-1.7,12-5c3.4-3.3,5.1-7.3,5.1-12.1C388,295.7,386.3,291.7,382.9,288.4z"/>
		<path fill="#ED1C24" d="M483.2,328.9c-0.1,0.1-0.2,0.2-0.3,0.3c-8,8-17.5,11.8-28.7,11.8c-11.1,0-20.7-3.9-28.6-11.8
			c-8-8-12-17.5-12-28.7c0-11.2,4-20.7,12-28.7c7.9-8,17.5-11.8,28.6-11.8c11.2,0,20.7,3.9,28.7,11.8c0.1,0.1,0.2,0.2,0.3,0.3
			l-16.7,16.6c-0.1-0.1-0.1-0.1-0.2-0.2c-3.3-3.3-7.4-5-12.1-5c-4.6,0-8.7,1.7-12.1,5c-3.3,3.3-5,7.3-5,12c0,4.8,1.7,8.7,5,12.1
			c3.3,3.3,7.4,5,12.1,5c4.6,0,8.7-1.7,12.1-5c0.1-0.1,0.2-0.2,0.3-0.3L483.2,328.9z"/>
		<path fill="#ED1C24" d="M509.2,314.9h32v23.5h-55.7v-75.7h55.7v23.6h-32v2.5h32v23.6h-32V314.9z"/>
		<path fill="#ED1C24" d="M597,318c-1.4,5-4.2,9.4-8.1,13.4c-6.4,6.4-14.1,9.6-23.1,9.6c-9,0-16.6-3.2-23-9.6l16.7-16.7
			c1.8,1.8,3.9,2.7,6.3,2.7c2.5,0,4.6-0.9,6.4-2.7c1.7-1.8,2.5-3.9,2.5-6.3c0-3.1-0.4-9.3-12.1-11.4c-11.7-2-15.3-11.2-15.3-16
			c0-10.2,8.2-18.4,18.4-18.4h20.7v20.7c0.9,0.7,1.7,1.3,2.3,2.1c6.4,6.4,9.6,14.1,9.6,23C598.4,311.6,598,314.9,597,318z"/>
		<path fill="#ED1C24" d="M647.6,318c-1.4,5-4.2,9.4-8.1,13.4c-6.4,6.4-14.1,9.6-23.1,9.6c-9,0-16.6-3.2-23-9.6l16.7-16.7
			c1.8,1.8,3.9,2.7,6.3,2.7c2.5,0,4.6-0.9,6.4-2.7c1.7-1.8,2.5-3.9,2.5-6.3c0-3.1-0.4-9.3-12.1-11.4c-11.7-2-15.3-11.2-15.3-16
			c0-10.2,8.2-18.4,18.4-18.4h20.7v20.7c0.9,0.7,1.7,1.3,2.3,2.1c6.4,6.4,9.6,14.1,9.6,23C649,311.6,648.6,314.9,647.6,318z"/>
	</g>
	<g>
		<polygon fill="#ED1C24" points="167.5,313.8 157.3,309.5 148.2,315.7 149,304.5 140.5,297.5 151.1,294.9 155,284.5 160.7,294 
			171.7,294.5 164.6,303 		"/>
	</g>
	<g>
		<polygon fill="#ED1C24" points="675.8,284.5 680.6,294.7 691.4,296.4 683.6,304.4 685.5,315.7 675.8,310.3 666.2,315.7 668,304.4 
			660.2,296.4 671,294.7 		"/>
	</g>
</g>
<g>
	<g>
		<g>
			<g>
				<path fill="#414042" d="M240.2,89.3V115c0,3-1.3,5.5-3.2,6.7v59.1h0c0,2.4-1.9,4.3-4.3,4.3c-2.4,0-4.3-1.9-4.3-4.3
					c0-0.1,0-0.2,0-0.3v-34.2c0-0.3-0.2-0.5-0.5-0.5c-0.3,0-0.5,0.2-0.5,0.5v34.5c0,2.4-1.9,4.3-4.3,4.3c-2.4,0-4.3-1.9-4.3-4.3
					c0-0.1,0-0.2,0-0.3v-34.7h0v-24.1c-0.5-0.3-1-0.7-1.4-1.3c1-1.5,1.5-3.4,1.5-5.5V89.3c0-1.2-0.5-2.2-1.2-3
					c0.4-0.1,0.7-0.2,1.2-0.2c1.8,0,3.2,1.5,3.2,3.3v6.8c-1.7,1.6-2.7,3.8-2.7,6.2c0,2.5,1,4.7,2.7,6.2v2.7c0,0.3,0.2,0.5,0.5,0.5
					h10.6c0.3,0,0.5-0.2,0.5-0.5v-2.7c1.7-1.6,2.7-3.8,2.7-6.2c0-2.5-1-4.7-2.7-6.2v-6.8c0-1.8,1.4-3.3,3.2-3.3
					C238.7,86,240.2,87.5,240.2,89.3z"/>
				<path fill="#414042" d="M235.5,102.3c0,1.8-0.6,3.5-1.7,4.8c-1.4,1.7-3.5,2.7-5.8,2.7c-2.3,0-4.4-1.1-5.8-2.8
					c-1.1-1.3-1.7-3-1.7-4.8c0-1.8,0.6-3.5,1.7-4.8c1.4-1.7,3.5-2.8,5.8-2.8c2.3,0,4.4,1.1,5.8,2.7
					C234.8,98.8,235.5,100.5,235.5,102.3z"/>
			</g>
			<g>
				<path fill="#414042" d="M192.1,115c0,2.1,0.5,4,1.5,5.5c-0.4,0.5-0.9,0.9-1.4,1.3v59.1h0c0,2.4-1.9,4.3-4.3,4.3
					c-2.4,0-4.3-1.9-4.3-4.3c0-0.1,0-0.2,0-0.3v-34.2c0-0.3-0.2-0.5-0.5-0.5c-0.3,0-0.5,0.2-0.5,0.5v34.5c0,2.4-1.9,4.3-4.3,4.3
					c-2.4,0-4.3-1.9-4.3-4.3c0-0.1,0-0.2,0-0.3v-34.7h0v-24.1c-1.9-1.2-3.2-3.8-3.2-6.7V89.3c0-1.8,1.4-3.3,3.2-3.3
					c1.8,0,3.2,1.5,3.2,3.3v6.8c-1.7,1.6-2.7,3.8-2.7,6.2c0,2.5,1,4.7,2.7,6.2v2.7c0,0.3,0.2,0.5,0.5,0.5h10.6
					c0.3,0,0.5-0.2,0.5-0.5v-2.7c1.7-1.6,2.7-3.8,2.7-6.2c0-2.5-1.1-4.7-2.7-6.2v-6.8c0-1.8,1.4-3.3,3.2-3.3c0.4,0,0.8,0.1,1.2,0.2
					c-0.8,0.8-1.2,1.9-1.2,3L192.1,115z"/>
				<path fill="#414042" d="M190.6,102.3c0,1.8-0.6,3.5-1.7,4.8c-1.4,1.7-3.5,2.7-5.8,2.7c-2.3,0-4.4-1.1-5.8-2.8
					c-1.1-1.3-1.7-3-1.7-4.8c0-1.8,0.6-3.5,1.7-4.8c1.4-1.7,3.5-2.8,5.8-2.8c2.3,0,4.4,1.1,5.8,2.7
					C190,98.8,190.6,100.5,190.6,102.3z"/>
			</g>
			<path fill="#414042" d="M217.8,89.3V115c0,1.7-0.4,3.2-1.1,4.5c0,0,0,0,0,0c-0.5,1-1.2,1.7-2.1,2.3v59.1h0c0,2.4-1.9,4.3-4.3,4.3
				c-2.4,0-4.3-1.9-4.3-4.3c0-0.1,0-0.2,0-0.3v-34.2c0-0.3-0.2-0.5-0.5-0.5c-0.3,0-0.5,0.2-0.5,0.5v34.5c0,2.4-1.9,4.3-4.3,4.3
				c-2.4,0-4.3-1.9-4.3-4.3c0-0.1,0-0.2,0-0.3v-34.7h0v-24.1c-0.8-0.5-1.5-1.3-2.1-2.3c0,0,0,0,0,0c-0.7-1.2-1.1-2.8-1.1-4.5V89.3
				c0-1,0.4-1.8,1.1-2.4c0.6-0.5,1.3-0.8,2.1-0.8c1.8,0,3.2,1.5,3.2,3.3v6.7c-0.3,0.3-0.6,0.6-0.8,0.9c-1.3,1.6-2,3.5-2,5.5
				c0,2,0.7,3.9,2,5.5c0.3,0.3,0.5,0.6,0.9,0.9v2.5c0,0.3,0.2,0.5,0.5,0.5h10.6c0.3,0,0.5-0.2,0.5-0.5v-2.5c0.3-0.3,0.6-0.6,0.8-0.9
				c1.3-1.5,2-3.5,2-5.5c0-2-0.7-4-2-5.5c-0.3-0.3-0.5-0.6-0.8-0.9v-6.6c0-1.8,1.4-3.3,3.2-3.3c0.8,0,1.6,0.3,2.1,0.8
				C217.4,87.4,217.8,88.3,217.8,89.3z"/>
		</g>
		<path fill="#414042" d="M213.1,102.3c0,1.8-0.6,3.5-1.7,4.8c-0.3,0.4-0.7,0.8-1.1,1.1c-1.3,1-2.9,1.7-4.7,1.7
			c-1.8,0-3.4-0.6-4.7-1.7c-0.4-0.3-0.8-0.7-1.1-1.1c-1.1-1.3-1.7-3-1.7-4.8c0-1.8,0.6-3.5,1.7-4.8c0.3-0.4,0.7-0.8,1.1-1.1
			c1.3-1.1,2.9-1.7,4.7-1.7c1.8,0,3.4,0.6,4.7,1.6c0.4,0.3,0.8,0.7,1.1,1.1C212.4,98.8,213.1,100.5,213.1,102.3z"/>
	</g>
	<g>
		<path fill="#414042" d="M176.3,201.4c0,1-0.4,1.7-1.1,2.3c-0.7,0.6-1.6,0.8-2.8,0.8c-1.4,0-2.5-0.2-3.2-0.5v-0.8
			c0.8,0.3,1.9,0.5,3.1,0.5c0.9,0,1.7-0.2,2.2-0.6c0.5-0.4,0.8-1,0.8-1.7c0-0.4-0.1-0.8-0.3-1.1c-0.2-0.3-0.5-0.5-0.9-0.8
			c-0.4-0.2-1-0.5-1.8-0.8c-1.2-0.4-2-0.8-2.4-1.3c-0.4-0.5-0.7-1.1-0.7-1.9c0-0.9,0.3-1.6,1-2.1c0.7-0.5,1.5-0.8,2.6-0.8
			c1.1,0,2.1,0.2,3,0.6l-0.3,0.7c-0.9-0.4-1.9-0.6-2.7-0.6c-0.8,0-1.5,0.2-2,0.6s-0.8,0.9-0.8,1.6c0,0.4,0.1,0.8,0.2,1
			c0.2,0.3,0.4,0.5,0.8,0.7c0.3,0.2,0.9,0.5,1.8,0.8c0.9,0.3,1.6,0.6,2,0.9c0.4,0.3,0.8,0.6,1,1
			C176.2,200.4,176.3,200.8,176.3,201.4z"/>
		<path fill="#414042" d="M180.8,203.8c0.5,0,0.9,0,1.3-0.1v0.6c-0.4,0.1-0.8,0.2-1.3,0.2c-0.8,0-1.3-0.2-1.7-0.6
			c-0.4-0.4-0.5-1-0.5-1.9v-5.5h-1.3V196l1.3-0.4l0.4-1.9h0.4v2.1h2.5v0.7h-2.5v5.4c0,0.7,0.1,1.1,0.3,1.4
			C180,203.6,180.3,203.8,180.8,203.8z"/>
		<path fill="#414042" d="M189.1,204.3l-0.2-1.3h-0.1c-0.4,0.5-0.9,0.9-1.3,1.2c-0.5,0.2-1,0.3-1.6,0.3c-0.8,0-1.5-0.2-1.9-0.6
			c-0.5-0.4-0.7-1-0.7-1.8c0-0.8,0.3-1.5,1-1.9c0.7-0.5,1.7-0.7,3-0.7l1.6,0v-0.6c0-0.8-0.2-1.4-0.5-1.8c-0.3-0.4-0.9-0.6-1.6-0.6
			c-0.8,0-1.6,0.2-2.4,0.7l-0.3-0.7c0.9-0.4,1.9-0.7,2.8-0.7c0.9,0,1.6,0.2,2.1,0.7s0.7,1.2,0.7,2.3v5.6H189.1z M185.9,203.8
			c0.9,0,1.6-0.3,2.1-0.8c0.5-0.5,0.8-1.2,0.8-2.2V200l-1.5,0.1c-1.2,0.1-2,0.2-2.6,0.6c-0.5,0.3-0.8,0.8-0.8,1.5
			c0,0.5,0.2,0.9,0.5,1.2C184.9,203.6,185.4,203.8,185.9,203.8z"/>
		<path fill="#414042" d="M198.3,204.3v-5.5c0-0.9-0.2-1.5-0.5-1.9c-0.4-0.4-0.9-0.6-1.7-0.6c-1,0-1.8,0.3-2.2,0.8
			c-0.5,0.5-0.7,1.3-0.7,2.5v4.7h-0.8v-8.5h0.7l0.1,1.2h0c0.6-0.9,1.5-1.3,2.9-1.3c1.9,0,2.9,1,2.9,3.1v5.6H198.3z"/>
		<path fill="#414042" d="M204.9,195.6c0.6,0,1.1,0.1,1.6,0.3c0.4,0.2,0.8,0.6,1.2,1.1h0c0-0.7,0-1.3,0-1.9v-3.1h0.8v12.2H208
			l-0.2-1.3h-0.1c-0.6,1-1.6,1.5-2.8,1.5c-1.2,0-2.1-0.4-2.7-1.1c-0.6-0.7-0.9-1.8-0.9-3.2c0-1.5,0.3-2.6,0.9-3.4
			C202.9,196,203.8,195.6,204.9,195.6z M204.9,196.3c-0.9,0-1.6,0.3-2.1,1c-0.5,0.7-0.7,1.6-0.7,2.8c0,2.4,0.9,3.6,2.8,3.6
			c1,0,1.7-0.3,2.1-0.8c0.4-0.6,0.7-1.5,0.7-2.8V200c0-1.3-0.2-2.3-0.7-2.8C206.6,196.6,205.9,196.3,204.9,196.3z"/>
		<path fill="#414042" d="M224.1,192.9v7.4c0,1.3-0.4,2.3-1.1,3.1c-0.8,0.7-1.8,1.1-3.2,1.1c-1.3,0-2.4-0.4-3.1-1.1
			s-1.1-1.8-1.1-3.1v-7.4h0.8v7.4c0,1.1,0.3,2,0.9,2.6c0.6,0.6,1.5,0.9,2.6,0.9c1.1,0,1.9-0.3,2.5-0.9c0.6-0.6,0.9-1.4,0.9-2.5v-7.5
			H224.1z"/>
		<path fill="#414042" d="M230.7,204.5c-1.3,0-2.3-0.5-2.9-1.5h-0.1l0,0.7c0,0.4,0,0.8,0,1.3v3.2H227v-12.3h0.7l0.1,1.2h0
			c0.6-0.9,1.5-1.4,2.8-1.4c1.1,0,2,0.4,2.6,1.1c0.6,0.8,0.9,1.8,0.9,3.3c0,1.4-0.3,2.5-0.9,3.2
			C232.6,204.1,231.7,204.5,230.7,204.5z M230.6,203.8c0.9,0,1.5-0.3,2-1c0.5-0.6,0.7-1.5,0.7-2.7c0-2.5-0.9-3.7-2.7-3.7
			c-1,0-1.7,0.3-2.2,0.8c-0.5,0.5-0.7,1.4-0.7,2.7v0.2c0,1.3,0.2,2.3,0.7,2.8C228.9,203.5,229.6,203.8,230.6,203.8z"/>
		<path fill="#414042" d="M241.8,202.1c0,0.8-0.3,1.3-0.9,1.8c-0.6,0.4-1.4,0.6-2.5,0.6c-1.1,0-2-0.2-2.7-0.5v-0.8
			c0.9,0.4,1.8,0.6,2.7,0.6c0.8,0,1.5-0.1,1.9-0.4c0.4-0.3,0.7-0.6,0.7-1.1c0-0.4-0.2-0.8-0.5-1.1c-0.3-0.3-0.9-0.6-1.7-0.9
			c-0.8-0.3-1.4-0.6-1.8-0.8c-0.3-0.2-0.6-0.5-0.8-0.8c-0.2-0.3-0.3-0.6-0.3-1c0-0.6,0.3-1.1,0.8-1.5c0.5-0.4,1.3-0.6,2.2-0.6
			c0.9,0,1.8,0.2,2.6,0.5l-0.3,0.7c-0.8-0.3-1.6-0.5-2.3-0.5c-0.7,0-1.2,0.1-1.6,0.3c-0.4,0.2-0.6,0.5-0.6,1c0,0.4,0.2,0.8,0.5,1.1
			c0.3,0.3,0.9,0.6,1.8,0.9c0.8,0.3,1.3,0.5,1.7,0.7c0.3,0.2,0.6,0.5,0.8,0.8C241.7,201.4,241.8,201.7,241.8,202.1z"/>
	</g>
</g>
<g>
	<g>
		<circle fill="#414042" cx="394" cy="65.2" r="6"/>
		<path fill="#414042" d="M446.7,119.4c3.5,0,6.4,2.9,6.4,6.4c0,3.5-2.9,6.4-6.4,6.4s-6.4-2.9-6.4-6.4
			C440.3,122.3,443.2,119.4,446.7,119.4 M446.7,118.2c-4.2,0-7.6,3.4-7.6,7.6c0,4.2,3.4,7.6,7.6,7.6c4.2,0,7.6-3.4,7.6-7.6
			C454.4,121.6,450.9,118.2,446.7,118.2L446.7,118.2z"/>
		<path fill="#414042" d="M449.7,136.6c1.5,0,2.5,0.8,3.2,1.4c1.2,1.2,1.8,3,1.7,4.9l-0.2,5.1h-15.1l-0.2-5.1
			c-0.1-1.9,0.5-3.7,1.7-4.9c0.6-0.6,1.7-1.4,3.2-1.4H449.7 M449.7,135.4h-5.9c-3.5,0-6.3,3.5-6.1,7.6l0.3,6.3h17.4l0.3-6.3
			C455.9,138.9,453.2,135.4,449.7,135.4L449.7,135.4z"/>
		<path fill="#414042" d="M388.1,136.6c1.5,0,2.5,0.8,3.2,1.4c1.2,1.2,1.8,3,1.7,4.9l-0.2,5.1h-15.1l-0.2-5.1
			c-0.1-1.9,0.5-3.7,1.7-4.9c0.6-0.6,1.7-1.4,3.2-1.4H388.1 M388.1,135.4h-5.9c-3.5,0-6.3,3.5-6.1,7.6l0.3,6.3h17.4l0.3-6.3
			C394.3,138.9,391.6,135.4,388.1,135.4L388.1,135.4z"/>
		<path fill="#414042" d="M418.7,136.6c1.5,0,2.5,0.8,3.2,1.4c1.2,1.2,1.8,3,1.7,4.9l-0.2,5.1h-15.1l-0.2-5.1
			c-0.1-1.9,0.5-3.7,1.7-4.9c0.6-0.6,1.7-1.4,3.2-1.4H418.7 M418.7,135.4h-5.9c-3.5,0-6.3,3.5-6.1,7.6l0.3,6.3h17.4l0.3-6.3
			C424.9,138.9,422.2,135.4,418.7,135.4L418.7,135.4z"/>
		<path fill="#414042" d="M442.8,55.3c-0.7-0.7-1.7-1.1-2.7-1.1h-6.8l0.1-1.5c0.1-1.3-0.9-2.5-2.2-2.6c-1.3-0.1-2.5,0.9-2.6,2.2
			l-0.2,1.9h-6.7c-1.9,0-3.5,1.4-3.7,3.3l-1,10.1c-3.3,1.4-6.8,2.9-6.9,3l-8.6,2.3c-1.2,0.3-2.6,0.4-3.8,0c-0.5-0.2-1-0.2-1.5-0.2
			h-4.6c-5.9,0-7.5,2.4-7.7,4.2l-1.5,13c0,0-0.1,0.5-0.1,0.7l-0.3,13.1c0,0.9,0.7,1.6,1.7,1.7s1.8-0.5,1.9-1.4l1-7.1
			c0,0-0.1,1-0.1,1.5c0,0,0.6,16.8,0.7,17.4l0.1,2.7l0,0c-0.7-0.2-1.5-0.4-2.3-0.4c-4.2,0-7.6,3.4-7.6,7.6c0,4.2,3.4,7.6,7.6,7.6
			c1.2,0,2.3-0.3,3.4-0.8c0.4,0.7,1.1,1.1,1.8,1.1c1.2,0,2.3-1.2,2.3-2.8l0.6-15.1c0-0.6,0.7-14.7,0.7-14.7h0.4c0,0,0.5,14,0.5,14.7
			l0.6,15.1c0.1,1.6,1.1,2.8,2.3,2.8c1.2,0,2.2-1.2,2.3-2.8l0.6-15.1c0-0.6,0.8-17.4,0.8-17.4c0-0.6-0.1-2.1-0.1-2.3V79.9l11.2-4.9
			c0,0,0,0,0,0c0.1,0,1.9-1,4-2.2l-2.7,27.8c-0.1,1,0.2,2.1,0.9,2.8c0.7,0.8,1.7,1.2,2.7,1.2h1.2l-2.2,13.6c-0.3,0-0.6-0.1-1-0.1
			c-4.2,0-7.6,3.4-7.6,7.6c0,4.2,3.4,7.6,7.6,7.6c4.2,0,7.6-3.4,7.6-7.6c0-3-1.8-5.6-4.3-6.9l2.3-14.3h11l0.6,3.8l-0.1,23.4
			c0,0.7,0.5,1.2,1.2,1.2c0,0,0,0,0,0c0.7,0,1.2-0.5,1.2-1.2l0-8.6l1.4,8.8c0.1,0.6,0.6,1,1.2,1c0.1,0,0.1,0,0.2,0
			c0.7-0.1,1.1-0.7,1-1.4l-3.7-23.4l0-3.6h3c2,0,3.6-1.6,3.7-3.5l1.8-43.1C443.9,57,443.5,56,442.8,55.3z M385.2,132.2
			c-3.5,0-6.4-2.9-6.4-6.4c0-3.5,2.9-6.4,6.4-6.4s6.4,2.9,6.4,6.4C391.6,129.3,388.7,132.2,385.2,132.2z M422.2,125.8
			c0,3.5-2.9,6.4-6.4,6.4s-6.4-2.9-6.4-6.4c0-3.5,2.9-6.4,6.4-6.4S422.2,122.3,422.2,125.8z M440.8,101c-0.1,1.3-1.1,2.4-2.5,2.4
			h-20.7c-0.7,0-1.4-0.3-1.8-0.8s-0.7-1.2-0.6-1.9l2.8-28.6c3.2-1.8,6.8-3.7,6.8-3.7c0.8-0.4,1-1.5,0.6-2.3c-0.4-0.9-1.4-1.3-2.2-1
			c0,0-2.1,0.9-4.7,2l0.9-9.5c0.1-1.3,1.2-2.3,2.5-2.3h18.3c0.7,0,1.3,0.3,1.8,0.8c0.5,0.5,0.7,1.1,0.7,1.8L440.8,101z"/>
	</g>
	<g>
		<path fill="#414042" d="M400.5,165.1c0,1.9-0.5,3.4-1.5,4.3c-1,1-2.5,1.5-4.4,1.5h-2.7v-11.4h3.1c1.8,0,3.2,0.5,4.2,1.4
			C400,161.8,400.5,163.2,400.5,165.1z M399.6,165.1c0-1.6-0.4-2.9-1.2-3.7c-0.8-0.8-2.1-1.2-3.7-1.2h-2.1v10h1.9
			C397.9,170.2,399.6,168.5,399.6,165.1z"/>
		<path fill="#414042" d="M406.4,171c-1.2,0-2.2-0.4-2.9-1.1c-0.7-0.8-1-1.8-1-3.2c0-1.4,0.3-2.4,1-3.3c0.7-0.8,1.6-1.2,2.7-1.2
			c1,0,1.8,0.3,2.4,1c0.6,0.7,0.9,1.6,0.9,2.8v0.6h-6.1c0,1.2,0.3,2.1,0.8,2.7c0.5,0.6,1.3,0.9,2.3,0.9c0.5,0,0.9,0,1.3-0.1
			c0.4-0.1,0.8-0.2,1.4-0.4v0.7c-0.5,0.2-0.9,0.4-1.3,0.4S406.9,171,406.4,171z M406.1,162.9c-0.8,0-1.5,0.3-2,0.8
			c-0.5,0.5-0.8,1.3-0.9,2.3h5.2c0-1-0.2-1.8-0.6-2.3C407.5,163.2,406.9,162.9,406.1,162.9z"/>
		<path fill="#414042" d="M422.3,170.9v-5.6c0-0.8-0.2-1.4-0.5-1.8c-0.3-0.4-0.8-0.6-1.5-0.6c-0.9,0-1.5,0.2-1.9,0.7
			c-0.4,0.5-0.6,1.2-0.6,2.3v5H417v-5.8c0-1.4-0.7-2.1-2-2.1c-0.9,0-1.5,0.3-1.9,0.8c-0.4,0.5-0.6,1.3-0.6,2.5v4.7h-0.8v-8.5h0.6
			l0.2,1.2h0c0.2-0.4,0.6-0.7,1-1c0.4-0.2,0.9-0.3,1.4-0.3c1.3,0,2.2,0.5,2.6,1.5h0c0.3-0.5,0.6-0.9,1.1-1.1c0.5-0.3,1-0.4,1.6-0.4
			c0.9,0,1.6,0.2,2.1,0.7c0.5,0.5,0.7,1.3,0.7,2.4v5.6H422.3z"/>
		<path fill="#414042" d="M432.9,166.6c0,1.4-0.3,2.5-1,3.2c-0.7,0.8-1.6,1.2-2.8,1.2c-0.7,0-1.4-0.2-2-0.5c-0.6-0.4-1-0.9-1.3-1.5
			c-0.3-0.7-0.5-1.4-0.5-2.3c0-1.4,0.3-2.5,1-3.2s1.6-1.2,2.8-1.2c1.2,0,2.1,0.4,2.7,1.2C432.5,164.2,432.9,165.3,432.9,166.6z
			 M426.2,166.6c0,1.2,0.3,2.1,0.8,2.7c0.5,0.7,1.2,1,2.2,1s1.7-0.3,2.2-1c0.5-0.7,0.8-1.6,0.8-2.7c0-1.2-0.3-2.1-0.8-2.7
			c-0.5-0.6-1.2-1-2.2-1s-1.7,0.3-2.2,1C426.4,164.5,426.2,165.4,426.2,166.6z"/>
		<path fill="#414042" d="M440.5,168.7c0,0.8-0.3,1.3-0.9,1.8c-0.6,0.4-1.4,0.6-2.5,0.6c-1.1,0-2-0.2-2.7-0.5v-0.8
			c0.9,0.4,1.8,0.6,2.7,0.6c0.8,0,1.5-0.1,1.9-0.4c0.4-0.3,0.7-0.6,0.7-1.1c0-0.4-0.2-0.8-0.5-1.1c-0.3-0.3-0.9-0.6-1.7-0.9
			c-0.8-0.3-1.4-0.6-1.8-0.8c-0.3-0.2-0.6-0.5-0.8-0.8c-0.2-0.3-0.3-0.6-0.3-1c0-0.6,0.3-1.1,0.8-1.5c0.5-0.4,1.3-0.6,2.2-0.6
			c0.9,0,1.8,0.2,2.6,0.5l-0.3,0.7c-0.8-0.3-1.6-0.5-2.3-0.5c-0.7,0-1.2,0.1-1.6,0.3c-0.4,0.2-0.6,0.5-0.6,1c0,0.4,0.2,0.8,0.5,1.1
			c0.3,0.3,0.9,0.6,1.8,0.9c0.8,0.3,1.3,0.5,1.7,0.7c0.3,0.2,0.6,0.5,0.8,0.8C440.4,168,440.5,168.3,440.5,168.7z"/>
	</g>
</g>
</svg>
