<?xml version="1.0" encoding="utf-8"?>
<!-- Generator: Adobe Illustrator 17.1.0, SVG Export Plug-In . SVG Version: 6.00 Build 0)  -->
<!DOCTYPE svg PUBLIC "-//W3C//DTD SVG 1.1//EN" "http://www.w3.org/Graphics/SVG/1.1/DTD/svg11.dtd">
<svg version="1.1" id="Layer_1" xmlns="http://www.w3.org/2000/svg" xmlns:xlink="http://www.w3.org/1999/xlink" x="0px" y="0px"
	 viewBox="0 0 841.9 595.3" enable-background="new 0 0 841.9 595.3" xml:space="preserve">
<g>
	<path fill="#404041" d="M162.9,139.7l-7.1,7.1c3.7,3.6,5.9,8.7,5.9,14.2c0,5.6-2.3,10.6-5.9,14.2l7.1,7.1c5.5-5.5,8.8-13,8.8-21.3
		C171.7,152.7,168.3,145.1,162.9,139.7z"/>
	<path fill="#404041" d="M191.7,161c0-13.9-5.6-26.4-14.7-35.5l-7,7c7.3,7.3,11.8,17.3,11.8,28.4c0,11.1-4.5,21.1-11.8,28.4l7,7
		C186.1,187.4,191.7,174.8,191.7,161z"/>
	<path fill="#404041" d="M211.7,161c0-19.4-7.9-36.9-20.6-49.6l-7.1,7.1c10.9,10.9,17.7,25.9,17.7,42.5c0,16.6-6.7,31.7-17.7,42.5
		l7.1,7.1C203.9,197.9,211.7,180.4,211.7,161z"/>
	<polygon fill="#404041" points="87.1,181 113.5,181 142.2,207.5 142.2,114.4 114,141 87.1,141 	"/>
</g>
<g>
	<polygon fill="#404041" points="181.5,398.5 181.5,398.5 191.4,408.4 191.4,408.4 205.2,422.2 218,409.4 194.3,385.7 171.5,378.2 
		166.4,383.4 	"/>
	
		<rect x="169.2" y="402.9" transform="matrix(-0.7071 -0.7071 0.7071 -0.7071 8.2613 830.8403)" fill="#404041" width="14" height="21.6"/>
	
		<rect x="130.4" y="431.6" transform="matrix(0.7071 0.7071 -0.7071 0.7071 360.2336 35.4158)" fill="#404041" width="14" height="41.8"/>
	<path fill="#404041" d="M182,440l-35.1-35.1l3.1-11.4l-14.8-14.8l-11.4,3.1l12,12l-2.4,8.8l-8.8,2.4l-12-12l-3.1,11.4l14.8,14.8
		l11.4-3.1l35.1,35.1l-3.1,11.4l14.8,14.8l11.4-3.1l-12-12l2.4-8.8l8.8-2.4l12,12l3.1-11.4L193.4,437L182,440z M144.5,416.3
		c-1.4,0-2.6-1.2-2.6-2.6c0-1.4,1.2-2.6,2.6-2.6c1.4,0,2.6,1.2,2.6,2.6C147.1,415.2,145.9,416.3,144.5,416.3z M173.3,445
		c-1.4,0-2.6-1.2-2.6-2.6s1.2-2.6,2.6-2.6s2.6,1.2,2.6,2.6S174.7,445,173.3,445z"/>
</g>
<g id="Capa_13">
	<g>
		<polygon fill="#404041" points="680.1,161.7 680.1,130.6 640.9,130.6 640.9,153.9 601.8,153.9 601.8,191.4 719.2,191.4 
			719.2,161.7 		"/>
		<polygon fill="#404041" points="660.5,92.2 664.5,104.4 677.3,104.4 666.9,112 670.9,124.2 660.5,116.6 650.1,124.2 654.1,112 
			643.6,104.4 656.5,104.4 		"/>
		<polygon fill="#404041" points="699.6,123.3 703.6,135.5 716.5,135.5 706.1,143.1 710.1,155.3 699.6,147.7 689.2,155.3 
			693.2,143.1 682.8,135.5 695.7,135.5 		"/>
		<polygon fill="#404041" points="621.3,115.5 625.3,127.7 638.2,127.7 627.7,135.3 631.7,147.5 621.3,139.9 610.9,147.5 
			614.9,135.3 604.5,127.7 617.4,127.7 		"/>
	</g>
</g>
<g>
	<circle fill="#404041" cx="404.9" cy="40" r="23.7"/>
	<path fill="#404041" d="M363.7,115.5c0-22.7,18.4-41.2,41.2-41.2c22.7,0,41.2,18.4,41.2,41.2H363.7z"/>
</g>
<g>
	<g>
		<g>
			<path fill="#404041" d="M660.4,397.4"/>
			<path fill="#404041" d="M660.4,386.2c-1.4,0-2.6-1.2-2.6-2.6c0-1.4,1.2-2.6,2.6-2.6c1.4,0,2.6,1.2,2.6,2.6
				C663,385,661.9,386.2,660.4,386.2z"/>
			<polygon fill="#404041" points="663.4,390.9 669.9,381.4 668.8,380.9 662.7,387.2 660.5,387.2 660.5,387.2 658.2,387.2 
				652.1,380.9 651.1,381.4 657.6,390.9 657.5,397.4 655.6,413.2 657.4,413.2 660.5,400.1 663.6,413.2 665.4,413.2 663.5,397.4 			
				"/>
		</g>
	</g>
	<g>
		<g>
			<path fill="#404041" d="M660.5,463.6"/>
			<path fill="#404041" d="M660.5,474.9c1.4,0,2.6,1.2,2.6,2.6c0,1.4-1.2,2.6-2.6,2.6c-1.4,0-2.6-1.2-2.6-2.6
				C657.9,476,659.1,474.9,660.5,474.9z"/>
			<polygon fill="#404041" points="657.6,470.1 651.1,479.7 652.1,480.1 658.2,473.8 660.5,473.8 660.5,473.8 662.7,473.8 
				668.8,480.1 669.9,479.7 663.4,470.1 663.5,463.6 665.4,447.8 663.6,447.8 660.5,461 657.4,447.8 655.6,447.8 657.5,463.6 			"/>
		</g>
	</g>
	<g>
		<g>
			<path fill="#404041" d="M637,407.1"/>
			<path fill="#404041" d="M629.1,399.2c-1,1-2.7,1-3.7,0c-1-1-1-2.7,0-3.7c1-1,2.7-1,3.7,0C630.1,396.5,630.1,398.2,629.1,399.2z"
				/>
			<polygon fill="#404041" points="634.6,400.5 632.4,389.1 631.3,389.5 631.5,398.3 629.9,399.9 629.9,399.9 628.3,401.5 
				619.5,401.4 619.1,402.4 630.4,404.6 635,409.2 644.8,421.7 646,420.5 639,409 650.4,416.1 651.7,414.8 639.2,405 			"/>
		</g>
	</g>
	<g>
		<g>
			<path fill="#404041" d="M683.9,453.9"/>
			<path fill="#404041" d="M691.9,461.8c1-1,2.7-1,3.7,0c1,1,1,2.7,0,3.7c-1,1-2.7,1-3.7,0C690.8,464.5,690.9,462.9,691.9,461.8z"/>
			<polygon fill="#404041" points="686.4,460.6 688.6,471.9 689.7,471.5 689.5,462.7 691.1,461.1 691.1,461.1 692.7,459.5 
				701.5,459.7 701.9,458.6 690.6,456.4 686,451.8 676.2,439.3 674.9,440.6 682,452 670.5,445 669.3,446.2 681.8,456 			"/>
		</g>
	</g>
	<g>
		<g>
			<path fill="#404041" d="M627.4,430.6"/>
			<path fill="#404041" d="M616.2,430.6c0,1.4-1.2,2.6-2.6,2.6c-1.4,0-2.6-1.2-2.6-2.6c0-1.4,1.2-2.6,2.6-2.6
				C615,428,616.2,429.1,616.2,430.6z"/>
			<polygon fill="#404041" points="620.9,427.6 611.3,421.1 610.9,422.2 617.2,428.3 617.2,430.5 617.2,430.5 617.2,432.8 
				610.9,438.9 611.3,439.9 620.9,433.5 627.4,433.5 643.2,435.4 643.2,433.6 630,430.5 643.2,427.4 643.2,425.7 627.4,427.5 			"/>
		</g>
	</g>
	<g>
		<g>
			<path fill="#404041" d="M693.6,430.5"/>
			<path fill="#404041" d="M704.8,430.5c0-1.4,1.2-2.6,2.6-2.6c1.4,0,2.6,1.2,2.6,2.6c0,1.4-1.2,2.6-2.6,2.6
				C706,433.1,704.8,431.9,704.8,430.5z"/>
			<polygon fill="#404041" points="700.1,433.5 709.7,439.9 710.1,438.9 703.8,432.8 703.8,430.5 703.8,430.5 703.8,428.3 
				710.1,422.2 709.7,421.1 700.1,427.6 693.6,427.5 677.8,425.7 677.8,427.4 690.9,430.5 677.8,433.6 677.8,435.4 693.6,433.5 			
				"/>
		</g>
	</g>
	<g>
		<g>
			<path fill="#404041" d="M637.1,454"/>
			<path fill="#404041" d="M629.2,461.9c1,1,1,2.7,0,3.7c-1,1-2.7,1-3.7,0c-1-1-1-2.7,0-3.7C626.5,460.9,628.2,460.9,629.2,461.9z"
				/>
			<polygon fill="#404041" points="630.4,456.4 619.1,458.6 619.5,459.7 628.3,459.5 629.9,461.1 629.9,461.1 631.5,462.7 
				631.3,471.5 632.4,471.9 634.6,460.6 639.2,456 651.7,446.2 650.4,445 639,452.1 646,440.6 644.8,439.3 635,451.8 			"/>
		</g>
	</g>
	<g>
		<g>
			<path fill="#404041" d="M683.9,407.1"/>
			<path fill="#404041" d="M691.8,399.1c-1-1-1-2.7,0-3.7c1-1,2.7-1,3.7,0c1,1,1,2.7,0,3.7C694.5,400.2,692.8,400.2,691.8,399.1z"/>
			<polygon fill="#404041" points="690.6,404.6 701.9,402.4 701.5,401.4 692.7,401.5 691.1,399.9 691.1,399.9 689.5,398.3 
				689.7,389.5 688.6,389.1 686.4,400.5 681.8,405 669.3,414.8 670.5,416.1 682,409 674.9,420.5 676.2,421.7 686,409.2 			"/>
		</g>
	</g>
</g>
<g>
	<path fill="#404041" d="M471.8,462.2L406.8,516c-3.8-0.4-7.7,0.8-10.6,3.6c-5.1,5.1-5.1,13.3,0,18.3c5.1,5.1,13.2,5.1,18.3,0
		c2.9-2.9,4.1-6.8,3.6-10.6L471.8,462.2z M409.9,533.4c-2.5,2.5-6.7,2.5-9.2,0c-2.5-2.5-2.5-6.6,0-9.2c2.5-2.5,6.7-2.5,9.2,0
		C412.4,526.7,412.4,530.8,409.9,533.4z"/>
	<g>
		<path fill="#404041" d="M441.8,480.5l19.8-16.8c-15.2-13.2-35.1-21.2-56.7-21.2c-47.9,0-86.9,39-86.9,86.9h25.5
			c0-33.8,27.5-61.4,61.4-61.4C418.7,468,431.5,472.7,441.8,480.5z"/>
	</g>
	<g>
		<path fill="#404041" d="M466.3,477.3h8.3c-0.6-0.7-1.1-1.4-1.7-2.1H468L466.3,477.3z"/>
		<path fill="#404041" d="M457.5,487.7h24.1c-0.4-0.7-0.8-1.4-1.2-2.1h-21.1L457.5,487.7z"/>
		<path fill="#404041" d="M483.2,490.8h-28.3l-1.2,1.4c0.2,0.2,0.3,0.4,0.4,0.6h30.1C483.8,492.2,483.5,491.5,483.2,490.8z"/>
		<path fill="#404041" d="M457.4,498.1h28.9c-0.3-0.7-0.6-1.4-0.8-2.1h-29.4C456.6,496.7,457,497.4,457.4,498.1z"/>
		<path fill="#404041" d="M460.2,503.3h27.9c-0.2-0.7-0.4-1.4-0.6-2.1h-28.3C459.6,501.9,459.9,502.6,460.2,503.3z"/>
		<path fill="#404041" d="M461.9,482.5h16.5c-0.5-0.7-1-1.4-1.5-2.1h-13.2L461.9,482.5z"/>
		<path fill="#404041" d="M462.5,508.5h27c-0.2-0.7-0.3-1.4-0.5-2.1h-27.3C461.9,507.1,462.2,507.8,462.5,508.5z"/>
		<path fill="#404041" d="M464.2,513.7h26.3c-0.1-0.7-0.2-1.4-0.4-2.1h-26.6C463.7,512.3,464,513,464.2,513.7z"/>
		<path fill="#404041" d="M465.3,518.9h25.8c-0.1-0.7-0.1-1.4-0.2-2.1h-26.1C465,517.5,465.2,518.2,465.3,518.9z"/>
		<path fill="#404041" d="M466,524.1h25.6c0-0.7-0.1-1.4-0.1-2.1h-25.7C465.8,522.7,465.9,523.4,466,524.1z"/>
		<path fill="#404041" d="M466.2,529.3h25.5c0-0.7,0-1.4,0-2.1h-25.5C466.2,527.9,466.2,528.6,466.2,529.3z"/>
	</g>
</g>
<g>
	<path fill="#00A69C" d="M351.9,275.5H338v11.3h-10.3v-32.9h24.1v10.2H338v1.1h13.9V275.5z"/>
	<path fill="#00A69C" d="M380.2,270.5c0,3.7-1.3,6.9-3.9,9.5c-2.6,2.6-5.8,3.9-9.5,3.9s-6.9-1.3-9.5-3.9s-4-5.8-4-9.5v-16.6h10.2
		v16.6c0,2.1,1.7,3.2,3.4,3.2c1.6,0,3.2-1,3.2-3.2v-16.6h10.2V270.5z"/>
	<path fill="#00A69C" d="M406.1,264.1H399v22.7h-10.2v-22.7h-7.2v-10.2h24.5V264.1z"/>
	<path fill="#00A69C" d="M434.5,270.5c0,3.7-1.3,6.9-3.9,9.5c-2.6,2.6-5.8,3.9-9.5,3.9s-6.9-1.3-9.5-3.9s-4-5.8-4-9.5v-16.6h10.2
		v16.6c0,2.1,1.7,3.2,3.4,3.2c1.6,0,3.2-1,3.2-3.2v-16.6h10.2V270.5z"/>
	<path fill="#00A69C" d="M472.3,285.1c-2.7,1.5-5.6,2.4-8.4,2.8c-0.8,0.1-1.7,0.1-2.5,0.1c-1.9,0-3.8-0.2-5.7-0.8l0,0
		c-3.5-0.9-6.7-2.7-9.4-5.2h-0.1v4.7h-10.2v-32.9h16.2c3.9,0,7.2,1.4,9.9,4.1c2.7,2.7,4.1,6.1,4.1,10c0,3.8-1.5,7.3-4,9.8
		c1.7-0.1,3.5-0.6,5-1.5L472.3,285.1z M452.1,264.1h-6v7.8h6c2.1,0,3.9-1.8,3.9-3.9C456,265.9,454.2,264.1,452.1,264.1z"/>
	<path fill="#00A69C" d="M496.6,275.5h-14v1.1h10.1v10.2h-20.4V254h20.4v10.2h-10.1v1.1h14V275.5z"/>
	<path fill="#00A69C" d="M227.8,325.8c-4,4-8.8,6-14.5,6h-16.7v-41h16.7c5.6,0,10.4,2,14.5,6.1s6.1,8.8,6.1,14.5
		C233.8,316.9,231.8,321.8,227.8,325.8z M221.1,311.3c0-2-0.7-3.8-2.2-5.4c-1.4-1.6-3.3-2.4-5.6-2.4h-4v15.5h1.3
		c2.9,0.1,5.9,0.1,8.3-2.3C220.5,315.2,221.1,313.2,221.1,311.3z"/>
	<path fill="#00A69C" d="M265.9,317.7h-17.5v1.4h12.7v12.7h-25.4v-41h25.4v12.8h-12.7v1.4h17.5V317.7z"/>
	<path fill="#00A69C" d="M311.4,290.7l-25.1,43.6l-25.1-43.6h14.7l10.4,18.1l10.4-18.1H311.4z"/>
	<path fill="#00A69C" d="M341.7,317.7h-17.5v1.4h12.7v12.7h-25.4v-41h25.4v12.8h-12.7v1.4h17.5V317.7z"/>
	<path fill="#00A69C" d="M365,331.8h-21.5v-41h12.7v28.3h8.8V331.8z"/>
	<path fill="#00A69C" d="M396.1,322.5c-3.8,3.8-8.3,5.6-13.6,5.6c-5.3,0-9.8-1.9-13.6-5.6c-3.8-3.8-5.6-8.3-5.6-13.6
		s1.9-9.8,5.6-13.6c3.8-3.8,8.3-5.6,13.6-5.6c5.3,0,9.8,1.9,13.6,5.6c3.8,3.8,5.7,8.3,5.7,13.6S399.9,318.7,396.1,322.5z
		 M382.5,302.3c-3.6,0-6.5,2.9-6.5,6.5s2.9,6.5,6.5,6.5c3.6,0,6.5-2.9,6.5-6.5S386.1,302.3,382.5,302.3z"/>
	<path fill="#00A69C" d="M436.3,320.7c-3.4,3.4-7.6,5.2-12.5,5.2h-7.4v5.9h-12.8v-41.1h20.2c4.9,0,9.1,1.7,12.5,5.2
		c3.4,3.4,5.2,7.6,5.2,12.5S439.7,317.3,436.3,320.7z M423.8,303.5h-7.4v9.7h7.4c2.7,0,4.9-2.2,4.9-4.9
		C428.7,305.6,426.5,303.5,423.8,303.5z"/>
	<path fill="#00A69C" d="M501.6,331.8H487l-9.1-16.4c-1.7,3.2-3.4,6.4-5.2,9.5l-5.2,9.4l-10.4-19l-9.1,16.4h-14.5l23.7-42.8
		l10.3,18.8l10.2-18.8L501.6,331.8z"/>
	<path fill="#00A69C" d="M531.9,317.7h-17.5v1.4H527v12.7h-25.4v-41H527v12.8h-12.7v1.4h17.5V317.7z"/>
	<path fill="#00A69C" d="M575,336.8l-28.6-22.6v17.6h-12.8v-43.9l28.6,22.6v-19.7H575V336.8z"/>
	<path fill="#00A69C" d="M607.5,303.4h-8.9v28.4h-12.7v-28.4h-8.9v-12.7h30.6V303.4z"/>
	<path fill="#00A69C" d="M633.1,290.7L621.8,302c-0.5,0.5-0.8,1.2-1,1.9v0.4c0,0.9,0.3,1.7,1,2.4l2,2c2.9,2.9,4.6,6.8,4.7,10.7v0.7
		c0,4.1-1.6,8.3-4.7,11.4l-0.2,0.2h-18l9.2-9.2c0.7-0.7,1-1.5,1-2.4v-0.4c-0.1-0.7-0.4-1.4-1-1.9l-2-2c-3.2-3.1-4.7-7.3-4.7-11.4
		v-0.7c0.2-3.8,1.7-7.7,4.7-10.7l2.3-2.3H633.1z"/>
</g>
<line fill="none" stroke="#00A69C" stroke-width="49" stroke-miterlimit="10" x1="35.7" y1="290.1" x2="171" y2="290.1"/>
<g>
	<g>
		<line fill="none" stroke="#00A69C" stroke-width="49" stroke-miterlimit="10" x1="652.9" y1="290.1" x2="716" y2="290.1"/>
		<g>
			<polygon fill="#00A69C" points="696.7,356 810.9,290.1 696.7,224.1 			"/>
		</g>
	</g>
</g>
</svg>
