<?xml version="1.0" encoding="utf-8"?>
<!-- Generator: Adobe Illustrator 17.1.0, SVG Export Plug-In . SVG Version: 6.00 Build 0)  -->
<!DOCTYPE svg PUBLIC "-//W3C//DTD SVG 1.1//EN" "http://www.w3.org/Graphics/SVG/1.1/DTD/svg11.dtd">
<svg version="1.1" id="Layer_1" xmlns="http://www.w3.org/2000/svg" xmlns:xlink="http://www.w3.org/1999/xlink" x="0px" y="0px"
	 viewBox="0 0 841.9 595.3" enable-background="new 0 0 841.9 595.3" xml:space="preserve">
<rect x="167.5" y="187.1" fill="none" width="479" height="221"/>
<g>
	<g>
		<path fill="#EC1C24" d="M250.7,310c-6.3,6.3-14.1,9.5-23,9.5h-13.7v10.8h-23.6v-75.8h37.3c9,0,16.7,3.2,23,9.5s9.5,14.1,9.5,23
			C260.2,296,257,303.6,250.7,310z M227.6,278.1h-13.7V296h13.7c5,0,9-4.1,9-9C236.6,282.1,232.6,278.1,227.6,278.1z"/>
		<path fill="#EC1C24" d="M319.2,333.2c-0.8,0-1.4-0.1-2.2-0.2c-1.5,0-3.1-0.2-4.6-0.4c-1.4-0.2-3-0.7-4.4-1.1
			c-4-0.9-7.9-2.4-11.5-4.4c-3.8-2.1-7.1-4.5-10.3-7.5h-0.2v10.8h-23.5v-76l37.3,0.2c9,0,16.6,3.2,23,9.5c6.3,6.3,9.5,13.9,9.5,23
			c0,4.4-0.9,8.5-2.5,12.5c-1.7,3.9-4,7.2-6.9,10.2c5.1,0,12.2-2.1,14.8-3.3l-16.2,26.9C320.7,333.3,319.9,333.2,319.2,333.2z
			 M299.7,278.1h-13.8V296h13.8c2.4,0,4.6-0.9,6.3-2.7c1.8-1.8,2.7-3.9,2.7-6.3c0-2.5-0.9-4.6-2.7-6.4
			C304.3,279,302.1,278.1,299.7,278.1z"/>
		<path fill="#EC1C24" d="M404.5,321c-7.9,7.9-17.4,11.8-28.6,11.8c-11.2,0-20.7-4-28.7-11.8c-7.9-8-11.8-17.5-11.8-28.7
			c0-11.2,4-20.7,11.8-28.6c8-8,17.5-12,28.7-12c11.2,0,20.7,4,28.6,12c8,7.9,12,17.4,12,28.6C416.5,303.5,412.5,313.1,404.5,321z
			 M387.9,280.4c-3.3-3.3-7.3-5-12-5c-4.8,0-8.7,1.7-12.1,5c-3.3,3.3-5,7.3-5,12c0,4.8,1.7,8.7,5,12.1c3.3,3.3,7.3,5,12.1,5
			c4.6,0,8.6-1.7,12-5c3.4-3.3,5.1-7.3,5.1-12.1C393,287.7,391.3,283.7,387.9,280.4z"/>
		<path fill="#EC1C24" d="M488.2,320.9c-0.1,0.1-0.2,0.2-0.3,0.3c-8,8-17.5,11.8-28.7,11.8c-11.1,0-20.7-3.9-28.6-11.8
			c-8-8-12-17.5-12-28.7c0-11.2,4-20.7,12-28.7c7.9-8,17.5-11.8,28.6-11.8c11.2,0,20.7,3.9,28.7,11.8c0.1,0.1,0.2,0.2,0.3,0.3
			l-16.7,16.6c-0.1-0.1-0.1-0.1-0.2-0.2c-3.3-3.3-7.4-5-12.1-5c-4.6,0-8.7,1.7-12.1,5c-3.3,3.3-5,7.3-5,12c0,4.8,1.7,8.7,5,12.1
			c3.3,3.3,7.4,5,12.1,5c4.6,0,8.7-1.7,12.1-5c0.1-0.1,0.2-0.2,0.3-0.3L488.2,320.9z"/>
		<path fill="#EC1C24" d="M514.2,306.9h32v23.5h-55.7v-75.7h55.7v23.6h-32v2.5h32v23.6h-32V306.9z"/>
		<path fill="#EC1C24" d="M602,310c-1.4,5-4.2,9.4-8.1,13.4c-6.4,6.4-14.1,9.6-23.1,9.6c-9,0-16.6-3.2-23-9.6l16.7-16.7
			c1.8,1.8,3.9,2.7,6.3,2.7c2.5,0,4.6-0.9,6.4-2.7c1.7-1.8,2.5-3.9,2.5-6.3c0-3.1-0.4-9.3-12.1-11.4c-11.7-2-15.3-11.2-15.3-16
			c0-10.2,8.2-18.4,18.4-18.4h20.7v20.7c0.9,0.7,1.7,1.3,2.3,2.1c6.4,6.4,9.6,14.1,9.6,23C603.4,303.6,603,306.9,602,310z"/>
		<path fill="#EC1C24" d="M652.6,310c-1.4,5-4.2,9.4-8.1,13.4c-6.4,6.4-14.1,9.6-23.1,9.6c-9,0-16.6-3.2-23-9.6l16.7-16.7
			c1.8,1.8,3.9,2.7,6.3,2.7c2.5,0,4.6-0.9,6.4-2.7c1.7-1.8,2.5-3.9,2.5-6.3c0-3.1-0.4-9.3-12.1-11.4c-11.7-2-15.3-11.2-15.3-16
			c0-10.2,8.2-18.4,18.4-18.4h20.7v20.7c0.9,0.7,1.7,1.3,2.3,2.1c6.4,6.4,9.6,14.1,9.6,23C654,303.6,653.6,306.9,652.6,310z"/>
	</g>
	<polygon fill="#EC1C24" points="172.5,305.8 162.3,301.5 153.2,307.7 154,296.5 145.5,289.5 156.1,286.9 160,276.5 165.7,286 
		176.7,286.5 169.6,295 	"/>
	<polygon fill="#EC1C24" points="680.8,276.5 685.6,286.7 696.4,288.4 688.6,296.4 690.5,307.7 680.8,302.3 671.2,307.7 673,296.4 
		665.2,288.4 676,286.7 	"/>
</g>
<g>
	<g>
		<g>
			<path fill="#404041" d="M245.2,81.3V107c0,3-1.3,5.5-3.2,6.7v59.1h0c0,2.4-1.9,4.3-4.3,4.3c-2.4,0-4.3-1.9-4.3-4.3
				c0-0.1,0-0.2,0-0.3v-34.2c0-0.3-0.2-0.5-0.5-0.5c-0.3,0-0.5,0.2-0.5,0.5v34.5c0,2.4-1.9,4.3-4.3,4.3c-2.4,0-4.3-1.9-4.3-4.3
				c0-0.1,0-0.2,0-0.3v-34.7h0v-24.1c-0.5-0.3-1-0.7-1.4-1.3c1-1.5,1.5-3.4,1.5-5.5V81.3c0-1.2-0.5-2.2-1.2-3
				c0.4-0.1,0.7-0.2,1.2-0.2c1.8,0,3.2,1.5,3.2,3.3v6.8c-1.7,1.6-2.7,3.8-2.7,6.2s1,4.7,2.7,6.2v2.7c0,0.3,0.2,0.5,0.5,0.5h10.6
				c0.3,0,0.5-0.2,0.5-0.5v-2.7c1.7-1.6,2.7-3.8,2.7-6.2c0-2.5-1-4.7-2.7-6.2v-6.8c0-1.8,1.4-3.3,3.2-3.3
				C243.7,78,245.2,79.5,245.2,81.3z"/>
			<path fill="#404041" d="M240.5,94.3c0,1.8-0.6,3.5-1.7,4.8c-1.4,1.7-3.5,2.7-5.8,2.7c-2.3,0-4.4-1.1-5.8-2.8
				c-1.1-1.3-1.7-3-1.7-4.8c0-1.8,0.6-3.5,1.7-4.8c1.4-1.7,3.5-2.8,5.8-2.8c2.3,0,4.4,1.1,5.8,2.7C239.8,90.8,240.5,92.5,240.5,94.3
				z"/>
		</g>
		<g>
			<path fill="#404041" d="M197.1,107c0,2.1,0.5,4,1.5,5.5c-0.4,0.5-0.9,0.9-1.4,1.3v59.1h0c0,2.4-1.9,4.3-4.3,4.3
				c-2.4,0-4.3-1.9-4.3-4.3c0-0.1,0-0.2,0-0.3v-34.2c0-0.3-0.2-0.5-0.5-0.5c-0.3,0-0.5,0.2-0.5,0.5v34.5c0,2.4-1.9,4.3-4.3,4.3
				c-2.4,0-4.3-1.9-4.3-4.3c0-0.1,0-0.2,0-0.3v-34.7h0v-24.1c-1.9-1.2-3.2-3.8-3.2-6.7V81.3c0-1.8,1.4-3.3,3.2-3.3
				c1.8,0,3.2,1.5,3.2,3.3v6.8c-1.7,1.6-2.7,3.8-2.7,6.2s1,4.7,2.7,6.2v2.7c0,0.3,0.2,0.5,0.5,0.5h10.6c0.3,0,0.5-0.2,0.5-0.5v-2.7
				c1.7-1.6,2.7-3.8,2.7-6.2c0-2.5-1.1-4.7-2.7-6.2v-6.8c0-1.8,1.4-3.3,3.2-3.3c0.4,0,0.8,0.1,1.2,0.2c-0.8,0.8-1.2,1.9-1.2,3
				L197.1,107z"/>
			<path fill="#404041" d="M195.6,94.3c0,1.8-0.6,3.5-1.7,4.8c-1.4,1.7-3.5,2.7-5.8,2.7c-2.3,0-4.4-1.1-5.8-2.8
				c-1.1-1.3-1.7-3-1.7-4.8c0-1.8,0.6-3.5,1.7-4.8c1.4-1.7,3.5-2.8,5.8-2.8c2.3,0,4.4,1.1,5.8,2.7C195,90.8,195.6,92.5,195.6,94.3z"
				/>
		</g>
		<path fill="#404041" d="M222.8,81.3V107c0,1.7-0.4,3.2-1.1,4.5c0,0,0,0,0,0c-0.5,1-1.2,1.7-2.1,2.3v59.1h0c0,2.4-1.9,4.3-4.3,4.3
			c-2.4,0-4.3-1.9-4.3-4.3c0-0.1,0-0.2,0-0.3v-34.2c0-0.3-0.2-0.5-0.5-0.5c-0.3,0-0.5,0.2-0.5,0.5v34.5c0,2.4-1.9,4.3-4.3,4.3
			c-2.4,0-4.3-1.9-4.3-4.3c0-0.1,0-0.2,0-0.3v-34.7h0v-24.1c-0.8-0.5-1.5-1.3-2.1-2.3c0,0,0,0,0,0c-0.7-1.2-1.1-2.8-1.1-4.5V81.3
			c0-1,0.4-1.8,1.1-2.4c0.6-0.5,1.3-0.8,2.1-0.8c1.8,0,3.2,1.5,3.2,3.3v6.7c-0.3,0.3-0.6,0.6-0.8,0.9c-1.3,1.6-2,3.5-2,5.5
			c0,2,0.7,3.9,2,5.5c0.3,0.3,0.5,0.6,0.9,0.9v2.5c0,0.3,0.2,0.5,0.5,0.5h10.6c0.3,0,0.5-0.2,0.5-0.5v-2.5c0.3-0.3,0.6-0.6,0.8-0.9
			c1.3-1.5,2-3.5,2-5.5c0-2-0.7-4-2-5.5c-0.3-0.3-0.5-0.6-0.8-0.9v-6.6c0-1.8,1.4-3.3,3.2-3.3c0.8,0,1.6,0.3,2.1,0.8
			C222.4,79.4,222.8,80.3,222.8,81.3z"/>
	</g>
	<path fill="#404041" d="M218.1,94.3c0,1.8-0.6,3.5-1.7,4.8c-0.3,0.4-0.7,0.8-1.1,1.1c-1.3,1-2.9,1.7-4.7,1.7
		c-1.8,0-3.4-0.6-4.7-1.7c-0.4-0.3-0.8-0.7-1.1-1.1c-1.1-1.3-1.7-3-1.7-4.8c0-1.8,0.6-3.5,1.7-4.8c0.3-0.4,0.7-0.8,1.1-1.1
		c1.3-1.1,2.9-1.7,4.7-1.7c1.8,0,3.4,0.6,4.7,1.6c0.4,0.3,0.8,0.7,1.1,1.1C217.4,90.8,218.1,92.5,218.1,94.3z"/>
</g>
<g>
	<circle fill="#404041" cx="399" cy="57.2" r="6"/>
	<path fill="#404041" d="M451.7,111.4c3.5,0,6.4,2.9,6.4,6.4c0,3.5-2.9,6.4-6.4,6.4s-6.4-2.9-6.4-6.4
		C445.3,114.3,448.2,111.4,451.7,111.4 M451.7,110.2c-4.2,0-7.6,3.4-7.6,7.6c0,4.2,3.4,7.6,7.6,7.6c4.2,0,7.6-3.4,7.6-7.6
		C459.4,113.6,455.9,110.2,451.7,110.2L451.7,110.2z"/>
	<path fill="#404041" d="M454.7,128.6c1.5,0,2.5,0.8,3.2,1.4c1.2,1.2,1.8,3,1.7,4.9l-0.2,5.1h-15.1l-0.2-5.1
		c-0.1-1.9,0.5-3.7,1.7-4.9c0.6-0.6,1.7-1.4,3.2-1.4H454.7 M454.7,127.4h-5.9c-3.5,0-6.3,3.5-6.1,7.6l0.3,6.3h17.4l0.3-6.3
		C460.9,130.9,458.2,127.4,454.7,127.4L454.7,127.4z"/>
	<path fill="#404041" d="M393.1,128.6c1.5,0,2.5,0.8,3.2,1.4c1.2,1.2,1.8,3,1.7,4.9l-0.2,5.1h-15.1l-0.2-5.1
		c-0.1-1.9,0.5-3.7,1.7-4.9c0.6-0.6,1.7-1.4,3.2-1.4H393.1 M393.1,127.4h-5.9c-3.5,0-6.3,3.5-6.1,7.6l0.3,6.3h17.4l0.3-6.3
		C399.3,130.9,396.6,127.4,393.1,127.4L393.1,127.4z"/>
	<path fill="#404041" d="M423.7,128.6c1.5,0,2.5,0.8,3.2,1.4c1.2,1.2,1.8,3,1.7,4.9l-0.2,5.1h-15.1l-0.2-5.1
		c-0.1-1.9,0.5-3.7,1.7-4.9c0.6-0.6,1.7-1.4,3.2-1.4H423.7 M423.7,127.4h-5.9c-3.5,0-6.3,3.5-6.1,7.6l0.3,6.3h17.4l0.3-6.3
		C429.9,130.9,427.2,127.4,423.7,127.4L423.7,127.4z"/>
	<path fill="#404041" d="M447.8,47.3c-0.7-0.7-1.7-1.1-2.7-1.1h-6.8l0.1-1.5c0.1-1.3-0.9-2.5-2.2-2.6c-1.3-0.1-2.5,0.9-2.6,2.2
		l-0.2,1.9h-6.7c-1.9,0-3.5,1.4-3.7,3.3l-1,10.1c-3.3,1.4-6.8,2.9-6.9,3l-8.6,2.3c-1.2,0.3-2.6,0.4-3.8,0c-0.5-0.2-1-0.2-1.5-0.2
		h-4.6c-5.9,0-7.5,2.4-7.7,4.2l-1.5,13c0,0-0.1,0.5-0.1,0.7l-0.3,13.1c0,0.9,0.7,1.6,1.7,1.7s1.8-0.5,1.9-1.4l1-7.1
		c0,0-0.1,1-0.1,1.5c0,0,0.6,16.8,0.7,17.4l0.1,2.7l0,0c-0.7-0.2-1.5-0.4-2.3-0.4c-4.2,0-7.6,3.4-7.6,7.6c0,4.2,3.4,7.6,7.6,7.6
		c1.2,0,2.3-0.3,3.4-0.8c0.4,0.7,1.1,1.1,1.8,1.1c1.2,0,2.3-1.2,2.3-2.8l0.6-15.1c0-0.6,0.7-14.7,0.7-14.7h0.4c0,0,0.5,14,0.5,14.7
		l0.6,15.1c0.1,1.6,1.1,2.8,2.3,2.8c1.2,0,2.2-1.2,2.3-2.8l0.6-15.1c0-0.6,0.8-17.4,0.8-17.4c0-0.6-0.1-2.1-0.1-2.3V71.9l11.2-4.9
		c0,0,0,0,0,0c0.1,0,1.9-1,4-2.2L419,92.5c-0.1,1,0.2,2.1,0.9,2.8c0.7,0.8,1.7,1.2,2.7,1.2h1.2l-2.2,13.6c-0.3,0-0.6-0.1-1-0.1
		c-4.2,0-7.6,3.4-7.6,7.6c0,4.2,3.4,7.6,7.6,7.6c4.2,0,7.6-3.4,7.6-7.6c0-3-1.8-5.6-4.3-6.9l2.3-14.3h11l0.6,3.8l-0.1,23.4
		c0,0.7,0.5,1.2,1.2,1.2c0,0,0,0,0,0c0.7,0,1.2-0.5,1.2-1.2l0-8.6l1.4,8.8c0.1,0.6,0.6,1,1.2,1c0.1,0,0.1,0,0.2,0
		c0.7-0.1,1.1-0.7,1-1.4l-3.7-23.4l0-3.6h3c2,0,3.6-1.6,3.7-3.5l1.8-43.1C448.9,49,448.5,48,447.8,47.3z M390.2,124.2
		c-3.5,0-6.4-2.9-6.4-6.4c0-3.5,2.9-6.4,6.4-6.4s6.4,2.9,6.4,6.4C396.6,121.3,393.7,124.2,390.2,124.2z M427.2,117.8
		c0,3.5-2.9,6.4-6.4,6.4s-6.4-2.9-6.4-6.4c0-3.5,2.9-6.4,6.4-6.4S427.2,114.3,427.2,117.8z M445.8,93c-0.1,1.3-1.1,2.4-2.5,2.4
		h-20.7c-0.7,0-1.4-0.3-1.8-0.8s-0.7-1.2-0.6-1.9l2.8-28.6c3.2-1.8,6.8-3.7,6.8-3.7c0.8-0.4,1-1.5,0.6-2.3c-0.4-0.9-1.4-1.3-2.2-1
		c0,0-2.1,0.9-4.7,2l0.9-9.5c0.1-1.3,1.2-2.3,2.5-2.3h18.3c0.7,0,1.3,0.3,1.8,0.8c0.5,0.5,0.7,1.1,0.7,1.8L445.8,93z"/>
</g>
<g>
	<path fill="#404041" d="M662.9,103.3h-12.3c-5.3,0-5.6-4.7-5.6-5.6V85.3L662.9,103.3z M666.6,144l3.6,3.6v-42.1L645,80.2V80h-0.1
		l-2-2h-42.5c-3.2,0-9.3,1.9-9.3,9.3v80.6c0,3.2,1.9,9.3,9.3,9.3H661c3.2,0,9.3-1.9,9.3-9.3v-5.5l-3.6-3.6v9.1
		c0,5.3-4.7,5.7-5.6,5.7h-60.7c-5.3,0-5.6-4.7-5.6-5.7V87.3c0-5.3,4.7-5.7,5.6-5.7h41l0,0v16c0,0.5,0.1,1.1,0.2,1.7h-34.2
		c-1,0-1.8,0.8-1.8,1.8c0,1,0.8,1.8,1.8,1.8h35.6c1.4,2.2,3.7,4,7.7,4h15.9l0.1,0.1V144z M622.1,129.1c0-1.1,0.1-2.2,0.3-3.3h-15.1
		c-1,0-1.8,0.8-1.8,1.8s0.8,1.8,1.8,1.8h14.8C622.1,129.3,622.1,129.2,622.1,129.1 M607.3,116.2h18.9c1-1.3,2.1-2.6,3.3-3.6h-22.2
		c-1,0-1.8,0.8-1.8,1.8C605.5,115.4,606.3,116.2,607.3,116.2 M624.5,139h-17.2c-1,0-1.8,0.8-1.8,1.8c0,1,0.8,1.8,1.8,1.8h19.5
		C625.9,141.5,625.2,140.3,624.5,139 M654,152.2h-46.7c-1,0-1.8,0.8-1.8,1.8c0,1,0.8,1.8,1.8,1.8H654c1,0,1.8-0.8,1.8-1.8
		C655.8,153.1,655,152.2,654,152.2 M644.3,145.3c-8.9,0-16.2-7.3-16.2-16.2c0-8.9,7.3-16.2,16.2-16.2c8.9,0,16.2,7.3,16.2,16.2
		S653.2,145.3,644.3,145.3 M682.2,162.5l-21.7-21.7c0,0-0.1-0.1-0.1-0.1c2.4-3.3,3.8-7.3,3.8-11.6c0-10.9-8.9-19.8-19.8-19.8
		s-19.8,8.9-19.8,19.8s8.9,19.8,19.8,19.8c4.3,0,8.4-1.4,11.6-3.8c0,0,0.1,0.1,0.1,0.1l21.7,21.7c0.6,0.6,1.4,0.9,2.2,0.9
		s1.6-0.3,2.2-0.9C683.4,165.7,683.4,163.7,682.2,162.5"/>
</g>
<g>
	<circle fill="#404041" cx="327.2" cy="440.9" r="9.9"/>
	<path fill="#404041" d="M349.8,456.6c-2.3-1.5-5.4-0.9-6.9,1.4l-6.6,9.8l-10.6-10.6c-0.2-0.2-0.4-0.3-0.7-0.4
		c-0.2-0.2-0.4-0.4-0.6-0.5l-9.9-5c0,0-0.1,0-0.1,0c-0.3-0.1-0.6-0.2-1-0.3c-0.3-0.1-0.6-0.2-0.9-0.2c-0.1,0-0.1,0-0.2,0h-19.8
		c-1.7,0-3.2,0.8-4.1,2.2l-9.9,14.9c-1.5,2.3-0.9,5.4,1.4,6.9c0.8,0.6,1.8,0.8,2.7,0.8c1.6,0,3.2-0.8,4.1-2.2l8.4-12.7h9.2
		L293,483.4c-0.1,0.2-0.1,0.4-0.2,0.6c-0.1,0.2-0.2,0.4-0.3,0.6l-3.9,19.7l-14.8-3.7c-2.7-0.7-5.4,0.9-6,3.6c-0.7,2.7,1,5.3,3.6,6
		l19.8,5c0.4,0.1,0.8,0.1,1.2,0.1c0.9,0,1.9-0.3,2.7-0.8c1.1-0.7,1.9-1.9,2.2-3.2l3.7-18.4l3.4,1.7l11.8,11.8l-8.3,16.6
		c-1.2,2.5-0.2,5.4,2.2,6.7c0.7,0.4,1.5,0.5,2.2,0.5c1.8,0,3.6-1,4.4-2.7l9.9-19.8c1-1.9,0.6-4.2-0.9-5.7l-12.4-12.4l10.2-20.4
		l10,10c0.9,0.9,2.2,1.5,3.5,1.5c0.2,0,0.3,0,0.5,0c1.5-0.1,2.8-0.9,3.6-2.2l9.9-14.9C352.7,461.2,352.1,458.2,349.8,456.6z"/>
</g>
<g>
	<g>
		<circle fill="#404041" cx="511.1" cy="464.6" r="8.9"/>
	</g>
	<path fill="#404041" d="M521.8,475.3h-21.3c-4.4,0-8,3.6-8,8v5.8c0,2.2,1.8,4,4,4h9.8c2.2,0,4-1.8,4-4s-1.8-4-4-4h-5.8v-1.8h21.3
		v1.8H516c-2.2,0-4,1.8-4,4c0,2.2,1.8,4,4,4h9.8c2.2,0,4-1.8,4-4v-5.8C529.8,478.9,526.2,475.3,521.8,475.3z"/>
	
		<rect x="540.4" y="445.2" transform="matrix(0.9659 0.2588 -0.2588 0.9659 136.0616 -125.4315)" fill="#404041" width="8" height="17.8"/>
	<circle fill="#404041" cx="548.2" cy="439.9" r="4"/>
	<path fill="#404041" d="M533.1,427.6l-9.2,34.3l15.2,4.1l-7.7,28.8h0l0,0h-48.3v32h55.9v-32h-3.6L543,467l15.2,4.1l9.2-34.3
		L533.1,427.6z M556.7,468.4l-30.1-8.1l8.1-30.1l30.1,8.1L556.7,468.4z"/>
</g>
<g>
	<path fill="#404041" d="M140.8,436.4c-1.5-13.4-12.9-23.7-26.7-23.7c-1.4,0-2.8,0.1-4.1,0.4v-23.1c0-3.4-2.8-6.2-6.2-6.2H62.5
		c-3.4,0-6.2,2.8-6.2,6.2v43.4c0,3.4,2.8,6.2,6.2,6.2h24.8c0,7.6,3.2,14.5,8.3,19.4v24h33.1v-9.3c6.5,0,11.8-5,12.3-11.4h0.1V456
		h4.1c1.1,0,2.1-0.9,2.1-2.1C147.2,453.5,140.8,436.4,140.8,436.4z M105.9,433.3c0,1.1-0.9,2.1-2.1,2.1h-2.1c-1.1,0-2.1,0.9-2.1,2.1
		c0,3.7,2.3,7.3,4.6,9.9c-11.2-2-12.8-9.8-12.9-10.2c-0.2-1-1-1.7-2-1.7H62.5c-1.1,0-2.1-0.9-2.1-2.1v-43.4c0-1.1,0.9-2.1,2.1-2.1
		h41.3c1.1,0,2.1,0.9,2.1,2.1V433.3z M131.7,443.6c-1.7,0-3.1-1.4-3.1-3.1c0-1.7,1.4-3.1,3.1-3.1c1.7,0,3.1,1.4,3.1,3.1
		C134.8,442.2,133.4,443.6,131.7,443.6z"/>
	<rect x="83.1" y="394" fill="#404041" width="18.6" height="4.1"/>
	<rect x="83.1" y="408.5" fill="#404041" width="18.6" height="4.1"/>
	<rect x="83.1" y="422.9" fill="#404041" width="18.6" height="4.1"/>
	<path fill="#404041" d="M70.7,402.3c-0.3,0-0.6-0.1-0.9-0.2l-4.1-2.1c-1-0.5-1.4-1.8-0.9-2.8c0.5-1,1.8-1.4,2.8-0.9l2.6,1.3
		l5.2-6.9c0.7-0.9,2-1.1,2.9-0.4c0.9,0.7,1.1,2,0.4,2.9l-6.2,8.3C72,402,71.4,402.3,70.7,402.3z"/>
	<path fill="#404041" d="M70.7,416.7c-0.3,0-0.6-0.1-0.9-0.2l-4.1-2.1c-1-0.5-1.4-1.8-0.9-2.8c0.5-1,1.8-1.4,2.8-0.9l2.6,1.3
		l5.2-6.9c0.7-0.9,2-1.1,2.9-0.4c0.9,0.7,1.1,2,0.4,2.9l-6.2,8.3C72,416.5,71.4,416.7,70.7,416.7z"/>
	<path fill="#404041" d="M74.7,426l1.6-1.6c0.8-0.8,0.8-2.1,0-2.9c-0.8-0.8-2.1-0.8-2.9,0l-1.6,1.6l-1.6-1.6c-0.8-0.8-2.1-0.8-2.9,0
		c-0.8,0.8-0.8,2.1,0,2.9l1.6,1.6l-1.6,1.6c-0.8,0.8-0.8,2.1,0,2.9c0.4,0.4,0.9,0.6,1.5,0.6c0.5,0,1.1-0.2,1.5-0.6l1.6-1.6l1.6,1.6
		c0.4,0.4,0.9,0.6,1.5,0.6s1.1-0.2,1.5-0.6c0.8-0.8,0.8-2.1,0-2.9L74.7,426z"/>
</g>
<g id="Your_Icon_copy_12">
	<g>
		<path fill="#404041" d="M773.8,465.7h11.3v-4.9l11,11l-11,11V478h-26.8C764.3,475,769.5,470.8,773.8,465.7z"/>
		<path fill="#404041" d="M730.9,401.1c-15.8,2.2-27.9,15.8-27.9,32.1c0,11.2,5.7,21.1,14.4,26.9h-17.6c-5.7-7.5-9.1-16.8-9.1-26.9
			c0-22.9,17.3-41.8,39.5-44.4l-5.8,5.8L730.9,401.1z"/>
		<path fill="#404041" d="M691.4,471.9l-6.1-6.1h50.2c17.9,0,32.5-14.6,32.5-32.5c0-16-11.7-29.4-26.9-32v4.4l-11-11l11-11v5.3
			c22.1,2.7,39.2,21.6,39.2,44.4c0,24.7-20.1,44.7-44.7,44.7h-50.2L691.4,471.9z"/>
	</g>
</g>
</svg>
