<?xml version="1.0" encoding="utf-8"?>
<!-- Generator: Adobe Illustrator 17.1.0, SVG Export Plug-In . SVG Version: 6.00 Build 0)  -->
<!DOCTYPE svg PUBLIC "-//W3C//DTD SVG 1.1//EN" "http://www.w3.org/Graphics/SVG/1.1/DTD/svg11.dtd">
<svg version="1.1" id="Layer_1" xmlns="http://www.w3.org/2000/svg" xmlns:xlink="http://www.w3.org/1999/xlink" x="0px" y="0px"
	 viewBox="0 0 841.9 595.3" enable-background="new 0 0 841.9 595.3" xml:space="preserve">
<g>
	<rect x="270.8" y="66.1" fill="#F1F1F2" width="305.3" height="172.1"/>
	<g>
		<path fill="#1B75BB" d="M419.9,162c0,12.8-2.5,23.6-7.5,32.7c-5,9-11.1,13.4-18.1,13.4c-6.9,0-13.4-5-18.1-13.4
			s-7.6-19.9-7.6-32.7V92.6H388V162c0,2.8,0.7,5.8,1.8,7.8c1.2,2,2.7,3.3,4.5,3.3c3.4,0,6.1-5,6.1-11.1V92.6h19.5V162z"/>
		<path fill="#1B75BB" d="M473.5,206.5h-21.7l-5.3-19.3l-5.3,19.3h-21.7l16.1-58.3l-15.3-55.4H442l4.6,16.3l4.6-16.3h21.7
			l-15.3,55.4L473.5,206.5z"/>
	</g>
	<g>
		<circle fill="#404041" cx="266.6" cy="265.6" r="6.5"/>
		<path fill="none" d="M113.9,238.2h305.3V66.1H113.9V238.2z"/>
		<path fill="#404041" stroke="#E6E7E8" stroke-miterlimit="10" d="M579.3,52.7h-154h-5.2h-154c-5.5,0-10.2,4.2-10.2,9.7v189.8v0.7
			v17.6v1.1c0,5.5,4.7,10.1,10.2,10.1h123.4c-0.1,3.1-1.1,16.7-7.6,23.2c-5.1,5.2-12.1,10-9.4,12.5c0.7,1.5,3.8,2.4,11,2.4
			c15.9,0,33,0,39.3,0c1.6,0,2.5,0,2.5,0c6.3,0,23.5,0,39.3,0c8.2,0,11.1-1.3,11.1-3.3h-0.3v-0.7h-0.3c-0.4-2.7-5.8-6.7-10-10.9
			c-6.4-6.6-7.4-20.1-7.6-23.2h121.7c5.5,0,9.9-4.6,9.9-10.1v-1.1v-17.6v-0.7V62.4C589.3,56.9,584.8,52.7,579.3,52.7z M422.6,272.1
			c-3.6,0-6.5-2.9-6.5-6.5c0-3.6,2.9-6.5,6.5-6.5c3.6,0,6.5,2.9,6.5,6.5C429.1,269.2,426.1,272.1,422.6,272.1z M575.2,238.2H269.9
			V66.1h305.3L575.2,238.2L575.2,238.2z"/>
	</g>
</g>
<g>
	<g>
		<g>
			<path fill="none" stroke="#A6A8AB" stroke-width="16" stroke-miterlimit="10" d="M409.1,340.8c0,47.7-26.8,88.5-64.8,105.1"/>
			<g>
				<polygon fill="#A6A8AB" points="345.3,416.5 306.1,454 358.2,469.2 				"/>
			</g>
		</g>
	</g>
	<g>
		<g>
			<path fill="none" stroke="#A6A8AB" stroke-width="16" stroke-miterlimit="10" d="M431.5,340.8c0,49.7,26.8,92.2,64.9,109.5"/>
			<g>
				<polygon fill="#A6A8AB" points="495.6,420.9 534.5,458.7 482.3,473.4 				"/>
			</g>
		</g>
	</g>
</g>
<g>
	<path fill="#26A9E0" d="M575.5,481.8c-1.2-3.9-3.4-6.2-6-6.2c-1.9,0-3.5,1.2-4.8,3.6c-1.4,2.4-2,5.4-2,8.8c0,3.4,0.7,6.3,2,8.8
		c1.4,2.5,3,3.7,4.8,3.7h1.1h1.1V487H582v32.1h-12.5c-4.7,0-8.8-3.1-12.1-9.2c-3.3-6.1-5-13.5-5-22c0-8.5,1.7-15.9,5-22
		c3.3-6.1,7.4-9.2,12.1-9.2c3.1,0,5.9,1.4,8.6,4.2c2.7,2.8,4.8,6.6,6.3,11.4L575.5,481.8z"/>
	<path fill="#26A9E0" d="M620.4,516.1c-2.7,2.8-5.6,4.5-8.5,5.1c-0.8,0.3-1.7,0.3-2.5,0.3c-1.9,0-3.9-0.4-5.8-1.4l0,0.1
		c-3.5-1.7-6.8-4.9-9.5-9.6h-0.1v8.6h-10.3v-60.3H600c3.9,0,7.3,2.6,10,7.6c2.8,5,4.2,11.2,4.2,18.3c0,7-1.5,13.4-4.1,18
		c1.7-0.3,3.5-1.1,5.1-2.8L620.4,516.1z M600,477.6h-6.1v14.3h6.1c2.1,0,3.9-3.3,3.9-7.1C603.9,480.8,602.1,477.6,600,477.6z"/>
	<path fill="#26A9E0" d="M649.7,519.2l-1.7-5.2h-15l-1.6,5.2h-11.9l21.1-66.3l21.1,66.3H649.7z M642,495.2l-1.5-4.9l-1.5,4.9H642z"
		/>
	<path fill="#26A9E0" d="M687.9,503c-2.8,5-6.2,7.6-10.1,7.6h-6v8.6h-10.3v-60.3h16.3c3.9,0,7.3,2.6,10.1,7.6
		c2.8,5,4.2,11.2,4.2,18.3S690.7,497.9,687.9,503z M677.9,477.6h-6v14.3h6c2.2,0,3.9-3.3,3.9-7.1C681.8,480.8,680,477.6,677.9,477.6
		z"/>
	<path fill="#26A9E0" d="M725.1,498.4h-3.9v20.8h-10.3v-20.8h-7v20.8h-10.3v-60.4h10.3v20.9h7v-20.9h10.3v20.9h3.9V498.4z"/>
	<path fill="#26A9E0" d="M736.8,519.2h-10.3v-60.3h10.3V519.2z"/>
	<path fill="#26A9E0" d="M760.1,520.3c-1.4,0.4-2.8,0.9-4.2,0.9c-4.9,0-9.1-3.2-12.5-9.4c-3.4-6.3-5.2-13.9-5.2-22.8
		c0-8.9,1.7-16.5,5.2-22.7c3.5-6.3,7.7-9.5,12.5-9.5c1.4,0,2.8,0.4,4.2,1l-2.4,18.1c-0.6-0.3-1.2-0.4-1.7-0.4c-2,0-3.7,1.3-5.2,3.9
		c-1.5,2.6-2.3,5.8-2.3,9.6c0,3.9,0.8,7.1,2.3,9.8c1.5,2.6,3.2,3.9,5.2,3.8c0.3,0,0.5,0,0.9-0.1c0.2,0,0.6-0.2,0.8-0.3L760.1,520.3z
		"/>
	<path fill="#26A9E0" d="M782.3,458.9l-9.2,16.6c-0.4,0.7-0.6,1.8-0.8,2.8v0.6c0,1.3,0.2,2.6,0.8,3.5l1.6,3
		c2.4,4.3,3.7,9.9,3.8,15.7v1c0,6.1-1.3,12.1-3.8,16.7l-0.1,0.3h-14.5l7.4-13.5c0.5-1,0.8-2.2,0.8-3.5v-0.6c0-1.1-0.3-2.1-0.8-2.8
		l-1.6-3c-2.6-4.6-3.8-10.6-3.8-16.7v-1.1c0.1-5.6,1.4-11.4,3.8-15.7l1.8-3.3H782.3z"/>
</g>
<g>
	<path fill="#26A9E0" d="M57,519.2H46.7v-60.3H57V519.2z"/>
	<path fill="#26A9E0" d="M91.8,526.5l-23.1-33.2v25.9H58.4v-64.4l23.1,33.1v-29h10.3V526.5z"/>
	<path fill="#26A9E0" d="M118,477.5h-7.2v41.6h-10.3v-41.6h-7.2v-18.7H118V477.5z"/>
	<path fill="#26A9E0" d="M143.9,498.5h-14.1v2H140v18.7h-20.5V459H140v18.7h-10.2v2h14.1V498.5z"/>
	<path fill="#26A9E0" d="M182,516.1c-2.7,2.8-5.6,4.5-8.5,5.1c-0.8,0.3-1.7,0.3-2.5,0.3c-1.9,0-3.9-0.4-5.8-1.4l0,0.1
		c-3.5-1.7-6.8-4.9-9.5-9.6h-0.1v8.6h-10.3v-60.3h16.3c3.9,0,7.3,2.6,10,7.6c2.8,5,4.2,11.2,4.2,18.3c0,7-1.5,13.4-4.1,18
		c1.7-0.3,3.5-1.1,5.1-2.8L182,516.1z M161.7,477.6h-6.1v14.3h6.1c2.1,0,3.9-3.3,3.9-7.1C165.6,480.8,163.8,477.6,161.7,477.6z"/>
	<path fill="#26A9E0" d="M206.5,498.4h-14.1v20.8H182v-60.3h20.5v18.7h-10.2v2h14.1V498.4z"/>
	<path fill="#26A9E0" d="M231,519.2l-1.7-5.2h-15l-1.6,5.2h-11.9l21.1-66.3l21.1,66.3H231z M223.3,495.2l-1.5-4.9l-1.5,4.9H223.3z"
		/>
	<path fill="#26A9E0" d="M259.9,520.3c-1.4,0.4-2.8,0.9-4.2,0.9c-4.9,0-9.1-3.2-12.5-9.4c-3.4-6.3-5.2-13.9-5.2-22.8
		c0-8.9,1.7-16.5,5.2-22.7c3.5-6.3,7.7-9.5,12.5-9.5c1.4,0,2.8,0.4,4.2,1l-2.4,18.1c-0.6-0.3-1.2-0.4-1.7-0.4c-2,0-3.7,1.3-5.2,3.9
		c-1.5,2.6-2.3,5.8-2.3,9.6c0,3.9,0.8,7.1,2.3,9.8c1.5,2.6,3.2,3.9,5.2,3.8c0.3,0,0.5,0,0.9-0.1c0.2,0,0.6-0.2,0.8-0.3L259.9,520.3z
		"/>
	<path fill="#26A9E0" d="M285.8,498.5h-14.1v2h10.2v18.7h-20.5V459h20.5v18.7h-10.2v2h14.1V498.5z"/>
</g>
</svg>
