<?xml version="1.0" encoding="utf-8"?>
<!-- Generator: Adobe Illustrator 17.1.0, SVG Export Plug-In . SVG Version: 6.00 Build 0)  -->
<!DOCTYPE svg PUBLIC "-//W3C//DTD SVG 1.1//EN" "http://www.w3.org/Graphics/SVG/1.1/DTD/svg11.dtd">
<svg version="1.1" id="Layer_1" xmlns="http://www.w3.org/2000/svg" xmlns:xlink="http://www.w3.org/1999/xlink" x="0px" y="0px"
	 viewBox="0 0 841.9 595.3" enable-background="new 0 0 841.9 595.3" xml:space="preserve">
<g>
	<path fill="#404041" d="M646.7,62.6h-74.4c-3.4,0-6.2,2.8-6.2,6.2v86.8c0,3.4,2.8,6.2,6.2,6.2h55.8l24.8-24.8V68.8
		C652.9,65.4,650.2,62.6,646.7,62.6z M628.1,153.1v-16h16L628.1,153.1z M646.7,130.8h-18.6c-3.4,0-6.2,2.8-6.2,6.2v18.6h-49.6V68.8
		h74.4V130.8z"/>
	<g>
		<path fill="#404041" d="M605.3,87.1c0-1.7,1.4-3.1,3.1-3.1h29.9c1.7,0,3.1,1.4,3.1,3.1c0,1.7-1.4,3.1-3.1,3.1h-29.9
			C606.7,90.2,605.3,88.8,605.3,87.1z"/>
		<g>
			<path fill="#404041" d="M587.2,91.9c0,0,0-5.5-5.3-6.9l4-2.5l3.4,4.2c0,0,8-7.4,10.7-7.6c0,0,2.5,0.6,3.4,2.7
				C603.4,81.8,593.9,84.4,587.2,91.9z"/>
			<path fill="#404041" d="M596.1,79.3V78h-18.3v18.3h18.3v-9.5c-1,0.6-2,1.3-3.1,2v4.5h-12.2V81H593v0.5
				C594,80.8,595.1,80,596.1,79.3z"/>
		</g>
	</g>
	<g>
		<path fill="#404041" d="M605.3,111.7c0-1.7,1.4-3.1,3.1-3.1h29.9c1.7,0,3.1,1.4,3.1,3.1c0,1.7-1.4,3.1-3.1,3.1h-29.9
			C606.7,114.8,605.3,113.4,605.3,111.7z"/>
		<g>
			<path fill="#404041" d="M587.2,116.4c0,0,0-5.5-5.3-6.9l4-2.5l3.4,4.2c0,0,8-7.4,10.7-7.6c0,0,2.5,0.6,3.4,2.7
				C603.4,106.3,593.9,109,587.2,116.4z"/>
			<path fill="#404041" d="M596.1,103.9v-1.4h-18.3v18.3h18.3v-9.5c-1,0.6-2,1.3-3.1,2v4.5h-12.2v-12.2H593v0.5
				C594,105.3,595.1,104.5,596.1,103.9z"/>
		</g>
	</g>
	<path fill="#404041" d="M587.2,141c0,0,0-5.5-5.3-6.9l4-2.5l3.4,4.2c0,0,8-7.4,10.7-7.6c0,0,2.5,0.6,3.4,2.7
		C603.4,130.9,593.9,133.5,587.2,141z"/>
	<path fill="#404041" d="M596.1,128.4v-1.4h-18.3v18.3h18.3v-9.5c-1,0.6-2,1.3-3.1,2v4.5h-12.2v-12.2H593v0.5
		C594,129.8,595.1,129.1,596.1,128.4z"/>
	<path fill="#404041" d="M620.6,133.1h-12.2c-1.7,0-3.1,1.4-3.1,3.1c0,1.7,1.4,3.1,3.1,3.1h11.3V137
		C619.7,135.6,620,134.3,620.6,133.1z"/>
</g>
<g>
	<g>
		<g>
			<path fill="#404041" d="M132.7,174.3l-14-3.5c-1-0.3-2.1,0.4-2.3,1.4l-3.5,14c-0.3,1,0.4,2.1,1.4,2.3c0.2,0,0.3,0.1,0.5,0.1
				c0.9,0,1.7-0.6,1.9-1.5l2.3-9.5l1.1,1.8c3.5,5.8,4.5,12.6,2.9,19.2c-1.6,6.6-5.7,12.1-11.5,15.6c-0.9,0.6-1.9,1.1-2.9,1.5
				c-1.5-2.7-4.1-4.7-7.3-5.4c-0.7-0.2-1.5-0.2-2.2-0.2c-5.1,0-9.6,3.6-10.6,8.6c-0.6,2.8,0,5.8,1.5,8.2c1.6,2.4,4,4.1,6.9,4.7
				c0.7,0.2,1.5,0.2,2.2,0.2c5.1,0,9.6-3.6,10.6-8.6c0.3-1.3,0.3-2.6,0.1-3.8c1.3-0.5,2.5-1.2,3.7-1.9c6.7-4,11.4-10.4,13.3-18
				c1.9-7.6,0.7-15.4-3.3-22.1l-1.1-1.8l9.5,2.3c1,0.3,2.1-0.4,2.3-1.4C134.4,175.6,133.8,174.6,132.7,174.3z M105.9,222.5
				c-0.7,3.2-3.6,5.6-6.9,5.6c-0.5,0-1,0-1.5-0.1c-1.8-0.4-3.4-1.5-4.4-3c-1-1.6-1.4-3.5-1-5.3c0.7-3.2,3.6-5.6,6.9-5.6
				c0.5,0,1,0,1.5,0.1C104.3,215,106.7,218.7,105.9,222.5z"/>
		</g>
	</g>
	<g>
		<path fill="#404041" d="M145.6,218c0.8,0.7,0.8,2,0,2.7c-0.4,0.4-0.9,0.6-1.4,0.6c-0.5,0-1-0.2-1.4-0.6l-4.6-4.6l-4.6,4.6
			c-0.4,0.4-0.9,0.6-1.4,0.6c-0.5,0-1-0.2-1.4-0.6c-0.8-0.7-0.8-2,0-2.7l4.6-4.6l-4.6-4.6c-0.8-0.7-0.8-2,0-2.7c0.7-0.8,2-0.8,2.7,0
			l4.6,4.6l4.6-4.6c0.7-0.8,2-0.8,2.7,0c0.8,0.7,0.8,2,0,2.7l-4.6,4.6L145.6,218z"/>
		<path fill="#404041" d="M105.5,189.6c0.8,0.7,0.8,2,0,2.7c-0.4,0.4-0.9,0.6-1.4,0.6s-1-0.2-1.4-0.6l-4.6-4.6l-4.6,4.6
			c-0.4,0.4-0.9,0.6-1.4,0.6c-0.5,0-1-0.2-1.4-0.6c-0.7-0.7-0.7-2,0-2.7l4.6-4.6l-4.6-4.6c-0.7-0.7-0.7-2,0-2.7c0.8-0.8,2-0.8,2.7,0
			l4.6,4.6l4.6-4.6c0.8-0.8,2-0.8,2.7,0c0.8,0.7,0.8,2,0,2.7l-4.6,4.6L105.5,189.6z"/>
		<path fill="#404041" d="M83.4,208.5c0.7,0.7,0.7,2,0,2.7c-0.4,0.4-0.9,0.6-1.4,0.6c-0.5,0-1-0.2-1.4-0.6l-4.6-4.6l-4.6,4.6
			c-0.4,0.4-0.9,0.6-1.4,0.6s-1-0.2-1.4-0.6c-0.8-0.7-0.8-2,0-2.7l4.6-4.6l-4.6-4.6c-0.8-0.7-0.8-2,0-2.7c0.8-0.8,2-0.8,2.7,0
			l4.6,4.6l4.6-4.6c0.8-0.8,2-0.8,2.7,0c0.7,0.7,0.7,2,0,2.7l-4.6,4.6L83.4,208.5z"/>
	</g>
	<g>
		<path fill="#404041" d="M167.5,159H45c-1.1,0-1.9,0.9-1.9,1.9v79.7c0,1.1,0.9,1.9,1.9,1.9h59.3v11.8H78.8c-1.1,0-1.9,0.9-1.9,1.9
			c0,1.1,0.9,1.9,1.9,1.9h55.1c1.1,0,1.9-0.9,1.9-1.9c0-1.1-0.9-1.9-1.9-1.9h-25.6v-11.8h59.3c1.1,0,1.9-0.9,1.9-1.9v-79.7
			C169.5,159.9,168.6,159,167.5,159z M165.6,238.7H47v-75.8h118.6V238.7z"/>
	</g>
</g>
<g id="Layer_2">
	<path fill="#404041" d="M254.6,78.7c4.1-2.5,5.4-7.9,2.8-12c-2.5-4.1-7.9-5.4-12-2.8c-4.1,2.5-5.4,7.9-2.8,12
		C245.2,80,250.5,81.2,254.6,78.7z"/>
	<path fill="#404041" d="M232.9,91l-8.6-4.7c1.9-4.8,2.1-10.1,0.4-14.7c-1.1-2.9-3.8-4.8-6.9-4.8c-0.9,0-1.7,0.2-2.5,0.5
		c-3.8,1.4-5.7,5.6-4.3,9.4c0.5,1.4,0.3,3.2-0.5,4.8c-1.1,2.1-2.7,3.2-3.8,3.4c-1.9,0.4-3.6,1.5-4.7,3.1c-1.1,1.6-1.5,3.6-1.1,5.5
		c0.7,3.4,3.7,5.9,7.2,5.9c0.5,0,1,0,1.4-0.1c4.9-1,9.3-4,12.4-8.4l8.6,4.7L232.9,91z M210.5,93.3c-0.7,1.4-2.4,2-3.8,1.3
		c-1.4-0.7-2-2.4-1.3-3.8c0.7-1.4,2.4-2,3.8-1.3C210.7,90.2,211.2,91.9,210.5,93.3z M216.5,76.7c-1.4-0.7-2-2.4-1.3-3.8
		c0.7-1.4,2.4-2,3.8-1.3c1.4,0.7,2,2.4,1.3,3.8C219.6,76.8,217.9,77.4,216.5,76.7z"/>
	<path fill="#404041" d="M282.6,89.8c-0.7-1-1.7-1.7-2.8-1.9l-31.1-6.3c-1.1-0.3-2.7-0.2-4.5,0.4c-1.5,0.5-3.1,2-4.6,3.6
		c-0.3,0.2-0.5,0.5-0.7,0.8c-2.1,2.6-3.8,5.2-3.8,5.2l-9.9,16.2c-1,1.9-1.3,4.1-0.9,6.3c0,0.2,0,0.4,0.1,0.5l3.6,15.1l-14.3,4.2
		c-2.8,0.8-4.4,3.7-3.6,6.5c0.8,2.8,3.7,4.4,6.5,3.6l19.1-5.6c0.9-0.3,1.7-0.8,2.3-1.4c1.2-1.2,1.8-3.1,1.3-4.9l-1.7-7l4.8,8.1
		l-6.4,21.7c-0.8,2.8,0.8,5.7,3.5,6.5c1.9,0.6,4,0,5.3-1.4c0.6-0.6,1-1.3,1.2-2.2l7.1-24c0.4-1.6,0.2-2.8-0.5-4.2l-9.3-17.2
		l7.9-12.4l-6.7-5.5l0.9-1.5l22.3,18.3c0.8,0.6,1.7,0.9,2.6,0.9c1.2,0,2.4-0.5,3.2-1.5c1.4-1.8,1.2-4.4-0.6-5.8l-16.3-13.6l21.3,4.4
		c1,0.2,2.2,0.1,3.1-0.5C283.2,94.4,283.8,91.8,282.6,89.8z"/>
</g>
<g>
	<path fill="#404041" d="M489.5,110.4V29.3c0-2.8-2.3-5.1-5.1-5.1c-2.8,0-5.1,2.3-5.1,5.1v2.5c0-0.2-0.2-0.2-0.2-0.3
		c-0.8-0.7-1.8-1.2-2.8-1.2c-1.2,0-2.3,0.5-3.2,1.3c-1.3,1.5-1.5,3.5-0.5,5.1l-0.5,0.7l0,0c-2.5-1.5-5.8-0.8-7.5,1.7
		c-0.8,1.2-1.7,2.3-2.8,3.3l7.8,8.1c1.7-1.7,3.2-3.3,4.3-5.1c1.3-2,1.2-4.6-0.2-6.6l0,0l0.5-0.7c0.7,0.3,1.3,0.5,2,0.5
		c1.2,0,2.3-0.5,3.2-1.3l0,0v72.8c-4.6,0.3-9.1,1.7-9.1,6.3c0,6.5,8.6,6.5,14.3,6.5s14.3,0,14.3-6.5
		C498.7,112.1,494.2,110.8,489.5,110.4z M477.6,36.1c-0.5,0.5-1.2,0.7-1.8,0.5c0.2-0.5,0.2-1-0.2-1.3c-0.3-0.3-1-0.3-1.3-0.2
		c-0.2-0.7,0-1.3,0.5-1.8c0.3-0.3,0.8-0.7,1.5-0.7c0.5,0,1,0.2,1.3,0.5s0.7,0.8,0.7,1.3C478.3,35.1,477.9,35.6,477.6,36.1z"/>
	<path fill="#404041" d="M423.8,56.4L423.8,56.4c-1,0-2,0-3.2,0c-1,0-2,0-3.2,0l0,0c-14.8-0.5-28.2-5.1-36.2-12.1l-7.8,8.1
		c10.6,9.5,27.9,15.3,46.6,15.3c0.2,0,0.3,0,0.5,0s0.3,0,0.5,0c18.7,0,36-5.8,46.6-15.3l-7.8-8.1C452.1,51.2,438.6,55.9,423.8,56.4z
		"/>
	<path fill="#404041" d="M367.8,45.6c1.2,1.8,2.7,3.5,4.3,5.1l7.8-8.1c-1-1-2-2.2-2.8-3.3c-1.7-2.5-5-3.2-7.5-1.7l0,0l-0.5-0.7
		c1-1.7,0.8-3.6-0.5-5.1c-0.8-0.8-2-1.3-3.2-1.3c-1,0-2.2,0.3-2.8,1.2c-0.2,0.2-0.2,0.2-0.2,0.3v-2.5c0-2.8-2.3-5.1-5.1-5.1
		c-2.8,0-5.1,2.3-5.1,5.1v81.1c-4.6,0.3-9.1,1.7-9.1,6.3c0,6.5,8.6,6.5,14.3,6.5c5.6,0,14.3,0,14.3-6.5c0-4.6-4.5-6-9.1-6.3v-73l0,0
		c0.8,0.8,2,1.3,3.2,1.3c0.7,0,1.3-0.2,2-0.5l0.5,0.7l0,0C366.6,40.9,366.4,43.6,367.8,45.6z M367.3,35.1c-0.5-0.3-1-0.2-1.3,0.2
		c-0.3,0.3-0.5,0.8-0.2,1.3c-0.7,0.2-1.3-0.2-1.8-0.5c-0.3-0.3-0.5-0.8-0.5-1.3c0-0.5,0.2-1,0.7-1.3c0.3-0.3,0.8-0.5,1.3-0.5
		c0.5,0,1,0.2,1.5,0.7C367.3,34,367.4,34.6,367.3,35.1z"/>
</g>
<g>
	<circle fill="#404041" cx="742" cy="238.1" r="2.4"/>
	<path fill="none" d="M685.3,227.9h113.4V164H685.3V227.9z M751,204.2l15-6.4v-0.1l-15-6.4V187l19.4,8.9v3.7l-19.4,8.9V204.2z
		 M744.6,180.8h4.1l-8.7,29.3h-4.1h0L744.6,180.8z M713.5,199.5V196l19.4-9v4.3l-14.7,6.4v0.1l14.7,6.4v4.3L713.5,199.5L713.5,199.5
		z"/>
	<path fill="#404041" d="M800.2,159H743H741h-57.2c-2,0-3.8,1.5-3.8,3.6v70.5v0.2v6.5v0.4c0,2,1.8,3.8,3.8,3.8h45.8
		c-0.1,1.2-0.4,6.2-2.8,8.6c-1.9,1.9-4.5,3.7-3.5,4.6c0.2,0.6,1.4,0.9,4.1,0.9c5.9,0,12.3,0,14.6,0c0.6,0,0.9,0,0.9,0
		c2.3,0,8.7,0,14.6,0c3,0,4.1-0.5,4.1-1.2h-0.1v-0.2h-0.1c-0.1-1-2.2-2.5-3.7-4c-2.4-2.4-2.8-7.5-2.8-8.6h45.2c2,0,3.7-1.7,3.7-3.8
		v-0.4v-6.5v-0.2v-70.5C803.9,160.5,802.2,159,800.2,159z M742,240.5c-1.3,0-2.4-1.1-2.4-2.4s1.1-2.4,2.4-2.4c1.3,0,2.4,1.1,2.4,2.4
		C744.4,239.4,743.3,240.5,742,240.5z M798.7,227.9H685.3V164h113.4L798.7,227.9L798.7,227.9z"/>
	<polygon fill="#404041" points="732.9,204.2 718.2,197.8 718.2,197.7 732.9,191.3 732.9,187 713.5,196 713.5,199.5 713.5,199.5 
		732.9,208.5 	"/>
	<polygon fill="#404041" points="740,210.1 748.7,180.8 744.6,180.8 735.9,210.1 735.9,210.1 	"/>
	<polygon fill="#404041" points="770.4,195.9 751,187 751,191.3 766,197.7 766,197.8 751,204.2 751,208.5 770.4,199.6 	"/>
</g>
<ellipse fill="#5BC9EE" cx="420.3" cy="353.1" rx="178.9" ry="176"/>
<path fill="#2B388F" d="M321.9,595.3H544c-1.8-9.4-3-19.6-3-30.5c0-25.6,2.5-63.5,20.9-83.7c23-25.3,53.5-61.1,60.6-114.9
	c8.8-66.9-18.3-147.1-98.5-183c-63.4-28.4-175.3-28.4-234.3,25.4c-51.5,46.9-63.1,113.5-63.1,113.5s-5.3,24.7-5.3,33
	c0,7.9,8.8,10.9,7.8,15c-1,4-10.9,15.6-18.5,28.2c-7.6,12.6-26.9,40.7-26.9,48.2c0,7.6,4.5,10.4,13.6,13.4c9.1,3,16.1,5.5,17.7,9.1
	c1.5,3.5-4.3,13.6-4.6,20.8c-0.3,6.1,2,6.8,6.6,8.6c5.7,2.2,14.5,2.5,14.5,2.5s-19.5,3.7-17.6,11.7c2,8.3,13.8,10,14.8,16.5
	c0.5,3.3-9.9,20-8.6,36.4c1.8,21.3,22,30.8,54,25.7C302.6,586.5,317,582.2,321.9,595.3z M293.3,330.4c0,0-8.3,1.4-15.2-7.4
	c-4.9-6.2-8.5-21.4,0.5-39.2c8-15.9,22.1-21.4,22.1-21.4s-5.2-6.6,5.8-15.9c5.7-4.8,15.9-4.7,15.9-4.7s2.5-10.6,17.7-17.5
	c17.3-7.8,28.8-1.3,28.8-1.3s4.6-10.1,18-14.7c13.4-4.6,26.7,3.2,26.7,3.2s9-8.2,25.6-8.2c16.6,0,22.7,8.6,22.7,8.6s10-5.1,22.1-0.9
	c11.5,4,14.8,15.1,14.8,15.1s8.3-5.9,19.8-1.3c11.5,4.6,16.1,17,16.1,17s7.9-1.2,15.8,5.8c5.9,5.2,4,14.9,4,14.9s9.8,3.2,15.6,14.9
	c5.4,10.9-2.3,20.1-2.3,20.1s16.1,12,18.4,43.3c2.8,38.2-21.6,45.6-21.6,45.6s4.8,12.1-3.7,25.3c-11.6,18-35,7.4-35,7.4
	s-3.1,33.5-27.6,37.8c-21,3.7-35-16.6-35-16.6l-6.9,32.7h-14.7c0,0-13.4-49.3-22.6-57.6c-9.2-8.3-23.5-10.6-23.5-10.6
	s-19.3-1.4-31.8-13.8c-12.4-12.4-0.9-27.6-0.9-27.6s-15.7,0.9-47.4-6C283.6,350.6,293.3,330.4,293.3,330.4z"/>
<g>
	<g>
		<path fill="#2B388F" d="M368.5,291.5h-17.2v-32.8h10.2v22.7h7V291.5z"/>
		<path fill="#2B388F" d="M394.2,280.3h-14v1.1h10.1v10.2H370v-32.8h20.4v10.2h-10.1v1.1h14V280.3z"/>
		<path fill="#2B388F" d="M415.2,258.7l-9.1,9.1c-0.4,0.4-0.6,1-0.8,1.5v0.3c0,0.7,0.2,1.4,0.8,1.9l1.6,1.6c2.4,2.4,3.6,5.4,3.8,8.5
			v0.5c0,3.3-1.2,6.6-3.8,9.1l-0.1,0.1h-14.4l7.3-7.3c0.5-0.5,0.8-1.2,0.8-1.9v-0.3c0-0.6-0.3-1.2-0.8-1.5l-1.6-1.6
			c-2.5-2.5-3.8-5.8-3.8-9.1V269c0.1-3.1,1.4-6.2,3.7-8.5l1.8-1.8H415.2z"/>
		<path fill="#2B388F" d="M434.3,258.7l-9.1,9.1c-0.4,0.4-0.6,1-0.8,1.5v0.3c0,0.7,0.2,1.4,0.8,1.9l1.6,1.6c2.4,2.4,3.6,5.4,3.8,8.5
			v0.5c0,3.3-1.2,6.6-3.8,9.1l-0.1,0.1h-14.4l7.3-7.3c0.5-0.5,0.8-1.2,0.8-1.9v-0.3c0-0.6-0.3-1.2-0.8-1.5l-1.6-1.6
			c-2.5-2.5-3.8-5.8-3.8-9.1V269c0.1-3.1,1.4-6.2,3.7-8.5l1.8-1.8H434.3z"/>
		<path fill="#2B388F" d="M457.3,284.1c-3,3-6.6,4.5-10.9,4.5s-7.9-1.5-10.9-4.5s-4.5-6.6-4.5-10.9s1.5-7.9,4.5-10.9
			s6.6-4.5,10.9-4.5s7.9,1.5,10.9,4.5c3,3,4.6,6.6,4.6,10.9S460.3,281.1,457.3,284.1z M446.4,268c-2.9,0-5.2,2.4-5.2,5.2
			c0,2.9,2.3,5.2,5.2,5.2c2.9,0,5.2-2.4,5.2-5.2C451.6,270.3,449.2,268,446.4,268z"/>
		<path fill="#2B388F" d="M496.3,295.5l-22.9-18.1v14.1h-10.2v-35.1l22.8,18v-15.8h10.2V295.5z"/>
		<path fill="#2B388F" d="M518.4,258.7l-9.1,9.1c-0.4,0.4-0.6,1-0.8,1.5v0.3c0,0.7,0.2,1.4,0.8,1.9l1.6,1.6c2.4,2.4,3.6,5.4,3.8,8.5
			v0.5c0,3.3-1.2,6.6-3.8,9.1l-0.1,0.1h-14.4l7.3-7.3c0.5-0.5,0.8-1.2,0.8-1.9v-0.3c0-0.6-0.3-1.2-0.8-1.5l-1.6-1.6
			c-2.5-2.5-3.8-5.8-3.8-9.1V269c0.1-3.1,1.4-6.2,3.7-8.5l1.8-1.8H518.4z"/>
		<path fill="#2B388F" d="M327.6,336.5h-21.5v-41h12.7v28.3h8.8V336.5z"/>
		<path fill="#2B388F" d="M359.7,322.4h-17.5v1.4h12.7v12.7h-25.4v-41h25.4v12.8h-12.7v1.4h17.5V322.4z"/>
		<path fill="#2B388F" d="M355.5,336.5l26.1-45.3l26.1,45.3H355.5z M385.6,323.8l-4-6.9l-4,6.9H385.6z"/>
		<path fill="#2B388F" d="M453.2,334.4c-3.4,1.9-7,3.1-10.6,3.5c-1,0.2-2.1,0.2-3.1,0.2c-2.4,0-4.8-0.3-7.1-1l-0.1,0.1
			c-4.3-1.1-8.4-3.4-11.8-6.5h-0.1v5.9h-12.7v-41.1h20.2c4.9,0,9,1.7,12.4,5.2s5.2,7.6,5.2,12.5c0,4.8-1.9,9.1-5,12.3
			c2.2-0.2,4.3-0.8,6.3-1.9L453.2,334.4z M427.9,308.2h-7.5v9.7h7.5c2.6,0,4.9-2.2,4.9-4.9C432.8,310.4,430.6,308.2,427.9,308.2z"/>
		<path fill="#2B388F" d="M494.5,341.5L466,318.9v17.6h-12.8v-43.9l28.6,22.6v-19.7h12.8V341.5z"/>
		<path fill="#2B388F" d="M526.7,322.4h-17.5v1.4h12.7v12.7h-25.4v-41h25.4v12.8h-12.7v1.4h17.5V322.4z"/>
		<path fill="#2B388F" d="M559.7,330.5c-4,4-8.8,6-14.5,6h-16.7v-41h16.7c5.6,0,10.4,2,14.5,6.1c4,4,6.1,8.8,6.1,14.5
			C565.8,321.7,563.7,326.5,559.7,330.5z M553,316.1c0-2-0.7-3.8-2.2-5.4c-1.4-1.6-3.3-2.4-5.6-2.4h-4v15.5h1.3
			c2.9,0.1,5.9,0.1,8.3-2.3C552.4,319.9,553,318,553,316.1z"/>
	</g>
	<circle fill="#2B388F" cx="536.9" cy="282" r="5.5"/>
	<circle fill="#2B388F" cx="328.9" cy="282" r="5.5"/>
</g>
</svg>
