<?xml version="1.0" encoding="utf-8"?>
<!-- Generator: Adobe Illustrator 17.1.0, SVG Export Plug-In . SVG Version: 6.00 Build 0)  -->
<!DOCTYPE svg PUBLIC "-//W3C//DTD SVG 1.1//EN" "http://www.w3.org/Graphics/SVG/1.1/DTD/svg11.dtd">
<svg version="1.1" id="Layer_1" xmlns="http://www.w3.org/2000/svg" xmlns:xlink="http://www.w3.org/1999/xlink" x="0px" y="0px"
	 viewBox="0 0 841.9 595.3" enable-background="new 0 0 841.9 595.3" xml:space="preserve">
<g>
	<path fill="#26A9E0" d="M95.6,142.5l-24.5,44.1l-10.4-19.2l-10.4,19.2l-24.4-44.1h14.8l9.5,17.3l10.6-19.4l10.5,19.4l9.6-17.3H95.6
		z"/>
	<path fill="#26A9E0" d="M135.3,169.9h-4.9v14.4h-13v-14.4h-8.8v14.4h-13v-41.8h13v14.5h8.8v-14.5h13v14.5h4.9V169.9z"/>
	<path fill="#26A9E0" d="M169.2,184.3l-2.2-3.6h-18.9l-2.1,3.6h-15l26.5-46l26.5,46H169.2z M159.5,167.7l-2-3.4l-2,3.4H159.5z"/>
	<path fill="#26A9E0" d="M206.7,155.5h-9.1v28.9h-12.9v-28.9h-9.1v-12.9h31.1V155.5z"/>
	<path fill="#2E3191" d="M194.6,225.6h-22.8v72.4h-32.4v-72.4h-22.8v-32.4h78V225.6z"/>
	<path fill="#2E3191" d="M231.9,265.5h44.2v32.4h-77V193.3h77v32.6h-44.2v3.5h44.2V262h-44.2V265.5z"/>
	<path fill="#2E3191" d="M376.8,284.9c-0.2,0.2-0.3,0.3-0.5,0.5c-11,11-24.2,16.4-39.6,16.4c-15.3,0-28.6-5.4-39.5-16.4
		c-11-11-16.5-24.2-16.5-39.6s5.5-28.6,16.5-39.6c10.9-11,24.2-16.4,39.5-16.4c15.5,0,28.6,5.4,39.6,16.4c0.2,0.2,0.3,0.3,0.5,0.5
		l-23.1,22.9c-0.2-0.2-0.2-0.2-0.3-0.3c-4.6-4.6-10.3-6.9-16.7-6.9c-6.4,0-12.1,2.3-16.7,6.9c-4.6,4.6-6.9,10.1-6.9,16.5
		c0,6.6,2.3,12.1,6.9,16.7c4.6,4.6,10.3,6.9,16.7,6.9c6.4,0,12.1-2.3,16.7-6.9c0.2-0.2,0.3-0.3,0.5-0.5L376.8,284.9z"/>
	<path fill="#2E3191" d="M467.2,297.9h-32.6v-36.1h-22v36.1H380V193.1h32.6v36.1h22v-36.1h32.6V297.9z"/>
	<path fill="#26A9E0" d="M370,342.5c-3.6,3.6-7.9,5.4-13,5.4H342V311H357c5.1,0,9.4,1.8,13,5.5s5.5,7.9,5.5,13
		S373.7,338.9,370,342.5z M364,329.5c0-1.8-0.6-3.4-1.9-4.9c-1.2-1.5-3-2.2-5.1-2.2h-3.6v14h1.1c2.6,0.1,5.3,0.1,7.5-2.1
		C363.4,333,364,331.2,364,329.5z"/>
	<path fill="#26A9E0" d="M388.6,347.9h-11.4v-37h11.4V347.9z"/>
	<path fill="#26A9E0" d="M418.3,342.5c-3.6,3.6-7.9,5.4-13,5.4h-15.1V311h15.1c5.1,0,9.4,1.8,13,5.5c3.6,3.6,5.5,7.9,5.5,13
		S421.9,338.9,418.3,342.5z M412.3,329.5c0-1.8-0.6-3.4-1.9-4.9c-1.2-1.5-3-2.2-5.1-2.2h-3.6v14h1.1c2.6,0.1,5.3,0.1,7.5-2.1
		C411.7,333,412.3,331.2,412.3,329.5z"/>
	<path fill="#26A9E0" d="M443.3,311h11.4v10.5l8.6-11.5l8.3,11.4V311h11.4v39.4l-19.8-22.7l-20,22.6V311z"/>
	<path fill="#26A9E0" d="M512,335.2h-15.8v1.2h11.4v11.4h-22.9V311h22.9v11.5h-11.4v1.2H512V335.2z"/>
	<path fill="#2E3191" d="M570.3,422.7c0,11.8-4.1,21.7-12.5,30.1c-8.4,8.3-18.5,12.4-30.3,12.4c-11.6,0-22.5-4.6-30.3-12.4
		c-7.8-7.8-12.7-18.4-12.7-30.1v-64h32.4v64c0,2.6,1.2,5.4,3.1,7.2c2,1.8,4.6,3.1,7.5,3.1c5.7,0,10.3-4.6,10.3-10.3v-64h32.6V422.7z
		"/>
	<path fill="#2E3191" d="M642.8,435.4c-2,6.9-5.8,13-11.2,18.5c-8.9,8.9-19.4,13.3-32,13.3c-12.4,0-23-4.4-31.8-13.3l23.1-23.1
		c2.4,2.4,5.4,3.7,8.7,3.7c3.5,0,6.4-1.2,8.9-3.7c2.3-2.4,3.5-5.4,3.5-8.7c0-4.3-0.6-12.9-16.7-15.8c-16.2-2.8-21.1-15.5-21.1-22.2
		c0-14.1,11.3-25.4,25.4-25.4h28.6v28.6c1.2,0.9,2.3,1.8,3.2,2.9c8.9,8.9,13.3,19.4,13.3,31.8C644.8,426.6,644.2,431.1,642.8,435.4z
		"/>
	<path fill="#2E3191" d="M680.6,431.1h44.2v32.4h-77V358.9h77v32.6h-44.2v3.5h44.2v32.6h-44.2V431.1z"/>
	<path fill="#2E3191" d="M794,391.2c0,7.5-2.6,15.3-8,21.4c-3.8,4.4-7.8,9.2-11.9,13.6l-1.2,1.2c-0.5,0.6-0.9,1.2-0.9,2.3v2.8v2.8
		h-5.8c4.1,3.1,6.9,8,6.9,13.5c0,9.2-7.5,16.5-16.7,16.5c-9.2,0-16.7-7.3-16.7-16.5c0-5.5,2.6-10.4,6.7-13.5h-6.9V427
		c0-10.9,5.4-16.8,10.4-22.5c2.6-2.9,5.2-5.8,7.7-8.7l3.8-4.4l-30.9,8.4c-0.8-2.9-1.1-5.7-1.1-8.3c0-10.6,5.2-20.8,14.2-26.9
		c5.5-3.8,11.8-5.5,18.1-5.5c10.4,0,20.7,4.9,26.8,14.1C792.2,378.6,794,384.9,794,391.2z M761.9,391.3c0-0.2,0.2-0.2-0.3,0
		c0,0.2,0,0.2,0,0.2h0.2c0,0,0.2-0.2,0.2,0C761.9,391.5,761.9,391.5,761.9,391.3z"/>
</g>
</svg>
