<?xml version="1.0" encoding="utf-8"?>
<!-- Generator: Adobe Illustrator 17.1.0, SVG Export Plug-In . SVG Version: 6.00 Build 0)  -->
<!DOCTYPE svg PUBLIC "-//W3C//DTD SVG 1.1//EN" "http://www.w3.org/Graphics/SVG/1.1/DTD/svg11.dtd">
<svg version="1.1" id="Layer_1" xmlns="http://www.w3.org/2000/svg" xmlns:xlink="http://www.w3.org/1999/xlink" x="0px" y="0px"
	 viewBox="0 0 841.9 595.3" enable-background="new 0 0 841.9 595.3" xml:space="preserve">
<path fill="#EB008B" d="M454.4,236.6c-0.5-0.7-1.3-1-2.1-0.8l-27.7,7.2l10-25.8c0.3-0.7,0.1-1.5-0.4-2c-0.5-0.6-1.2-0.8-2-0.6
	l-34.3,8c-0.8,0.2-1.4,0.8-1.5,1.6l-7.4,46.2c-0.1,0.6,0.1,1.3,0.6,1.8c0.5,0.5,1.2,0.6,1.8,0.5l24.3-5.1l-10.9,38.2
	c-0.3,0.9,0.2,1.9,1.1,2.4c0.3,0.1,0.6,0.2,0.8,0.2c0.7,0,1.3-0.3,1.7-0.9l46-68.6C454.9,238.2,454.9,237.3,454.4,236.6z"/>
<g id="Your_Icon">
	<g>
		<path fill="#404041" d="M290.8,202.6l42.8-0.3c11.2-0.1,20.1-9.3,20.1-20.4c-0.1-11.1-9.2-20.1-20.4-19.9l-50.5,0.3
			c0.5,1.4,0.9,2.8,1.2,4.3L290.8,202.6z"/>
		<path fill="#404041" d="M290.4,243c-1.5,2.2-3.4,4.2-5.5,5.8l63.8-0.6c11.2-0.1,20.1-9.3,20.1-20.4c-0.1-11.1-9.2-20.1-20.4-19.9
			l-56.5,0.6l2.8,14.7C296,230.1,294.5,237.2,290.4,243z"/>
		<path fill="#404041" d="M248.5,275.2c0,4.6,1.6,8.7,4.2,12.1c3.7,4.8,9.6,7.9,16.2,7.8l69-0.4c11.2-0.1,20.1-9.3,20.1-20.4
			c0-4.6-1.6-8.7-4.1-12.1c-3.7-4.8-9.6-7.9-16.2-7.8l-69,0.4C257.4,254.8,248.4,264,248.5,275.2z"/>
		<path fill="#404041" d="M280.5,346.8c-8.1,0.1-15.6-3.5-20.5-9.9c-3.4-4.4-5.2-9.7-5.3-15.3c-0.1-6.8,2.6-13.3,7.4-18.2
			c0.3-0.3,0.5-0.5,0.8-0.8c-4.4-3.2-9.3-6.5-14.7-9.6c-6.2-3.6-12.1-6.4-17.7-8.5l-0.2-0.6c0,0,11.8-9.1,10.5-48.2
			c-0.5-14-8.5-42.4-8.5-42.4l7.8-2.1l7.7,40.7c0.6,3.4,2,6.5,4,9.1c4.7,6.1,12.5,9.4,20.6,7.9c11.5-2.1,19.2-13.2,17.1-24.7
			l-11.9-62.2c-0.6-3.4-2.1-6.6-4.1-9.2c-4.7-6.1-12.5-9.5-20.6-7.7c-6.1,1.3-44.4,9.1-57.2,17.1c-3.5,2.2-9.3,8.3-11.4,11.8
			c-12.8,20.9-31.5,94.1-31.5,94.1L51.2,328.6l76.3,99.5l78.3-63.2c12.9,1,30.2,0.5,50.9-4.5c10.6-2.5,20.6-8.5,27.8-13.6
			L280.5,346.8z"/>
		<path fill="#404041" d="M339.9,320.5c0-4.6-1.6-8.7-4.1-12.1c-3.7-4.8-9.6-7.9-16.2-7.8l-39.4,0.5c-11.2,0.1-20.1,9.3-20.1,20.4
			c0,4.6,1.6,8.7,4.1,12.1c3.7,4.8,9.6,7.9,16.2,7.8l39.4-0.5C331,340.8,340,331.6,339.9,320.5z"/>
	</g>
</g>
<g id="Your_Icon_1_">
	<g>
		<g>
			<path fill="#404041" d="M551.1,202.6l-42.8-0.3c-11.2-0.1-20.1-9.3-20.1-20.4c0.1-11.1,9.2-20.1,20.4-19.9l50.5,0.3
				c-0.5,1.4-0.9,2.8-1.2,4.3L551.1,202.6z"/>
			<path fill="#404041" d="M551.5,243c1.5,2.2,3.4,4.2,5.5,5.8l-63.8-0.6c-11.2-0.1-20.1-9.3-20.1-20.4c0.1-11.1,9.2-20.1,20.4-19.9
				l56.5,0.6l-2.8,14.7C545.9,230.1,547.4,237.2,551.5,243z"/>
			<path fill="#404041" d="M593.4,275.2c0,4.6-1.6,8.7-4.2,12.1c-3.7,4.8-9.6,7.9-16.2,7.8l-69-0.4c-11.2-0.1-20.1-9.3-20.1-20.4
				c0-4.6,1.6-8.7,4.1-12.1c3.7-4.8,9.6-7.9,16.2-7.8l69,0.4C584.5,254.8,593.5,264,593.4,275.2z"/>
			<path fill="#404041" d="M561.4,346.8c8.1,0.1,15.6-3.5,20.5-9.9c3.4-4.4,5.2-9.7,5.3-15.3c0.1-6.8-2.6-13.3-7.4-18.2
				c-0.3-0.3-0.5-0.5-0.8-0.8c4.4-3.2,9.3-6.5,14.7-9.6c6.2-3.6,12.1-6.4,17.7-8.5l0.2-0.6c0,0-11.8-9.1-10.5-48.2
				c0.5-14,8.5-42.4,8.5-42.4l-7.8-2.1l-7.7,40.7c-0.6,3.4-2,6.5-4,9.1c-4.7,6.1-12.5,9.4-20.6,7.9c-11.5-2.1-19.2-13.2-17.1-24.7
				l11.9-62.2c0.6-3.4,2.1-6.6,4.1-9.2c4.7-6.1,12.5-9.5,20.6-7.7c6.1,1.3,44.4,9.1,57.2,17.1c3.5,2.2,9.3,8.3,11.4,11.8
				c12.8,20.9,31.5,94.1,31.5,94.1l101.5,60.6L714.3,428L636,364.8c-12.9,1-30.2,0.5-50.9-4.5c-10.6-2.5-20.6-8.5-27.8-13.6
				L561.4,346.8z"/>
			<path fill="#404041" d="M502,320.5c0-4.6,1.6-8.7,4.1-12.1c3.7-4.8,9.6-7.9,16.2-7.8l39.4,0.5c11.2,0.1,20.1,9.3,20.1,20.4
				c0,4.6-1.6,8.7-4.1,12.1c-3.7,4.8-9.6,7.9-16.2,7.8l-39.4-0.5C510.9,340.8,501.9,331.6,502,320.5z"/>
		</g>
	</g>
</g>
<g>
	<path fill="#EB008B" d="M226.8,110.1c-4.7,4.7-10.3,7-16.9,7h-19.5V69.2h19.5c6.6,0,12.2,2.4,16.9,7.1s7.1,10.3,7.1,16.9
		S231.5,105.4,226.8,110.1z M219,93.2c0-2.3-0.8-4.4-2.5-6.3c-1.6-1.9-3.9-2.8-6.6-2.8h-4.7v18.1h1.5c3.4,0.1,6.9,0.1,9.7-2.7
		C218.2,97.7,219,95.4,219,93.2z"/>
	<path fill="#EB008B" d="M250.9,102.2h20.2v14.8h-35.2V69.2h35.2v14.9h-20.2v1.6h20.2v14.9h-20.2V102.2z"/>
	<path fill="#EB008B" d="M329.8,69.1L300.5,120l-29.3-50.9h17.2l12.2,21.1l12.1-21.1H329.8z"/>
</g>
<g>
	<path fill="#EB008B" d="M590.8,98.4c0,5.4-1.9,9.9-5.7,13.8c-3.9,3.8-8.5,5.7-13.9,5.7c-5.3,0-10.3-2.1-13.9-5.7s-5.8-8.4-5.8-13.8
		V69.1h14.8v29.3c0,1.2,0.6,2.5,1.4,3.3c0.9,0.8,2.1,1.4,3.4,1.4c2.6,0,4.7-2.1,4.7-4.7V69.1h14.9V98.4z"/>
	<path fill="#EB008B" d="M631.9,117.1h-16.6l-4.1-8.1l-4.1,8.1h-16.6l12.3-24.6l-11.8-23.4h16.6l3.5,6.9l3.5-6.9h16.6l-11.8,23.4
		L631.9,117.1z"/>
</g>
<g>
	<path fill="#EB008B" d="M351,389.7l-20.4,36.9l-8.7-16.1l-8.7,16.1l-20.4-36.9h12.3l8,14.4l8.8-16.2l8.8,16.2l8-14.4H351z"/>
	<path fill="#EB008B" d="M374.9,416.7c-3.2,3.2-7,4.8-11.6,4.8c-4.5,0-8.4-1.6-11.6-4.8c-3.2-3.2-4.8-7-4.8-11.6
		c0-4.5,1.6-8.4,4.8-11.6c3.2-3.2,7-4.8,11.6-4.8c4.5,0,8.4,1.6,11.6,4.8s4.8,7,4.8,11.6C379.8,409.7,378.1,413.5,374.9,416.7z
		 M363.3,399.6c-3.1,0-5.5,2.5-5.5,5.6c0,3.1,2.4,5.6,5.5,5.6s5.6-2.5,5.6-5.6C368.9,402.1,366.4,399.6,363.3,399.6z"/>
	<path fill="#EB008B" d="M419.9,422.8c-2.9,1.6-5.9,2.6-9,3c-0.9,0.2-1.8,0.2-2.7,0.2c-2,0-4.1-0.3-6.1-0.8l-0.1,0.1
		c-3.7-1-7.1-2.9-10-5.6h-0.1v5h-10.8v-34.9h17.2c4.1,0,7.6,1.5,10.6,4.4s4.4,6.5,4.4,10.6c0,4.1-1.6,7.8-4.3,10.5
		c1.8-0.2,3.7-0.7,5.4-1.6L419.9,422.8z M398.5,400.5h-6.4v8.3h6.4c2.2,0,4.1-1.9,4.1-4.1C402.6,402.4,400.7,400.5,398.5,400.5z"/>
	<path fill="#EB008B" d="M458.7,422.8c-1.4,0.8-2.9,1.5-4.4,1.9c-1.5,0.5-3,0.8-4.5,1c-0.5,0.1-0.9,0.1-1.3,0.1
		c-0.5,0.1-0.9,0.1-1.3,0.1c-1,0-2-0.1-3.1-0.2c-1-0.2-2-0.4-3.1-0.6c-1.8-0.5-3.6-1.1-5.4-2.1c-1.7-0.9-3.4-2.1-4.8-3.5v5.1h-10.8
		v-35h10.8v11.6l12.7-12.7l7.6,7.6l-14,14c4.1,5.3,11.2,6.1,16.1,3.3L458.7,422.8z"/>
	<path fill="#EB008B" d="M469.5,424.6h-10.8v-34.9h10.8V424.6z"/>
	<path fill="#EB008B" d="M506.1,428.8l-24.3-19.2v15H471v-37.3l24.3,19.2v-16.8h10.9V428.8z"/>
	<path fill="#EB008B" d="M534.1,405.8c-0.3-1.8-1.3-3.4-2.7-4.6s-3.1-1.9-5.1-1.9c-2.2,0-4,0.8-5.6,2.3c-1.5,1.5-2.3,3.4-2.3,5.6
		c0,2.9,1.6,5.4,3.9,6.8v-6.4h14v10.8h-3.1v6.8l-4.8,0.5c-0.4,0-0.7,0.1-0.9,0.1c-0.1,0-0.2,0.1-0.2,0.1h-1.1
		c-5.2,0-9.5-1.8-13.2-5.5c-3.6-3.6-5.5-8-5.5-13.2s1.8-9.6,5.5-13.2c3.7-3.6,8.1-5.5,13.2-5.5c4.6,0,8.8,1.7,12.1,4.5
		c1.4,1.2,2.7,2.7,3.7,4.3L534.1,405.8z"/>
	<path fill="#EB008B" d="M286.1,452.9h-11.3v36h-16.1v-36h-11.3v-16.1h38.8V452.9z"/>
	<path fill="#EB008B" d="M327,477c-4.8,4.8-10.5,7.1-17.3,7.1c-6.8,0-12.5-2.4-17.3-7.1c-4.8-4.8-7.1-10.5-7.1-17.3
		c0-6.8,2.4-12.5,7.1-17.3c4.8-4.8,10.5-7.1,17.3-7.1c6.8,0,12.5,2.4,17.3,7.1c4.8,4.8,7.2,10.5,7.2,17.3
		C334.3,466.5,331.8,472.2,327,477z M309.8,451.5c-4.6,0-8.2,3.7-8.2,8.3c0,4.6,3.6,8.3,8.2,8.3c4.6,0,8.3-3.7,8.3-8.3
		C318.1,455.2,314.3,451.5,309.8,451.5z"/>
	<path fill="#EB008B" d="M375.9,460.8c-0.4-2.7-1.9-5.1-4-6.8c-2.1-1.7-4.6-2.8-7.6-2.8c-3.3,0-6,1.1-8.3,3.4
		c-2.3,2.3-3.4,5-3.4,8.3c0,4.3,2.4,8.1,5.9,10.1v-9.5h20.8v16.1h-4.6v10.1l-7.1,0.8c-0.5,0-1,0.1-1.3,0.1c-0.1,0-0.2,0.1-0.3,0.1
		h-1.6c-7.7,0-14.2-2.7-19.7-8.1c-5.4-5.4-8.1-11.9-8.1-19.6c0-7.7,2.7-14.3,8.1-19.7c5.5-5.4,12-8.1,19.7-8.1
		c6.9,0,13.1,2.5,18.1,6.7c2.1,1.8,4,4,5.5,6.5L375.9,460.8z"/>
	<path fill="#EB008B" d="M424.4,470.9h-22.2v1.7h16v16.1H386v-52h32.2V453h-16v1.7h22.2V470.9z"/>
	<path fill="#EB008B" d="M459.3,452.9H448v36h-16.1v-36h-11.3v-16.1h38.8V452.9z"/>
	<path fill="#EB008B" d="M511.1,470.9h-6.2v17.9h-16.2v-17.9h-10.9v17.9h-16.2v-52.1h16.2v18h10.9v-18h16.2v18h6.2V470.9z"/>
	<path fill="#EB008B" d="M551.8,470.9h-22.2v1.7h16v16.1h-32.2v-52h32.2V453h-16v1.7h22.2V470.9z"/>
	<path fill="#EB008B" d="M611.7,486.1c-4.3,2.4-8.8,3.9-13.4,4.4c-1.3,0.2-2.7,0.2-4,0.2c-3,0-6.1-0.4-9-1.2l-0.1,0.1
		c-5.5-1.4-10.6-4.3-14.9-8.3h-0.2v7.4H554v-52.1h25.6c6.2,0,11.4,2.2,15.7,6.5c4.3,4.3,6.5,9.7,6.5,15.8c0,6.1-2.4,11.6-6.4,15.6
		c2.7-0.2,5.5-1,8-2.4L611.7,486.1z M579.7,452.9h-9.5v12.3h9.5c3.3,0,6.2-2.8,6.2-6.2C585.8,455.7,583,452.9,579.7,452.9z"/>
</g>
</svg>
