<?xml version="1.0" encoding="utf-8"?>
<!-- Generator: Adobe Illustrator 17.1.0, SVG Export Plug-In . SVG Version: 6.00 Build 0)  -->
<!DOCTYPE svg PUBLIC "-//W3C//DTD SVG 1.1//EN" "http://www.w3.org/Graphics/SVG/1.1/DTD/svg11.dtd">
<svg version="1.1" id="Layer_1" xmlns="http://www.w3.org/2000/svg" xmlns:xlink="http://www.w3.org/1999/xlink" x="0px" y="0px"
	 viewBox="0 0 841.9 595.3" enable-background="new 0 0 841.9 595.3" xml:space="preserve">
<g id="UzSHFJ.tif">
	<g>
		<path fill="#404041" d="M162.1,15.7c6.2,1,12.6,1.5,18.6,3.1c38.9,10.9,65.4,34.9,75.5,74.6c8.3,32.4,0.5,61.7-20.2,87.6
			c-15.2,19-34.8,31.2-58.8,36c-28.9,5.8-55.2-0.6-78.9-17.7c-21.2-15.3-35.2-35.7-40.1-61.5c-6.5-34.2,2-64.4,25.7-90
			c15-16.2,33.5-26.2,55.2-30.4c4.4-0.8,8.8-1.2,13.2-1.8C155.7,15.7,158.9,15.7,162.1,15.7z M69.1,117.5
			c-0.4,52.1,44.3,88.7,87.6,88.8c54,0.2,89.4-45.3,89.8-87.4c0.5-55.8-46-90-88.7-90.2C109.1,28.4,69.1,68.7,69.1,117.5z"/>
		<path fill="#404041" d="M203.2,55c-2.4,3.6-4.8,7.3-7.1,10.9c-9.7,14.7-19.4,29.4-29,44.1c-1.5,2.4-3.3,3.4-6.2,3.4
			c-8.8-0.2-17.5,0-26.3-0.1c-0.9,0-1.7-0.1-2.6-0.2c-0.1-0.2-0.2-0.5-0.2-0.7c23.6-19.4,47.1-38.8,70.7-58.2
			C202.7,54.5,203,54.7,203.2,55z"/>
		<path fill="#404041" d="M113.4,182.7c0.3-0.6,0.5-1.1,0.9-1.7c11.9-18.1,23.9-36.3,35.8-54.4c1.2-1.8,2.7-2.7,4.8-2.7
			c9.3,0.1,18.7,0.1,28,0.2c0.5,0,1.1,0.2,2.4,0.5c-24.1,19.8-47.7,39.2-71.3,58.6C113.8,183,113.6,182.9,113.4,182.7z"/>
	</g>
</g>
<g id="KvLfPn.tif">
	<g>
		<path fill="#67655B" d="M106.1,534.1c-0.4,0-0.8,0.1-1.2,0.1c0.8-23.4,1.6-46.8,2.4-70.2c0.3,0,0.7-0.1,1-0.2
			C107.5,487.2,106.8,510.6,106.1,534.1z"/>
		<path fill="#404041" d="M433.5,456.4c0.1-3.8,0.2-5.8,0.3-7.8c0.6-19.1,1.3-38.3,2-57.4c0.2-5.9,1.7-6.8,6.7-3.9
			c7.1,4.1,14.4,8.1,21.1,12.8c2.2,1.5,4.2,5,4.1,7.6c-1.1,39.7-2.4,79.5-4,119.2c-0.1,2.6-2.3,6.1-4.5,7.3
			c-13.4,7.5-27,14.7-40.8,21.4c-2.4,1.2-6.5,1-8.8-0.4c-13.3-7.7-26.4-15.8-39.2-24.2c-2.1-1.3-3.9-4.7-3.9-7.2
			c0.1-15.2,0.6-30.5,1.6-45.7c0.2-2.6,2.3-6.1,4.6-7.3c13.4-7.5,27.1-14.4,40.7-21.6c3.2-1.7,5.9-1.5,8.9,0.4
			C425.4,451.8,428.8,453.6,433.5,456.4z M432.6,503.2c-0.6-3.5-0.1-8.1-2.1-10c-4-3.7-9.4-8-14.3-8.2c-4.9-0.2-10.3,4.1-14.9,7.2
			c-1.5,1.1-1.7,4.7-1.7,7.1c-0.1,4.2-1.1,9.6,1.1,12.2c3.5,4,9.2,8,14.2,8.2c4.9,0.2,10.6-3.7,14.8-7
			C431.9,511.1,431.7,506.5,432.6,503.2z"/>
		<path fill="#37B34A" d="M334.4,499.2c-0.2,7.2-0.6,14.5-0.7,21.7c-0.1,4-1.7,6.6-5.3,8.4c-13.3,6.9-26.6,13.8-39.8,20.9
			c-3.6,1.9-6.6,1.6-10-0.5c-12.5-7.8-25.1-15.6-37.8-23.3c-3.7-2.2-5-5.1-4.8-9.2c0.6-14.5,1.1-28.9,1.5-43.4
			c0.1-4.1,1.6-6.8,5.5-8.8c13.2-6.7,26.3-13.7,39.3-20.7c3.8-2,7-1.7,10.5,0.5c12.4,7.8,24.8,15.5,37.3,23c3.9,2.3,5.4,5.2,5.1,9.6
			C334.8,484.7,334.7,492,334.4,499.2z"/>
		<path fill="#404041" d="M496.9,505c0.3-7.4,0.6-14.9,0.7-22.3c0-4.2,1.8-6.8,5.6-8.7c13.2-6.7,26.3-13.7,39.3-20.6
			c3.5-1.9,6.6-1.8,10,0.4c12.5,7.9,25.2,15.5,37.7,23.4c7.4,4.6,7,19.5-0.6,23.7c-7.4,4-14.9,8-22.3,11.9c-4.4,2.3-6.7,1.2-5.6-3.3
			c2.8-11.6-5.1-15.8-13.2-19.8c-1.4-0.7-3.5-0.3-5.3-0.1c-0.7,0-1.3,0.7-2,1c-12.9,6.6-13.6,7.6-12.2,21.8c0.2,1.9,2.3,4.1,4.1,5.2
			c12.4,7.8,24.9,15.3,37.3,23c5.2,3.2,5.1,4.7-0.2,7.5c-7.2,3.7-14.4,7.2-21.5,11c-3.5,1.9-6.6,1.8-10-0.3
			c-12.6-7.8-25.2-15.5-37.9-23.1c-3.5-2.1-4.9-4.8-4.7-8.7C496.5,519.5,496.7,512.2,496.9,505z"/>
		<path fill="#404041" d="M106.1,534.1c0.7-23.4,1.5-46.9,2.2-70.3c1.5-1.3,2.9-2.8,4.7-3.8c12.9-6.8,25.9-13.5,38.8-20.4
			c3.8-2,6.8-2,10.4,0.3c12.5,7.9,25.1,15.6,37.8,23.2c3.5,2.1,4.9,4.6,4.7,8.6c-0.8,20.4-1.5,40.8-2.2,61.3c-0.2,6-1.3,6.5-6.8,3.3
			c-6.7-4.1-13.4-8.3-20.2-12.2c-3.7-2.1-5.2-4.9-5-9.1c0.4-8.5,0.5-17.1,1-25.6c0.2-4-1.1-6.8-4.7-8.6c-2.3-1.2-4.4-3.2-6.8-3.9
			c-2.6-0.7-5.7-0.9-8.3-0.3c-2.5,0.5-4.6,2.4-7,3.4c-3.9,1.7-5.5,4.5-5.5,8.7c0,8.5-0.2,17.1-1,25.6c-0.2,2.6-1.8,6-3.9,7.2
			c-7.9,4.7-16.1,8.7-24.3,12.8C108.9,534.8,107.4,534.2,106.1,534.1z"/>
		<path fill="#37B34A" d="M656.3,489.1c2.6,0.1,4.8,0.2,7.6,0.3c-0.3,8.6-0.5,16.9-0.9,25.2c-0.3,7.6-0.3,15.3-1.2,22.8
			c-1.1,9.5-8.5,13.6-17.6,9.8c-5.3-2.2-10.5-5.2-15-8.7c-2.1-1.6-3.5-5.4-3.5-8.2c0.1-14.7,0.9-29.3,1.3-44
			c0.1-4.4,2.2-7.3,6.1-9.3c13-6.8,25.9-13.6,38.8-20.5c4-2.1,7.8-2,11.7,0.4c12.4,7.7,24.8,15.4,37.3,23c3.9,2.4,5.7,5.6,5.5,10.2
			c-0.6,14.5-1,29-1.5,43.5c-0.1,4.3-2.1,7.3-5.9,9.3c-13.1,6.9-26.2,13.8-39.3,20.7c-3.9,2.1-7.5,2-11.2-0.4
			c-4.2-2.8-8.5-5.4-13.3-8.5c4.2-3,7.9-4.9,12.1-1c4.7,4.4,9,3.9,14.5,0.7c10.3-6.1,21.2-11.2,31.7-17c1.8-1,3.6-3.8,3.7-5.8
			c0.8-13.4,1.2-26.7,1.4-40.1c0-2.1-1.5-5-3.2-6.1c-11.3-7.3-22.8-14.4-34.5-21.2c-1.8-1-5.1-1-6.9-0.1
			c-11.9,5.9-23.6,12.3-35.5,18.4c-2.9,1.5-3.9,3.3-4,6.5c-0.3,13.2-0.7,26.4-1.4,39.6c-0.2,3.3,0.9,5.2,3.7,6.6
			c2.5,1.2,4.8,3,7.3,4.3c6.4,3.2,10.2,1.1,10.5-6c0.5-12.6,0.9-25.3,1.3-37.9C656.1,493.5,656.2,491.5,656.3,489.1z"/>
		<path fill="#37B34A" d="M707.8,504.1c-4.2,0.8-7.1,0.9-9-3.6c-2.2-5-16.6-6.5-20.4-2.5c-2.3,2.4-1.5,5.6,2.3,6.7
			c5.4,1.5,11,2.5,16.5,3.7c9,2.1,12,5.4,11.6,12.4c-0.4,6.8-5.6,11.7-13.7,12.1c-5.4,0.2-11,0.2-16.2-0.8
			c-8.1-1.5-11.6-6.4-11.6-14.8c3.9-1.3,7-1.3,8.4,3.8c0.4,1.5,2.4,3.4,3.9,3.5c5.5,0.7,11.1,1.1,16.6,0.7c1.6-0.1,3.8-3,4.2-4.9
			c0.2-1.1-2.3-3.6-4.1-4.2c-3.9-1.3-8-1.8-12.1-2.7c-2.2-0.5-4.4-0.9-6.6-1.5c-5.3-1.6-8.9-4.8-8.9-10.8c0-5.3,3.3-10.5,9.2-11.2
			c7.1-0.8,14.6-0.5,21.6,0.9C705.2,492.3,707.5,497.7,707.8,504.1z"/>
		<path fill="#37B34A" d="M555.1,506.2c-0.2,4.7-5.3,10.1-9.7,10.1c-4.1,0-9.4-6-9.3-10.5c0.2-4.7,5.4-10.2,9.7-10.2
			C549.9,495.7,555.2,501.8,555.1,506.2z"/>
	</g>
</g>
<g id="IH7wnm.tif">
	<g>
		<path fill="#652D90" d="M129.9,251.8c2.1,10.9,4.1,21.8,6.3,32.7c4,20.5,8.1,41,12.1,61.5c2,10.2,4.3,12.2,15.3,12.6
			c0.2,5,0.3,10.1,0.5,15c-15.9,6.2-29.9-1.5-33.3-18.4c-5.4-26.6-10.5-53.2-15.8-79.8c-0.3-1.5-0.6-3-0.9-4.4
			c-0.8-0.1-1.2-0.2-1.5-0.2c-12.8,2.3-19.6,3.7-15.3,21.6c1.8,7.5,3,15.2,4.2,22.8c1.4,8.1,0.3,15.7-5.9,21.6
			c0.2,0.5,0.3,0.9,0.4,1c9.4,4.1,12.5,12.5,14.5,21.5c1.6,7.3,2.9,14.7,4.4,22c2.3,11.3,5.6,13.7,17.1,12.2c0.5-0.1,1,0,2.1,0
			c0.5,2.4,0.9,4.7,1.4,7.1c0.4,2.3,0.9,4.5,1.5,7.4c-9.3,1.5-18.3,3.1-27-1.4c-6.3-3.3-9.3-9.2-10.8-15.8c-2.1-9-3.7-18.2-5.8-27.3
			c-0.7-3.1-1.7-6.3-3.3-9c-3.2-5.4-8.1-7-14.3-5.4c-1-5.1-2-10.1-3-15.2c5.6-0.2,9.4-3.2,10.6-8.4c0.9-3.6,0.8-7.7,0.2-11.4
			c-1.4-9.3-3.6-18.4-5-27.7c-2-12.8,2.8-20.9,14.7-26.1c2.3-1,4.7-2,7-2.9C110.1,255.7,120,253.8,129.9,251.8z"/>
		<path fill="#652D90" d="M339.6,210.5c2.5,0,5.1,0,7.6,0c13,0.3,20.4,6,23.5,18.7c2.2,9,3.7,18.2,5.8,27.2c0.7,3.2,1.8,6.5,3.5,9.3
			c3,5.1,8,6.5,13.8,5.6c1,4.9,1.9,9.5,2.8,14.1c-9.6,3.9-12.4,9-10.6,19.4c1.6,9.1,3.6,18.2,5.1,27.4c2.4,15.1-3.8,24.5-18.6,28.7
			c-3.1,0.9-6.1,1.7-9.5,2.7c-1-5-1.9-9.7-2.9-14.7c1.3-0.4,2.6-0.7,3.9-1.1c8-2.2,10.8-6.5,9.4-14.6c-1.3-7.5-3-14.9-4.3-22.4
			c-0.7-3.7-1.2-7.4-1.4-11.1c-0.3-6.4,1.8-12.2,7.1-17.2c-7-2.7-11.4-7.5-13.4-14.1c-1.7-5.5-2.8-11.3-4.1-16.9
			c-1.1-5-1.9-10.1-3.1-15.2c-2-8.6-6.3-11.5-15.1-10.2c-1,0.1-2,0.3-3.6,0.5c-1-5-2-9.9-2.9-14.8
			C335.1,211.4,337.3,210.9,339.6,210.5z"/>
		<path fill="#652D90" d="M232.7,322.5c-18.1,3.6-35.8,7.1-53.4,10.5c0.6,9.9,10.1,17.4,21.1,17.2c10.1-0.2,19.1-3.8,28.2-8.7
			c1.7,4.4,3.4,8.7,4.8,13c0.2,0.7-0.7,2.2-1.4,2.6c-13.8,7.5-28.3,11.9-44.1,8.9c-9.3-1.8-16.7-6.8-21.8-14.8
			c-8.3-13.2-11.2-27.7-7.4-43c5.6-22.3,28.2-31.8,47.1-27c7.4,1.9,13.2,6.3,17.5,12.6C229.1,302.3,231.3,311.9,232.7,322.5z
			 M176.4,319.2c11.7-2.3,23.4-4.6,35-6.9c-1.6-10.8-9.8-17.6-19.1-16.1C181.1,298,174.3,307.7,176.4,319.2z"/>
		<path fill="#652D90" d="M243.1,339.7c9-0.5,17.4-0.9,25.8-1.5c2.2-0.2,4.5-1.2,6.6-2.1c3-1.3,5.2-3.4,5.2-7c0-3.5-1.6-6.2-4.7-7.4
			c-3.7-1.5-7.6-2.4-11.4-3.4c-4.9-1.2-9.9-1.9-14.7-3.3c-10.8-3-16-10.7-16.8-21.6c-0.7-9.9,4.2-16.8,12.4-21.5
			c11.2-6.4,23.5-7,36-6.1c0.8,0.1,2.1,1.3,2.1,2c0,4.5-0.2,9-0.4,13.6c-8.3-1.2-16.2-1.3-24,1.5c-5.2,1.8-7.7,4.7-7.6,8.6
			c0.1,3.9,2.6,7,7.9,8.3c7.1,1.8,14.4,2.9,21.5,4.7c6.4,1.6,12.3,4.5,15.3,10.9c7.3,15.9,3.1,28-13.5,34.7
			c-11.6,4.7-23.8,6.4-36.4,4.9c-2.4-0.3-3.5-1.1-3.4-3.6C243,347.2,243,343.1,243.1,339.7z"/>
		<path fill="#652D90" d="M345,253.2c-0.2,6.1-0.3,11-0.5,16.1c-8.2-1-16.1-1.3-23.8,1.5c-1.2,0.4-2.4,1-3.5,1.6
			c-2.8,1.6-4.5,3.9-4.3,7.2c0.3,3.4,2,6,5.2,7.1c3.4,1.2,6.9,1.9,10.4,2.7c6,1.5,12.1,2.5,18,4.4c10.2,3.5,13.7,11.9,14.4,21.8
			c0.6,8.8-3.7,15.3-11.1,19.3c-14,7.7-29.1,9.6-45.4,7.3c0-5.3,0-10.3,0.1-15.5c6.1,0.2,11.9,0.8,17.7,0.3c4.7-0.3,9.4-1.7,13.9-3
			c3.2-0.9,5.8-3,5.9-6.8c0.1-4.1-1.9-7.1-5.6-8.3c-4.6-1.5-9.5-2.4-14.2-3.6c-4.6-1.2-9.3-2.1-13.8-3.6c-15-5-19.4-28.4-6.1-38.9
			c6.3-5,13.5-7.7,21.2-8.6C330.4,253.5,337.5,253.6,345,253.2z"/>
	</g>
</g>
<g id="F7k8nR.tif">
	<g>
		<path fill="#6D6E70" d="M545.8,410.7c-1.8,0-3.5,0-5.3,0c-1.9-1.2-4.1-1.5-6-2.8c-7.7-5.3-10.2-12.6-3.8-20.9c2-2.6,3-5.5,3.1-8.8
			c0.1-2.2,0.5-4.4,0.8-6.6c0.1-0.7,0.2-1.3,1.1-1.2c1.8,0.4,3.7,0.8,4.9,2.2c1.4,1.6,2.8,2.9,5,1.8c1.3-0.7,2.7-5.9,2-7.1
			c-2-3.7-2-4.8,1-7.8c0.9-0.9,0.9-1.4,0.2-2.3c-1.7-2.1-3.3-4.3-4.8-6.5c-0.8-1.2-1.3-3.1-2.4-3.4c-1.5-0.5-2.2,1.7-3.3,2.6
			c-1.7,1.2-2.9,2.7-5.5,1.9c-8.3-2.3-16.8-4.3-25.3-6.2c-1.3-0.3-1.8-0.9-2.2-2.1c-2.7-7.5-4.3-15.3-5.9-23
			c-1.8-8.2-1.6-16.7-1.6-25.1c0-1.2,0.3-2.5,1.3-3.3c5-4,9.9-8,15.1-11.7c8.2-5.8,16.5-11.4,25.3-16.2c1.2-0.6,1.3-1.2,0.7-2.4
			c-1.9-3.9-4.7-7.2-6-11.3c-0.7-2.3-1.9-2.9-4.2-2.1c-4,1.5-8.4,2.2-11.6,5.4c-2.9,3-2,6.8,1.8,8.3c0.8,0.3,1.6,0.7,2.3,1.2
			c2.3,1.7,2,4.8-0.6,5.9c-3,1.3-5.1,0.9-6.7-2c-1.9-3.6-5-5.5-8.6-6.9c-1.4-0.5-2.6-1.3-4.6-2.2c3.5-0.4,4.1-2.6,4.3-5
			c0.1-0.6,0.3-1.3,0.6-1.8c3.5-5.7,8.8-9.3,14.3-12.7c1.1-0.7,2.5-0.8,3.5-2c-0.4-0.1-0.6-0.2-0.8-0.2c-8.4-0.7-16.7-1.7-24.5-5
			c-6.3-2.7-11.3-7.8-11.1-15.4c0.1-6.7,1.6-12.9,3.8-19.2c3.3-9.5,6.1-19.3,5-29.7c-0.2-2.2-0.7-4.3-1-6.8c3.6,2.6,7,5,10.8,6.8
			c6.7,3.1,13.8,4.7,20.9,6.5c8.2,2,16.7,3.3,24.4,7.2c5.6,2.8,9.6,7,11,13.3c0.6,3,0.6,6,0.2,9.1c-1.1,8-5.2,14.6-9.6,21
			c-0.6,0.9-2.2,1-2.2,2.6c3.2,0.5,6.4,0.2,9.2-0.9c6.1-2.4,12.6-4.7,13.2-12.9c0.1-1,0.2-1.4-1-1.5c-1.3-0.1-2.4-0.7-3.6-1.1
			c-2.8-1-3.6-3.1-3.7-5.8c-0.1-2.6,1.2-4.6,2.7-6.6c3.9-5.4,9-9.2,15.2-11.6c1.5-0.6,2.4-1.4,2.7-3c0.6-2.6,2.3-4.2,4.7-5.3
			c3.7-1.7,7-0.6,10.3,1.1c3.1,1.6,5.6,0.6,6.3-2.9c0.5-2.5,3.2-4.4,5.7-4c2.7,0.3,4.4,2.3,4.4,5c0,3.3-2.2,5.2-5.7,4.8
			c-3.6-0.3-5.3,1.5-4.6,4.9c1.7,7.9-3.5,12.2-8.9,12.2c-1.5,0-2.5,0.3-3.6,1.3c-3.4,3.4-7,6.3-11.9,7.2c-0.9,0.2-2,0.6-2.4,1.6
			c0.6,0.3,1,0,1.5-0.1c3.5-0.8,5.4,0.7,5.3,4.3c-0.1,3-2.1,5.7-4.9,6.7c-3.9,1.4-4.4,2-4.6,6.2c-0.1,1.2,0,2.4,0,3.6
			c-0.1,1.6,0.5,1.7,1.8,1c4.2-2.4,8.4-4.4,12.8-6.4c12.9-5.8,26.6-8.4,40.6-9.3c2.4-0.2,4.2-0.9,5.9-2.6c4.3-4.4,9-8.3,13.9-12
			c1.2-0.9,2.8-1.7,2.9-3.6c0.1-1.6,0.2-3.2,0.5-4.8c0.7-4.3,1.3-8.5,4.4-12c3.3-3.7,6.8-2.8,9.3,0.2c1.3,1.6,2.1,3.6,2.6,5.6
			c0.4,1.6,1.2,2,2.7,1.3c2.9-1.2,5.8-2.2,8.7-3.2c10.3-3.4,20.8-4.7,31.6-2.3c0.7,0.2,1.4,0.2,2-0.3c2.6-2.1,5.3-4.1,7.9-6.1
			c1.2-0.9,1.4-1.7,0.7-3.2c-1.5-3.2-0.8-8.2,1.3-9.9c2.1-1.8,4.2-3.6,7.1-4.3c1.3,0,2.6,0,3.8,0c0.3,0.4,0.8,0.4,1.3,0.5
			c6.8,1.8,9.4,8.8,5.2,14.2c-3.2,4.1-9,5.7-13.8,3.6c-1.9-0.8-3.1-0.5-4.4,0.6c-1.6,1.3-3.2,2.6-4.8,3.9c-2.6,2.1-2.6,2.1,0.1,3.7
			c0.5,0.3,1.1,0.7,1.6,1.1c3.5,3,6.7,6.1,7.7,10.9c0.2,0.8,0.2,2.2,1.9,1.5c6.5-2.5,13.1-4.3,20-5.4c1.1-0.2,2-0.5,2.1-2
			c0.1-1.7,0.9-3.3,2-4.5c4-4.4,9.8-5.6,15.5-3.4c6.3,2.4,7.9,9.6,2.9,14c-5.6,4.9-14,5.4-19.5-1.3c-0.6-0.7-1-1.2-2.1-1
			c-7,0.9-13.7,2.8-20.3,5.2c-1.4,0.5-1.8,1.3-1.7,2.7c0,4.3-0.2,8.6-1,12.8c0.2,0,0.3,0.1,0.5,0.1c1,0,2.1,0,3.1,0
			c10.5-0.1,21,0.2,31,3.8c4.6,1.6,9.1,3.6,11,8.7c0.3,0.7,0.8,0.9,1.5,0.9c3.2,0.1,6.4,0.2,9.6,0.4c1.1,0.1,1.9-0.4,2.7-1.1
			c3-2.9,8.6-2.9,11.6,0.1c1.5,1.5,3.1,3.4,2,5.6c-1.2,2.4-3.3,4-6.2,4.1c-3.2,0.2-6.2-0.4-7.6-3.4c-1.6-3.3-3.9-4.2-7.2-3.9
			c-1.5,0.1-3,0-4.6,0c-0.6,0-1.3-0.1-1.6,0.7c-1.9,4.4-6.2,6.1-10.1,8c-7.6,3.7-15.8,5.8-24,7.7c-4.7,1.1-9.5,2.2-14.2,3.3
			c-0.4,0.1-1.1,0-1.1,0.7c0,0.5,0.4,0.6,0.8,0.7c4.9,1.3,9.5,3.3,14.1,5.3c2.5,1.1,5.1,2.3,7.9,0.7c1.1-0.6,2.3,0.1,3.3,0.9
			c6.4,4.6,12.7,9.3,18.7,14.4c3.4,2.9,6.2,6.4,9.8,9c1.1,0.8,1.6,2,1.6,3.5c0,3.9-0.2,7.7-0.6,11.5c-0.3,2.7-0.8,5.4-1.4,8
			c-0.8,3.9-4.2,5.7-7.1,7.5c-2.6,1.6-1.6,3.3-1.2,5.2c0.1,0.4,0.5,0.7,0.6,1.2c1,6.8,1.9,13.6,3,20.4c0.3,1.7-0.2,2.4-1.8,2.9
			c-8.6,2.6-17.2,4.9-26.2,5c-1.4,0-1.8-0.3-1.9-1.7c-0.4-4.8-0.9-9.5-1.4-14.3c0-0.5-0.1-1.1-0.4-1.3c-0.6-0.4-1,0.3-1.3,0.6
			c-1.7,1.9-3.6,3.3-6.4,2.3c-0.6-0.2-1,0.2-1.3,0.8c-0.6,1.2-1.3,2.3-1.9,3.5c-2.2,4.3-4.3,8.6-7.2,12.6
			c-4.8,6.7-10.4,12.6-16.6,18c-4.4,3.8-9,7.3-13.9,10.4c-9.8,6.3-20.4,10.6-31.7,13.7c-13.9,3.8-28.1,4.3-42.3,3.4
			c-12.5-0.9-24.7-3.8-36.2-9.1c-1-0.4-1.6-0.4-2.5,0.4c-1.3,1.1-2.9,2.6-4.9,1.8c-4.7-1.7-7.9,1.5-11.7,3.1
			c2.7,2.1,4.5,4.5,6.2,7.1c-4.5,1.2-8.7,2.4-13,3.4c-0.8,0.2-1.5,0.4-2.1,1C555,406.9,551,409.6,545.8,410.7z M531.5,176.7
			c-4.2-1.1-8.4-2.1-12.6-3.2c-0.9-0.1-1.9-0.3-2.8-0.4c-3.5-1.4-7.1-2.8-10.6-4.1l0.1,0c-1.6-1.1-3.6-1.4-5-3c0.6,5-0.2,9.6-1,14.3
			c-0.6,3.2-1.7,6.3-1.4,9.9c0.3,3.4-2,7.3-3.7,10.7c-2.9,5.8-4.4,11.7-3.1,18.2c0.1,0.5,0.4,1.4,0.6,1.4c1.7,0.1,2.4,1.5,3.5,2.2
			c2.7,1.7,5.9,3.1,9.3,3.5c1,0.1,2.2,0.3,3-0.4c1.8-1.6,3.4-0.7,5.2-0.2c6.7,1.8,13.5,3.4,20.6,3c6.6-0.3,12.3-2.7,16.1-8.4
			c4-6,6.8-12.5,8-19.6c0.4-2.3,0.7-4.8-0.3-7.1l0.1,0.1c0.1-3.2-1.9-5.8-2.6-8.8c-0.2-0.9-1.3-1.4-2.3-1.1c-0.5-1-1.5-1.4-2.5-1.8
			c-6-2.6-12.2-4.2-18.6-5.2L531.5,176.7z M650.1,339.9c2.4,2.1,5,4,7.6,5.8c2-2.2,3.4-4.7,4.8-7.4c-5.2-1.1-10.2-1.4-15.7-0.8
			C648.2,338.5,649.2,339.2,650.1,339.9z M579.5,203.7c-0.7,0.1-0.8,0.7-1.1,1.2c-0.5,0.7-1.1,1-1.3,0c-0.7-2.4-2.6-3.4-4.6-4.3
			c2.9-3.5,3-3.8,2.3-6.7c-2.7,2.7-5.2,5.5-6,9.3c-0.2,1-0.4,2.3,0.4,3c1.9,1.5,5.2-0.3,5.6-2.7c1.4,0.6,1.4,2.9,3.1,2.8
			C578.8,206.2,579.3,204.8,579.5,203.7c1-1.8,2.8-1.4,4.4-1.5c1.1-0.1,2.3,0.1,3-1.4c-1.9,0.8-3.5,0.6-5.1,0.7
			C580.2,201.5,579.5,202.1,579.5,203.7z M738.9,231.7c-0.4,0.2-0.8,0.2-1.1,0.5c-4.6,4.1-10.1,3.5-15.5,2.8c0,0.7,0.6,0.7,1.3,0.8
			c4.5,0.6,8.8,0,12.9-1.6C737.6,233.8,739,233.3,738.9,231.7c1-0.9,0.5-1.7-0.2-2.4c-0.9-1-2-1.5-3.2-2c-2.8-1.2-5.8-1.5-8.8-1.8
			c-4-0.4-6.8,3.3-5.5,7.1c0.3,0.9,0.8,1,1.6,1c4.3,0.4,8.5-0.4,12.2-2.7C736.7,229.8,738,229.3,738.9,231.7z M737.9,330.4
			c1.9,0.5,3.1-0.6,4.3-1.9c0.9-0.9,1.9-1.7,2.8-2.6c3.2-3.5,6.3-7.2,9.6-10.6c1.3-1.3,1.5-2.6,1.4-4.2c-0.1-7.2,0-14.3,0-21.5
			c-0.2,1.5-0.4,3.1,0.6,4.6c0.1-0.6,0.2-1.3,0.3-1.9c0.7,6.8,1.4,13.6,1.7,20.3c0.5,10.1,0.3,20.2,0.7,30.2
			c0.1,1.6,0.4,1.9,1.9,1.4c4.3-1.3,8.6-2.4,12.9-3.6c1-0.3,1.4-0.7,1.2-1.9c-0.6-3.5-1.2-7-2-10.5c-1-4.5-1.6-9.1-2.3-13.7
			c-0.6-3.8-1.1-7.6-1.7-11.7c2.6,1.4,5,2.5,7.1,3.8c1.9,1.1,2.7,0.7,3-1.4c0.6-3.4,0.9-6.8,1.7-10.1c0.7-3.1,0.6-6.2,0.7-9.2
			c0-0.8-0.2-1.4-0.9-2c-2.9-2.7-5.6-5.5-8.4-8.1c-6.1-5.6-12.8-10.5-19.6-15.3c-1.4-1-2-0.9-2.4,0.9c-2.7,13.5-4.8,27.2-8.2,40.5
			c-1.1,4.4-1,9-3.5,13.1c-2.6,4.2-5.5,8.2-7.7,12.6c-0.6,1.3-0.6,1.8,1,2C734,329.6,735.9,330,737.9,330.4z M701,277.5
			c1.2-2.4,2.2-4.8,3.6-6.9c1.8-2.7,3.3-5.4,3.5-8.7c0.3-4.6,0.4-9.1,0.8-13.7c0.1-1.3-0.3-1.7-1.5-1.9c-3.3-0.6-6.6-1.3-9.9-1.9
			c-15.6-3-31.4-4.9-47.3-6.1c-1.9-0.1-2.4,0.4-2.5,2.3c-0.7,12,0.3,24,2.5,35.8c0.1,0.6,0,1.4,0.6,1.8c2.7,1.6,5.4,3.1,8.2,4.7
			c-0.8-1.8-2.3-2.4-3.7-3.2c-1.5-0.9-3.6-1.2-3.9-3.5c-0.5-4.4-1-8.9-1.5-13.7c9.8,7.9,19.3,15.5,28.7,23.1c-1,0.6-1.8,0.6-2.6,0.5
			c-9-0.1-18.1-0.2-27.1-0.4c-1.7,0-2.1,0.3-2,2.1c0.4,10.2,1.6,20.4,1.4,30.7c0,1.3,0.4,1.8,1.8,1.8c13.2,0.6,26.4,1.2,39.6,1.9
			c1.4,0.1,2.3-0.3,3.2-1.4c3.4-4.2,6.8-8.2,10.3-12.3c1.2-1.4,1.9-3,2-4.7c0.4-5.4,0.7-10.9,1.1-16.3c0.1-0.9,0-1.8-0.8-2.3
			c-3.5-2.4-6-5.9-9.1-8.7c-4.5-4-8.5-8.4-12.7-12.7c-1.1-1.1-2.8-1.7-3.5-3.6c1.3,0.2,2.4,0.3,3.5,0.5c6.9,1.2,13.9,2.4,20.8,3.5
			c2.1,0.3,1.8,1.2,0.9,2.2c-2.4,2.9-3,6.7-4.9,9.8C700.2,276.6,700.4,277,701,277.5z M554.4,277.4c-0.3-5.7-0.6-11.2-0.8-16.7
			c-0.1-1.6-0.4-2-1.9-1.2c-4,2.3-7.9,4.9-12.2,6.7c-4.3,1.7-4.8,4.7-4.6,8.6c0.5,11.2,0.6,22.3,3.2,33.3c1.3,5.4,2,10.8,3,16.3
			c0.2,1.2,0.8,2.1,2,2.7c5.4,2.9,10.7,6.1,16.1,9c1.2,0.7,2.4,1.8,3.9,1.4c4-0.9,8-1.9,12.5-3.1c-5.3-4.3-10.2-8.4-15.2-12.3
			c-1.1-0.8-1.7-1.5-1.8-2.8c-0.6-7.6-1.2-15.2-1.9-22.7c0-0.4-0.2-0.8,0.3-1.1c1.2,0.8,1.8,1.9,1.8,3.3c0.2,6.5,1.6,13,2.2,19.5
			c0.1,1,0.4,1.8,1.2,2.4c4.2,3.3,8.3,6.8,12.6,9.9c1.4,1,2.6,3.1,4.8,2.7c4.3-0.9,8.5-2,13.2-3.2c-2.5-2.1-4.4-4.4-6.2-6.7
			c-1-1.2-2-2.5-3.2-3.6c-3.3-2.9-6.2-5.8-3.9-10.7c0.5-1.1,0.6-2.3,0.8-3.5c1-4.6,1.9-9.2,1.4-14c-1.2-13.2-0.7-26.5-0.2-39.9
			c1.4,2,0.1,4,0.4,5.9c0.2,1.4,0.2,2.5,2.1,1.2c1.2-0.8,2.4-0.7,3.2,0.9c0.5,1,1.4,1.9,2.4,3.2c0.1-0.8,0.2-1,0.1-1.2
			c-2.5-4.9-5.4-9.6-8.5-14.1c-0.4-0.6-0.9-0.5-1.4-0.2c-7.8,2.7-15.3,5.9-22.8,9.4c-1.1,0.5-1.5,1.1-1.4,2.4
			c0.3,5.2,0.4,10.4,0.6,15.6C556.3,276.2,556.3,277.3,554.4,277.4z M612,274.2c0.6,1.7,1.7,3.2,2.4,4.8c2.7,5.8,4.7,11.9,7.7,17.7
			c2.2,4.2,3.6,8.7,5,13.2c0.7,2.3,1.3,4.6,2.5,6.7c0.3,0.5,0.5,1.1,1.2,0.8c0.7-0.3,0.1-0.8,0-1.2c-0.5-2-1.1-4-2.1-5.8
			c-1.6-2.8-1-3.8,2.1-4.6c4.4-1.2,8.9-1.9,13.2-3.5c0.9-0.3,1.8-0.5,1.7-1.6c-0.3-5.1-0.6-10.2-0.9-15.3c0-0.2-0.1-0.5-0.2-0.7
			c-3.7-5.1-5.6-11.1-8.7-16.6c-4.7-8.3-8.6-17.1-12.7-25.6c-0.6-1.3-1.3-1.7-2.8-1.4c-7.4,1.2-14.8,2.3-22.3,3.4
			c-1.1,0.2-1.6,0.5-1.9,1.7c-2,8.8-3.5,17.6-6.1,26.3c-1.4,4.7-2.3,9.6-3.2,14.5c-1.5,8.1-4,15.9-5.9,23.9
			c-0.6,2.3-0.1,3.9,1.7,5.2c1.2,0.9,2.2,1.9,3,3c2.7,3.6,6.2,6.5,9.2,9.8c0.4,0.4,0.7,0.9,1.7,0.5c-1.8-2.2-3.5-4.3-5.4-6.3
			c-2.2-2.3-4.4-4.6-6.5-7c-0.5-0.6-0.6-1.2,0.3-1.4c2-0.5,4.1-1.1,6.3-1c-0.2,1-1.5,0.3-1.6,1.7c3.5,0.6,6.3,3.4,10.2,3.2
			c-0.9,0-1.7,0.1-2.6,0.1c0.4,0.4,0.8,0.4,1.2,0.3c2.9-0.4,6.1,1.6,8.8-1.2c0.5-0.6,1.2,0.4,1.2,1c0,1.8,1.2,1.6,2.7,1.8
			c-2-3.6-2.8-7.4-5.2-10.5c-0.8-1-1.1-2.2-0.6-3.6c2.1-5.2,3.3-10.6,4.5-16.1c1-4.6,3.5-9.2,0.9-14.1
			C610.5,275.3,610.9,274.5,612,274.2z M736.9,311.3c-2.1,1.6-3.1,3.4-4,5.2c-1.3,2.5-2.6,5-4,7.3c-1.4,2.4-3.1,4.5-6.5,3.2
			c-0.3-0.1-0.6,0-1.2,0.1c5.5,1.9,5.8,1.8,8.2-2c2.3-3.7,4.1-7.7,6.9-11.2c1.1-1.5,2.3-3,2.6-5c0.6-3.6,1.3-7.2,2-10.8
			c0.6-3.1,0.6-3.1-2.6-3.9c-3.7-0.9-7.5-1.7-11.2-2.6c-1-0.2-2-0.4-1.7-1.7c0.3-1.4,1.3-0.5,1.9-0.3c4.3,1,8.5,2.1,12.8,3.2
			c0.8,0.2,1.6,0.7,1.9-0.5c0.8-3.4,1.6-6.8,2.4-10.2c0.2-0.8-0.1-1.2-0.9-1.4c-5.2-1.9-10.3-3.9-15.5-5.8c-1.1-0.4-2.4-0.7-1.9-2.1
			c0.5-1.3,1.7-0.1,2.4,0.1c4.8,1.7,9.6,3.6,14.3,5.4c1.5,0.6,2.2,0.3,2.5-1.4c0.7-4.4,1.5-8.8,2.5-13.2c0.4-1.6,0-2.4-1.6-3.1
			c-8.4-3.5-16.8-6.8-25.4-9.9c-2.8-1-5.6-1.8-8.4-2.8c-1.2-0.4-1.7-0.1-1.8,1.2c-0.1,1.8-0.3,3.7-0.5,5.5
			c-1.7,16.5-2.5,33-3.5,49.5c-0.1,1.4,0.4,2.1,1.8,2.3c2.3,0.4,4.6,0.8,6.8,1.2C722.5,308.7,729.4,310,736.9,311.3z M640,214.5
			c26,0.5,49.3,7.3,70.1,23.4c-0.8-1.6-2.4-2.7-1-3.8c3.8-3.1,6.3-6.9,8.5-11.3c1.8-3.6,2.6-7.5,3.8-11.2c2.5-7.7,2.5-15.9,0.1-23.8
			c-0.2-0.8-0.5-1.3-1.4-1.8c-4.5-2.3-9.3-3.3-14.3-3.4c-8.8-0.2-17.1,2-25.2,5c-4.6,1.7-8.7,4.3-13,6.5
			C657.3,199.2,648.7,206.4,640,214.5z M532.9,270.4c-1.5,0.8-2.8,1.3-3.9,2.1c-9.2,6.3-18.5,12.5-27.1,19.7c-1,0.8-1.5,1.8-1.5,3
			c-0.4,5.5-0.2,11,0.3,16.5c0.8,10.2,2.9,20.1,6.1,29.7c0.4,1.1,1,2.1,2.3,2.4c7,1.6,14.1,3,21,4.9c3.1,0.8,5.6,1,7.8-1.8
			c1.9-2.4,4.1-4.6,6.2-6.9c-0.2-0.1-0.3-0.3-0.5-0.4c-1.2,0.8-2.2,1.8-3,3c-4.5,5.9-6.1,6.4-13.2,4.4c-0.5-0.2-1.1-0.3-1.6-0.4
			c-4.8-1.2-9.7-2.3-15-3.6c4.2-2.6,7.9-4.9,11.6-7.3c1.6-1,3-1,4.7-0.4c4.2,1.3,8.5,2.3,12.8,3.5c-0.5-1.1-1.5-1.3-2.4-1.6
			c-2.9-0.9-6.3-1.3-8.5-3.1c-2.3-1.8-4-4.9-4.9-7.7c-1.1-3.5-1.8-7.2-2.6-10.9c-0.3-1.2-0.7-1.9-1.8-2.6c-2.6-1.7-5.2-3.4-7.8-5.2
			c-0.5-0.3-1-0.7-0.6-1.3c0.3-0.5,0.9-0.1,1.3,0c0.5,0.1,0.9,0.3,1.3,0.6c4.5,2.9,9.2,5.3,14,7.6c3,1.4,6,2.8,9,4.2
			c0.1-0.2,0.2-0.4,0.3-0.5c-3.7-3.4-9-4.2-12.9-7.4c2.8-2.3,6.2-3.6,9.1-5.4c1-0.6,1.4-1.3,1.3-2.5
			C533.6,292.3,532.8,281.5,532.9,270.4z M597.4,321.3c0.2,2.5,1.1,4.5,1.7,6.6c2.4,8.2,7.3,14.8,12.7,21.2c0.5,0.6,0.9,1.8,1.9,1.5
			c0.7-0.3,0.2-1.5,0.5-2.2c0.2-0.5,0-1.1,0.6-1.4c4.4,3.5,8.7,7,13.1,10.4c2.7,2,2.7,2,0.8,4.6c-0.7,0.9-0.4,1.2,0.3,2
			c1.8,1.8,3.9,1.9,6.2,1.7c4.7-0.2,9-1.5,12.8-4.3c0.5-0.3,1.6-0.6,0.7-1.6c-0.4-0.4-1-1.5-1.5,0.1c-0.2,0.6-0.7-0.3-1-0.5
			c-0.9-0.7-0.2-2.1-1.2-2.8c-3.6-2.7-5.7-6.6-8.7-9.8c-1.1-1.2-2.1-2.7-2.3-4.7c7.4,1.1,14.4,3.1,21,6.2c0.5,0.2,1,1.2,1.6,0.3
			c0.4-0.6-0.1-1.2-0.6-1.6c-1.6-1.5-3.5-2.8-5.2-4.1c-5-3.8-10-7.4-15.3-10.6c-1.1-0.7-2-1.4-2-3c1.8,0.8,3.4,1.7,5.1,2.4
			c0.9,0.4,1.7,1.9,2.6,1.1c0.8-0.7,0.8-2.2,0.6-3.4c-0.3-1.9-1.1-3.5-2.2-5c-1.9-2.4-4.6-3.5-7.3-4.3c-5-1.5-9.8-0.6-14.7,2.3
			c3.8,1.2,7,2.4,10.1,3.9c1.4,0.7,1.4,0.7,1.5,2.6C619.1,324.3,608.6,321.6,597.4,321.3z M635.1,370.5c0.1,4.3,0.9,7.4,4.3,10.1
			c1.8,1.4,4.1,2,5.7,3.7c0.4,0.5,1.1,0.4,1.5,0c0.8-0.9,1.6-0.5,2.4-0.2c1.6,0.5,3.3,0.4,5,0.8c4.1,0.9,8.4,0.5,12.5,1.1
			c3.1,0.5,6.5,1.9,9.8,0.1c1-0.6,2.2-1,3.3-1.4c1.4-0.5,2.7-1,1-2.7c-0.4-0.5,0-0.9,0.1-1.3c0.2-1.4,1.1-3.3,0.1-4
			c-2.6-1.9-0.4-5-2.3-6.9c1.6-2.9-0.2-5.7-0.4-8.6c-0.2-3.4-1.9-6.2-3.7-8.9c-2.2-3.5-6.2-4.8-9.5-6.9c-1.1-0.7-2.4-0.9-3.4,0.4
			c-0.9,1.2-1.4,2.6-2.6,3.7c-0.5,0.5-0.3,1,0.5,1.4c2.1,1.2,3.9,2.7,5.6,4.4c0.9,0.9,1,1.5-0.3,2c-2.2,1-4.5,1.6-6.9,1.9
			c-2.4,0.2-4.8,0.3-6.7,2.1c-3.7,3.5-8.2,5.1-13.1,6.1C636,367.8,633.7,367.9,635.1,370.5z M605.5,232.9c-0.8-1.4,0-2.8,0-4.2
			c0-0.9,0.5-1.2,1.3-1.4c4.9-1,9.9-1.2,14.8-0.1c6.3,1.4,8,6.5,3.9,11.5c-1,1.2-0.8,2-0.2,3.2c2.7,5.3,6,10.3,8.3,15.7
			c0.9,2.1,1.7,4.3,3.1,6.1c1.1-0.5-0.8-1.4,0.5-1.8c0.5-0.1,1.1,0.1,1.1,0.9c0,3.1,2.5,1.1,3.6,1.4c1.3,0.3,0.7-1.2,0.6-2.1
			c-0.2-1.3,1-2,1.8-2.6c0.6-0.5,0.3,0.9,1,0.8c0-1,0.1-1.9-1-2.5c-0.5-0.2-0.9-0.8-0.6-1.4c0.5-1,1,0.4,1.6,0.1
			c0.2-6.2-0.1-12.5,0.4-18.7c0.1-1.5,0.4-2,2.1-1.9c7.6,0.5,15.1,1.2,22.7,2c0.9,0.1,2.1,0.7,2.7-0.3c0.6-1,0.1-2.2-0.4-3.2
			c-0.5-1-1.4-1.5-2.2-2.1c-2.3-1.7-5.1-2.5-7.7-3.1c-4.2-1-8.4-2.9-12.8-0.7c-0.5,0.3-1,0.2-1.3-0.3c-0.4-0.7,0.3-0.7,0.7-0.9
			c0.6-0.3,1-1.1,0.2-1.1c-1-0.1-2.4,0.1-3,1.1c-0.6,0.9-0.8,2.2-0.4,3.2c0.5,1.3,1.5-0.1,2.4,0c-0.6,1.3-1.5,1.4-2.5,1.2
			c-0.9-0.2-1.2-1-1.2-1.9c0-1.5-0.7-2.4-2.3-2.5c-1.2,0-5.3,3.3-5.2,4.5c0,2.3-1.2,2.2-2.8,1.8c-0.5-0.1-1-1.3-1.6-0.3
			c-0.4,0.7,0.5,1,0.9,1.5c0.2,0.2,0.5,0.4,0.1,0.9c-0.7-0.6-2.4-0.1-2.5-1.6c-0.2-4.6-3.6-6.6-7.1-8.2c-5-2.4-10.5-2.5-16-1.9
			c-9.6,1.2-18.3,4.5-25.3,11.4c-2.2,2.1-3.2,5-2.9,8.1c0,0.4-0.1,1.1,0.4,1.3c2.7,0.7,3.7,3.1,4.8,5.1c1.3,2.4,3.4,3.4,5.8,4.2
			c0.3,0.1,0.5,0.4,0.7,0c0.6-1.1,1-2.3,0.9-3.4c-0.1-1-1.3-0.6-2-0.8c-3.6-0.9-6.7-2.6-7.5-6.5c-0.6-2.6,1.4-4.4,2.9-6.2
			c2.9-3.3,3-3.2,6.6-0.2c0.3,0.2,0.5,0.6,1,0.4c0.4-0.9,0.4-1.6-0.4-2.4c-0.6-0.6-1.2-1.3-2-1.8c1.7-0.5,2.6,0.9,3.7,1.6
			c1.2,0.8,2.1,1.4,2.4-0.6c0.2-0.9,0.8-0.6,1.3-0.5c1.1,0.1,2.2,0.7,3.2-0.2c1-0.9,0.9-2.1,0.9-3.4
			C604.2,230.8,604,232.3,605.5,232.9z M550.6,257.3c-0.5-0.4-1-0.7-1.4-1c-6.7-5.3-12.8-11.2-17.5-18.4c-0.9-1.3-1.7-1-2.8-0.5
			c-5.4,2.3-10.5,5.1-14.9,8.9c-2.3,2-4.2,4.4-4.9,7.5c-0.3,1.5-0.3,2.4,1.8,2c2.5-0.4,4.7-0.8,6-3.4c0.8-1.5,2.5-2.3,4-3
			c3.9-1.8,8.1-3,12.3-3.9c1.4-0.3,1.6,0.5,2,1.5c1.8,4.9,4.9,9.1,7.2,13.7c0.3,0.6,0.5,1.1,1.4,0.6
			C545.7,259.9,548.1,259.1,550.6,257.3z M550.6,394.7c0.1,0.2,0.3,0.3,0.4,0.5c1.4-0.9,2.8-1.8,4.1-2.7c1.8-1.2,3.8-3.5,5.3-3.2
			c1.8,0.4,3.1,3,4.5,4.7c1.8,2.2,1.7,2.4-0.9,3.4c-2.3,0.8-4.5,1.5-6.8,2.3c0.1,0.2,0.1,0.4,0.2,0.6c4.2-0.5,8.1-2.1,12.4-3
			c-0.6-0.7-0.9-1.2-1.3-1.6c-4.2-4.1-8.1-8.5-12.9-12.1c-4.2-3.1-8.1-6.5-13.1-8.3c-0.6-0.2-1.1-0.9-1.7,0.2
			c-1.5,3-1.5,6.4-3.1,9.3c-0.1,0.1,0.4,0.6,0.7,0.8c2.8,2.8,6,5,9.3,7.1c0.7,0.4,0.8,0.3,1.4-0.4c1.8-2.1,3.9-4,5.8-6
			c0.9-0.9,1.5-0.9,2.4-0.1c1,0.9,0.9,1.6,0,2.3c-1.5,1.2-2.9,2.5-4.5,3.6C552,393,551.2,393.7,550.6,394.7z M553.5,232.9
			c0.2,5.3,1.4,10.8,2.8,16.3c0.7,2.6,2.7,3.6,5.3,2.6c1-0.4,1.2-0.7,0.9-1.9c-0.8-3-0.4-6.1-0.1-9.1c0.1-1.2,0.4-2.2-0.4-3.2
			c-0.8-0.9-0.8-1.5,0.5-2.1c1.7-0.7,3.2-1.7,4.8-2.6c3-1.6,3.3-3.1,1.2-5.8c-0.8-1.1-1.7-1.5-3-0.8c-2.7,1.6-5.7,2-8.7,2.4
			C553.1,229.2,553.5,228.3,553.5,232.9z M543.4,408.9c5.4-0.1,9.4-2.4,12.6-6.2c0.4-0.4,1-0.8,0.3-1.6c-1.9-1.9-3.3-2-5.4-0.4
			c-0.6,0.5-1.3,1-2,1.4c-3.8,2.2-7.9,1.6-11.6-1.7c-2-1.8-2.8-6.7-0.5-9.6c2.3-2.9,0.3-3.7-1.3-5.1c-0.5-0.4-0.8-0.6-1.4-0.1
			c-4.5,3.4-6.1,10.9-3.2,15.7C533.7,406.1,538,408.5,543.4,408.9z M576.5,381c-3.7-2-6.3-4.5-9.5-6.2c-1.1-0.6-1.6-0.5-2.3,0.4
			c-1.7,2.1-3.2,4.5-5.3,6.4c-1,0.8-0.8,1.9,0.3,2.5c1.3,0.7,2.2,1.8,3.2,2.8c3.1,3.1,3.1,3.1,7.2,1.2c0.2-0.1,0.4-0.2,0.6-0.3
			c2-0.8,3.7-1.6,3.6-4.3C574.4,382.5,574.9,381.4,576.5,381z M557,381.4c0.2-0.2,0.5-0.3,0.7-0.5c2-2.4,4-4.7,5.9-7.1
			c0.6-0.7,0.6-1.4-0.2-2c-2-1.6-3.9-3.2-5.8-4.9c-0.5-0.5-0.9-0.6-1.4,0.1c-1.1,1.7-3,2.2-4.8,2.3c-1.4,0.1-1.9,0.8-2.3,1.9
			c-1.5,4.1-1.6,4.1,1.9,6.5c0.4,0.3,0.8,0.6,1.2,0.8C553.8,379.4,555.3,380.4,557,381.4z M743.2,170.7c1.8-1.5,1.8-3.6,1.2-5.5
			c-0.8-2.5-2.8-4.1-5.3-4.6c-5.3-1.2-10.1,1.8-11.4,6.9c-0.3,1.1,0.8,2.7,0.9,2.6c1.5-1.4,2.4,0.3,3.4,0.5c4.5,0.9,7.7-0.5,9.6-4.4
			c0.2-0.5,0-1.5,1-1.3c0.7,0.2,1.2,0.8,1.3,1.6C744.1,168,743.8,169.4,743.2,170.7z M752.7,233c2,0.3,4-0.4,5.9-1.3
			c3.3-1.5,3.9-6,0.9-8.1c-4-2.8-9.5-2.7-12.9-0.3c-3.1,2.2-3.1,5.8,0,8C748.4,232.7,750.4,233.1,752.7,233z M766.5,193.8
			c1.7,0.2,7.1-3.1,7.7-4.8c0.1-0.3,0.1-0.9-0.1-1.1c-1-1.5-2.3-3.2-3.9-3.6c-3.1-0.8-6.4-0.6-9.1,1.6c-1.6,1.2-1.6,1.6-0.9,3.4
			c0.1,0.2,0.1,0.5,0.1,0.7c-0.9,2.4,1.1,2.9,2.4,3.4C763.8,193.8,765.2,193.7,766.5,193.8z M597.3,345.9c0.7-0.1,1.8-0.2,3-0.4
			c3.2-0.6,3.8-1.8,2.2-4.6c-0.4-0.8-0.9-1.5-1.3-2.3c-0.4-0.7-0.8-0.8-1.7-0.8c-2.6-0.2-4.8,1.3-7.3,1.4c-1.3,0-2.7,0.2-2.9,1.9
			c-0.2,1.7,0.4,3.1,2.1,3.9C593.1,345.7,594.9,345.8,597.3,345.9z M605.4,186.4c-0.5,1.1,0,2,0,3c-0.2,5.2-4.6,8.4-9.3,6.4
			c-3.5-1.5-6.3-3.9-7.1-8c-1.1-5.5,2.7-9.3,8.2-8.1c1.3,0.3,2.7,0.6,3.7,1.5c0.3,0.3,0.7,0.5,1,0c0.3-0.4-0.1-0.7-0.4-0.9
			c-2.9-1.9-5.9-2.6-9.3-1.5c-3.5,1.1-4.8,3.7-5.1,7.1c-0.5,5.2,3.3,10.1,8.9,11.8c4.8,1.5,9.2-0.6,10.6-5.3
			C607.2,190.3,607.5,188,605.4,186.4z M582.9,193.4c0,1.4-0.1,2.4,0,3.4c0.1,0.9,1,1.4,1.7,1.2c1.5-0.4,2-1.9,3-2.7
			c2-1.6-0.5-2.7-0.6-4.1c-0.1-0.7-0.6-1.3-0.7-2c-0.3-1.4-0.9-1.3-2.1-0.9c-3,1.1-5.6,2.9-8,4.8
			C578.2,195.7,580.4,194.7,582.9,193.4z M576.4,194.2c-0.1,2.5-0.2,4.3-2.2,5.3c-0.6,0.3-0.8,1,0.1,1.2c1.8,0.3,2.6,1.8,3.8,3.7
			c0.4-4.8,4-3.4,6.7-4.2c-2.9-1.1-2.3-3.6-2.5-6.1C580.2,195.7,578.5,196.1,576.4,194.2z M588.3,353.1c1.9,0,3.6-1.9,2.7-3.2
			c-0.9-1.3-2-2.5-3.1-3.5c-1.1-1-2.5-0.9-3.7,0c-0.9,0.7-1.6,1.6-1.2,2.9C583.3,350.8,586.7,353.1,588.3,353.1z M659.3,355.8
			c-3.1,0.4-6.2,0.9-9.3,1.3c4.2,0.2,8.3,0.2,12.7-1.3c-7.6-5.9-16.1-8.8-25.2-10.3C645.1,348.3,653.3,349.7,659.3,355.8z
			 M616.4,349.8c0.1,6,1.3,11.2,5.1,15.6c0.3,0.3,0.4,1.4,1.2,0.6c1.9-2.2,3.6-4.6,4.4-7.4c-1.2,1.5-2.2,3.1-3.2,4.7
			c-0.7,1.1-1.1,1.8-2.3,0.2c-2.5-3.3-3.5-6.9-4-10.9C617.5,351.8,617.8,350.8,616.4,349.8z M593.8,353.8c0.1-2.6,2.2-2.4,3.8-3.3
			c2.8-1.6,5.2-2.2,7.7,0.4c0.4,0.4,0.9,0.4,1.3,0.1c0.4-0.3,0.5-0.8,0.3-1.3c-0.8-1.6-3.6-2.9-5.3-2.3c-1.2,0.4-2.4,0.7-3.7,0.8
			C595.1,348.7,593.5,350.8,593.8,353.8z M574.8,233.7c-2-1.7-2.1-1.8-2.9-1.1c-1.8,1.7-3.8,2.8-6,3.9c-0.6,0.3-1.5,0.7-0.7,1.5
			c0.6,0.5,0.6,2.2,2.2,0.9C569.7,237.1,572.2,235.5,574.8,233.7z M798,229.4c0.9-1.4-0.4-1.1-1.3-1.2c-0.8-0.1-1.5-0.2-2.3,0
			c-1.6,0.5-3,1.3-2.8,3c0.2,1.3,1.9,1,2.9,1.2C796.6,232.9,798,231.8,798,229.4z M600.4,182.3c-4.6-2.5-6-2.3-9.2,0.6
			c-0.5,0.4-0.8,0.7-0.7,1.3c0.2,0.8,0.9,0.3,1.4,0.4C594.9,184.6,597.4,183.4,600.4,182.3z M596.5,372.1c-3-4.2-9.4-5.7-13.5-3.6
			c-0.7,0.4-0.9,1-0.7,1.7C587.3,368.2,591.7,369.4,596.5,372.1z M603.6,187.3c-2.1,1.8-3.5,3.8-4.4,6.1c-0.2,0.4-0.8,1-0.1,1.5
			c0.5,0.3,1,0.1,1.6-0.2C603.4,193.5,604.4,191.3,603.6,187.3z M609.8,177c0.1,1,0.3,2,1.5,2.1c1.2,0.1,3.5-2.2,3.5-3.5
			c0-1.6-1.4-1.4-2.3-1.4C610.9,174.3,609.8,175.2,609.8,177z M636.2,223.4c-1.2,0.2-2.1,0.7-2.1,1.9c0,1.3,0.7,2.5,2.2,2.6
			c1.2,0.1,2.3-0.7,2.2-1.9C638.5,224.7,637.6,223.7,636.2,223.4z M651.3,224.8c1.6,1.1,2.9,1.7,4.4,2.1c0.9,0.3,1.8,0.2,2.2-0.8
			c0.3-1-0.5-1.7-1.3-1.9C654.9,223.6,653.1,223.5,651.3,224.8z M594.8,191.7c-1-1.2-1.7-2.5-2.2-4c-0.3-0.8-0.8-0.8-1.5-0.8
			c-0.4,0-0.8,0.2-0.9,0.6C589.9,189.2,593,192.1,594.8,191.7z M641.1,222.3c-0.3,3,0.6,3.6,3.7,3c1-0.2,2.4,0,2.6-1.2
			c0.1-1.1-1-1.7-2-2.4c-0.2,1.1,0.8,2.3-0.8,2.6C643.1,224.5,641.4,224.8,641.1,222.3z M545.9,393.8c-0.8-0.6-1.5-1.2-2.2-1.6
			c-0.6-0.3-1.1-1.5-2-0.7c-0.7,0.6-0.7,1.6-0.3,2.4c0.4,0.9,1.2,1.2,2.2,1C544.3,394.8,545.1,394.7,545.9,393.8z M559.9,207.5
			c2.3-3.5,2.3-12.9,0-15.9C562,196.9,561.7,202.2,559.9,207.5z M646,267.1c0.2-0.8,0.1-1.5-0.6-2.1c-0.8-0.6-1.4-0.6-2,0.2
			c-0.7,1-0.2,1.7,0.5,2.2c1.1,0.8,0.8-0.3,1.1-0.8C645.6,265.7,645.5,267.3,646,267.1z M570.1,363.2c-0.9,0.2-1.6,0.7-1.6,1.7
			c0,0.9,0.7,1.2,1.4,1.2c0.9,0,1.5-0.4,1.6-1.4C571.5,363.8,571.1,363.3,570.1,363.2z M668.4,344.3c-1.6-0.1-0.1-1.9-1.3-2.2
			c-0.7-0.2-1.4,0.4-1.5,1.2c-0.1,1.1,0.6,1.6,1.5,1.8C667.7,345.2,668.2,345.1,668.4,344.3z M677.9,236.2c1.8,2,3.5,2.1,5.4,1
			C681.7,236.9,680.1,236.6,677.9,236.2z M599.8,185.7c-2-0.3-3.1,1.4-4.7,1.6c-0.4,0-1.1-0.3-1,0.6c0,0.3,0.2,0.6,0.4,0.8
			c0.4,0.3,0.7,0,1-0.2C596.8,187.6,598.2,186.7,599.8,185.7z M550.1,363.8c0.6-0.2,1.1-0.6,1.1-1.4c0-0.7-0.3-1.3-1.1-1.2
			c-0.8,0.1-1.3,0.6-1.3,1.4C548.8,363.3,549.3,363.6,550.1,363.8z M579.8,383.2c0-0.8-0.6-0.9-1.2-0.9c-0.7,0.1-1.3,0.2-1.3,1
			c0,0.7,0.6,0.9,1.2,0.9C579.2,384.3,579.7,383.9,579.8,383.2z"/>
		<path fill="#6D6E70" d="M557.3,193.5c0.6,6.4-1.1,12.3-4.6,17.7c-1.2,1.9-2.1,4-3.2,5.9c-4.5,7.6-11.2,10.9-19.9,10.3
			c-6.6-0.4-12.8-2.6-19.2-4.1c-4.5-1-7.4-3.4-10.5-6.1c-5.9-5.1-4.3-14.6,0.3-17.9c5.9-4.2,12.1-4.5,18.7-4.1
			c1.5,0.1,3,0.4,4.5,0.7c1.1,0.2,1.8,0,2.1-1.2c1.1-4.8,3.5-8.7,7.8-11.4c-3.4,1.9-4.8-1.1-6.6-2.6c-1.3-1-2.5-1.9-4.2-2.1
			c-2.5-0.4-4.3-2-6.4-3.2c-3.4-1.9-7.5-2-10.7-4.4c-1-0.7-1.6-1.3,0-1.9c0,0-0.1,0-0.1,0c3.1,2.6,6.9,3.2,10.6,4.1
			c0.9,0.1,1.9,0.3,2.8,0.4c4,2,8.2,2.7,12.6,3.2l-0.1,0c0.1,0.1,0.2,0.2,0.4,0.3c6.9,1.8,13.9,3.5,20.2,6.9c0.1,0,0.3-0.2,0.5-0.3
			c0.8,0.6,1.3,1.3,1.7,2.2C555.4,188.3,556.5,190.9,557.3,193.5L557.3,193.5z M550.6,186.9l-0.1-0.2c-1-1.2-2.4-1.8-3.9-2.2
			c-9.1-2.5-18,3.3-18.9,13c-0.1,1.5-0.3,2.1-2.1,1.6c-4.3-1.1-8.7-1.1-13.1-0.8c-3.3,0.2-6.5,0.6-9.3,2.6c-3.7,2.7-5.4,7.9-3.7,11
			c3.2,5.9,8.5,8.9,14.5,10.9c1.3,0.4,2.3,0.3,3.5-0.6c3.6-3,7.7-5.2,11.8-7.3c7.3-3.8,15.1-6.4,23.1-8.5c0.7-0.2,1.2-0.4,1.4-1.1
			c1.5-4.9,2.5-9.8,0.4-14.8c-0.4-1-0.9-2.1-2.4-1.8l0.1,0C551.4,188.2,550.8,187.8,550.6,186.9z M517.5,223.8
			c3.3,1.3,6.6,1.7,9.8,2.2c7.2,1.1,13.6-0.6,18.8-5.9c2.5-2.6,2.8-3.6,1.3-6.8c-0.3-0.6-0.6-1.1-0.8-1.8c-0.5-1.7-1.5-2-3.1-1.4
			c-5,1.8-9.9,3.6-14.5,6.2C525.1,218.4,521,220.5,517.5,223.8z M552.6,207.7c-1.9,0.4-3.3,0.8-4.8,1.1c-0.8,0.2-1.1,0.6-0.7,1.3
			c0.8,1.4,1.2,3,2.3,4.4C550.7,212.4,551.7,210.4,552.6,207.7z"/>
		<path fill="#6D6E70" d="M737.9,330.4c-1.4-0.9-3-1-4.6-1.3c-1.4-0.3-1.8-0.9-1.1-2.1c2.9-4.7,5.8-9.3,8.7-14
			c0.7-1.1,1.7-0.7,2.6-0.5c3.4,0.6,6.7,1.3,10.3,2c-0.8,1.5-1.9,2.5-3.1,3.6c-3.4,3.1-6,6.7-8.5,10.5
			C741,329.8,739.8,330.8,737.9,330.4z"/>
		<path fill="#6D6E70" d="M657.8,345.6c-2.7-1.8-5.2-3.7-7.6-5.8c-0.4-1.3,0.6-1.2,1.4-1.2c2.6-0.1,5.1,0.3,7.6,0.5
			c1.8,0.2,2,0.8,1.1,2.2C659.3,342.8,657.6,343.7,657.8,345.6z"/>
		<path fill="#6D6E70" d="M675.6,308.1c7.9,0,15.8,0,23.7,0c0.7,0,1.6-0.4,1.9,0.4c0.2,0.6-0.4,1.2-0.8,1.7
			c-2.8,3.4-5.7,6.8-8.6,10.3c-0.7,0.8-1.6,1-2.6,0.9c-10.6-0.5-21.2-1.1-31.9-1.6c-1.4-0.1-2.1-0.7-2.6-2c-0.6-1.6-1.3-3.2-3.3-3.8
			c-1.5-0.5-2.4-3.7-1.8-5.2c0.4-0.9,1.2-0.6,1.8-0.6c8,0,16,0,24,0C675.6,308.2,675.6,308.1,675.6,308.1z"/>
		<path fill="#6D6E70" d="M546.7,327.2c3.8-1.4,7.3-2.7,10.8-4c1.7-0.6,2.9,0.5,3.9,1.2c3.5,2.6,6.8,5.3,10.1,8
			c1.3,1,1.2,1.8-0.4,2.2c-4.8,1.2-9.5,2.7-14.1-1.1C554,331.1,549.9,330,546.7,327.2z"/>
		<path fill="#6D6E70" d="M564.2,320.2c0.8-0.2,1.1-0.7,2.1,0c1.8,1.1,2.6,3.5,4.4,3.8c1.7,0.2,3.5,0.5,5.3,0.7
			c2.1,0.2,4.3,0.3,6.5,0.3c0.5,0,1.4,0.6,1.2-0.9c-0.1-0.8,1-0.6,1.6,0c1.2,1.3,2.3,2.7,3.4,4c1.2,1.4,0.5,1.9-0.9,2.2
			c-1.2,0.3-2.5,0.5-3.7,1c-3.6,1.7-6.3,0-8.9-2.2C571.6,326.1,568.1,322.9,564.2,320.2z"/>
		<path fill="#6D6E70" d="M770.3,291.4c-3.4-2.2-6.9-4.4-10.2-6.5c-1.5-1-3-2.3-4.7,0.1c-0.5-1.9-0.3-3.6-0.4-5.4
			c1.7,1,3.2,1.8,4.6,2.7c3.2,2,6.4,4.1,9.7,6.1C770.4,289,770.9,289.8,770.3,291.4z"/>
		<path fill="#6D6E70" d="M695.1,217.7c-5,0.3-9.7-2.2-13.4-6.7c-2.5-3-2.3-9.9,0.2-13.2c4.9-6.5,11.3-9.6,19.5-8.9
			c4.9,0.4,8.9,2.6,12,6.3c3.1,3.7,2.4,11.2-1.1,14.6C706.1,215.8,702.4,217.6,695.1,217.7z M702.5,214.9c1.5-0.6,2.9-1.3,4.4-1.9
			c1.4-1.2,2.8-2.4,3.9-3.8c6.8-8.6,1.5-15.8-5.3-18.4c-5.4-2.1-10.9-1.3-16,1.4c-3.8,2-6.3,5.2-7.8,9c-2.6,6.2,3.6,13,8.3,14.1
			C694.2,216.3,698.4,216.5,702.5,214.9z"/>
		<path fill="#6D6E70" d="M521,297.2c-0.7,4-4.3,4-6.3,5.8C515.8,300.2,518.1,298.8,521,297.2z"/>
		<path fill="#6D6E70" d="M666.3,236.9c-5.5-0.1-10.1-1.3-14.2-4c-0.9-0.6-1.6-1.2-1.4-2.3c0.2-1.2,1.2-1.5,2.2-1.5
			c2.5-0.1,5-0.2,7.5,1c2.2,1.1,4.7,1.6,7,2.4c0.9,0.3,1.7,0.8,2.6,1.2c0.6,0.3,1.1,0.7,1,1.5c-0.1,0.9-0.8,1.3-1.5,1.4
			C668.3,236.8,667,236.8,666.3,236.9z"/>
		<path fill="#6D6E70" d="M551.9,188.7c2.4,2.2,3.1,4.9,3,8.2c-1.3-2-2.5-3.9-3.8-5.8c-0.4-0.5-1.3-0.8-0.9-1.7
			C550.4,188.7,551.3,188.8,551.9,188.7C552,188.8,551.9,188.7,551.9,188.7z"/>
		<path fill="#6D6E70" d="M550.6,186.9c-2,2.7-2.2-0.3-3.2-0.9c1.2-0.4,2.2,0.1,3.2,0.7C550.6,186.7,550.6,186.9,550.6,186.9z"/>
		<path fill="#6D6E70" d="M751,230.1c-1.6-0.2-3.4-0.5-4-2.6c-0.4-1.5,0.5-2.4,1.7-3.1c0.7-0.4,1.4-0.8,1.7,0.6
			c0.4,1.7,1.6,1.5,2.8,1c0.6-0.2,1-1.4,1.7-0.4c0.7,0.8,0.6,1.8,0,2.6C754,229.6,752.6,230,751,230.1z"/>
		<path fill="#6D6E70" d="M702.5,214.9c-1.3,0.6-2.7-0.1-4.2,0.6c1.7-2.5,6.9-4.9,9-4.4c0,0-0.2-0.1-0.2-0.1
			c0.2,0.7-0.1,1.3-0.3,1.9C705.4,213.6,703.9,214.2,702.5,214.9z"/>
		<path fill="#6D6E70" d="M515,205.7c1.5,0,2.9,0.4,3.9,1.6c1,1.1,1.4,2.3,1,3.7c-0.4,1.3-1.4,1.8-2.7,2c-0.8,0.1-1.6,0.2-2.4,0.2
			c-2.5-0.1-4.4-2-4.2-4C510.7,207.2,512.6,205.7,515,205.7z"/>
		<path fill="#6D6E70" d="M542.3,201.2c-1.9,0-3.3-1.8-3.3-4c0-2.4,2.1-4.6,4.3-4.7c2.4,0,4.2,1.8,4.1,4.1
			C547.2,198.9,544.6,201.2,542.3,201.2z"/>
		<path fill="#6D6E70" d="M693.5,198.9c0.3,0,0.6-0.1,1-0.1c3.3-0.1,5.8,1.5,6.3,4c0.5,2.3-1,4.6-4,6c-2.5,1.2-5,1.5-7.7,1
			c-2.7-0.5-4.8-2.8-4.8-5c0-2.4,2-4.8,4.6-5.4c1.5-0.3,3-0.4,4.5-0.6C693.5,198.8,693.5,198.9,693.5,198.9z M690.7,202.8
			c1.1-0.1,2.5,0,2.6-1.5c0.1-1.2-1.1-1.6-2.2-1.6c-1.1,0-2.4,0.2-2.6,1.6C688.4,202.7,689.7,202.6,690.7,202.8z"/>
		<path fill="#6D6E70" d="M707.1,211c0,0,0.2,0.1,0.2,0.1c-0.4-1.9,1-2.6,2.2-3.4c0.2-0.2,0.7,0.2,0.6,0.5
			C709.7,209.7,708.9,210.9,707.1,211z"/>
	</g>
</g>
<g id="_x37_K4BgK.tif">
	<g>
		<path fill="#26A9E0" d="M329.4,127.4c1.6-4.4,3.3-8.8,4.6-13.3c0.6-2,1.5-2.4,3.4-2.4c9.2-0.2,12-2.2,14.9-11.2
			c4.6-14.7,9.1-29.5,13.5-44.4c0.9-2.9,2.1-4,5.1-3.6c5.2,0.6,10.4,0.9,16.3,1.3c-1.4,5.1-2.5,9.8-3.9,14.4
			c-4.5,14.9-8.8,29.8-13.9,44.5c-1.7,4.8-4.9,9.3-8.4,13c-2.3,2.4-6.3,4.3-9.6,4.5c-6.8,0.4-13.6-0.6-20.4-1.1c-0.5,0-1-0.6-1.5-1
			C329.3,127.9,329.3,127.6,329.4,127.4z"/>
		<path fill="#26A9E0" d="M469.1,91.9c3.4,0.5,6.3,0.9,10.2,1.4c-1.9,5.6-3.6,10.9-5.6,16c-0.2,0.5-1.6,0.9-2.4,0.9
			c-18.5-1.4-37.1-2.4-55.6-4.4c-13.1-1.4-22.8-13.2-22.7-27.4c0.1-17.2,5.4-33,16.3-46.4c10.6-13,24.9-17.4,41.2-15.6
			c9.3,1,18.1,3.7,24.5,10.9c9.3,10.4,10.4,22.6,6.1,35.3c-2.9,8.7-6.9,17.1-10.5,25.6C470.3,89.3,469.8,90.4,469.1,91.9z
			 M437.2,89.2c1,0.1,1.9,0.2,2.9,0.2c11,0.7,8.3,2.2,12-7.6c3.4-9.1,6.5-18.3,9.1-27.7c1.9-6.8-1.2-13.5-6.5-16.5
			c-7.3-4.2-19-3.5-25.2,2.2c-10.4,9.5-14,22.1-13.8,35.7c0.1,8,5.1,12.3,13.1,13C431.6,88.8,434.4,89,437.2,89.2z"/>
		<path fill="#26A9E0" d="M621.8,105.1c-1.5,5.5-2.9,10.7-4.4,15.7c-0.2,0.6-1.5,1.3-2.2,1.2c-13.4-1.2-26.9-1.6-40.1-4
			c-15.1-2.7-17.8-12.6-16.7-24c1-9.6,4-18.8,8.3-27.5c7.1-14.1,19-20.1,34.3-19.8c5.2,0.1,10.6,0.6,15.6,2
			c13.9,3.9,16.1,12.6,15,23.9c-0.5,5.4-2.6,10.6-3.6,16c-0.7,3.8-2.7,4.4-6.2,4c-12.2-1.1-24.4-2-36.6-2.8c-2.2-0.2-5.1-1.5-6.2,2
			c-0.9,3,0.8,7.2,3.8,8.3c3,1.1,6.3,1.8,9.6,2.2c8.3,0.9,16.6,1.4,24.9,2.1C618.5,104.6,619.8,104.8,621.8,105.1z M583.8,74.3
			c1.7,0.3,2.8,0.6,3.9,0.7c6.2,0.5,12.4,1,18.6,1.4c4.2,0.3,5.9-1.3,4.6-5.3c-0.7-2.2-2.5-4.7-4.5-5.6c-5-2.3-10.4-2.4-15.5,0.1
			C587.5,67.3,585.3,70,583.8,74.3z"/>
		<path fill="#26A9E0" d="M519.4,41.6c-4,14.7-7.9,28.7-11.7,42.6c-2.1,7.9,0.4,11.3,8.4,12c1.7,0.1,3.4,0.3,5.1,0.4
			c8.7,0.6,6.7,1.5,9.1-6.2c4.5-14.7,8.7-29.4,13.2-44.1c0.3-0.9,1.2-2.4,1.8-2.3c5.8,0.3,11.6,0.8,17.9,1.3
			c-2.5,8.5-4.8,16.7-7.2,24.8c-4.2,14.1-8.5,28.2-12.5,42.4c-0.8,2.8-2,3.4-4.6,3.1c-11.6-1-23.2-1.8-34.8-2.8
			c-11.3-1-18.4-9-17.2-20.3c0.8-7.8,2.8-15.6,4.7-23.2c2.2-8.7,5.2-17.2,7.6-25.9c0.7-2.5,1.8-3.1,4.1-3
			C508.6,40.7,513.9,41.1,519.4,41.6z"/>
		<path fill="#26A9E0" d="M770,50c-4.6,5.3-8.5,9.7-12.4,14.2c-12.9,14.7-25.7,29.5-38.9,44c-4.4,4.8-5.5,10.8-7.5,16.5
			c-1.1,3.1-2.5,4.3-5.7,3.9c-4.6-0.6-9.3-0.7-13.9-1c-2.4-0.2-3.9-1.1-2.5-3.6c6.6-11.7,2.6-23.4,0.2-35.1
			c-0.7-3.5-1.4-7.1-2.3-11.8c7.3,0.6,14,1,20.6,1.7c0.6,0.1,1.5,1.5,1.6,2.4c0.6,3,1,6,1.6,9.9c1.4-1.6,2.3-2.6,3.2-3.7
			c9.6-11.9,19.2-23.8,28.7-35.7c1.9-2.4,4-3.5,7.2-3.1C756.2,49.1,762.6,49.4,770,50z"/>
		<path fill="#26A9E0" d="M628.8,122.5c3.9-13.5,7.6-26.3,11.4-39.1c2.8-9.6,5.8-19.1,8.5-28.7c0.6-2.2,1.4-3,3.8-2.8
			c14.7,1.2,29.5,2.3,44.2,3.5c5.6,0.5,9.2,4,10.1,9.4c0.5,2.7,0.8,5.5,1.2,8.6c-2.4,0-4.2,0-6-0.1c-11.5-0.8-22.9-1.6-34.4-2.6
			c-3-0.3-4.3,0.5-5.2,3.6c-4.2,15.1-8.7,30.2-13,45.3c-0.8,2.9-2,4.5-5.5,4.1C639.2,123.1,634.2,122.9,628.8,122.5z"/>
		<path fill="#26A9E0" d="M394.2,31.9c-1.5,5.1-2.8,9.3-4.1,13.7c-0.6,2.1-1.6,3.2-4.2,3c-5.4-0.6-10.9-0.9-17.2-1.4
			c1.6-5.4,3-10.4,4.5-15.3c0.2-0.6,1.3-1.4,1.9-1.4C381.3,30.9,387.5,31.4,394.2,31.9z"/>
	</g>
</g>
</svg>
