<?xml version="1.0" encoding="utf-8"?>
<!-- Generator: Adobe Illustrator 17.1.0, SVG Export Plug-In . SVG Version: 6.00 Build 0)  -->
<!DOCTYPE svg PUBLIC "-//W3C//DTD SVG 1.1//EN" "http://www.w3.org/Graphics/SVG/1.1/DTD/svg11.dtd">
<svg version="1.1" id="Layer_1" xmlns="http://www.w3.org/2000/svg" xmlns:xlink="http://www.w3.org/1999/xlink" x="0px" y="0px"
	 viewBox="0 0 841.9 595.3" enable-background="new 0 0 841.9 595.3" xml:space="preserve">
<g id="_x37_3Xofi.tif">
	<g>
		<path fill="#8B4886" d="M769.8,98.1c0.1,2.3-1.4,2.6-3.3,2.9c-17.3,2.4-34.6,4.8-51.9,7.3c-2.3,0.3-2.7,0.9-1.6,3
			c8.1,14.6,28,16.6,37.7,3.4c1.5-2,3-3.1,5.5-3.3c3.4-0.2,6.7-0.8,10-1.3c1.8-0.2,2.5,0.1,1.7,2.1c-4.5,12.2-12.9,20.6-25.4,23.8
			c-20,5.1-39.1-5.9-44.8-24.5c-6-19.5,2.4-39.2,21-46.8c19.4-7.9,41.9,1.8,48.6,21.8c0.6,1.7,0.4,3.6,1.6,5
			C769.2,93.8,769.5,95.9,769.8,98.1z M753.9,90.4c-4.9-11.5-18-17.3-29.3-12.9c-7.8,3.1-12.8,9-14.4,17.4c-0.3,1.4,0.1,1.6,1.4,1.4
			C725.6,94.3,739.7,92.4,753.9,90.4z"/>
		<path fill="#D6C3D6" d="M101,88.9c0-0.1,0-0.3,0-0.4c4.2-0.6,8.4-1.2,12.6-1.8c0,0.1,0,0.3,0.1,0.4
			C109.4,87.7,105.2,88.3,101,88.9z"/>
		<path fill="#C2A4C0" d="M128.1,258.1c0-0.2,0-0.3-0.1-0.4c2.7-0.4,5.3-0.7,8-1.1c0,0.1,0,0.3,0,0.4
			C133.4,257.3,130.8,257.7,128.1,258.1z"/>
		<path fill="#8B4886" d="M136,256.5c-2.7,0.4-5.3,0.7-8,1.1c-23,2.3-43.5-4.1-61.6-18.3c-13.8-10.8-23.4-24.7-28.4-41.4
			c-7.7-25.6-4.4-50,10.3-72.6c11.2-17.2,27-28.5,46.3-35c2.1-0.7,4.2-1,6.4-1.5c4.2-0.6,8.4-1.2,12.6-1.8
			c22.2-1.7,41.9,4.5,59.3,18.1c13,10.1,22.3,22.9,27.7,38.3c8.6,25,6.5,49.3-6.9,72.3c-10.3,17.8-25.5,29.9-44.7,37.2
			C144.9,254.7,140.5,256,136,256.5z M188,163.3c-3.8-36.4-39.3-64.4-77.5-59.2c-37.7,5.2-62.7,40.5-59.1,74.8
			c4.2,40.8,40.9,67,77.9,61.8C169.8,235.1,193.6,197.2,188,163.3z"/>
		<path fill="#8B4886" d="M460.7,113c2.3-3.9,4.4-6.9,7-9.7c6.9-7.2,20.7-7.7,28.1-2c2.5,1.9,5.1,3.7,6.8,6.4c1.3,2,1.7,1,2.3-0.4
			c2.6-6.3,6.9-10.9,13-13.8c11.6-5.5,26.7-1.5,33,8.8c1.5,2.5,2.4,5.2,2.9,8.1c2,11,3.6,22.1,5.1,33.2c0.2,1.4,0.7,2,2.1,1.5
			c0.1,0,0.3-0.1,0.5-0.1c2.3-0.2,5.3-1.8,6.7-0.5c1.4,1.2,1,4.4,1.3,6.7c0.3,2,0.5,4.1,0.9,6c0.3,1.4-0.2,1.7-1.5,1.9
			c-10.4,1.4-20.8,2.9-31.2,4.4c-1.2,0.2-1.7,0-1.8-1.3c-0.5-4-1-7.9-1.7-11.9c-0.2-1.3,0.2-1.6,1.4-1.8c2.1-0.2,4.2-0.6,6.3-0.8
			c1.3-0.1,1.8-0.6,1.5-2c-1.9-8.4-2.5-16.9-3.9-25.3c-1.3-7.9-4.7-11.8-11.2-13.2c-7.3-1.5-16.5,3-18.6,12.8
			c-0.1,0.5,0,1.1,0.1,1.6c1.1,9.5,2.9,18.9,3.7,28.4c0.1,1.1,0.6,1.5,1.7,1.3c2.2-0.4,4.4-0.6,6.5-1c1.2-0.2,1.7,0.1,1.8,1.3
			c0.5,4,1,7.9,1.7,11.9c0.2,1.3-0.2,1.6-1.4,1.8c-10.4,1.4-20.8,2.9-31.2,4.4c-1.3,0.2-1.8-0.1-1.9-1.4c-0.4-3.8-1-7.6-1.6-11.4
			c-0.3-1.6,0.3-2,1.8-2.2c1.9-0.2,3.9-0.6,5.8-0.8c0.9-0.1,1.5-0.4,1.3-1.5c-1.7-10.3-2-20.8-5.3-30.7c-2.2-6.6-9.2-9.6-16-8
			c-7.2,1.6-10.6,6.8-11.8,13.5c-0.4,2.3,0,4.8,0.3,7.2c0.9,7.2,2,14.3,2.9,21.4c0.2,1.5,0.7,2.1,2.2,1.8c1.9-0.4,3.9-0.5,5.8-0.8
			c1.2-0.2,1.6,0.2,1.8,1.4c0.5,4,1.1,7.9,1.7,11.9c0.2,1.1-0.1,1.5-1.2,1.7c-10.6,1.4-21.1,2.9-31.7,4.4c-0.9,0.1-1.4,0-1.6-1.1
			c-0.5-4.1-1.1-8.2-1.7-12.3c-0.2-1,0.2-1.4,1.2-1.5c2.1-0.2,4.2-0.6,6.3-0.8c1.3-0.1,1.7-0.5,1.5-1.9c-1.8-12.7-3.6-25.5-5.4-38.2
			c-0.2-1.4-0.7-1.7-2-1.4c-2.1,0.4-4.2,0.6-6.3,0.9c-1,0.2-1.4-0.1-1.5-1.1c-0.5-4.1-1.1-8.2-1.7-12.3c-0.2-1.1,0.2-1.4,1.2-1.5
			c7-1,14-1.9,21-3c1.4-0.2,1.6,0.4,1.7,1.5C459.8,106.4,460.2,109.3,460.7,113z"/>
		<path fill="#8B4886" d="M345.9,127.9c-0.4-2.7-0.7-5.4-1.2-8.1c-0.2-1.3-0.1-1.9,1.5-2.1c7.3-0.9,14.6-2,21.9-3.1
			c1.2-0.2,1.7,0.1,1.8,1.3c0.5,4,1,7.9,1.7,11.9c0.2,1.3-0.2,1.6-1.4,1.8c-1.9,0.2-3.9,0.6-5.8,0.8c-1.1,0.1-1.4,0.5-1.3,1.6
			c1.8,12.9,3.7,25.8,5.4,38.6c0.2,1.2,0.6,1.4,1.7,1.2c2-0.3,4-0.5,6-0.9c1-0.2,1.4,0.1,1.5,1.1c0.5,4.1,1.1,8.2,1.7,12.3
			c0.2,1.1-0.3,1.3-1.2,1.5c-7.5,1-14.9,2.1-22.3,3.1c-1.1,0.2-1.5-0.1-1.7-1.3c-0.3-2.6-0.7-5.2-1.2-8.4c-1.6,2.4-2.8,4.1-4.2,5.7
			c-6,6.8-13.8,9.4-22.6,9.1c-16.3-0.5-27.7-8.6-33.7-23.5c-7.9-19.7,2.1-41.3,20.9-48.8c8.5-3.4,17.1-3.9,25.4,1
			C341.3,124.3,343.5,126,345.9,127.9z M349.6,153.4c-1.3-11.7-12.2-19.6-23-18.7c-13.8,1-20.9,13.7-20.1,23.5
			c1.1,14.5,14.4,21,22.8,20.3C342.9,177.6,351.6,164.6,349.6,153.4z"/>
		<path fill="#8B4886" d="M632.5,87.9c1.8-2.3,2.7-4.4,4.2-6.2c7.8-9.2,22.4-10.8,32.8-5.2c7,3.8,11.3,9.6,12.3,17.5
			c1.4,10.6,3.5,21,4.9,31.6c0.2,1.5,0.7,1.9,2.1,1.5c0.1,0,0.2,0,0.2,0c2.2-0.1,5.1-1.7,6.5-0.4c1.3,1.2,0.9,4.2,1.3,6.5
			c0.3,2.1,0.5,4.2,0.9,6.3c0.2,1.1,0,1.7-1.3,1.9c-10.3,1.4-20.7,2.9-31,4.3c-1.2,0.2-1.7-0.1-1.8-1.3c-0.5-4-1-7.9-1.7-11.9
			c-0.2-1.3,0.3-1.7,1.4-1.7c0.2,0,0.3,0,0.5-0.1c2.2-0.5,5.3,0.3,6.4-1.4c0.9-1.4-0.3-4.2-0.6-6.3c-0.9-6.8-1.9-13.7-2.9-20.5
			c-1.1-7.4-5.5-12.3-13-12.8c-8.6-0.6-16.9,3.2-18.3,13.4c-0.3,2.4-0.1,5,0.2,7.4c0.9,7.2,2,14.4,3,21.7c0.2,1.6,0.8,2,2.3,1.7
			c0.9-0.2,1.9-0.3,2.8-0.4c4.5-0.6,4.5-0.6,5.2,4c0.4,2.8,0.7,5.6,1.2,8.4c0.2,1.3,0.1,1.9-1.5,2.1c-10.4,1.4-20.8,2.9-31.2,4.4
			c-1.2,0.2-1.7-0.1-1.8-1.3c-0.5-4-1-7.9-1.7-11.9c-0.2-1.3,0.2-1.6,1.4-1.8c2.1-0.2,4.2-0.6,6.3-0.8c1.1-0.1,1.4-0.5,1.3-1.7
			c-1.8-12.9-3.7-25.8-5.4-38.7c-0.2-1.2-0.7-1.4-1.7-1.2c-2.2,0.4-4.4,0.6-6.5,1c-1,0.2-1.4-0.1-1.5-1.1c-0.5-4.1-1.1-8.2-1.7-12.3
			c-0.2-1.1,0.3-1.3,1.2-1.5c7.5-1,14.9-2.1,22.4-3.1c1.1-0.2,1.5,0.2,1.6,1.3C631.6,81.9,632,84.6,632.5,87.9z"/>
		<path fill="#8B4886" d="M276.1,147.8c1.2,8.6,2.5,17.2,3.6,25.8c0.7,5.5,0.4,10.8-2.4,15.9c-10,18.6-36.3,20-48.4,6.9
			c-3.8-4.1-5.5-9.1-7-14.3c-0.3-1,0.1-1.4,1.1-1.5c5.3-0.7,10.6-1.4,15.8-2.2c1.1-0.2,1.4,0.2,1.8,1.2c1.6,4.3,3.9,8,9,8.8
			c6.2,1,12-3.9,12.1-10.2c0-2.1-0.1-4.1-0.4-6.1c-2.3-16.1-4.5-32.3-6.7-48.4c-0.2-1.8-0.8-2.2-2.5-1.9c-2.2,0.5-4.5,0.6-6.7,1
			c-1.1,0.2-1.5-0.2-1.6-1.3c-0.5-4-1.1-7.9-1.7-11.9c-0.2-1.2,0-1.7,1.3-1.8c11.9-1.6,23.7-3.3,35.6-5c1.2-0.2,1.6,0.1,1.8,1.4
			c0.5,4,1,7.9,1.7,11.9c0.2,1.3-0.3,1.6-1.4,1.7c-2.3,0.3-4.7,0.7-7,0.9c-1.4,0.1-1.6,0.7-1.4,1.9c1.3,9,2.6,18,3.8,27
			C276.4,147.7,276.2,147.7,276.1,147.8z"/>
		<path fill="#8B4886" d="M396.3,177.2c0,0.5-0.1,0.7,0,0.9c0.6,5.2,0.6,5.2-4.5,5.9c-1.9,0.3-3.7,0.5-5.6,0.8
			c-1,0.2-1.4-0.1-1.5-1.1c-0.8-6-1.6-12-2.5-17.9c-0.2-1.1,0.2-1.4,1.2-1.5c4.6-0.5,9.2-0.9,13.8-1.5c1.5-0.2,1.5,0.9,1.8,1.6
			c2.7,5.4,7.4,7.9,13.2,6.8c6.4-1.2,9.8-7.8,6.9-13.4c-1.2-2.3-3.2-3.3-5.5-4c-4.6-1.3-9.3-1.4-14-2.3c-3.4-0.6-6.7-1.3-9.9-2.6
			c-10.1-4-14.8-14.9-11.1-25.2c4.9-13.7,24.5-17.9,33.7-12.6c0.9,0.5,1.9,2,2.7,1.5c1-0.6,0.1-2.1,0-3.2c-0.1-1,0.2-1.4,1.2-1.5
			c3-0.4,5.9-0.8,8.8-1.2c1.1-0.2,1.5,0,1.7,1.2c0.7,5.4,1.5,10.9,2.3,16.3c0.2,1.1-0.2,1.5-1.3,1.6c-4.2,0.4-8.4,0.8-12.6,1.4
			c-1.2,0.2-1.6-0.4-1.9-1.2c-1.7-4.4-7.5-6.9-12.9-4.4c-3.4,1.6-5.6,4.5-5.3,7.5c0.3,3.9,2.6,6.6,6.6,7.5c3.3,0.7,6.7,1,10.1,1.5
			c4.5,0.6,9,1.2,13.2,2.8c7.1,2.7,11.5,7.4,12.4,15.2c1.5,12.1-4.5,21.4-16.4,24.9C410.9,183.8,405.5,183,396.3,177.2z"/>
		<path fill="#8A4785" d="M595.4,111.5c1.2,8.7,2.5,17.4,3.6,26.1c0.2,1.6,0.6,2.2,2.3,1.8c1.8-0.4,3.7-0.5,5.6-0.9
			c1.5-0.3,1.9,0.2,2,1.6c0.4,3.8,1,7.6,1.6,11.4c0.2,1.3-0.1,1.8-1.4,1.9c-10.4,1.4-20.8,2.9-31.2,4.4c-1.1,0.2-1.7,0-1.8-1.3
			c-0.5-4-1-7.9-1.7-11.9c-0.2-1.2,0.2-1.7,1.4-1.8c2.1-0.2,4.2-0.6,6.3-0.8c1.1-0.1,1.5-0.5,1.3-1.6c-1.8-12.9-3.7-25.8-5.4-38.7
			c-0.2-1.2-0.6-1.4-1.7-1.2c-2.2,0.4-4.4,0.6-6.5,1c-1,0.2-1.4-0.1-1.5-1.1c-0.5-4.1-1.1-8.2-1.7-12.3c-0.2-1.1,0.3-1.3,1.2-1.5
			c7.5-1,14.9-2,22.4-3.2c1.7-0.2,1.6,0.7,1.7,1.7C593,93.9,594.2,102.7,595.4,111.5z"/>
		<path fill="#8A4785" d="M573.4,70c-0.3-2.3-0.6-4.7-1-7c-0.2-1,0.1-1.4,1.1-1.5c4.4-0.6,8.9-1.2,13.3-1.9c1.1-0.2,1.4,0.2,1.5,1.2
			c0.6,4.7,1.3,9.3,2,14c0.2,1.1-0.1,1.5-1.2,1.7c-4.4,0.6-8.7,1.2-13,1.8c-1.2,0.2-1.5-0.2-1.6-1.3C574.1,74.7,573.8,72.4,573.4,70
			z"/>
		<path fill="#8A4785" d="M124.6,134.6c0.7,5.1,1.4,10.2,2.2,15.3c0.5,3.4-2.1,6.9-5.5,7.4c-1.7,0.2-3.4,0.6-5.1,0.7
			c-1.6,0.1-3.5,1.4-4.9,0.1c-2.1-1.9-4-3.8-4.4-7.1c-1.1-9.8-2.6-19.5-4.1-29.3c-0.3-1.7,0.1-2.3,1.9-2.5
			c5.1-0.6,10.3-1.3,15.3-2.2c1.8-0.3,2.2,0.2,2.4,1.9C123,124.2,123.8,129.4,124.6,134.6z"/>
		<path fill="#8B4886" d="M106.8,163.5c-0.6,3.7-1.2,7.5-1.9,11.3c-0.2,1.1-4.6,3.1-6,2.9c-10.6-1.8-21.1-3.6-31.6-5.8
			c-1.5-0.3-2.1-1-1.8-2.5c0.9-4.9,1.7-9.8,2.6-14.7c0.2-1.4,0.7-2.1,2.5-1.7c10.5,2,21.1,3.8,31.6,5.6
			C103.8,158.9,106.7,161.9,106.8,163.5z"/>
		<path fill="#8B4886" d="M140.8,171.7c-3.5,0.5-5.3-0.3-6.7-3.2c-1.1-2.2-2.2-4.4-3.3-6.7c-1.2-2.4,0-6.3,2.4-7.5
			c9.8-4.8,19.7-9.6,29.5-14.4c1-0.5,1.4-0.2,1.8,0.6c2.5,5,4.9,10,7.4,15c0.4,0.8,0.2,1.2-0.6,1.6c-9.9,4.7-19.7,9.5-29.6,14.3
			C141.4,171.6,140.9,171.7,140.8,171.7z"/>
		<path fill="#8B4887" d="M119.5,190.5c0.4,1.2,0.3,1.9-0.2,2.8c-5.1,9.4-10.2,18.8-15.3,28.3c-0.9,1.6-1.6,1.9-3.2,1
			c-4.3-2.4-8.6-4.8-12.9-7.1c-1-0.6-1.7-1-0.9-2.5c4.8-9.1,9.5-18.4,14.6-27.3c2.4-4.2,5-4.9,9.3-2.7c1.5,0.8,3,1.8,4.6,2.4
			C118.1,186.2,119.4,188.1,119.5,190.5z"/>
		<path fill="#8B4887" d="M125.1,188.9c-0.8-1.7-0.1-3,1.3-4.2c1.8-1.6,3.4-3.4,5.2-5.1c3-2.8,6.1-2.8,9.1,0
			c6.1,5.6,11.7,11.8,17.4,17.7c1.6,1.6,3.1,3.3,4.6,5c0.8,0.8,0.8,1.5,0,2.3c-3.7,3.6-7.4,7.2-11,10.9c-1.1,1.1-1.7,0.8-2.7-0.1
			c-5.9-5.6-11.5-11.5-17.1-17.4c-1.7-1.7-3.3-3.6-5-5.2C125.8,191.8,125,190.6,125.1,188.9z"/>
		<path fill="#8A4785" d="M122.9,213.9c-0.5-3.8-1-7.6-1.6-11.4c-0.2-1.5,0.1-2,1.6-2.2c3.3-0.4,3.2-0.5,3.7,2.7
			c1,7.2,1.9,14.4,3.1,21.6c0.4,2.5-1.3,1.9-2.5,2.2c-1.3,0.2-2.5,0.8-2.7-1.5C124.1,221.5,123.4,217.7,122.9,213.9z"/>
		<path fill="#8C4B88" d="M147.7,123.9c-0.3,0.8-0.4,1.5-0.8,2.1c-3.4,6.5-6.9,13-10.3,19.5c-1.3,2.4-2.5,0.7-3.8,0.3
			c-1.6-0.6-1.2-1.4-0.6-2.5c3.6-6.7,7.1-13.4,10.7-20.1c0.3-0.6,0.5-1.7,1.6-1.2C145.7,122.4,147,122.8,147.7,123.9z"/>
		<path fill="#8B4A87" d="M94.2,185.5c0.5,1-0.3,1.3-1,1.6c-7,3.4-14,6.7-20.9,10.2c-1.1,0.5-1.6,0.3-2-0.6c-0.4-1.1-2-2.2-0.3-3.5
			c0.9-0.6,1.9-1.1,2.9-1.6c5.7-2.8,11.4-5.6,17.1-8.4C92.6,181.9,93.7,182.5,94.2,185.5z"/>
		<path fill="#8C4B88" d="M82.8,130.3c0.5-0.1,0.9,0.2,1.2,0.6c5.6,5.7,11.2,11.5,16.8,17.3c1.3,1.3-0.3,1.7-0.8,2.3
			c-0.8,0.9-1.6,2-3,0.5c-4.4-4.5-8.9-9-13.3-13.5c-0.8-0.8-1.7-1.7-2.4-2.6c-0.5-0.6-1.5-1.1-0.9-2.2
			C80.9,131.7,81.8,130.9,82.8,130.3z"/>
		<path fill="#8B4987" d="M173.3,183.4c-0.8,0-1.1,0.1-1.3,0c-7.4-1.3-14.8-2.4-22.2-4.1c-1.8-0.4-1.8-1.5-1.5-3
			c0.3-1.7,1.2-1.7,2.5-1.5c7.3,1.3,14.7,2.5,22,3.8c1.1,0.2,2.1,0.6,1.8,1.9C174.3,181.6,174.9,183.4,173.3,183.4z"/>
	</g>
</g>
<g id="Og1VUE.tif">
	<g>
		<g>
			<path fill="#473217" d="M706.3,426.5c5.8,4.4,8.5,10.6,10.5,16.9c1.1,3.5,2.1,7.3,2.1,11.3c0,4.5-0.1,9.1-1.1,13.3
				c-2.5,10.9-7.1,20.6-16.9,27.5c-5.6,3.9-11.6,6.3-18,8.3c-2.1,0.7-2.7,2.9-3.7,4.4c-5.3,7.6-12.2,13.3-20.3,17.5
				c-7.2,3.7-15,6-23.2,5.8c-2.8-0.1-5,1.7-7.1,2.8c-7.6,4.2-15.9,5.7-24.3,6.4c-12.8,1-25.6-0.4-37.7-4.5c-5.9-2-12.2-4-16.5-9.1
				c-2.9-3.3-7.3-3.3-11-4.4c-13.6-4.3-24.1-12.2-31.4-24.3c-1-1.7-2.2-3.2-2.8-5.2c-0.9-3-3.3-4.8-6.1-6
				c-10.8-4.5-17.9-13-22.1-23.3c-3.7-9.1-4-19-1.9-28.9c1.7-8.1,5.3-14.9,10.5-21.1c1.8-2.1,4.2-3.3,6.5-5.3
				c1,11.4,6.4,20.3,14.2,28.6c1.8-5.9,2.6-11.4,3.3-16.9c1-7.4,2.4-14.8,2.8-22.3c0.3-6.6-1.5-12.9-7.5-17c-4.3-2.9-8.4-6-13.1-8.4
				c-5.9-2.9-10.2-7.8-13.8-13c-6.4-9.1-3.5-22.7,7.7-27.8c3.9-1.8,7-5,7.8-9.8c0.9-5.1,1.1-10.2,1.6-15.3c0.1-1.2-0.4-2.3-1-3.4
				c-3.5-5.1-5.7-10.7-6.5-16.9c-1.1-8.5,4.2-15.6,12.1-18.3c3.3-1.2,6.8-1.9,10.3-1.5c2.5,0.2,3.3-1,3.5-3.2
				c0.4-3.5,1.8-6.8,0.7-10.4c-1.5-5.2-5.3-8.4-9.6-10.8c-5.3-2.9-10.9-5.5-17.5-6.1c3.8-6.4,9.8-9.1,15.6-11.5
				c5.4-2.2,11.2-3.1,17.2-3.1c10.9,0.1,20.9,2.8,30.4,8.6c8,5,13.6,12,19.6,18.8c0.8,0.9,1.5,1.7,1.9,3c0.4,1.5,1.9,1.3,3,0.8
				c1-0.4,2.6,0,2.7-2.1c0.1-6.2,3-11.2,6.7-16.2c3-4,6.5-7,10.7-9.5c1.1-0.7,2.2-2,3.5-1.3c1.2,0.7,0.8,2.5,0.5,3.6
				c-0.9,4.7,0.6,8.8,3,13.8c2.6-6.5,5.6-12.5,11.3-15.9c5.4-3.3,11-6.7,17.7-7.2c-3.2,7.8-3.1,15.4-0.4,23.1
				c6.4-4.1,12.7-7.5,20.3-7.8c2.3-0.1,3.8,0.1,1.9,2.7c-2.5,3.5-3.8,7.4-5.6,11.2c-1.5,2.9-0.7,6.1-1.1,9.1
				c-0.3,1.8,5.5,3.7,7.1,2.4c4.8-4.1,9.3-8.5,14.6-11.9c7.5-4.7,15.1-8.6,24.2-9.8c7.2-0.9,14.1-0.8,21.1,0.7
				c10.3,2.3,18.8,7.7,25.6,15.8c0.7,0.8,1.4,2,1.1,2.8c-0.4,1.1-1.8,0.4-2.8,0.5c-9.6,1.3-19.3,2.3-25.7,10.9
				c-2.2,3-1.6,6.7-1.8,10.2c-0.4,4.7,3.3,5.5,6.6,6.1c4.6,0.9,8.2,3,11.5,6.4c7.2,7.7,5.1,16.4,0.8,23.4c-1.8,3-3.1,6.7-6.7,8.6
				c-0.5,0.3-0.7,1.5-0.7,2.3c-0.5,5.1-1.2,10.3-1.2,15.4c0,4,1.6,7.6,5.1,10.1c3.7,2.6,6.4,5.8,8.1,10c3.6,9,0.1,17.6-6.8,23.1
				c-5.9,4.7-13,7.8-20.2,10.4c-6,2.1-11.9,4.9-15.1,11.2c-1.5,2.9-1.8,6.2-2.2,9.2c-0.7,6.9-0.3,13.9-0.9,20.8
				c-0.4,4.3,0.6,8.6-0.2,12.9c-0.2,1.1,0.1,3.1,0.8,3.5c1.3,0.7,2.1-1.1,3.1-1.8c6.2-4.4,10.1-10.7,13.6-17.2
				C705.4,430.7,705.7,428.7,706.3,426.5z M644.5,305L644.5,305c2-0.8,3-2.7,4.6-3.9c7.7-5.5,15.6-10.6,24.5-13.9
				c2.1-0.8,1.5-1.4,0.5-2.6c-4.1-4.8-9.8-7.3-15.2-10.1c-0.6-0.5-1.2-1.3-1.9-1.6c-10.6-4.5-21.5-8.2-32.8-9.8
				c-9.9-1.4-19.9-2.4-30-1.8c-2.9,0.2-5.9,0.5-8.8,0.7c-6.9,0.5-13.7,1.6-20.1,4.4c-6.4,0.6-11.8,3.8-17.1,7
				c-3.1,1.9-3,2.5,0.1,4.2c5.1,2.6,9.5,5.9,13.7,9.9c3.9,3.8,7.4,7.9,11.2,11.7l0,0c0.2,0.3,0.4,0.5,0.6,0.8
				c2.4,3.2,4.3,6.7,6,10.3c-0.1,0.1-0.2,0.2-0.3,0.3c-1.7-0.5-2.9-1.6-4-2.8c-6.5-7.1-14.9-11.7-22.6-17.1
				c-5.8-4.1-12.4-7.2-19.3-9.8c-4.1-1.5-8.3-2.6-12.4-3.8c-5.6-1.6-11.6-2-17.5-0.7c-2.7,0.6-6.5,4.8-6.3,7.4
				c0.3,5.6,2.3,10.6,6.5,15.2c0.3-2.3,0.5-4,0.9-6.7c2.3,6.8,2.2,12.9,2,19c0,7.8-2.6,15-5.7,22c-1.3,2.9-3,5.6-4.6,8.3
				c-0.3,0.5-0.7,1.1-1.4,0.9c-0.8-0.2-0.5-1-0.5-1.5c-0.1-1.3,0.9-2.5,0.2-4.1c-2.8,2.5-6.5,3.8-7.5,8.1c-1.6,7.1,0.3,12.5,6.6,17
				c5.1,3.6,10.2,7.3,15.7,10.3c10.4,5.7,13.6,17,12.6,27.2c-0.6,6.7-1.2,13.5-2.4,20.3c-1.1,5.8-1.7,11.6-2.7,17.4
				c-1.1,6.1-1.1,6.1,4.4,8.6c0.3,0.1,0.6,0.3,0.9,0.5c2.9,1.5,6.3,1,9.2,2.2c3.2,1.5,6.7,0.5,9.9,1.8c0.7,0.3,1.1-0.6,1.6-1.2
				c2.2-2.5,3-5.8,4.6-8.7c4.2-7.8,8.8-15.4,12.4-23.5c0.3-0.3,0.5-0.5,0.8-0.8c0.7-0.1,0.8-0.7,0.8-1.3c1.5-2.3,2.1-5.1,4.5-6.8
				c0.2,0.2,0.4,0.3,0.5,0.5c-0.7,8.6-4.6,16.3-7.3,24.3c-1,2.9-2.2,5.9-3.5,8.8c-2.7,5.9-5.4,11.9-8.4,18.4
				c5.5-0.9,10.5,0.3,15.6,0.5c10.7,0.5,21.4,1.6,32.2,2.5c6.5,0.6,13,0.8,19.4,1.6c8.3,1,16.7,1.6,25,2.4c2.6,0.2,3.2-0.8,2.5-3.1
				c-3-9.5-5.2-19.2-7.1-29c-1.4-7.3-1.7-14.8-3-22.2c2.4,2.4,3.8,5.2,4.4,8.5c0,0.6,0.1,1.2,0.7,1.5c0,0.2,0.1,0.4,0.2,0.5
				c1.6,4.4,3.6,8.7,4.6,13.2c1,4.3,3,8.1,3.9,12.4c2.2,10.2,2.7,10.5,13.1,10.2c0.6,0,1.2,0,1.8,0c3.2,0.7,6.2-0.9,9.3-0.7
				c1-0.2,2.1-0.6,3.1-0.6c3.6,0.1,4-2.6,3.9-5.1c-0.4-6.7-0.1-13.4,0-20c0.1-9.2,0.3-18.4,2.3-27.4c0.9-4,2.9-7.7,5.6-10.8
				c4.1-4.7,9.8-6.7,15.3-9.1c6.3-2.8,13-4.7,17.9-10.2c4.2-4.7,4.9-12.1,0.4-16.5c-1.1-1.1-1.9-3.5-3.6-2.7
				c-1.3,0.6,0.4,2.5,0.2,3.9c-0.1,0.7,0,1.4-0.1,2.1l0,0c-4.1-4.3-4.9-10.1-6.3-15.4c-1.5-5.6-1.4-11.6-1.6-17.4
				c0.8-1,0.8-2.2,1-3.3c0.6-4.9,2-9.6,4.1-14.2c0.2,1.6,0.5,3.2,0.8,5.3c2.9-3.9,6.1-6.9,7.5-11.4c1.6-4.8,0.7-8.9-3.7-11.2
				c-2.1-1.1-4.4-2.1-6.7-2.3c-11-1-21.8,0.3-32.4,3.5c-5.5,1.6-10.6,4.2-15.9,6.3c-6,2.4-11.3,6.1-17.2,8.6
				c-3.1,1.3-5.1,4.5-8.9,4.7c2.1-3.9,5.1-6.7,8-9.6C644,305.6,644.2,305.3,644.5,305z M524.5,474.4c1.6-6.6,7.8-9.9,11.6-15.3
				c-6.9-1.1-13.1-2.6-19.2-4.6c-8.2-2.7-15.2-7.4-21.1-13.3c-3.2-3.3-6.1-7.3-7-12.3c0-0.7,0-1.6-0.7-1.9c-1.1-0.5-0.8,0.8-1.3,1.2
				c-1.5,1.4-1.8,3.2-2.1,5.1c-0.6,4.1-1.1,8.1-1.2,12.3c-0.2,7.5,1.2,14.7,5.4,20.7c5.2,7.5,12.5,12.8,21.3,15.9
				c4.8,1.7,9.6,2.8,15,3.4C524.1,481.9,524.7,478.2,524.5,474.4z M706.5,446.8c-0.8,2.6-3.1,4-4.5,6.1c-3.4,5.1-8.5,8.2-13.9,10.5
				c-7.7,3.3-15.9,5.1-24.4,5.5c-3,0.1-6-1-9.3,0.3c3.8,5.6,8.4,10.5,9.4,17.3c-1.5,2.5-0.4,5.8-1.9,8.2c-1.7,2.6-0.3,2.6,1.5,2.5
				c1.9-0.1,3.8-0.7,5.6-0.6c8.2,0.5,15.6-2.3,22.3-6.1c7.6-4.3,13.3-10.8,15.9-19.8c1.1-3.9,1.7-7.8,2.1-11.7
				c0.5-4.1,0.8-8.5-0.8-12.6c-0.2-0.6-0.1-2-1.4-1.6C706.5,445.2,706.6,446.1,706.5,446.8z M645.2,505.9c0.6-0.3,0.7-0.8,0.7-1.4
				c2.7-3,3.7-7,5.6-10.4c2.6-4.9,2.2-10.6-1.5-14.4c-1.8-1.8-4-2.4-6.3-3c-4.1-1.1-8.3-1.4-12.6-1.6c-10.6-0.7-21.1-1.8-31.7-2.7
				c-6.6-0.6-13.2-0.9-19.8-1.5c-11.8-1.1-23.6-2.8-35.5-2.3c-4.5,0.2-9.6,4.4-9.8,8.3c-0.4,7.4,1.5,14.2,5.2,20.6
				c0.2,0.2,0.3,0.5,0.5,0.7l0,0c0.5,1.8,0.9,3.6,2,5.3c3.5,5.1,6.9,10.2,11.5,14.4c8.3,7.5,18.2,11.4,29,13.1
				c6.8,1.1,13.8,1.8,20.7,0.9c6.3-0.8,12.5-1.8,18.3-4.7c4.9-2.4,9.4-5.2,13.5-9C639.1,514.3,642.3,510.3,645.2,505.9L645.2,505.9z
				 M508.4,233.1c3.2,4.6,7.9,3.6,11.9,4c14.1,1.2,23.7,8.8,30.6,20.6c2.2,3.7,4.2-0.8,6.4-0.1c1,0.3,2.4-0.2,2.8-1.6
				c0.1-0.3-0.3-0.9-0.6-1.2c-2.8-3.2-4.6-7.1-7.9-9.9c-5.5-4.8-10.5-10-18.1-12c-3.7-0.9-7.5-1.6-11.1-1.8
				C517.8,230.8,512.9,231,508.4,233.1z M719.6,250.6c-3.7-1.4-7.1-3.3-11.1-3.9c-7.5-1.2-14.8-1.2-21.9,1.4
				c-7.8,3-14.3,8.2-20.2,14c-0.7,0.7-1.8,1.7-1.7,2.2c0.9,3,4.6,2.3,6.2,4.6c0.6,0.8,1.3,0.4,1.7-0.3c2.4-4.8,7-7.2,11.1-10.2
				c7.2-5.2,15.7-7.1,24.1-5.8C712.4,253.2,715.8,251.7,719.6,250.6z M521.1,244c4.1,6.1,3.5,12.1,3.4,18c-0.1,4.3,2.1,6.7,6.2,8.1
				c3.2,1.1,5.4,0.9,7.1-2.2c0.4-0.6,1.3-1,2-1.5c1.9-1.2,2.4-2.9,1.6-4.9c-1.1-2.6-2.1-5.3-3.6-7.7
				C534.1,248,528.1,246.1,521.1,244z M704.6,259.3c-8.9,0.5-15.8,3.1-20.1,10.4c-1.1,1.8-3,3.1-3.3,5.4c-0.3,2.7,2.5,3.1,3.5,4.9
				c0.4,0.7,0.8,1.5,1.2,2.1c0.4,0.7,0.9,1.2,1.9,1.5c5.1,1.2,9.2-1.6,10.3-6.7C699.4,271,699.9,264.8,704.6,259.3z M517.1,494
				c2.8,6.1,13.2,15.7,18,17c-0.8-4.7-4.7-8.2-5.3-13.2c-0.1-0.9-0.9-1.8-2-1.8C524.2,496.3,521,494.3,517.1,494z M668.2,506.1
				c-3.6,0.3-6.5,1.1-9.4,0.5c-1.8-0.4-3.1,0.5-4.3,2.3c-2.5,3.9-4.8,7.9-8.5,12C654.8,517.8,662.2,513.8,668.2,506.1z"/>
			<path fill="#F6A71B" d="M560.9,416.4c-0.3,0.3-0.5,0.5-0.8,0.8c-1.5-0.1-2,0.9-2.7,1.9c-0.9,1.4-1.8,2.8-2.9,4
				c-5.3,6.1-10.7,12.1-15.9,18.3c-2.2,2.6-4.2,5.4-7.1,7.3c-3-1.2-6.3-0.7-9.2-2.2c9.4-19.7,12.3-40.7,13.1-62.2
				c-2.9,2.5-2,7.3-6.2,10.2c1.6-4.1,1-7.5,0.5-10.6c-1-6.3-2.3-12.9-8.8-16.2c-3.2-1.7-6.1-4-9.6-5.3c-4.9-1.8-9.2-4.8-13.2-8.2
				c-1.3-1.2-2.4-2.3-0.7-4.1c5.2-5.7,8-12.6,9-20.2c0.8-6.1,2.1-12.3,0.1-18.4c0.3-6.1,0.4-12.1-2-19c-0.4,2.7-0.6,4.4-0.9,6.7
				c-4.2-4.6-6.2-9.6-6.5-15.2c-0.1-2.7,3.6-6.8,6.3-7.4c5.9-1.3,11.9-0.9,17.5,0.7c4.1,1.2,8.3,2.3,12.4,3.8
				c6.9,2.5,13.5,5.6,19.3,9.8c7.7,5.4,16.1,10,22.6,17.1c1.1,1.2,2.4,2.3,4,2.8c0.1,0.1,0.4,0.4,0.4,0.4c0.4-0.3,0.2-0.5-0.1-0.8
				c-1.7-3.6-3.6-7.1-6-10.3c-0.2-0.3-0.4-0.5-0.6-0.8c0,0,0,0,0,0c-1.1-7.5-5.3-13.5-8.7-20c-2.1-4.1-2-9.3,0.8-12.8
				c6.4-2.8,13.2-3.9,20.1-4.4c2.9-0.2,5.9-0.5,8.8-0.7c10.1-0.7,20.1,0.4,30,1.8c11.4,1.6,22.2,5.4,32.8,9.8c0.7,0.3,1.3,1,1.9,1.6
				c1.6,7.1-2.6,12-6.3,17.3c-3,4.2-6.5,8.1-8,13.2c0,0,0,0,0,0c-0.2,0.3-0.4,0.5-0.6,0.8c-2.9,2.9-5.9,5.7-8,9.6
				c3.9-0.2,5.9-3.5,8.9-4.7c5.9-2.5,11.2-6.1,17.2-8.6c5.3-2.2,10.4-4.7,15.9-6.3c10.6-3.2,21.4-4.4,32.4-3.5
				c2.3,0.2,4.6,1.2,6.7,2.3c4.4,2.3,5.2,6.4,3.7,11.2c-1.5,4.5-4.6,7.5-7.5,11.4c-0.3-2.1-0.6-3.7-0.8-5.3
				c-2.1,4.6-3.5,9.3-4.1,14.2c-0.1,1.2-0.1,2.4-1,3.3c-2.3,7.4-2.7,15-2,22.6c0.6,5.8,2,11.2,5.8,15.9c1.6,2-0.4,3.3-1.7,3.9
				c-6.3,2.9-12.4,6.2-19.3,7.5c-9.9,1.8-14.9,8.6-17,17.5c-0.7,2.8-1.4,5.6-1.7,9.3c-2.4-3.6-1.3-7.5-3.9-10.5
				c-0.5,6.3-1.1,12.4-1.5,18.4c-0.4,6.2-0.5,12.3-0.1,18.6c0.5,8.9,2.4,17.5,4.4,26.1c-3.1-0.2-6.1,1.4-9.3,0.7
				c-6.9-9-12.4-18.9-18.1-28.6c-1.5-2.5-2.4-5.7-5.4-7.1c-0.1-0.2-0.2-0.3-0.2-0.5c0.1-0.7,0-1.2-0.7-1.5c-0.6-3.3-2-6.2-4.4-8.5
				c1.2,7.4,1.5,14.9,3,22.2c1.9,9.8,4.1,19.4,7.1,29c0.7,2.2,0.1,3.3-2.5,3.1c-8.3-0.8-16.7-1.4-25-2.4c-6.4-0.8-13-1-19.4-1.6
				c-10.7-0.9-21.4-1.9-32.2-2.5c-5.1-0.2-10.1-1.4-15.6-0.5c3-6.4,5.7-12.4,8.4-18.4c1.3-2.9,2.5-5.9,3.5-8.8
				c2.8-8,6.6-15.7,7.3-24.3c1.4-0.5,1.3-1.6,1-2.8c-1.2,0.5-1.2,1.5-1.6,2.3c-2.4,1.7-3,4.5-4.5,6.8
				C561.1,415.3,560.9,415.8,560.9,416.4z M623,327.2c1.5-1,3.2-1.9,4.2-4.3c-14.3,2.6-28,2.2-41.2-3.8c1.3,2,2.3,4,4.1,5.4
				c4.4,5.4,9.2,10.2,16.8,10.8c4.2,0.3,7.6-1.7,10.7-3.8C619.5,330.1,622.5,330.1,623,327.2z M516.6,318.7L516.6,318.7
				c1,1.7,3.1,2,4.7,3.2c-5.5,4.1-6,11.4-2.3,18.6c1.7-2.2,1.7-5.1,3.6-8c0.4,2.7,1,4.7,0.7,6.8c-2,1.3-0.3,2.9-0.1,4.1
				c1.3,9.1,4,17.5,11.8,23.2c6.3,4.6,13.5,6.8,21.1,6.7c3.1,0,2.9,0.9,2.5,2.8c-0.8,3.9-3.5,7.1-4.9,11.3c4.9-1.4,9-3.8,13-6.5
				c4.5-5.3,9-10.5,10-17.8c0.2-1.2,0.7-1.4,1.9-1.4c4.7-0.2,8.9-1.8,11.7-5.9c0.8-1.2,1.9-2.6,1.2-3.9c-0.7-1.2-2.4-0.2-3.6-0.5
				c-0.8-0.1-1.7,0-2.5,0c-5.8-3.2-10.4-7.2-13.8-13.2c-3.3-5.8-6.7-11.8-13-15.1c-5.6-2.9-11.1-6.1-17.6-6.9
				c-8.7-1-17.3-2.3-25.6,1.5c-0.2,0.2-0.4,0.4-0.6,0.6C515.2,318.8,515.9,319.1,516.6,318.7z M648.8,394.4c0.3,0.2,0.5,0.4,0.8,0.5
				c0.1-0.1,0.1-0.2,0.2-0.3C649.4,394.6,649.1,394.5,648.8,394.4c-0.9-3.8-1.9-7.7-2.7-11.5c-0.3-1.3-0.7-3.1,1.9-2.4
				c7.2,2,14.2,1,21.1-1.8c5.1-2.1,8.8-5.6,11.9-10.2c3.6-5.3,6.1-10.7,6.3-17.2c1.4-1.2,0.3-3.4,1.5-4.7c2.4,2.4,0.7,5.5,1.9,8.4
				c4.8-6.4,6.4-12.5,1.5-19c1.7-1.9,5-0.2,5.9-3.1c-1.2-1.9-3.2-2.3-5.1-2.9c-4.7-1.4-9.5-1.8-14.3-2.5c-6.4-0.9-12.6-0.1-18.6,1.6
				c-9.1,2.7-16.2,8.5-21.9,16c-3.9,5.2-9.2,8-15.4,9.3c-1.8-0.4-3.6-0.8-5.4-1.2c0.1,6.1,2.5,9.4,8.1,11.7c2.2,0.9,4.5,3.6,5,5.9
				c1.1,5.7,3.4,11,6.8,15.7C640.2,390.6,644.2,392.9,648.8,394.4z"/>
			<path fill="#F6A71B" d="M539.7,497.3c-3.7-6.4-5.6-13.2-5.2-20.6c0.2-3.9,5.3-8.1,9.8-8.3c11.9-0.5,23.7,1.2,35.5,2.3
				c6.6,0.6,13.2,0.9,19.8,1.5c10.6,0.9,21.1,2.1,31.7,2.7c4.3,0.3,8.5,0.5,12.6,1.6c2.3,0.6,4.5,1.2,6.3,3
				c3.7,3.8,4.1,9.6,1.5,14.4c-1.9,3.5-2.9,7.4-5.6,10.4c-0.6,0.3-0.8,0.8-0.7,1.4c0,0,0,0,0,0c-2.6-0.3-3.5,2.2-5.2,3.3
				c-10.8,6.2-22.6,9-34.8,9.5c-12,0.5-24-0.5-35.4-4.2c-9.9-3.2-19.9-6.9-27.2-15.1c-0.6-0.7-1.3-1.4-2.4-1.4c0,0,0,0,0,0
				C540,497.8,539.8,497.5,539.7,497.3z M577.3,488.7c2.1-0.3,1.3-1.8,1.4-3c0-4.2-1.6-5.8-5.9-6.1c-6.8-0.4-13.6-0.9-20.4-1.5
				c-7.3-0.7-9.6,2.2-7.2,9.3c0.5,2.1,0.9,4.1,1.5,6.2c1.8,6.3,10.8,12.2,16.6,11.5C570.2,504.2,577.4,494.5,577.3,488.7
				L577.3,488.7z M608.8,490c-0.3,5.8,1.6,11.2,5.2,15.4c3.8,4.5,9.1,5.8,15.1,3.4c5-2,11.1-8.6,11.6-13.9c0.1-0.4,0.2-0.9,0.4-1.3
				c3.1-4.6,2.5-5.8-2.6-8.2c-3.4-1.6-6.8-0.8-10.1-1.2c-5.1-0.5-10.2-1.8-15.5-0.9C608.6,484.2,607.6,485.6,608.8,490z"/>
			<path fill="#E28525" d="M506.6,311.5c2,6.2,0.7,12.3-0.1,18.4c-1,7.6-3.8,14.5-9,20.2c-1.7,1.8-0.7,3,0.7,4.1
				c4,3.4,8.3,6.4,13.2,8.2c3.5,1.3,6.4,3.6,9.6,5.3c6.5,3.4,7.8,9.9,8.8,16.2c0.5,3.1,1.1,6.5-0.5,10.6c4.1-2.9,3.2-7.7,6.2-10.2
				c-0.8,21.5-3.8,42.5-13.1,62.2c-0.3-0.2-0.6-0.3-0.9-0.5c-5.5-2.5-5.4-2.4-4.4-8.6c1-5.8,1.6-11.7,2.7-17.4
				c1.2-6.7,1.8-13.5,2.4-20.3c1-10.2-2.3-21.6-12.6-27.2c-5.5-3-10.6-6.7-15.7-10.3c-6.3-4.5-8.2-9.8-6.6-17c1-4.2,4.6-5.6,7.5-8.1
				c0.8,1.6-0.3,2.8-0.2,4.1c0.1,0.5-0.2,1.3,0.5,1.5c0.7,0.2,1.1-0.4,1.4-0.9c1.6-2.8,3.3-5.4,4.6-8.3
				C504,326.5,506.7,319.3,506.6,311.5z"/>
			<path fill="#E28525" d="M670.2,458.7c-2-8.6-3.8-17.2-4.4-26.1c-0.4-6.2-0.2-12.4,0.1-18.6c0.3-6.1,0.9-12.1,1.5-18.4
				c2.6,2.9,1.5,6.8,3.9,10.5c0.3-3.7,1-6.5,1.7-9.3c2.2-9,7.2-15.7,17-17.5c6.9-1.3,13-4.6,19.3-7.5c1.3-0.6,3.3-1.9,1.7-3.9
				c-3.8-4.7-5.2-10.1-5.8-15.9c-0.7-7.7-0.3-15.2,2-22.6c0.2,5.8,0.1,11.8,1.6,17.4c1.4,5.3,2.2,11.1,6.3,15.4
				c0.1,0.3,0.2,0.6,0.3,1c0.1-0.1,0.2-0.1,0.2-0.2c0-0.4-0.1-0.7-0.5-0.7c0-0.7,0-1.4,0.1-2.1c0.2-1.4-1.5-3.3-0.2-3.9
				c1.7-0.8,2.5,1.7,3.6,2.7c4.4,4.4,3.8,11.8-0.4,16.5c-4.9,5.5-11.6,7.4-17.9,10.2c-5.5,2.4-11.2,4.4-15.3,9.1
				c-2.7,3.2-4.8,6.8-5.6,10.8c-1.9,9-2.1,18.2-2.3,27.4c-0.1,6.7-0.4,13.4,0,20c0.2,2.4-0.2,5.1-3.9,5.1
				C672.3,458.1,671.3,458.5,670.2,458.7z"/>
			<path fill="#E28525" d="M540.2,498c1.1,0,1.8,0.6,2.4,1.4c7.3,8.2,17.2,11.9,27.2,15.1c11.4,3.7,23.4,4.6,35.4,4.2
				c12.2-0.5,24.1-3.3,34.8-9.5c1.8-1,2.6-3.6,5.2-3.3c-2.9,4.4-6.1,8.5-10.1,12.1c-4.1,3.7-8.6,6.5-13.5,9
				c-5.8,2.9-12,3.9-18.3,4.7c-7,0.9-13.9,0.3-20.7-0.9c-10.8-1.8-20.7-5.6-29-13.1c-4.6-4.2-8.1-9.3-11.5-14.4
				C541.1,501.6,540.6,499.8,540.2,498z"/>
			<path fill="#C7C7C7" d="M488.9,429c-2,6.5-1,12.9,1.2,19.1c5.4,15.1,18.6,25,34.5,26.4c0.1,3.7-0.5,7.5,0.7,11.2
				c-5.3-0.7-10.2-1.7-15-3.4c-8.8-3.1-16.1-8.4-21.3-15.9c-4.2-6-5.6-13.2-5.4-20.7c0.1-4.2,0.6-8.2,1.2-12.3
				c0.3-1.9,0.6-3.7,2.1-5.1c0.4-0.4,0.2-1.7,1.3-1.2C488.9,427.4,488.8,428.2,488.9,429z"/>
			<path fill="#C7C7C7" d="M663.8,486.5c9.3-0.8,18.5-2,26.4-7.8c9-6.6,14.6-15.1,15.9-26.4c0.2-1.9,1-3.7,0.5-5.6
				c0-0.7,0-1.6,0.7-1.9c1.3-0.4,1.1,1,1.4,1.6c1.6,4.1,1.3,8.5,0.8,12.6c-0.5,3.9-1,7.8-2.1,11.7c-2.6,9-8.3,15.5-15.9,19.8
				c-6.7,3.8-14.1,6.6-22.3,6.1c-1.9-0.1-3.8,0.5-5.6,0.6c-1.8,0.1-3.3,0-1.5-2.5C663.4,492.4,662.3,489.1,663.8,486.5z"/>
			<path fill="#F2A41C" d="M508.4,233.1c4.5-2.2,9.4-2.3,14-2c3.6,0.2,7.4,0.8,11.1,1.8c7.6,1.9,12.6,7.2,18.1,12
				c3.2,2.8,5,6.8,7.9,9.9c0.3,0.3,0.7,0.9,0.6,1.2c-0.4,1.3-1.8,1.9-2.8,1.6c-2.2-0.7-4.2,3.8-6.4,0.1
				c-6.9-11.8-16.5-19.4-30.6-20.6C516.3,236.7,511.6,237.7,508.4,233.1z"/>
			<path fill="#F2A41C" d="M719.6,250.6c-3.9,1.1-7.2,2.7-11.7,2c-8.5-1.3-16.9,0.6-24.1,5.8c-4.1,2.9-8.7,5.4-11.1,10.2
				c-0.4,0.7-1.1,1.1-1.7,0.3c-1.6-2.3-5.3-1.6-6.2-4.6c-0.2-0.5,1-1.5,1.7-2.2c5.9-5.8,12.4-11,20.2-14c7-2.7,14.4-2.6,21.9-1.4
				C712.5,247.3,715.9,249.2,719.6,250.6z"/>
			<path fill="#E08425" d="M521.1,244c7,2.1,13,4,16.6,9.8c1.5,2.4,2.5,5.1,3.6,7.7c0.9,2,0.4,3.7-1.6,4.9c-0.7,0.4-1.6,0.8-2,1.5
				c-1.7,3.1-3.9,3.3-7.1,2.2c-4.1-1.4-6.3-3.8-6.2-8.1C524.6,256.1,525.1,250.1,521.1,244z"/>
			<path fill="#E08425" d="M704.6,259.3c-4.6,5.5-5.2,11.7-6.5,17.6c-1.1,5.1-5.2,7.9-10.3,6.7c-0.9-0.2-1.4-0.8-1.9-1.5
				c-0.4-0.7-0.8-1.4-1.2-2.1c-1-1.8-3.8-2.2-3.5-4.9c0.3-2.3,2.2-3.6,3.3-5.4C688.8,262.4,695.7,259.8,704.6,259.3z"/>
			<path fill="#E18525" d="M565.2,266.5c-2.7,3.5-2.9,8.7-0.8,12.8c3.4,6.4,7.6,12.5,8.7,20c-3.8-3.8-7.3-7.9-11.2-11.7
				c-4.1-4-8.6-7.3-13.7-9.9c-3.1-1.6-3.2-2.3-0.1-4.2C553.4,270.3,558.8,267.1,565.2,266.5z"/>
			<path fill="#E18425" d="M644.5,305c1.5-5.1,5-9,8-13.2c3.7-5.2,7.9-10.1,6.3-17.3c5.5,2.8,11.1,5.2,15.2,10.1
				c1.1,1.3,1.6,1.8-0.5,2.6c-8.9,3.3-16.8,8.4-24.5,13.9C647.4,302.3,646.4,304.3,644.5,305z"/>
			<path fill="#E08425" d="M531.6,448.7c2.9-1.9,4.9-4.7,7.1-7.3c5.2-6.2,10.6-12.2,15.9-18.3c1.1-1.2,2-2.6,2.9-4
				c0.6-1.1,1.2-2.1,2.7-1.9c-3.7,8.1-8.2,15.7-12.4,23.5c-1.6,2.9-2.4,6.1-4.6,8.7c-0.5,0.5-0.8,1.5-1.6,1.2
				C538.3,449.2,534.7,450.2,531.6,448.7z"/>
			<path fill="#E08425" d="M637.5,423.6c3,1.4,3.9,4.6,5.4,7.1c5.7,9.8,11.2,19.6,18.1,28.6c-0.6,0-1.2,0-1.8,0
				c-10.4,0.3-10.9,0-13.1-10.2c-0.9-4.3-2.9-8.1-3.9-12.4C641.1,432.3,639.1,428,637.5,423.6z"/>
			<path fill="#EFA21D" d="M517.1,494c3.9,0.3,7.1,2.3,10.8,2c1.1-0.1,1.9,0.8,2,1.8c0.5,5,4.5,8.5,5.3,13.2
				C530.3,509.7,519.9,500.1,517.1,494z"/>
			<path fill="#F0A31D" d="M668.2,506.1c-5.9,7.7-13.3,11.6-22.2,14.8c3.7-4,6-8.1,8.5-12c1.2-1.8,2.4-2.7,4.3-2.3
				C661.7,507.2,664.5,506.4,668.2,506.1z"/>
			<path fill="#E08425" d="M636.6,421.5c0.7,0.3,0.8,0.9,0.7,1.5C636.7,422.7,636.6,422.2,636.6,421.5z"/>
			<path fill="#E28525" d="M645.2,505.9c0-0.6,0.2-1.1,0.7-1.4C645.9,505,645.8,505.6,645.2,505.9z"/>
			<path fill="#E08425" d="M560.9,416.4c0-0.6,0.2-1.1,0.8-1.3C561.6,415.7,561.6,416.3,560.9,416.4z"/>
			<path fill="#E18525" d="M573.1,299.3c0.2,0.3,0.4,0.5,0.6,0.8C573.5,299.9,573.3,299.6,573.1,299.3z"/>
			<path fill="#E18425" d="M643.8,305.9c0.2-0.3,0.4-0.5,0.6-0.8C644.2,305.3,644,305.6,643.8,305.9z"/>
			<path fill="#E28525" d="M539.7,497.3c0.2,0.2,0.3,0.5,0.5,0.7C540,497.8,539.8,497.5,539.7,497.3z"/>
			<path fill="#483216" d="M698.1,333c-0.9,2.9-4.2,1.3-5.9,3.1c4.9,6.4,3.4,12.6-1.5,19c-1.2-2.9,0.5-6-1.9-8.4
				c-1.2,1.3-0.2,3.5-1.5,4.7c-0.3,0.6-0.6,1.3-0.8,1.9c-2,6-5.3,10.9-10.9,14.1c-3.5,2-7.1,3.4-11,4.4c-7.7,1.8-14.9,1.4-21.5-3.2
				c-2.8-1.9-3.9-0.7-4.6,1.6c-1.4,4.2-2.1,8.5-0.9,12.8c0.4,1.3,0.8,2.5-0.1,3.7c-3.4-4.8-5.6-10-6.8-15.7c-0.5-2.3-2.8-5.1-5-5.9
				c-5.6-2.3-8-5.6-8.1-11.7c1.8,0.4,3.6,0.8,5.4,1.2c4.2,2.1,8.2,0.7,12.2-0.8c6-2.2,10-7.2,15.1-10.7c4.9-3.4,10.1-6.1,15.6-8.2
				C676.3,330.8,687.1,330.8,698.1,333z M646.6,358.7c-3.3,3.6-3.1,4.4,1.9,6c5.4,1.8,10.7,1.8,16.2,0.5c5.5-1.3,11.8-8.4,11-13.7
				c1.4-3.4,1-6.7-0.2-10.1c-4.3,1.1-7.7,3.4-11.3,5.3C657.8,349.9,651.8,353.6,646.6,358.7z"/>
			<path fill="#483216" d="M585.2,351.5c0.8,0,1.7-0.1,2.5,0c1.2,0.2,2.9-0.8,3.6,0.5c0.7,1.3-0.4,2.7-1.2,3.9
				c-2.8,4.1-6.9,5.7-11.7,5.9c-1.2,0.1-1.7,0.2-1.9,1.4c-1,7.2-5.5,12.5-10,17.8c-0.2-2.3,0.4-4.6,1.3-6.5c1.8-4.1,0.4-8.1-0.2-12
				c-0.1-0.8-0.5-1.9-1.9-1.1c-3.7,2.2-7.8,2.9-12.1,2.9c-6,0.1-11.5-2-16.5-4.9c-7.6-4.4-12-11.5-14-20c0.2-2.1-0.3-4.1-0.7-6.8
				c-1.9,2.9-1.9,5.8-3.6,8c-3.6-7.2-3.1-14.5,2.3-18.6c-1.5-1.2-3.7-1.5-4.7-3.2c2.1-0.7,4.2-0.9,6.3-0.7c9.4,0.8,18.4,3,26.3,8.5
				c4.8,3.3,10,6,13.6,10.8c3.2,4.3,6.8,8.3,11.3,11.2C577.3,350.5,580.8,352.9,585.2,351.5z M562.3,351.5
				c-4.2-5.1-8.9-9.8-14.5-13.5c-3.3-2.2-5.6-5.8-9.4-7.3c-1.3-0.5-1.8-1.2-2.8,0.8c-1.4,2.9-1.2,5.6-1,8.5c-0.6,1.6-0.7,3.2,0,4.8
				c2.7,6.4,6.9,10.8,14.2,12.3c4,0.8,7.7,0.3,11.5-0.2C565.2,356.4,565.5,355.2,562.3,351.5z"/>
			<path fill="#E28525" d="M523.2,339.3c1.9,8.6,6.3,15.6,14,20c5,2.9,10.4,5,16.5,4.9c4.3-0.1,8.4-0.7,12.1-2.9
				c1.4-0.9,1.8,0.2,1.9,1.1c0.5,4,2,7.9,0.2,12c-0.9,2-1.5,4.2-1.3,6.5c-3.9,2.7-8,5.1-13,6.5c1.4-4.2,4.1-7.4,4.9-11.3
				c0.4-2,0.6-2.9-2.5-2.8c-7.6,0.1-14.8-2.1-21.1-6.7c-7.9-5.7-10.6-14.1-11.8-23.2C522.9,342.2,521.2,340.6,523.2,339.3z"/>
			<path fill="#E18525" d="M637.4,386.7c0.9-1.2,0.5-2.4,0.1-3.7c-1.2-4.4-0.4-8.7,0.9-12.8c0.7-2.2,1.9-3.5,4.6-1.6
				c6.5,4.6,13.8,5,21.5,3.2c3.9-0.9,7.5-2.4,11-4.4c5.6-3.2,8.9-8.1,10.9-14.1c0.2-0.7,0.6-1.3,0.8-1.9c-0.2,6.4-2.7,11.9-6.3,17.2
				c-3.1,4.5-6.8,8.1-11.9,10.2c-6.8,2.8-13.8,3.8-21.1,1.8c-2.6-0.7-2.2,1.1-1.9,2.4c0.8,3.9,1.8,7.7,2.7,11.5l0,0
				C644.2,392.9,640.2,390.6,637.4,386.7z"/>
			<path fill="#E08425" d="M698.1,333c-10.9-2.2-21.8-2.2-32.3,1.9c-5.4,2.1-10.6,4.8-15.6,8.2c-5.1,3.5-9.1,8.5-15.1,10.7
				c-4,1.5-8,2.9-12.2,0.8c6.2-1.3,11.5-4.1,15.4-9.3c5.7-7.5,12.8-13.4,21.9-16c6-1.7,12.1-2.5,18.6-1.6c4.8,0.7,9.6,1.1,14.3,2.5
				C694.9,330.6,696.9,331.1,698.1,333z"/>
			<path fill="#E08425" d="M585.2,351.5c-4.4,1.4-7.9-1-11.2-3.1c-4.5-2.9-8.1-7-11.3-11.2c-3.6-4.8-8.8-7.5-13.6-10.8
				c-7.9-5.5-16.9-7.7-26.3-8.5c-2.1-0.2-4.3,0-6.3,0.7c0,0,0,0,0,0c-0.2-0.9-0.9-0.7-1.5-0.8c8.4-3.8,17-2.5,25.6-1.5
				c6.5,0.8,12,3.9,17.6,6.9c6.3,3.3,9.7,9.4,13,15.1C574.8,344.3,579.5,348.3,585.2,351.5z"/>
			<path fill="#E18525" d="M590.2,324.4c-1.8-1.3-2.9-3.3-4.1-5.4c13.2,6,26.9,6.5,41.2,3.8c-1,2.4-2.7,3.3-4.2,4.3
				c-4-0.3-7.5,2.1-11.6,1.9c-5.9-0.3-11.6-0.1-16.8-3.5C593.3,324.7,591.9,324.1,590.2,324.4z"/>
			<path fill="#4C3416" d="M590.2,324.4c1.6-0.4,3.1,0.3,4.3,1.2c5.2,3.4,10.9,3.3,16.8,3.5c4.1,0.2,7.6-2.2,11.6-1.9
				c-0.5,2.9-3.5,2.9-5.3,4.1c-3.1,2.2-6.5,4.1-10.7,3.8C599.4,334.6,594.6,329.9,590.2,324.4z"/>
			<path fill="#473217" d="M566.2,408.3c0.4-0.8,0.4-1.8,1.6-2.3c0.3,1.2,0.4,2.2-1,2.8C566.6,408.6,566.4,408.5,566.2,408.3z"/>
			<path fill="#483216" d="M515.1,317.8c0.6,0.2,1.3,0,1.5,0.8c-0.8,0.4-1.4,0.1-2.1-0.3C514.7,318.2,514.9,318,515.1,317.8z"/>
			<path fill="#E18525" d="M648.8,394.4c0.3,0.1,0.6,0.2,0.9,0.3c-0.1,0.1-0.1,0.2-0.2,0.3C649.3,394.7,649,394.6,648.8,394.4
				C648.8,394.4,648.8,394.4,648.8,394.4z"/>
			<path fill="#473217" d="M579.8,310.5c0.3,0.2,0.5,0.5,0.1,0.8c0,0-0.3-0.3-0.4-0.4C579.5,310.7,579.6,310.6,579.8,310.5z"/>
			<path fill="#483215" d="M608.8,490c-1.3-4.5-0.3-5.8,4.2-6.6c5.2-0.9,10.4,0.3,15.5,0.9c3.3,0.3,6.8-0.4,10.1,1.2
				c5.1,2.5,5.7,3.6,2.6,8.2c-0.2,0.4-0.3,0.9-0.4,1.3c-1.7,2.8-4.5,4.5-6.8,6.6c-6.8,5.8-16.3,3.7-19.9-2.8
				C612.5,495.8,610.6,492.9,608.8,490z"/>
			<path fill="#483216" d="M545.2,487.3c-2.5-7-0.2-9.9,7.2-9.3c6.8,0.6,13.6,1,20.4,1.5c4.4,0.3,6,1.9,5.9,6.1
				c-0.7,0.9-1.3,1.9-1.4,3c0,0,0,0,0,0c-1.8,1-3.1,2.5-4.2,4.2c-1.8,2.9-4.6,5.2-7.5,6.2c-6.9,2.3-12.5-1.1-16.3-6.6
				C548,490.7,547,488.7,545.2,487.3z"/>
			<path fill="#E08525" d="M545.2,487.3c1.8,1.4,2.9,3.4,4.1,5.2c3.8,5.5,9.4,8.9,16.3,6.6c3-1,5.7-3.3,7.5-6.2
				c1.1-1.7,2.4-3.2,4.2-4.2c0.1,5.9-7.1,15.5-14,16.4c-5.9,0.7-14.8-5.2-16.6-11.5C546.1,491.4,545.7,489.4,545.2,487.3z"/>
			<path fill="#E08525" d="M608.8,490c1.8,2.9,3.7,5.7,5.3,8.7c3.5,6.5,13.1,8.7,19.9,2.8c2.4-2.1,5.1-3.8,6.8-6.6
				c-0.5,5.3-6.7,11.9-11.6,13.9c-6.1,2.4-11.3,1.1-15.1-3.4C610.5,501.3,608.5,495.9,608.8,490z"/>
			<path fill="#E08525" d="M577.3,488.7c0.1-1.2,0.6-2.1,1.4-3C578.6,486.8,579.4,488.4,577.3,488.7z"/>
			<path fill="#473217" d="M715.2,362.2c0.5,0,0.6,0.3,0.5,0.7c0,0.1-0.2,0.2-0.2,0.2C715.4,362.9,715.3,362.5,715.2,362.2
				C715.2,362.2,715.2,362.2,715.2,362.2z"/>
			<path fill="#C5C5C5" d="M646.6,358.7c6.5,4.5,17.4,3.5,23.2-1c2.4-1.8,3.6-4.5,5.9-6.2c0.8,5.3-5.6,12.4-11,13.7
				c-5.5,1.3-10.8,1.3-16.2-0.5C643.6,363,643.3,362.3,646.6,358.7z"/>
			<path fill="#C5C5C5" d="M534.7,340c1.9,2.5,2.9,5.7,5.5,7.8c5.5,4.4,11.8,6,18.7,5.3c1.3-0.1,2.6-0.3,3.4-1.5
				c3.2,3.7,2.9,4.8-2,5.4c-3.8,0.5-7.5,1-11.5,0.2c-7.3-1.5-11.5-5.9-14.2-12.3C534,343.2,534,341.6,534.7,340z"/>
		</g>
	</g>
</g>
<g id="Mcm9b0.tif">
	<g>
		<path fill="#EF5239" d="M206.4,263.7c3.3,0,6.7,0,10,0c5.8,2.2,10,6.4,14.2,10.6c39.9,40,79.9,80,119.9,119.9
			c4.1,4.1,7.9,8.3,9.6,14c0,2.8,0,5.7,0,8.5c-2.8,6.9-8.3,11.5-13.4,16.6C308,472,269.3,510.7,230.5,549.5
			c-4.2,4.2-8.3,8.2-14.1,10.1c-2.8,0-5.7,0-8.5,0c-3.1-2-6.6-3.5-9.2-5.9c-8.5-8-16.7-16.4-25-24.7c-31.4-31.4-62.8-62.8-94.2-94.2
			c-5.6-5.6-11.8-10.7-15.3-18c0-3.6,0-7.2,0-10.8c2.1-3,3.8-6.3,6.4-8.9c28.4-28.6,56.9-57,85.4-85.5c0.8-0.8,1.6-1.4,2.6-2.3
			c10.7,10.8,21.3,21.3,31.7,32c0.8,0.8,1,2.8,0.7,4c-2.6,10.6,1.3,20.6,10.5,25.9c2.1,1.2,2.7,2.5,2.7,4.8
			c-0.1,24.7-0.1,49.4,0,74.1c0,2.8-0.8,4.2-3.2,5.7c-8.8,5.2-12.7,15.5-9.9,25.4c2.5,9.1,11.2,15.9,20.4,16.1
			c10.8,0.3,19.6-5.7,22.7-15.5c3.1-9.5-0.4-19.8-8.8-25.4c-2.1-1.4-2.8-2.8-2.8-5.3c0.1-24.5,0.1-48.9,0.1-73.4c0-1,0-1.9,0-3.7
			c1.5,1.4,2.5,2.2,3.3,3.1c8.3,8.3,16.5,16.6,24.9,24.8c1.8,1.8,2.5,3.2,1.7,5.9c-2.3,8.6,0.1,16.1,6.6,22
			c6.3,5.7,13.7,7.4,21.9,4.8c11.5-3.6,18-15.4,15.1-26.8c-3-11.8-14.1-18.9-26.1-16.7c-1.8,0.3-3.4,0.8-5.2-1
			c-9.6-9.9-19.4-19.5-29.1-29.3c-0.8-0.9-1.3-2.7-1-3.9c3.3-16.7-10.2-30.4-26.8-27.4c-1.4,0.3-3.5-0.3-4.5-1.3
			c-5.6-5.3-11-10.9-16.4-16.3c-5.2-5.2-10.4-10.3-15.9-15.8C183.5,285.6,192.5,272,206.4,263.7z"/>
	</g>
</g>
</svg>
