<?xml version="1.0" encoding="utf-8"?>
<!-- Generator: Adobe Illustrator 17.1.0, SVG Export Plug-In . SVG Version: 6.00 Build 0)  -->
<!DOCTYPE svg PUBLIC "-//W3C//DTD SVG 1.1//EN" "http://www.w3.org/Graphics/SVG/1.1/DTD/svg11.dtd">
<svg version="1.1" id="Layer_1" xmlns="http://www.w3.org/2000/svg" xmlns:xlink="http://www.w3.org/1999/xlink" x="0px" y="0px"
	 viewBox="0 0 841.9 595.3" enable-background="new 0 0 841.9 595.3" xml:space="preserve">
<g id="_x37_3Xofi.tif">
	<g>
		<path fill="#8B4887" d="M790.8,88.1c0.1,2.3-1.4,2.6-3.3,2.9c-17.3,2.4-34.6,4.8-51.9,7.3c-2.3,0.3-2.7,0.9-1.6,3
			c8.1,14.6,28,16.6,37.7,3.4c1.5-2,3-3.1,5.5-3.3c3.4-0.2,6.7-0.8,10-1.3c1.8-0.2,2.5,0.1,1.7,2.1c-4.5,12.2-12.9,20.6-25.4,23.8
			c-20,5.1-39.1-5.9-44.8-24.5c-6-19.5,2.4-39.2,21-46.8c19.4-7.9,41.9,1.8,48.6,21.8c0.6,1.7,0.4,3.6,1.6,5
			C790.2,83.8,790.5,85.9,790.8,88.1z M774.9,80.4c-4.9-11.5-18-17.3-29.3-12.9c-7.8,3.1-12.8,9-14.4,17.4c-0.3,1.4,0.1,1.6,1.4,1.4
			C746.6,84.3,760.7,82.4,774.9,80.4z"/>
		<path fill="#D6C4D6" d="M122,78.9c0-0.1,0-0.3,0-0.4c4.2-0.6,8.4-1.2,12.6-1.8c0,0.1,0,0.3,0.1,0.4
			C130.4,77.7,126.2,78.3,122,78.9z"/>
		<path fill="#C2A4C1" d="M149.1,248.1c0-0.2,0-0.3-0.1-0.4c2.7-0.4,5.3-0.7,8-1.1c0,0.1,0,0.3,0,0.4
			C154.4,247.3,151.8,247.7,149.1,248.1z"/>
		<path fill="#8B4887" d="M157,246.5c-2.7,0.4-5.3,0.7-8,1.1c-23,2.3-43.5-4.1-61.6-18.3c-13.8-10.8-23.4-24.7-28.4-41.4
			c-7.7-25.6-4.4-50,10.3-72.6c11.2-17.2,27-28.5,46.3-35c2.1-0.7,4.2-1,6.4-1.5c4.2-0.6,8.4-1.2,12.6-1.8
			c22.2-1.7,41.9,4.5,59.3,18.1c13,10.1,22.3,22.9,27.7,38.3c8.6,25,6.5,49.3-6.9,72.3c-10.3,17.8-25.5,29.9-44.7,37.2
			C165.9,244.7,161.5,246,157,246.5z M209,153.3c-3.8-36.4-39.3-64.4-77.5-59.2c-37.7,5.2-62.7,40.5-59.1,74.8
			c4.2,40.8,40.9,67,77.9,61.8C190.8,225.1,214.6,187.2,209,153.3z"/>
		<path fill="#8B4887" d="M481.7,103c2.3-3.9,4.4-6.9,7-9.7c6.9-7.2,20.7-7.7,28.1-2c2.5,1.9,5.1,3.7,6.8,6.4c1.3,2,1.7,1,2.3-0.4
			c2.6-6.3,6.9-10.9,13-13.8c11.6-5.5,26.7-1.5,33,8.8c1.5,2.5,2.4,5.2,2.9,8.1c2,11,3.6,22.1,5.1,33.2c0.2,1.4,0.7,2,2.1,1.5
			c0.1,0,0.3-0.1,0.5-0.1c2.3-0.2,5.3-1.8,6.7-0.5c1.4,1.2,1,4.4,1.3,6.7c0.3,2,0.5,4.1,0.9,6c0.3,1.4-0.2,1.7-1.5,1.9
			c-10.4,1.4-20.8,2.9-31.2,4.4c-1.2,0.2-1.7,0-1.8-1.3c-0.5-4-1-7.9-1.7-11.9c-0.2-1.3,0.2-1.6,1.4-1.8c2.1-0.2,4.2-0.6,6.3-0.8
			c1.3-0.1,1.8-0.6,1.5-2c-1.9-8.4-2.5-16.9-3.9-25.3c-1.3-7.9-4.7-11.8-11.2-13.2c-7.3-1.5-16.5,3-18.6,12.8
			c-0.1,0.5,0,1.1,0.1,1.6c1.1,9.5,2.9,18.9,3.7,28.4c0.1,1.1,0.6,1.5,1.7,1.3c2.2-0.4,4.4-0.6,6.5-1c1.2-0.2,1.7,0.1,1.8,1.3
			c0.5,4,1,7.9,1.7,11.9c0.2,1.3-0.2,1.6-1.4,1.8c-10.4,1.4-20.8,2.9-31.2,4.4c-1.3,0.2-1.8-0.1-1.9-1.4c-0.4-3.8-1-7.6-1.6-11.4
			c-0.3-1.6,0.3-2,1.8-2.2c1.9-0.2,3.9-0.6,5.8-0.8c0.9-0.1,1.5-0.4,1.3-1.5c-1.7-10.3-2-20.8-5.3-30.7c-2.2-6.6-9.2-9.6-16-8
			c-7.2,1.6-10.6,6.8-11.8,13.5c-0.4,2.3,0,4.8,0.3,7.2c0.9,7.2,2,14.3,2.9,21.4c0.2,1.5,0.7,2.1,2.2,1.8c1.9-0.4,3.9-0.5,5.8-0.8
			c1.2-0.2,1.6,0.2,1.8,1.4c0.5,4,1.1,7.9,1.7,11.9c0.2,1.1-0.1,1.5-1.2,1.7c-10.6,1.4-21.1,2.9-31.7,4.4c-0.9,0.1-1.4,0-1.6-1.1
			c-0.5-4.1-1.1-8.2-1.7-12.3c-0.2-1,0.2-1.4,1.2-1.5c2.1-0.2,4.2-0.6,6.3-0.8c1.3-0.1,1.7-0.5,1.5-1.9c-1.8-12.7-3.6-25.5-5.4-38.2
			c-0.2-1.4-0.7-1.7-2-1.4c-2.1,0.4-4.2,0.6-6.3,0.9c-1,0.2-1.4-0.1-1.5-1.1c-0.5-4.1-1.1-8.2-1.7-12.3c-0.2-1.1,0.2-1.4,1.2-1.5
			c7-1,14-1.9,21-3c1.4-0.2,1.6,0.4,1.7,1.5C480.8,96.4,481.2,99.3,481.7,103z"/>
		<path fill="#8B4887" d="M366.9,117.9c-0.4-2.7-0.7-5.4-1.2-8.1c-0.2-1.3-0.1-1.9,1.5-2.1c7.3-0.9,14.6-2,21.9-3.1
			c1.2-0.2,1.7,0.1,1.8,1.3c0.5,4,1,7.9,1.7,11.9c0.2,1.3-0.2,1.6-1.4,1.8c-1.9,0.2-3.9,0.6-5.8,0.8c-1.1,0.1-1.4,0.5-1.3,1.6
			c1.8,12.9,3.7,25.8,5.4,38.6c0.2,1.2,0.6,1.4,1.7,1.2c2-0.3,4-0.5,6-0.9c1-0.2,1.4,0.1,1.5,1.1c0.5,4.1,1.1,8.2,1.7,12.3
			c0.2,1.1-0.3,1.3-1.2,1.5c-7.5,1-14.9,2.1-22.3,3.1c-1.1,0.2-1.5-0.1-1.7-1.3c-0.3-2.6-0.7-5.2-1.2-8.4c-1.6,2.4-2.8,4.1-4.2,5.7
			c-6,6.8-13.8,9.4-22.6,9.1c-16.3-0.5-27.7-8.6-33.7-23.5c-7.9-19.7,2.1-41.3,20.9-48.8c8.5-3.4,17.1-3.9,25.4,1
			C362.3,114.3,364.5,116,366.9,117.9z M370.6,143.4c-1.3-11.7-12.2-19.6-23-18.7c-13.8,1-20.9,13.7-20.1,23.5
			c1.1,14.5,14.4,21,22.8,20.3C363.9,167.6,372.6,154.6,370.6,143.4z"/>
		<path fill="#8B4787" d="M653.5,77.9c1.8-2.3,2.7-4.4,4.2-6.2c7.8-9.2,22.4-10.8,32.8-5.2c7,3.8,11.3,9.6,12.3,17.5
			c1.4,10.6,3.5,21,4.9,31.6c0.2,1.5,0.7,1.9,2.1,1.5c0.1,0,0.2,0,0.2,0c2.2-0.1,5.1-1.7,6.5-0.4c1.3,1.2,0.9,4.2,1.3,6.5
			c0.3,2.1,0.5,4.2,0.9,6.3c0.2,1.1,0,1.7-1.3,1.9c-10.3,1.4-20.7,2.9-31,4.3c-1.2,0.2-1.7-0.1-1.8-1.3c-0.5-4-1-7.9-1.7-11.9
			c-0.2-1.3,0.3-1.7,1.4-1.7c0.2,0,0.3,0,0.5-0.1c2.2-0.5,5.3,0.3,6.4-1.4c0.9-1.4-0.3-4.2-0.6-6.3c-0.9-6.8-1.9-13.7-2.9-20.5
			c-1.1-7.4-5.5-12.3-13-12.8C666.2,79,658,82.8,656.5,93c-0.3,2.4-0.1,5,0.2,7.4c0.9,7.2,2,14.4,3,21.7c0.2,1.6,0.8,2,2.3,1.7
			c0.9-0.2,1.9-0.3,2.8-0.4c4.5-0.6,4.5-0.6,5.2,4c0.4,2.8,0.7,5.6,1.2,8.4c0.2,1.3,0.1,1.9-1.5,2.1c-10.4,1.4-20.8,2.9-31.2,4.4
			c-1.2,0.2-1.7-0.1-1.8-1.3c-0.5-4-1-7.9-1.7-11.9c-0.2-1.3,0.2-1.6,1.4-1.8c2.1-0.2,4.2-0.6,6.3-0.8c1.1-0.1,1.4-0.5,1.3-1.7
			c-1.8-12.9-3.7-25.8-5.4-38.7c-0.2-1.2-0.7-1.4-1.7-1.2c-2.2,0.4-4.4,0.6-6.5,1c-1,0.2-1.4-0.1-1.5-1.1c-0.5-4.1-1.1-8.2-1.7-12.3
			c-0.2-1.1,0.3-1.3,1.2-1.5c7.5-1,14.9-2.1,22.4-3.1c1.1-0.2,1.5,0.2,1.6,1.3C652.6,71.9,653,74.6,653.5,77.9z"/>
		<path fill="#8B4887" d="M297.1,137.8c1.2,8.6,2.5,17.2,3.6,25.8c0.7,5.5,0.4,10.8-2.4,15.9c-10,18.6-36.3,20-48.4,6.9
			c-3.8-4.1-5.5-9.1-7-14.3c-0.3-1,0.1-1.4,1.1-1.5c5.3-0.7,10.6-1.4,15.8-2.2c1.1-0.2,1.4,0.2,1.8,1.2c1.6,4.3,3.9,8,9,8.8
			c6.2,1,12-3.9,12.1-10.2c0-2.1-0.1-4.1-0.4-6.1c-2.3-16.1-4.5-32.3-6.7-48.4c-0.2-1.8-0.8-2.2-2.5-1.9c-2.2,0.5-4.5,0.6-6.7,1
			c-1.1,0.2-1.5-0.2-1.6-1.3c-0.5-4-1.1-7.9-1.7-11.9c-0.2-1.2,0-1.7,1.3-1.8c11.9-1.6,23.7-3.3,35.6-5c1.2-0.2,1.6,0.1,1.8,1.4
			c0.5,4,1,7.9,1.7,11.9c0.2,1.3-0.3,1.6-1.4,1.7c-2.3,0.3-4.7,0.7-7,0.9c-1.4,0.1-1.6,0.7-1.4,1.9c1.3,9,2.6,18,3.8,27
			C297.4,137.7,297.2,137.7,297.1,137.8z"/>
		<path fill="#8B4887" d="M417.3,167.2c0,0.5-0.1,0.7,0,0.9c0.6,5.2,0.6,5.2-4.5,5.9c-1.9,0.3-3.7,0.5-5.6,0.8
			c-1,0.2-1.4-0.1-1.5-1.1c-0.8-6-1.6-12-2.5-17.9c-0.2-1.1,0.2-1.4,1.2-1.5c4.6-0.5,9.2-0.9,13.8-1.5c1.5-0.2,1.5,0.9,1.8,1.6
			c2.7,5.4,7.4,7.9,13.2,6.8c6.4-1.2,9.8-7.8,6.9-13.4c-1.2-2.3-3.2-3.3-5.5-4c-4.6-1.3-9.3-1.4-14-2.3c-3.4-0.6-6.7-1.3-9.9-2.6
			c-10.1-4-14.8-14.9-11.1-25.2c4.9-13.7,24.5-17.9,33.7-12.6c0.9,0.5,1.9,2,2.7,1.5c1-0.6,0.1-2.1,0-3.2c-0.1-1,0.2-1.4,1.2-1.5
			c3-0.4,5.9-0.8,8.8-1.2c1.1-0.2,1.5,0,1.7,1.2c0.7,5.4,1.5,10.9,2.3,16.3c0.2,1.1-0.2,1.5-1.3,1.6c-4.2,0.4-8.4,0.8-12.6,1.4
			c-1.2,0.2-1.6-0.4-1.9-1.2c-1.7-4.4-7.5-6.9-12.9-4.4c-3.4,1.6-5.6,4.5-5.3,7.5c0.3,3.9,2.6,6.6,6.6,7.5c3.3,0.7,6.7,1,10.1,1.5
			c4.5,0.6,9,1.2,13.2,2.8c7.1,2.7,11.5,7.4,12.4,15.2c1.5,12.1-4.5,21.4-16.4,24.9C431.9,173.8,426.5,173,417.3,167.2z"/>
		<path fill="#8B4787" d="M616.4,101.5c1.2,8.7,2.5,17.4,3.6,26.1c0.2,1.6,0.6,2.2,2.3,1.8c1.8-0.4,3.7-0.5,5.6-0.9
			c1.5-0.3,1.9,0.2,2,1.6c0.4,3.8,1,7.6,1.6,11.4c0.2,1.3-0.1,1.8-1.4,1.9c-10.4,1.4-20.8,2.9-31.2,4.4c-1.1,0.2-1.7,0-1.8-1.3
			c-0.5-4-1-7.9-1.7-11.9c-0.2-1.2,0.2-1.7,1.4-1.8c2.1-0.2,4.2-0.6,6.3-0.8c1.1-0.1,1.5-0.5,1.3-1.6c-1.8-12.9-3.7-25.8-5.4-38.7
			c-0.2-1.2-0.6-1.4-1.7-1.2c-2.2,0.4-4.4,0.6-6.5,1c-1,0.2-1.4-0.1-1.5-1.1c-0.5-4.1-1.1-8.2-1.7-12.3c-0.2-1.1,0.3-1.3,1.2-1.5
			c7.5-1,14.9-2,22.4-3.2c1.7-0.2,1.6,0.7,1.7,1.7C614,83.9,615.2,92.7,616.4,101.5z"/>
		<path fill="#8B4787" d="M594.4,60c-0.3-2.3-0.6-4.7-1-7c-0.2-1,0.1-1.4,1.1-1.5c4.4-0.6,8.9-1.2,13.3-1.9c1.1-0.2,1.4,0.2,1.5,1.2
			c0.6,4.7,1.3,9.3,2,14c0.2,1.1-0.1,1.5-1.2,1.7c-4.4,0.6-8.7,1.2-13,1.8c-1.2,0.2-1.5-0.2-1.6-1.3C595.1,64.7,594.8,62.4,594.4,60
			z"/>
		<path fill="#8B4787" d="M145.6,124.6c0.7,5.1,1.4,10.2,2.2,15.3c0.5,3.4-2.1,6.9-5.5,7.4c-1.7,0.2-3.4,0.6-5.1,0.7
			c-1.6,0.1-3.5,1.4-4.9,0.1c-2.1-1.9-4-3.8-4.4-7.1c-1.1-9.8-2.6-19.5-4.1-29.3c-0.3-1.7,0.1-2.3,1.9-2.5
			c5.1-0.6,10.3-1.3,15.3-2.2c1.8-0.3,2.2,0.2,2.4,1.9C144,114.2,144.8,119.4,145.6,124.6z"/>
		<path fill="#8B4887" d="M127.8,153.5c-0.6,3.7-1.2,7.5-1.9,11.3c-0.2,1.1-4.6,3.1-6,2.9c-10.6-1.8-21.1-3.6-31.6-5.8
			c-1.5-0.3-2.1-1-1.8-2.5c0.9-4.9,1.7-9.8,2.6-14.7c0.2-1.4,0.7-2.1,2.5-1.7c10.5,2,21.1,3.8,31.6,5.6
			C124.8,148.9,127.7,151.9,127.8,153.5z"/>
		<path fill="#8B4887" d="M161.8,161.7c-3.5,0.5-5.3-0.3-6.7-3.2c-1.1-2.2-2.2-4.4-3.3-6.7c-1.2-2.4,0-6.3,2.4-7.5
			c9.8-4.8,19.7-9.6,29.5-14.4c1-0.5,1.4-0.2,1.8,0.6c2.5,5,4.9,10,7.4,15c0.4,0.8,0.2,1.2-0.6,1.6c-9.9,4.7-19.7,9.5-29.6,14.3
			C162.4,161.6,161.9,161.7,161.8,161.7z"/>
		<path fill="#8B4887" d="M140.5,180.5c0.4,1.2,0.3,1.9-0.2,2.8c-5.1,9.4-10.2,18.8-15.3,28.3c-0.9,1.6-1.6,1.9-3.2,1
			c-4.3-2.4-8.6-4.8-12.9-7.1c-1-0.6-1.7-1-0.9-2.5c4.8-9.1,9.5-18.4,14.6-27.3c2.4-4.2,5-4.9,9.3-2.7c1.5,0.8,3,1.8,4.6,2.4
			C139.1,176.2,140.4,178.1,140.5,180.5z"/>
		<path fill="#8B4887" d="M146.1,178.9c-0.8-1.7-0.1-3,1.3-4.2c1.8-1.6,3.4-3.4,5.2-5.1c3-2.8,6.1-2.8,9.1,0
			c6.1,5.6,11.7,11.8,17.4,17.7c1.6,1.6,3.1,3.3,4.6,5c0.8,0.8,0.8,1.5,0,2.3c-3.7,3.6-7.4,7.2-11,10.9c-1.1,1.1-1.7,0.8-2.7-0.1
			c-5.9-5.6-11.5-11.5-17.1-17.4c-1.7-1.7-3.3-3.6-5-5.2C146.8,181.8,146,180.6,146.1,178.9z"/>
		<path fill="#8B4787" d="M143.9,203.9c-0.5-3.8-1-7.6-1.6-11.4c-0.2-1.5,0.1-2,1.6-2.2c3.3-0.4,3.2-0.5,3.7,2.7
			c1,7.2,1.9,14.4,3.1,21.6c0.4,2.5-1.3,1.9-2.5,2.2c-1.3,0.2-2.5,0.8-2.7-1.5C145.1,211.5,144.4,207.7,143.9,203.9z"/>
		<path fill="#8C4A88" d="M168.7,113.9c-0.3,0.8-0.4,1.5-0.8,2.1c-3.4,6.5-6.9,13-10.3,19.5c-1.3,2.4-2.5,0.7-3.8,0.3
			c-1.6-0.6-1.2-1.4-0.6-2.5c3.6-6.7,7.1-13.4,10.7-20.1c0.3-0.6,0.5-1.7,1.6-1.2C166.7,112.4,168,112.8,168.7,113.9z"/>
		<path fill="#8C4A88" d="M115.2,175.5c0.5,1-0.3,1.3-1,1.6c-7,3.4-14,6.7-20.9,10.2c-1.1,0.5-1.6,0.3-2-0.6c-0.4-1.1-2-2.2-0.3-3.5
			c0.9-0.6,1.9-1.1,2.9-1.6c5.7-2.8,11.4-5.6,17.1-8.4C113.6,171.9,114.7,172.5,115.2,175.5z"/>
		<path fill="#8C4A88" d="M103.8,120.3c0.5-0.1,0.9,0.2,1.2,0.6c5.6,5.7,11.2,11.5,16.8,17.3c1.3,1.3-0.3,1.7-0.8,2.3
			c-0.8,0.9-1.6,2-3,0.5c-4.4-4.5-8.9-9-13.3-13.5c-0.8-0.8-1.7-1.7-2.4-2.6c-0.5-0.6-1.5-1.1-0.9-2.2
			C101.9,121.7,102.8,120.9,103.8,120.3z"/>
		<path fill="#8C4987" d="M194.3,173.4c-0.8,0-1.1,0.1-1.3,0c-7.4-1.3-14.8-2.4-22.2-4.1c-1.8-0.4-1.8-1.5-1.5-3
			c0.3-1.7,1.2-1.7,2.5-1.5c7.3,1.3,14.7,2.5,22,3.8c1.1,0.2,2.1,0.6,1.8,1.9C195.3,171.6,195.9,173.4,194.3,173.4z"/>
	</g>
</g>
<g id="Og1VUE.tif">
	<g>
		<g>
			<path fill="#493318" d="M727.4,416.3c5.6,4.8,8.7,10.8,10.5,17.6c1,3.6,1.9,7.1,2.1,10.9c0.2,4.5-0.1,9.1-1.1,13.3
				c-2.5,10.9-7.1,20.6-16.9,27.4c-5.7,4-11.8,6.3-18.2,8.5c-1.5,0.5-2.5,2.6-3.5,4.1c-3.3,5.2-7.7,9.4-12.7,12.9
				c-7.1,5.1-14.8,8.6-23.6,9.8c-5.9,0.8-11.7,1.8-17.2,4.9c-5.1,2.9-11,3.9-17,4.5c-6.1,0.7-12.2,0.8-18.3,0.5
				c-12.4-0.6-24.2-3.8-35.3-9.4c-1.5-0.8-2.8-2.1-4-3.4c-3.3-3.5-8-3.9-12.2-5.2c-13.4-4.1-23.8-12.1-31.1-24
				c-1.1-1.9-2.5-3.6-3.1-5.8c-0.8-3-3.3-4.6-5.9-5.7c-10.9-4.6-18.1-13.1-22.2-23.6c-3.5-9-4.4-18.8-1.8-28.6
				c0.8-3.2,1.6-6.2,2.9-9.3c2.8-6.9,7.2-12.6,14.2-17.1c1.1,11.1,6.3,20,14.1,28.4c1.7-6.4,2.4-12.3,3.4-18.2
				c1.2-6.9,1.9-13.9,2.5-20.9c0.5-5.7-1.4-13-7.8-17.2c-5.1-3.4-10.7-6.2-15.4-9.9c-6.1-4.8-12.6-9.8-14.2-18.2
				c-1.2-6.4,0.6-12.1,5.1-17.1c2.3-2.6,5.5-3.5,8.1-5.4c3.1-2.3,5-5.2,5.4-9c0.5-4.8,1.2-9.5,1.6-14.2c0.1-1.1-0.4-2.4-1-3.3
				c-3.2-5-5.3-10.2-6.4-16.1c-1.5-8.3,3.7-16.9,12.7-19.5c3.5-1,6.9-1.2,10.4-1.4c0.9-0.1,1.7,0.2,2.3-1.1c3.9-9,0.9-18.3-8-22.9
				c-5.5-2.9-11.2-5.6-17.7-6.2c1-3.2,3.4-5,5.8-6.5c10.1-6.6,21.2-9.3,33.4-7.8c4,0.5,7.9,1.2,11.7,2.5c10,3.4,18.6,8.9,25.2,17.2
				c2.9,3.6,6.7,6.3,8.7,10.7c0.6,1.4,2.1,0.5,3.2,0.2c0.9-0.3,2.2,0,2-1.7c-0.6-4.9,2-9.1,4.2-13c3.5-6.1,8.7-10.9,15.2-14.1
				c2-0.9,2.2,0.1,2.1,1.7c-0.3,5.1-0.5,10.1,3.1,15.2c2.3-6.3,5.5-12.1,11.1-15.5c5.4-3.3,11-6.7,17.8-7.2
				c-3.2,7.7-3.3,15.4-0.5,23.1c7.2-4.6,14.5-8.3,23.6-7.7c-2.1,4.9-5.1,8.9-6.9,13.6c-1.2,3.2-1,6.3-1.2,9.4
				c-0.2,2.1,5.4,3.3,7.3,2c3.1-2,5.2-5,8.1-7.2c8-6.1,16.4-11.4,26.3-13.6c13.7-3,27.1-1.2,39.2,5.7c4.4,2.5,8.7,6,11.8,10.5
				c0.6,0.9,1.3,2,0.9,2.8c-0.4,0.9-1.7,0.4-2.6,0.5c-9.5,1.1-18.9,2.1-25.5,10.4c-2.7,3.3-1.6,7.1-2.2,10.7
				c-0.7,4.9,3.6,5.4,6.7,5.9c5.6,0.9,9.6,3.9,12.8,8.2c3.5,4.6,4.1,9.7,2.2,15.3c-2,5.7-4.8,10.6-9.3,14.7
				c-0.5,0.5-0.8,1.4-0.9,2.2c-0.7,5.3-1.3,10.7-1.2,16.1c0.1,4.1,1.9,7.5,5.3,9.9c3.3,2.4,5.8,5.4,7.5,9.2c4,9.2,0.6,18-6.5,23.7
				c-5.9,4.7-12.9,7.9-20.2,10.4c-6.1,2.1-11.9,4.9-15.1,11.1c-1.6,3-1.8,6.4-2.2,9.5c-0.7,5.8-0.7,11.7-0.9,17.5
				c-0.2,5.4-0.2,10.8-0.1,16.2c0,1.1-0.4,2.7,0.8,3.2c1.3,0.6,1.9-1,2.9-1.7c6.1-4.4,10.1-10.6,13.6-17.1
				C726.3,420.8,726.7,418.7,727.4,416.3z M667.6,510.1c0.7,0.4,1.2,0.1,1.7-0.4c7.7-2.4,14.4-6.2,19-13.1c0-0.1,0.1-0.2,0.1-0.2
				c0,0.1,0,0.2,0,0.3c-3.2-0.4-6.5,0.8-9.7,0.1c-0.9-0.2-1.9,0.1-2.4,1.1c-2.1,4.1-5.5,7.3-7.3,11.6
				C668.4,509.4,667.8,509.4,667.6,510.1c0,0.1,0,0.2,0,0.3C667.6,510.3,667.6,510.2,667.6,510.1z M538.3,484.5
				c-0.1-0.1-0.1-0.1-0.2-0.2C538.2,484.3,538.3,484.4,538.3,484.5c2.3,6.2,7.9,9.5,12.6,13.4c1.5,1.2,2.7,3.5,5.3,2.9
				c0.1,0.1,0.1,0.2,0.2,0.2c-0.1-0.1-0.2-0.1-0.2-0.2c-1.1-4.6-4.7-8.1-5.3-12.9c-0.1-0.8-0.6-1.8-1.5-1.7
				C545.5,486.6,542.2,483.7,538.3,484.5z M658.3,413L658.3,413c0.2,2.3,1.9,4,2.5,6.2c2.6,9.1,5.7,17.9,8.6,26.9
				c1.1,3.4,3.3,3.5,5.7,3.6c2,0.1,4-0.3,6-0.5c3.4,1.3,6.6-0.8,10-0.5c1-0.2,2.1-0.6,3.1-0.6c3.6,0,4-2.6,3.9-5
				c-0.4-6.6-0.1-13.1,0-19.7c0.1-9.3,0.3-18.6,2.3-27.7c0.9-4.1,2.9-7.9,5.8-11.1c4.3-4.7,10.2-6.5,15.7-9.1
				c5.9-2.8,12.2-4.6,17.1-9.6c5.5-5.6,4.5-14.7-1.7-19.5c-0.3-0.2-1-0.4-1.3-0.3c-0.3,0.1-0.4,0.8-0.3,1.2c0.4,1.6,0.7,3.2,0.5,4.9
				l-0.1,0.1c-4.1-4.3-4.9-10.1-6.3-15.5c-1.5-5.6-1.4-11.6-1.6-17.4c0.9-1,0.8-2.1,1-3.3c0.6-4.9,2-9.7,3.5-14.9
				c1.3,2,0.4,3.9,1.7,5.5c2.8-3.5,5.8-6.7,7.3-11.1c1.3-3.9,1-6.4-1.8-9.3c-2.5-2.6-5.9-3.5-9-3.8c-14.1-1.3-27.6,1.1-40.7,6.5
				c-2.5,1-4.9,2.5-7.4,3.4c-6.3,2.1-11.5,6.1-17.4,8.7c-3,1.3-5,4.3-8.6,4.6c1.9-4,5.1-6.7,7.9-9.6c0.3-0.4,0.6-0.9,0.9-1.3
				c0,0,0,0,0,0c3.9-2.9,7.8-6.1,11.9-8.8c5.8-3.8,12.1-6.7,18.6-9.5c-4.2-6-10.3-8.7-16.4-11.6c-0.9-0.6-1.4-1.5-2.5-2
				c-10.4-4.3-21-8-32.1-9.6c-9.9-1.4-19.8-2.4-29.9-1.8c-3.2,0.2-6.3,0.4-9.5,0.7c-6.8,0.6-13.5,1.6-19.8,4.4
				c-6.9,0.8-12.7,4.2-18.3,7.8c-1.9,1.2-0.8,2.3,0.8,3.1c5.6,2.7,10.4,6.4,14.9,10.8c3.6,3.5,6.6,7.3,10.3,10.7l0,0
				c0.3,0.4,0.6,0.9,0.9,1.3c2.2,3.6,4.4,7.1,6.6,10.7c-1.9-0.5-3.5-1.3-4.7-2.5c-7.6-7.6-16.6-13.3-25.6-19
				c-5.2-3.3-10.7-5.9-16.5-8.1c-4.1-1.6-8.3-2.6-12.4-3.8c-5.6-1.7-11.6-1.9-17.5-0.7c-2.7,0.6-6.5,4.8-6.3,7.4
				c0.3,5.6,2.2,10.5,6.1,14.8c1.1-1.8,0.5-3.8,1.3-6.2c2.2,6.7,2.2,12.8,1.9,18.9c-0.1,9.7-3.5,18.4-8.2,26.7
				c-0.9,1.6-1.4,4.9-3.4,4.3c-1.9-0.5,0.5-3.3-0.3-5.1c-4.6,2.5-6.8,4.8-7.6,7.8c-1.7,7.1,0.2,12.5,6.5,17
				c5.3,3.7,10.7,7.4,16.3,10.7c10.1,5.8,13,17.4,12,27.2c-0.7,7-1.2,14-2.5,21c-0.9,5-1.5,10-2.4,15c-0.5,2.6-1.4,5.4-0.8,7.7
				c0.5,1.8,3.8,1.3,5.5,2.7c0.1,0.1,0.2,0.1,0.3,0.1c2.9,1.5,6.3,1,9.2,2.2c3.2,1.5,6.8,0.4,10,1.8c0.7,0.3,1.1-0.7,1.5-1.2
				c2.3-2.5,3-5.8,4.6-8.7c4.2-7.6,8.6-15,12.1-23c0,0,0.1-0.2,0.1-0.2c0.2-0.3,0.4-0.6,0.6-0.8c0.2,0,0.3-0.1,0.5-0.2
				c0.8-0.1,0.8-0.7,0.8-1.3c1.7-3.2,3.5-6.3,6.5-9.7c-0.8,3-1.3,5.3-2,7.6c-2.3,7.8-4.9,15.4-7.8,23c-2.9,7.4-6.2,14.7-9.7,21.9
				c-1,2-0.6,2.4,1.3,2.1c4.4-0.5,8.8,0.3,13.1,0.5c10.7,0.6,21.4,1.7,32.1,2.7c6.6,0.6,13.2,1.2,19.8,1.5c8.3,0.5,16.7,1.5,25,2.4
				c2.4,0.3,3.1-0.8,2.4-2.8c-3.2-9.8-5.3-19.8-7.3-29.9c-1.4-7.1-1.6-14.3-2.8-21.5c2.4,2.4,3.8,5.3,4.4,8.6
				C657.6,412.1,657.7,412.7,658.3,413z M509.6,418c-0.1-0.7-0.6-1.8-1.1-0.8c-0.9,1.7-2.4,3-2.6,5.3c-0.4,4.3-1.2,8.6-1.3,13
				c-0.2,7.6,1.1,14.9,5.4,21c5.3,7.5,12.7,12.9,21.6,16c4.7,1.6,9.4,2.6,14.6,3.3c-1.3-3.8-0.6-7.5-0.7-11.2
				c1.6-4.5,4.2-8.3,8.1-11.1c1.6-1.1,2.5-2.6,3.2-4.6c-2.9-0.1-5.5-0.7-8.1-1.3c-7.7-1.7-14.9-4.2-21.8-8.4
				C518.6,433.9,512.3,427.6,509.6,418z M684.8,476.5c-1.5,2.6-0.3,6-2.1,8.4c-1.6,2.2,0.1,2.2,1.3,2.2c2,0,4-0.7,6-0.6
				c8.3,0.5,15.8-2.4,22.6-6.2c7.7-4.4,13.3-11.1,15.8-20.2c1.1-3.9,1.6-7.8,2-11.7c0.4-4.1,0.9-8.5-0.9-12.6
				c-0.5-1.1-0.5-1.1-1.6-0.1c-1.8,3.9-4.6,7.2-7.7,10.2c-4.6,4.3-9.9,7.4-15.9,9.2c-5.6,1.7-11.3,3-17.2,3.4
				c-3.7,0.3-7.6-0.4-11.8,0.3C679.3,464.8,683.7,469.8,684.8,476.5z M561.2,488L561.2,488c0.5,1.8,0.9,3.6,2,5.2
				c3.5,5.1,6.9,10.2,11.5,14.4c8.1,7.4,18,11.3,28.6,13.1c6.8,1.2,13.7,1.8,20.7,0.9c6.5-0.8,12.7-1.9,18.7-4.8
				c4.9-2.4,9.3-5.3,13.5-8.9c4-3.6,7.1-7.7,10.1-12.1l0,0c0.6-0.3,0.7-0.8,0.7-1.4c2.6-3.1,3.8-6.9,5.6-10.4
				c3.7-7.5,1.8-14.7-6-16.9c-4.1-1.1-8.1-2.1-12.5-2.2c-3.5-0.1-7-0.4-10.6-0.7c-10.3-0.8-20.6-1.9-30.9-2.8
				c-6.8-0.5-13.6-1.1-20.4-1.6c-9.1-0.6-18.2-2.2-27.4-1.4c-4.3,0.4-9.1,4.3-9.3,7.9c-0.5,7.2,1.3,14,4.9,20.2
				C560.6,487.1,560.9,487.5,561.2,488z M537.4,226.5c4.5,1.1,9.6,1.2,14.6,3c8.3,3.1,13.4,9.6,18.9,15.7c0.4,0.5,0.3,1.4,0.7,1.9
				c0.5,0.8,0.9,2.7,2,2c2.3-1.6,5.5-0.8,7.5-2.9c0.1-0.1-0.2-0.9-0.5-1.2c-2.3-3-4.2-6.4-6.9-9c-5.6-5.3-10.9-11-19.1-13.1
				c-4.2-1.1-8.4-1.7-12.5-1.9c-3.5-0.2-7.3,0.1-10.9,1.2c-1,0.3-2.5,1-0.8,2C532.3,225.6,534.1,227.5,537.4,226.5z M740.6,240.6
				c-3.7-1.5-7.2-3.3-11.3-4c-7.3-1.2-14.6-1.2-21.4,1.4c-5.7,2.2-11,5.3-15.5,9.6c-1.8,1.7-3.7,3.2-5.4,5c-0.6,0.7-2.5,2-0.7,2.7
				c2.5,1,5.7,4.6,7.1,2.9c3.2-3.8,6.9-6.6,10.8-9.5c7.3-5.5,15.7-7.3,24.3-6.3C733,243.1,736.6,241.9,740.6,240.6z M542.8,234.5
				c3.5,5.2,2.6,10.9,2.8,16.3c0.1,3.2,0.2,6.4,3.1,8.2c2,1.2,4.7,1.3,7,2.1c0.6,0.2,2-2,3-3.2c1.4-1.6,4.4-1.9,4-4.9
				c-0.3-2.3-1.5-4.2-2.6-6.2c-0.3-0.5-0.7-1-0.9-1.6C556.2,237.9,549.3,236.6,542.8,234.5z M725.5,249.3
				c-9.1,0.6-15.5,3.6-20.3,10.6c-2.9,4.2-3.5,6.6,0.5,10.6c2.3,2.3,3.9,3.6,7,3c3.4-0.6,5.7-1.9,6.4-5.8
				C720.1,261.5,720.8,255.1,725.5,249.3z"/>
			<path fill="#F7A81C" d="M657.6,411.5c-0.6-3.3-2-6.2-4.4-8.6c1.2,7.2,1.4,14.4,2.8,21.5c2,10.1,4.1,20.1,7.3,29.9
				c0.7,2,0,3.1-2.4,2.8c-8.3-0.9-16.6-1.9-25-2.4c-6.6-0.4-13.2-1-19.8-1.5c-10.7-1-21.4-2-32.1-2.7c-4.4-0.3-8.7-1.1-13.1-0.5
				c-1.9,0.2-2.2-0.1-1.3-2.1c3.5-7.2,6.8-14.4,9.7-21.9c2.9-7.6,5.6-15.2,7.8-23c0.7-2.3,1.2-4.6,2-7.6c-3,3.3-4.8,6.4-6.5,9.7
				c-0.6,0.2-0.8,0.7-0.8,1.3c-0.1,0.1-0.3,0.2-0.5,0.2c-0.5,0.1-0.7,0.3-0.6,0.8c0,0-0.1,0.2-0.1,0.2c-1.3-0.7-1.6,0.3-2.1,1.1
				c-1,1.5-1.9,3-3.1,4.3c-5.3,6.1-10.7,12.1-15.9,18.3c-2.2,2.6-4.2,5.4-7.1,7.3c-3-1.2-6.3-0.7-9.2-2.2
				c9.4-19.7,12.3-40.7,13.2-62.2c-2.9,2.5-2,7.3-6.2,10.2c1.6-4.1,1-7.5,0.5-10.6c-1-6.3-2.3-12.9-8.8-16.2c-3.2-1.7-6.1-4-9.6-5.3
				c-4.9-1.8-9.2-4.8-13.2-8.2c-1.3-1.2-2.4-2.3-0.7-4.1c5.2-5.7,8-12.6,9-20.2c0.8-6.1,2.1-12.3,0.1-18.4
				c0.3-6.1,0.3-12.2-1.9-18.9c-0.8,2.4-0.1,4.4-1.3,6.2c-3.9-4.3-5.9-9.2-6.1-14.8c-0.1-2.6,3.6-6.9,6.3-7.4
				c5.9-1.2,11.9-0.9,17.5,0.7c4.1,1.2,8.3,2.3,12.4,3.8c5.8,2.2,11.3,4.9,16.5,8.1c9,5.7,17.9,11.4,25.6,19c1.2,1.2,2.7,2,4.7,2.5
				c-2.2-3.6-4.4-7.1-6.6-10.7c0-0.6-0.1-1.3-0.9-1.3c0,0,0,0,0,0c0-0.5,0.1-0.9,0-1.4c-1.6-6.6-5.2-12.3-8.4-18.2
				c-2.2-4-1.9-9.3,0.8-12.8c6.3-2.8,13-3.8,19.8-4.4c3.1-0.3,6.3-0.5,9.5-0.7c10.1-0.6,20,0.4,29.9,1.8c11.1,1.6,21.7,5.3,32.1,9.6
				c1.1,0.4,1.6,1.4,2.5,2c-0.1,1.4-0.1,2.8-0.2,4.2c-0.1,1.7,0.4,3.5-0.8,5.1c-3.2,4.3-6.5,8.6-9.4,13.2c-1.4,2.3-3.7,4.3-3.8,7.3
				c0,0,0,0,0,0c-0.9,0-0.9,0.6-0.9,1.3c-2.8,2.9-6,5.6-7.9,9.6c3.7-0.3,5.7-3.3,8.6-4.6c5.9-2.6,11.1-6.6,17.4-8.7
				c2.5-0.8,4.9-2.3,7.4-3.4c13.1-5.4,26.6-7.8,40.7-6.5c3.1,0.3,6.5,1.1,9,3.8c2.8,3,3,5.4,1.8,9.3c-1.4,4.4-4.4,7.6-7.3,11.1
				c-1.3-1.6-0.4-3.4-1.7-5.5c-1.5,5.2-2.9,10-3.5,14.9c-0.1,1.2-0.1,2.4-1,3.3c-2.3,7.4-2.7,15-2,22.6c0.6,5.8,2,11.2,5.8,15.9
				c1.6,2-0.4,3.3-1.7,3.9c-6.3,2.9-12.5,6.2-19.3,7.5c-9.9,1.8-14.9,8.6-17,17.5c-0.7,2.8-1.4,5.6-1.7,9c-2.5-3.3-1.2-7.3-4-10.3
				c-0.5,6.6-1,12.9-1.4,19.2c-0.4,6.5-0.6,13.1,0,19.6c0.7,8.2,2.3,16.3,4.3,24.3c-3.4-0.3-6.6,1.7-10,0.5
				c-6.1-9.8-12.4-19.4-18-29.5c-1.3-2.4-2.2-5.3-4.9-6.7c0,0,0,0,0,0C658.4,412.4,658.2,411.8,657.6,411.5z M644,317.2
				c1.5-1,3.2-1.9,4.3-4.3c-14.3,2.7-28,2.2-41.1-3.9c1.1,2.2,2.3,4,4.1,5.4c4.3,5.4,9.1,10,16.4,10.8c4.3,0.5,7.9-1.5,11.1-3.8
				C640.5,320.1,643.5,320.2,644,317.2z M669.8,384.4c0.3,0.2,0.5,0.4,0.8,0.5c0.1-0.1,0.1-0.2,0.2-0.3
				C670.4,384.6,670.1,384.5,669.8,384.4c-0.9-3.9-1.9-7.7-2.7-11.5c-0.3-1.3-0.6-3.1,2-2.4c7.3,2,14.3,1,21.1-1.8
				c5.1-2.1,8.8-5.7,11.9-10.3c3.4-5.1,6-10.3,6.2-16.5c0.5-1.7,1-3.5,1.6-5.4c2.4,2.5,0.7,5.7,2,8.7c4-6,6.9-11.6,2-18
				c-1-1.3,0-1.7,0.9-1.9c1.1-0.3,2.3-0.6,3.4-0.8c1.6-0.4,1.1-1.1,0.3-1.9c-0.9-1.6-2.6-2-4.2-2.4c-4.7-1.1-9.4-1.9-14.2-2.5
				c-6.4-0.9-12.6-0.2-18.6,1.5c-9.2,2.6-16.4,8.6-22.1,16.1c-3.9,5.1-9.1,8-15.4,9.3c-1.8-0.4-3.6-0.8-5.4-1.2
				c-0.2,5.7,2.2,9.8,8,11.5c3.7,1.1,5.1,2.3,5.2,6.3c0.2,5.9,3.4,10.8,6.6,15.6C661.3,380.6,665.2,382.9,669.8,384.4z M586.9,370.8
				c5.7-4.2,8.8-10.1,10.6-16.7c0.5-1.8,0.4-2.4,2.7-2.1c5.7,0.6,11.5-4.7,12.4-10.5c0.1-0.1,0.7,0,0.2-0.5
				c-0.1,0.2-0.1,0.3-0.2,0.5c-1.9,0-3.8,0-5.7-0.1c-5.8-2.3-10.6-5.8-13.4-11.4c-5.2-10.4-12.9-18.3-23.8-21.8
				c-10.9-3.5-22.3-4.9-33.5-0.4c-0.2,0.1-0.4,0.2-0.6,0.3c-0.1,0-0.1,0.3,0,0.3c2.2,1.1,4.5,2.1,6.9,3.3c-6.4,5-5.7,13-2.2,18.8
				c1-2.5,1.9-5,2.8-7.4c0.6,2.1,1.8,4.1,1.1,6.3c-1.7,1.3-0.2,2.7,0,3.9c1.2,9.1,3.9,17.5,11.8,23.3c6.2,4.6,13.3,6.8,20.8,6.8
				c3.8,0,3.3,1,2.7,3.4c-0.9,3.7-3.4,6.7-4.6,10.2C578.1,376.8,583.8,373.9,586.9,370.8z"/>
			<path fill="#F7A81C" d="M560.3,486.6c-3.5-6.3-5.3-13-4.9-20.2c0.2-3.6,5-7.5,9.3-7.9c9.2-0.8,18.3,0.8,27.4,1.4
				c6.8,0.5,13.6,1,20.4,1.6c10.3,0.8,20.6,1.9,30.9,2.8c3.5,0.3,7.1,0.6,10.6,0.7c4.3,0.1,8.4,1.1,12.5,2.2c7.8,2.2,9.7,9.4,6,16.9
				c-1.7,3.5-3,7.3-5.6,10.4c-0.6,0.3-0.8,0.8-0.7,1.4c0,0,0,0,0,0c-2.6-0.3-3.5,2.2-5.2,3.3c-10.8,6.2-22.6,9-34.8,9.5
				c-12,0.5-24-0.5-35.4-4.1c-9.9-3.2-19.9-6.9-27.2-15.1c-0.6-0.7-1.3-1.4-2.4-1.4c0,0,0,0,0,0C561.2,487.4,561,486.8,560.3,486.6z
				 M598,479.1c2.3-0.3,1.6-2.1,1.6-3.5c0-4.3-1.6-5.8-5.9-6.1c-6.8-0.4-13.6-0.9-20.4-1.5c-7.3-0.7-9.6,2.2-7.1,9.3
				c0.5,2.1,1,4.1,1.5,6.2c1.7,5.9,9.9,12.1,15.9,11.6c6.5-0.6,10.3-5.2,13.2-10.6C597.5,482.9,599,481.2,598,479.1L598,479.1z
				 M629.8,480c-0.4,2.3,0.2,4.6,0.8,6.6c1.7,5,3.6,10,9.3,12.2c3.6,1.4,6.7,1.3,10.3,0c5-1.8,11.1-8.6,11.6-13.9
				c0.1-0.4,0.2-0.9,0.4-1.3c3.1-4.6,2.5-5.7-2.6-8.2c-3.4-1.6-6.8-0.8-10.1-1.2c-5.1-0.5-10.2-1.8-15.5-0.9
				C629.5,474.2,628.5,475.5,629.8,480z"/>
			<path fill="#E38625" d="M527.6,301.5c2,6.2,0.7,12.3-0.1,18.4c-1,7.6-3.8,14.5-9,20.2c-1.7,1.9-0.7,3,0.7,4.1
				c4,3.4,8.3,6.4,13.2,8.2c3.5,1.3,6.4,3.6,9.6,5.3c6.5,3.4,7.8,9.9,8.8,16.2c0.5,3.1,1.1,6.5-0.5,10.6c4.1-2.9,3.2-7.7,6.2-10.2
				c-0.9,21.5-3.8,42.5-13.2,62.2c-0.1,0-0.3,0-0.3-0.1c-1.7-1.4-5-0.8-5.5-2.7c-0.6-2.4,0.3-5.1,0.8-7.7c0.9-5,1.5-10,2.4-15
				c1.3-7,1.8-14,2.5-21c1-9.8-1.9-21.4-12-27.2c-5.6-3.2-11-6.9-16.3-10.7c-6.3-4.4-8.3-9.9-6.5-17c0.7-3,3-5.3,7.6-7.8
				c0.8,1.8-1.6,4.6,0.3,5.1c2,0.5,2.5-2.7,3.4-4.3C524.1,319.9,527.5,311.2,527.6,301.5z"/>
			<path fill="#E38625" d="M691.2,448.7c-2-8-3.6-16.1-4.3-24.3c-0.6-6.5-0.4-13.1,0-19.6c0.4-6.3,0.9-12.6,1.4-19.2
				c2.8,2.9,1.4,6.9,4,10.3c0.3-3.5,1-6.2,1.7-9c2.2-9,7.2-15.7,17-17.5c6.9-1.3,13-4.6,19.3-7.5c1.3-0.6,3.3-1.9,1.7-3.9
				c-3.8-4.7-5.2-10.1-5.8-15.9c-0.7-7.7-0.3-15.2,2-22.6c0.2,5.8,0.1,11.8,1.6,17.4c1.4,5.3,2.2,11.1,6.3,15.5
				c0.1,0.3,0.2,0.7,0.3,1c0.1-0.1,0.2-0.2,0.2-0.3c0.1-0.4,0-0.7-0.5-0.8c0.2-1.7-0.1-3.3-0.5-4.9c-0.1-0.4,0.1-1.1,0.3-1.2
				c0.3-0.2,0.9,0,1.3,0.3c6.2,4.7,7.1,13.9,1.7,19.5c-4.9,5-11.2,6.9-17.1,9.6c-5.5,2.6-11.4,4.4-15.7,9.1c-2.9,3.2-4.9,7-5.8,11.1
				c-2,9.1-2.2,18.4-2.3,27.7c-0.1,6.6-0.4,13.1,0,19.7c0.1,2.4-0.3,5.1-3.9,5C693.3,448.1,692.3,448.5,691.2,448.7z"/>
			<path fill="#E38625" d="M561.2,488c1.1,0,1.8,0.6,2.4,1.4c7.3,8.2,17.2,11.9,27.2,15.1c11.4,3.7,23.4,4.6,35.4,4.1
				c12.2-0.5,24-3.3,34.8-9.5c1.8-1,2.6-3.6,5.2-3.3c-2.9,4.4-6.1,8.5-10.1,12.1c-4.1,3.7-8.5,6.6-13.5,8.9
				c-5.9,2.9-12.2,3.9-18.7,4.8c-7,0.9-13.9,0.3-20.7-0.9c-10.6-1.8-20.5-5.6-28.6-13.1c-4.6-4.2-8.1-9.3-11.5-14.4
				C562.1,491.6,561.6,489.8,561.2,488z"/>
			<path fill="#C8C8C8" d="M684.8,476.5c12.3-0.3,23.6-3.6,32.3-12.6c5.3-5.5,9.2-12.4,9.7-20.4c0.2-2.6,2.9-4.9,1-7.7
				c1.1-1,1.1-1.1,1.6,0.1c1.8,4.1,1.4,8.5,0.9,12.6c-0.4,3.9-0.9,7.8-2,11.7c-2.6,9.1-8.1,15.8-15.8,20.2
				c-6.8,3.8-14.3,6.8-22.6,6.2c-2-0.1-4,0.6-6,0.6c-1.2,0-2.8-0.1-1.3-2.2C684.5,482.5,683.3,479.2,684.8,476.5z"/>
			<path fill="#C8C8C8" d="M509.6,418c-0.7,0.8-1.2,1.8-1.2,2.9c0.5,9.5,1.3,19.1,7.5,26.9c4.6,5.8,9.8,11.3,17.4,13.7
				c4,1.3,7.9,3,12.3,3c0.1,3.7-0.5,7.5,0.7,11.2c-5.2-0.7-9.9-1.7-14.6-3.3c-9-3.1-16.3-8.4-21.6-16c-4.3-6.1-5.7-13.4-5.4-21
				c0.1-4.4,1-8.6,1.3-13c0.2-2.3,1.7-3.6,2.6-5.3C509,416.3,509.5,417.3,509.6,418z"/>
			<path fill="#F2A41E" d="M537.4,226.5c-3.2,1-5.1-0.9-7-2.1c-1.7-1.1-0.2-1.7,0.8-2c3.5-1.2,7.3-1.4,10.9-1.2
				c4.1,0.2,8.3,0.8,12.5,1.9c8.2,2.1,13.4,7.8,19.1,13.1c2.7,2.6,4.7,5.9,6.9,9c0.3,0.4,0.6,1.1,0.5,1.2c-2,2.1-5.1,1.3-7.5,2.9
				c-1.1,0.7-1.5-1.2-2-2c-0.4-0.6-0.3-1.5-0.7-1.9c-5.5-6.2-10.5-12.6-18.9-15.7C546.9,227.6,541.9,227.5,537.4,226.5z"/>
			<path fill="#F2A41E" d="M740.6,240.6c-4,1.3-7.6,2.5-12.1,1.9c-8.6-1.1-17,0.8-24.3,6.3c-3.8,2.9-7.6,5.7-10.8,9.5
				c-1.5,1.8-4.7-1.9-7.1-2.9c-1.8-0.8,0-2.1,0.7-2.7c1.7-1.8,3.6-3.3,5.4-5c4.5-4.3,9.8-7.4,15.5-9.6c6.9-2.6,14.1-2.6,21.4-1.4
				C733.4,237.3,736.9,239.2,740.6,240.6z"/>
			<path fill="#E18525" d="M542.8,234.5c6.5,2.1,13.4,3.3,16.4,10.7c0.2,0.5,0.6,1,0.9,1.6c1.1,2,2.3,3.9,2.6,6.2
				c0.4,3-2.6,3.3-4,4.9c-1,1.2-2.4,3.4-3,3.2c-2.3-0.7-5-0.8-7-2.1c-2.8-1.7-3-5-3.1-8.2C545.5,245.4,546.4,239.7,542.8,234.5z"/>
			<path fill="#E18525" d="M725.5,249.3c-4.7,5.8-5.4,12.2-6.4,18.3c-0.7,3.9-3,5.2-6.4,5.8c-3.1,0.6-4.6-0.7-7-3
				c-4-4-3.4-6.4-0.5-10.6C710,252.9,716.4,250,725.5,249.3z"/>
			<path fill="#E28625" d="M586.2,256.5c-2.7,3.5-2.9,8.8-0.8,12.8c3.2,5.9,6.8,11.6,8.4,18.2c0.1,0.4,0,0.9,0,1.4
				c-3.6-3.4-6.7-7.2-10.3-10.7c-4.5-4.4-9.3-8-14.9-10.8c-1.6-0.8-2.6-1.9-0.8-3.1C573.5,260.8,579.3,257.3,586.2,256.5z"/>
			<path fill="#E28625" d="M665.8,294.6c0.1-3,2.4-5,3.8-7.3c2.8-4.6,6.2-8.9,9.4-13.2c1.2-1.6,0.7-3.4,0.8-5.1
				c0.1-1.4,0.1-2.8,0.2-4.2c6,2.9,12.2,5.7,16.4,11.6c-6.5,2.8-12.8,5.7-18.6,9.5C673.6,288.5,669.7,291.6,665.8,294.6z"/>
			<path fill="#E18525" d="M552.6,438.7c2.9-2,4.9-4.7,7.1-7.3c5.2-6.2,10.6-12.2,15.9-18.3c1.1-1.3,2.1-2.9,3.1-4.3
				c0.5-0.8,0.8-1.8,2.1-1.1c-3.5,7.9-7.9,15.4-12.1,23c-1.6,2.9-2.4,6.2-4.6,8.7c-0.5,0.5-0.8,1.5-1.5,1.2
				C559.3,439.2,555.7,440.2,552.6,438.7z"/>
			<path fill="#E08525" d="M658.3,413c2.7,1.4,3.6,4.3,4.9,6.7c5.6,10.1,11.9,19.7,18,29.5c-2,0.2-4,0.6-6,0.5
				c-2.5-0.1-4.6-0.3-5.7-3.6c-3-8.9-6.1-17.8-8.6-26.9C660.2,417,658.5,415.3,658.3,413z"/>
			<path fill="#EFA21F" d="M556.2,500.8c-2.6,0.6-3.8-1.7-5.3-2.9c-4.7-4-10.3-7.2-12.6-13.5l-0.1,0c3.9-0.7,7.2,2.1,11.1,1.7
				c0.9-0.1,1.4,1,1.5,1.7C551.5,492.7,555.1,496.3,556.2,500.8L556.2,500.8z"/>
			<path fill="#EFA21F" d="M669,509.3c1.7-4.3,5.2-7.5,7.3-11.6c0.5-1,1.5-1.3,2.4-1.1c3.3,0.8,6.5-0.5,9.7-0.1l0,0
				c-4.6,6.9-11.3,10.8-19,13.1C669.2,509.6,669.1,509.4,669,509.3z"/>
			<path fill="#E38625" d="M560.3,486.6c0.7,0.2,0.9,0.7,0.8,1.4C560.9,487.5,560.6,487.1,560.3,486.6z"/>
			<path fill="#E38625" d="M666.2,495.9c0-0.6,0.2-1.1,0.7-1.4C666.9,495,666.8,495.5,666.2,495.9z"/>
			<path fill="#EFA21F" d="M669.3,509.7c-0.5,0.5-1,0.8-1.7,0.4l0.1,0c0.2-0.7,0.7-0.8,1.3-0.8C669.1,509.4,669.2,509.6,669.3,509.7
				z"/>
			<path fill="#E08525" d="M657.6,411.5c0.7,0.3,0.8,0.8,0.7,1.5C657.7,412.7,657.6,412.1,657.6,411.5z"/>
			<path fill="#E18525" d="M581.9,406.4c0-0.6,0.2-1.1,0.8-1.3C582.6,405.7,582.6,406.3,581.9,406.4z"/>
			<path fill="#E28625" d="M664.8,295.8c0-0.6,0.1-1.3,0.9-1.3C665.4,295,665.1,295.4,664.8,295.8z"/>
			<path fill="#E28625" d="M593.8,288.8c0.9,0,0.9,0.6,0.9,1.3C594.4,289.7,594.1,289.3,593.8,288.8z"/>
			<path fill="#EFA21F" d="M538.3,484.4c-0.1-0.1-0.1-0.1-0.2-0.2C538.2,484.3,538.2,484.4,538.3,484.4
				C538.3,484.5,538.3,484.4,538.3,484.4z"/>
			<path fill="#E18525" d="M580.8,407.4c-0.1-0.5,0.1-0.8,0.6-0.8C581.2,406.9,581,407.2,580.8,407.4z"/>
			<path fill="#EFA21F" d="M688.4,496.6c0-0.1,0-0.2,0-0.3C688.4,496.4,688.4,496.5,688.4,496.6
				C688.3,496.6,688.4,496.6,688.4,496.6z"/>
			<path fill="#EFA21F" d="M556.2,500.8c0.1,0.1,0.2,0.1,0.2,0.2C556.3,501,556.3,500.9,556.2,500.8
				C556.2,500.8,556.2,500.8,556.2,500.8z"/>
			<path fill="#EFA21F" d="M667.6,510.1c0,0.1,0,0.2,0,0.3C667.6,510.3,667.6,510.2,667.6,510.1
				C667.6,510.1,667.6,510.1,667.6,510.1z"/>
			<path fill="#493217" d="M718.4,322.5c0.8,0.8,1.3,1.5-0.3,1.9c-1.1,0.3-2.3,0.5-3.4,0.8c-0.9,0.3-1.9,0.7-0.9,1.9
				c4.9,6.4,2,12-2,18c-1.3-3,0.5-6.2-2-8.7c-0.6,1.9-1.1,3.6-1.6,5.4c-0.4,0.7-0.8,1.4-1.1,2.2c-1.7,5.7-5.2,10-10.2,13
				c-5.5,3.3-11.2,5.2-17.8,5.5c-5.5,0.2-10.2-1-14.7-3.7c-2.9-1.8-4.3-1.4-5.2,2c-1.1,4.1-2,8.3-0.6,12.5c0.4,1.2,0.6,2.3-0.2,3.4
				c-3.2-4.8-6.4-9.8-6.6-15.6c-0.2-4-1.6-5.2-5.2-6.3c-5.8-1.7-8.2-5.8-8-11.5c1.8,0.4,3.6,0.8,5.4,1.2c0.6,0.9,1.6,1.1,2.5,1.1
				c5.9,0.1,11.3-1.6,15.7-5.4c7.3-6.4,15.2-11.7,24.3-15.1c2.4-0.9,5.1-1.6,7.7-2.3C702.2,320.6,710.3,322,718.4,322.5z
				 M696.8,340.1c1.7-2.3,0.6-4.7,0.3-7.1c-0.2-1.8-0.9-1.8-2.3-1c-2.8,1.4-5.7,2.6-8.5,4c-6.6,3.6-13.2,7.3-18.7,12.7
				c-0.3,0.3-0.6,0.7-0.9,1c-2.3,2.3-2.1,3.1,1.1,4.4c1.1,0.4,2.2,0.8,3.4,1c4.1,0.8,8.1,1.2,12.4,0.3
				C691.7,353.8,697.1,348.1,696.8,340.1z"/>
			<path fill="#493217" d="M544.1,329.4c0.7-2.2-0.5-4.2-1.1-6.3c-0.9,2.5-1.9,4.9-2.8,7.4c-3.4-5.8-4.1-13.8,2.2-18.8
				c-2.4-1.1-4.6-2.2-6.9-3.3c0,0,0-0.3,0-0.3c0.2-0.1,0.4-0.2,0.6-0.3c0.9,0.1,1.9,0.3,2.8,0.3c10.7-0.6,20.7,1.7,29.7,7.4
				c5.4,3.4,11.2,6.4,15,11.7c2.3,3.1,4.9,5.8,7.7,8.3c4.3,3.9,9,7.5,15.5,6c1.9,0,3.8,0,5.7,0.1c0,0-0.1,0-0.1,0
				c-0.8,5.7-6.7,11.1-12.4,10.5c-2.4-0.2-2.2,0.3-2.7,2.1c-1.8,6.6-4.9,12.5-10.6,16.7c0.1-0.3,0.3-0.7,0.4-1
				c1.9-5.1,3.2-10.3,1.8-15.8c-0.3-1.1,0-3.9-2.3-2.6c-4.5,2.6-9.4,3.2-14.3,2.7c-5.3-0.6-10.3-2.3-14.9-5.1
				C550.2,344.4,546.5,337.4,544.1,329.4z M555.6,327.9c0.1,2.5-0.5,4.9,0.4,7.5c4.3,12,18.6,14.3,28.4,10.4
				c1.5-0.6,1.6-1.1,0.7-2.2c-0.6-0.7-1.2-1.4-1.8-2.1c-6.1-8-14.5-13.6-22.3-19.8c-3.5-2.8-4.9-1.9-5.5,2.6
				C555.3,325.5,555.5,326.7,555.6,327.9z"/>
			<path fill="#E28625" d="M544.1,329.4c2.4,8,6.1,15,13.5,19.6c4.6,2.8,9.7,4.5,14.9,5.1c4.9,0.5,9.7-0.1,14.3-2.7
				c2.4-1.3,2.1,1.4,2.3,2.6c1.4,5.5,0.1,10.7-1.8,15.8c-0.1,0.3-0.3,0.7-0.4,1c-3.1,3.1-8.9,6-12.2,6.2c1.2-3.6,3.7-6.5,4.6-10.2
				c0.6-2.5,1.1-3.4-2.7-3.4c-7.4,0-14.6-2.2-20.8-6.8c-7.8-5.8-10.5-14.2-11.8-23.3C543.9,332,542.4,330.6,544.1,329.4z"/>
			<path fill="#E28625" d="M658.4,376.7c0.8-1.1,0.6-2.2,0.2-3.4c-1.4-4.2-0.5-8.4,0.6-12.5c0.9-3.4,2.3-3.7,5.2-2
				c4.5,2.7,9.2,4,14.7,3.7c6.6-0.3,12.3-2.2,17.8-5.5c5-3,8.5-7.3,10.2-13c0.2-0.8,0.7-1.5,1.1-2.2c-0.2,6.2-2.7,11.5-6.2,16.5
				c-3.1,4.5-6.7,8.1-11.9,10.3c-6.9,2.8-13.9,3.8-21.1,1.8c-2.6-0.7-2.2,1-2,2.4c0.8,3.9,1.8,7.7,2.7,11.5l0,0
				C665.2,382.9,661.3,380.6,658.4,376.7z"/>
			<path fill="#E18525" d="M718.4,322.5c-8.1-0.4-16.2-1.9-24.3,0.2c-2.6,0.7-5.3,1.4-7.7,2.3c-9,3.4-17,8.7-24.3,15.1
				c-4.3,3.8-9.8,5.5-15.7,5.4c-0.9,0-1.9-0.2-2.5-1.1c6.2-1.3,11.4-4.1,15.4-9.3c5.8-7.5,12.9-13.5,22.1-16.1
				c6-1.7,12.1-2.3,18.6-1.5c4.8,0.6,9.5,1.4,14.2,2.5C715.8,320.5,717.4,320.9,718.4,322.5z"/>
			<path fill="#E18525" d="M606.9,341.5c-6.5,1.5-11.1-2.1-15.5-6c-2.8-2.5-5.4-5.3-7.7-8.3c-3.9-5.3-9.7-8.3-15-11.7
				c-9.1-5.7-19-8-29.7-7.4c-0.9,0.1-1.9-0.2-2.8-0.3c11.2-4.5,22.6-3.1,33.5,0.4c10.9,3.5,18.6,11.4,23.8,21.8
				C596.3,335.6,601.2,339.2,606.9,341.5z"/>
			<path fill="#E28625" d="M611.2,314.4c-1.8-1.4-3-3.2-4.1-5.4c13.2,6,26.8,6.6,41.1,3.9c-1.1,2.4-2.7,3.3-4.3,4.3
				c-4-0.3-7.5,2.1-11.6,1.9c-5.9-0.3-11.6-0.1-16.8-3.5C614.3,314.7,612.9,314.1,611.2,314.4z"/>
			<path fill="#4E3517" d="M611.2,314.4c1.6-0.4,3.1,0.3,4.3,1.2c5.2,3.4,10.9,3.3,16.8,3.5c4.1,0.2,7.6-2.2,11.6-1.9
				c-0.5,2.9-3.5,2.9-5.3,4.1c-3.2,2.3-6.8,4.3-11.1,3.8C620.3,324.4,615.5,319.9,611.2,314.4z"/>
			<path fill="#E28625" d="M669.8,384.4c0.3,0.1,0.6,0.2,0.9,0.3c-0.1,0.1-0.1,0.2-0.2,0.3C670.3,384.7,670,384.6,669.8,384.4
				C669.8,384.4,669.8,384.4,669.8,384.4z"/>
			<path fill="#493217" d="M612.7,341.5c0.1-0.2,0.1-0.3,0.2-0.5C613.3,341.5,612.7,341.4,612.7,341.5
				C612.6,341.5,612.7,341.5,612.7,341.5z"/>
			<path fill="#493216" d="M566.1,477.3c-2.5-7.1-0.2-10,7.1-9.3c6.8,0.6,13.6,1,20.4,1.5c4.4,0.3,6,1.9,5.9,6.1
				c-0.8,1-1.4,2.2-1.6,3.5c0,0-0.1,0-0.1,0c-1.9,0.5-2.8,2.1-3.8,3.6c-2,2.9-4.7,5.3-7.8,6.4c-6.8,2.3-12.5-1.6-15.9-6.3
				C569.1,480.9,568,478.8,566.1,477.3z"/>
			<path fill="#493216" d="M629.8,480c-1.3-4.5-0.3-5.8,4.3-6.6c5.2-1,10.4,0.3,15.5,0.9c3.3,0.4,6.7-0.4,10.1,1.2
				c5.1,2.5,5.7,3.6,2.6,8.2c-0.2,0.4-0.3,0.9-0.4,1.3c-1.6,2.8-4.4,4.5-6.8,6.6c-6.7,5.9-16.2,3.7-19.9-2.5
				C633.4,486,632.1,482.7,629.8,480z"/>
			<path fill="#E18525" d="M566.1,477.3c1.9,1.5,3,3.6,4.3,5.5c3.4,4.7,9.1,8.7,15.9,6.3c3.1-1.1,5.9-3.4,7.8-6.4
				c1-1.5,1.8-3.1,3.8-3.6c1,2.1-0.5,3.8-1.3,5.3c-2.8,5.4-6.6,9.9-13.2,10.6c-5.9,0.6-14.2-5.6-15.9-11.6
				C567.1,481.4,566.7,479.4,566.1,477.3z"/>
			<path fill="#E28625" d="M629.8,480c2.3,2.7,3.6,6,5.4,9c3.7,6.2,13.2,8.4,19.9,2.5c2.4-2.1,5.1-3.7,6.8-6.6
				c-0.5,5.3-6.6,12-11.6,13.9c-3.6,1.3-6.7,1.4-10.3,0c-5.7-2.2-7.6-7.2-9.3-12.2C630,484.7,629.4,482.3,629.8,480z"/>
			<path fill="#E18525" d="M598,479.1c0.3-1.3,0.8-2.5,1.6-3.5C599.6,477,600.4,478.8,598,479.1z"/>
			<path fill="#493318" d="M736.3,352.2c0.5,0.1,0.5,0.4,0.5,0.8c0,0.1-0.2,0.2-0.2,0.3C736.4,352.9,736.3,352.6,736.3,352.2
				C736.2,352.3,736.3,352.2,736.3,352.2z"/>
			<path fill="#C7C6C5" d="M667.6,348.7c6.3,4.3,17.2,3.7,23.1-1c2.7-2.2,4.4-4.8,6-7.6c0.3,8-5.1,13.7-13.1,15.4
				c-4.4,0.9-8.3,0.5-12.4-0.3c-1.2-0.2-2.3-0.6-3.4-1c-3.2-1.3-3.4-2.1-1.1-4.4C667,349.4,667.3,349,667.6,348.7z"/>
			<path fill="#C6C5C5" d="M555.6,327.9c1.6,7.2,6.3,11.8,13,14c4.8,1.6,9.9,2.8,14.8-0.4c0.6,0.7,1.2,1.4,1.8,2.1
				c0.9,1.1,0.8,1.6-0.7,2.2c-9.8,3.9-24.2,1.6-28.4-10.4C555,332.8,555.6,330.4,555.6,327.9z"/>
		</g>
	</g>
</g>
</svg>
