<?xml version="1.0" encoding="utf-8"?>
<!-- Generator: Adobe Illustrator 17.1.0, SVG Export Plug-In . SVG Version: 6.00 Build 0)  -->
<!DOCTYPE svg PUBLIC "-//W3C//DTD SVG 1.1//EN" "http://www.w3.org/Graphics/SVG/1.1/DTD/svg11.dtd">
<svg version="1.1" id="Layer_1" xmlns="http://www.w3.org/2000/svg" xmlns:xlink="http://www.w3.org/1999/xlink" x="0px" y="0px"
	 viewBox="0 0 841.9 595.3" enable-background="new 0 0 841.9 595.3" xml:space="preserve">
<g id="KvLfPn.tif">
	<g>
		<path fill="#67655B" d="M100.1,540.1c-0.4,0-0.8,0.1-1.2,0.1c0.8-23.4,1.6-46.8,2.4-70.2c0.3,0,0.7-0.1,1-0.2
			C101.5,493.2,100.8,516.6,100.1,540.1z"/>
		<path fill="#414042" d="M427.5,462.4c0.1-3.8,0.2-5.8,0.3-7.8c0.6-19.1,1.3-38.3,2-57.4c0.2-5.9,1.7-6.8,6.7-3.9
			c7.1,4.1,14.4,8.1,21.1,12.8c2.2,1.5,4.2,5,4.1,7.6c-1.1,39.7-2.4,79.5-4,119.2c-0.1,2.6-2.3,6.1-4.5,7.3
			c-13.4,7.5-27,14.7-40.8,21.4c-2.4,1.2-6.5,1-8.8-0.4c-13.3-7.7-26.4-15.8-39.2-24.2c-2.1-1.3-3.9-4.7-3.9-7.2
			c0.1-15.2,0.6-30.5,1.6-45.7c0.2-2.6,2.3-6.1,4.6-7.3c13.4-7.5,27.1-14.4,40.7-21.6c3.2-1.7,5.9-1.5,8.9,0.4
			C419.4,457.8,422.8,459.6,427.5,462.4z M426.6,509.2c-0.6-3.5-0.1-8.1-2.1-10c-4-3.7-9.4-8-14.3-8.2c-4.9-0.2-10.3,4.1-14.9,7.2
			c-1.5,1.1-1.7,4.7-1.7,7.1c-0.1,4.2-1.1,9.6,1.1,12.2c3.5,4,9.2,8,14.2,8.2c4.9,0.2,10.6-3.7,14.8-7
			C425.9,517.1,425.7,512.5,426.6,509.2z"/>
		<path fill="#39B54A" d="M328.4,505.2c-0.2,7.2-0.6,14.5-0.7,21.7c-0.1,4-1.7,6.6-5.3,8.4c-13.3,6.9-26.6,13.8-39.8,20.9
			c-3.6,1.9-6.6,1.6-10-0.5c-12.5-7.8-25.1-15.6-37.8-23.3c-3.7-2.2-5-5.1-4.8-9.2c0.6-14.5,1.1-28.9,1.5-43.4
			c0.1-4.1,1.6-6.8,5.5-8.8c13.2-6.7,26.3-13.7,39.3-20.7c3.8-2,7-1.7,10.5,0.5c12.4,7.8,24.8,15.5,37.3,23c3.9,2.3,5.4,5.2,5.1,9.6
			C328.8,490.7,328.7,498,328.4,505.2z"/>
		<path fill="#414042" d="M490.9,511c0.3-7.4,0.6-14.9,0.7-22.3c0-4.2,1.8-6.8,5.6-8.7c13.2-6.7,26.3-13.7,39.3-20.6
			c3.5-1.9,6.6-1.8,10,0.4c12.5,7.9,25.2,15.5,37.7,23.4c7.4,4.6,7,19.5-0.6,23.7c-7.4,4-14.9,8-22.3,11.9c-4.4,2.3-6.7,1.2-5.6-3.3
			c2.8-11.6-5.1-15.8-13.2-19.8c-1.4-0.7-3.5-0.3-5.3-0.1c-0.7,0-1.3,0.7-2,1c-12.9,6.6-13.6,7.6-12.2,21.8c0.2,1.9,2.3,4.1,4.1,5.2
			c12.4,7.8,24.9,15.3,37.3,23c5.2,3.2,5.1,4.7-0.2,7.5c-7.2,3.7-14.4,7.2-21.5,11c-3.5,1.9-6.6,1.8-10-0.3
			c-12.6-7.8-25.2-15.5-37.9-23.1c-3.5-2.1-4.9-4.8-4.7-8.7C490.5,525.5,490.7,518.2,490.9,511z"/>
		<path fill="#414042" d="M100.1,540.1c0.7-23.4,1.5-46.9,2.2-70.3c1.5-1.3,2.9-2.8,4.7-3.8c12.9-6.8,25.9-13.5,38.8-20.4
			c3.8-2,6.8-2,10.4,0.3c12.5,7.9,25.1,15.6,37.8,23.2c3.5,2.1,4.9,4.6,4.7,8.6c-0.8,20.4-1.5,40.8-2.2,61.3c-0.2,6-1.3,6.5-6.8,3.3
			c-6.7-4.1-13.4-8.3-20.2-12.2c-3.7-2.1-5.2-4.9-5-9.1c0.4-8.5,0.5-17.1,1-25.6c0.2-4-1.1-6.8-4.7-8.6c-2.3-1.2-4.4-3.2-6.8-3.9
			c-2.6-0.7-5.7-0.9-8.3-0.3c-2.5,0.5-4.6,2.4-7,3.4c-3.9,1.7-5.5,4.5-5.5,8.7c0,8.5-0.2,17.1-1,25.6c-0.2,2.6-1.8,6-3.9,7.2
			c-7.9,4.7-16.1,8.7-24.3,12.8C102.9,540.8,101.4,540.2,100.1,540.1z"/>
		<path fill="#39B54A" d="M650.3,495.1c2.6,0.1,4.8,0.2,7.6,0.3c-0.3,8.6-0.5,16.9-0.9,25.2c-0.3,7.6-0.3,15.3-1.2,22.8
			c-1.1,9.5-8.5,13.6-17.6,9.8c-5.3-2.2-10.5-5.2-15-8.7c-2.1-1.6-3.5-5.4-3.5-8.2c0.1-14.7,0.9-29.3,1.3-44
			c0.1-4.4,2.2-7.3,6.1-9.3c13-6.8,25.9-13.6,38.8-20.5c4-2.1,7.8-2,11.7,0.4c12.4,7.7,24.8,15.4,37.3,23c3.9,2.4,5.7,5.6,5.5,10.2
			c-0.6,14.5-1,29-1.5,43.5c-0.1,4.3-2.1,7.3-5.9,9.3c-13.1,6.9-26.2,13.8-39.3,20.7c-3.9,2.1-7.5,2-11.2-0.4
			c-4.2-2.8-8.5-5.4-13.3-8.5c4.2-3,7.9-4.9,12.1-1c4.7,4.4,9,3.9,14.5,0.7c10.3-6.1,21.2-11.2,31.7-17c1.8-1,3.6-3.8,3.7-5.8
			c0.8-13.4,1.2-26.7,1.4-40.1c0-2.1-1.5-5-3.2-6.1c-11.3-7.3-22.8-14.4-34.5-21.2c-1.8-1-5.1-1-6.9-0.1
			c-11.9,5.9-23.6,12.3-35.5,18.4c-2.9,1.5-3.9,3.3-4,6.5c-0.3,13.2-0.7,26.4-1.4,39.6c-0.2,3.3,0.9,5.2,3.7,6.6
			c2.5,1.2,4.8,3,7.3,4.3c6.4,3.2,10.2,1.1,10.5-6c0.5-12.6,0.9-25.3,1.3-37.9C650.1,499.5,650.2,497.5,650.3,495.1z"/>
		<path fill="#39B54A" d="M701.8,510.1c-4.2,0.8-7.1,0.9-9-3.6c-2.2-5-16.6-6.5-20.4-2.5c-2.3,2.4-1.5,5.6,2.3,6.7
			c5.4,1.5,11,2.5,16.5,3.7c9,2.1,12,5.4,11.6,12.4c-0.4,6.8-5.6,11.7-13.7,12.1c-5.4,0.2-11,0.2-16.2-0.8
			c-8.1-1.5-11.6-6.4-11.6-14.8c3.9-1.3,7-1.3,8.4,3.8c0.4,1.5,2.4,3.4,3.9,3.5c5.5,0.7,11.1,1.1,16.6,0.7c1.6-0.1,3.8-3,4.2-4.9
			c0.2-1.1-2.3-3.6-4.1-4.2c-3.9-1.3-8-1.8-12.1-2.7c-2.2-0.5-4.4-0.9-6.6-1.5c-5.3-1.6-8.9-4.8-8.9-10.8c0-5.3,3.3-10.5,9.2-11.2
			c7.1-0.8,14.6-0.5,21.6,0.9C699.2,498.3,701.5,503.7,701.8,510.1z"/>
		<path fill="#39B54A" d="M549.1,512.2c-0.2,4.7-5.3,10.1-9.7,10.1c-4.1,0-9.4-6-9.3-10.5c0.2-4.7,5.4-10.2,9.7-10.2
			C543.9,501.7,549.2,507.8,549.1,512.2z"/>
	</g>
</g>
</svg>
