<?xml version="1.0" encoding="utf-8"?>
<!-- Generator: Adobe Illustrator 17.1.0, SVG Export Plug-In . SVG Version: 6.00 Build 0)  -->
<!DOCTYPE svg PUBLIC "-//W3C//DTD SVG 1.1//EN" "http://www.w3.org/Graphics/SVG/1.1/DTD/svg11.dtd">
<svg version="1.1" id="Layer_1" xmlns="http://www.w3.org/2000/svg" xmlns:xlink="http://www.w3.org/1999/xlink" x="0px" y="0px"
	 viewBox="0 0 841.9 595.3" enable-background="new 0 0 841.9 595.3" xml:space="preserve">
<g id="UzSHFJ.tif">
	<g>
		<path fill="#414042" d="M156.1,21.7c6.2,1,12.6,1.5,18.6,3.1c38.9,10.9,65.4,34.9,75.5,74.6c8.3,32.4,0.5,61.7-20.2,87.6
			c-15.2,19-34.8,31.2-58.8,36c-28.9,5.8-55.2-0.6-78.9-17.7c-21.2-15.3-35.2-35.7-40.1-61.5c-6.5-34.2,2-64.4,25.7-90
			c15-16.2,33.5-26.2,55.2-30.4c4.4-0.8,8.8-1.2,13.2-1.8C149.7,21.7,152.9,21.7,156.1,21.7z M63.1,123.5
			c-0.4,52.1,44.3,88.7,87.6,88.8c54,0.2,89.4-45.3,89.8-87.4c0.5-55.8-46-90-88.7-90.2C103.1,34.4,63.1,74.7,63.1,123.5z"/>
		<path fill="#414042" d="M197.2,61c-2.4,3.6-4.8,7.3-7.1,10.9c-9.7,14.7-19.4,29.4-29,44.1c-1.5,2.4-3.3,3.4-6.2,3.4
			c-8.8-0.2-17.5,0-26.3-0.1c-0.9,0-1.7-0.1-2.6-0.2c-0.1-0.2-0.2-0.5-0.2-0.7c23.6-19.4,47.1-38.8,70.7-58.2
			C196.7,60.5,197,60.7,197.2,61z"/>
		<path fill="#414042" d="M107.4,188.7c0.3-0.6,0.5-1.1,0.9-1.7c11.9-18.1,23.9-36.3,35.8-54.4c1.2-1.8,2.7-2.7,4.8-2.7
			c9.3,0.1,18.7,0.1,28,0.2c0.5,0,1.1,0.2,2.4,0.5c-24.1,19.8-47.7,39.2-71.3,58.6C107.8,189,107.6,188.9,107.4,188.7z"/>
	</g>
</g>
<g id="KvLfPn.tif">
	<g>
		<path fill="#67655B" d="M100.1,540.1c-0.4,0-0.8,0.1-1.2,0.1c0.8-23.4,1.6-46.8,2.4-70.2c0.3,0,0.7-0.1,1-0.2
			C101.5,493.2,100.8,516.6,100.1,540.1z"/>
		<path fill="#414042" d="M427.5,462.4c0.1-3.8,0.2-5.8,0.3-7.8c0.6-19.1,1.3-38.3,2-57.4c0.2-5.9,1.7-6.8,6.7-3.9
			c7.1,4.1,14.4,8.1,21.1,12.8c2.2,1.5,4.2,5,4.1,7.6c-1.1,39.7-2.4,79.5-4,119.2c-0.1,2.6-2.3,6.1-4.5,7.3
			c-13.4,7.5-27,14.7-40.8,21.4c-2.4,1.2-6.5,1-8.8-0.4c-13.3-7.7-26.4-15.8-39.2-24.2c-2.1-1.3-3.9-4.7-3.9-7.2
			c0.1-15.2,0.6-30.5,1.6-45.7c0.2-2.6,2.3-6.1,4.6-7.3c13.4-7.5,27.1-14.4,40.7-21.6c3.2-1.7,5.9-1.5,8.9,0.4
			C419.4,457.8,422.8,459.6,427.5,462.4z M426.6,509.2c-0.6-3.5-0.1-8.1-2.1-10c-4-3.7-9.4-8-14.3-8.2c-4.9-0.2-10.3,4.1-14.9,7.2
			c-1.5,1.1-1.7,4.7-1.7,7.1c-0.1,4.2-1.1,9.6,1.1,12.2c3.5,4,9.2,8,14.2,8.2c4.9,0.2,10.6-3.7,14.8-7
			C425.9,517.1,425.7,512.5,426.6,509.2z"/>
		<path fill="#39B54A" d="M328.4,505.2c-0.2,7.2-0.6,14.5-0.7,21.7c-0.1,4-1.7,6.6-5.3,8.4c-13.3,6.9-26.6,13.8-39.8,20.9
			c-3.6,1.9-6.6,1.6-10-0.5c-12.5-7.8-25.1-15.6-37.8-23.3c-3.7-2.2-5-5.1-4.8-9.2c0.6-14.5,1.1-28.9,1.5-43.4
			c0.1-4.1,1.6-6.8,5.5-8.8c13.2-6.7,26.3-13.7,39.3-20.7c3.8-2,7-1.7,10.5,0.5c12.4,7.8,24.8,15.5,37.3,23c3.9,2.3,5.4,5.2,5.1,9.6
			C328.8,490.7,328.7,498,328.4,505.2z"/>
		<path fill="#414042" d="M490.9,511c0.3-7.4,0.6-14.9,0.7-22.3c0-4.2,1.8-6.8,5.6-8.7c13.2-6.7,26.3-13.7,39.3-20.6
			c3.5-1.9,6.6-1.8,10,0.4c12.5,7.9,25.2,15.5,37.7,23.4c7.4,4.6,7,19.5-0.6,23.7c-7.4,4-14.9,8-22.3,11.9c-4.4,2.3-6.7,1.2-5.6-3.3
			c2.8-11.6-5.1-15.8-13.2-19.8c-1.4-0.7-3.5-0.3-5.3-0.1c-0.7,0-1.3,0.7-2,1c-12.9,6.6-13.6,7.6-12.2,21.8c0.2,1.9,2.3,4.1,4.1,5.2
			c12.4,7.8,24.9,15.3,37.3,23c5.2,3.2,5.1,4.7-0.2,7.5c-7.2,3.7-14.4,7.2-21.5,11c-3.5,1.9-6.6,1.8-10-0.3
			c-12.6-7.8-25.2-15.5-37.9-23.1c-3.5-2.1-4.9-4.8-4.7-8.7C490.5,525.5,490.7,518.2,490.9,511z"/>
		<path fill="#414042" d="M100.1,540.1c0.7-23.4,1.5-46.9,2.2-70.3c1.5-1.3,2.9-2.8,4.7-3.8c12.9-6.8,25.9-13.5,38.8-20.4
			c3.8-2,6.8-2,10.4,0.3c12.5,7.9,25.1,15.6,37.8,23.2c3.5,2.1,4.9,4.6,4.7,8.6c-0.8,20.4-1.5,40.8-2.2,61.3c-0.2,6-1.3,6.5-6.8,3.3
			c-6.7-4.1-13.4-8.3-20.2-12.2c-3.7-2.1-5.2-4.9-5-9.1c0.4-8.5,0.5-17.1,1-25.6c0.2-4-1.1-6.8-4.7-8.6c-2.3-1.2-4.4-3.2-6.8-3.9
			c-2.6-0.7-5.7-0.9-8.3-0.3c-2.5,0.5-4.6,2.4-7,3.4c-3.9,1.7-5.5,4.5-5.5,8.7c0,8.5-0.2,17.1-1,25.6c-0.2,2.6-1.8,6-3.9,7.2
			c-7.9,4.7-16.1,8.7-24.3,12.8C102.9,540.8,101.4,540.2,100.1,540.1z"/>
		<path fill="#39B54A" d="M650.3,495.1c2.6,0.1,4.8,0.2,7.6,0.3c-0.3,8.6-0.5,16.9-0.9,25.2c-0.3,7.6-0.3,15.3-1.2,22.8
			c-1.1,9.5-8.5,13.6-17.6,9.8c-5.3-2.2-10.5-5.2-15-8.7c-2.1-1.6-3.5-5.4-3.5-8.2c0.1-14.7,0.9-29.3,1.3-44
			c0.1-4.4,2.2-7.3,6.1-9.3c13-6.8,25.9-13.6,38.8-20.5c4-2.1,7.8-2,11.7,0.4c12.4,7.7,24.8,15.4,37.3,23c3.9,2.4,5.7,5.6,5.5,10.2
			c-0.6,14.5-1,29-1.5,43.5c-0.1,4.3-2.1,7.3-5.9,9.3c-13.1,6.9-26.2,13.8-39.3,20.7c-3.9,2.1-7.5,2-11.2-0.4
			c-4.2-2.8-8.5-5.4-13.3-8.5c4.2-3,7.9-4.9,12.1-1c4.7,4.4,9,3.9,14.5,0.7c10.3-6.1,21.2-11.2,31.7-17c1.8-1,3.6-3.8,3.7-5.8
			c0.8-13.4,1.2-26.7,1.4-40.1c0-2.1-1.5-5-3.2-6.1c-11.3-7.3-22.8-14.4-34.5-21.2c-1.8-1-5.1-1-6.9-0.1
			c-11.9,5.9-23.6,12.3-35.5,18.4c-2.9,1.5-3.9,3.3-4,6.5c-0.3,13.2-0.7,26.4-1.4,39.6c-0.2,3.3,0.9,5.2,3.7,6.6
			c2.5,1.2,4.8,3,7.3,4.3c6.4,3.2,10.2,1.1,10.5-6c0.5-12.6,0.9-25.3,1.3-37.9C650.1,499.5,650.2,497.5,650.3,495.1z"/>
		<path fill="#39B54A" d="M701.8,510.1c-4.2,0.8-7.1,0.9-9-3.6c-2.2-5-16.6-6.5-20.4-2.5c-2.3,2.4-1.5,5.6,2.3,6.7
			c5.4,1.5,11,2.5,16.5,3.7c9,2.1,12,5.4,11.6,12.4c-0.4,6.8-5.6,11.7-13.7,12.1c-5.4,0.2-11,0.2-16.2-0.8
			c-8.1-1.5-11.6-6.4-11.6-14.8c3.9-1.3,7-1.3,8.4,3.8c0.4,1.5,2.4,3.4,3.9,3.5c5.5,0.7,11.1,1.1,16.6,0.7c1.6-0.1,3.8-3,4.2-4.9
			c0.2-1.1-2.3-3.6-4.1-4.2c-3.9-1.3-8-1.8-12.1-2.7c-2.2-0.5-4.4-0.9-6.6-1.5c-5.3-1.6-8.9-4.8-8.9-10.8c0-5.3,3.3-10.5,9.2-11.2
			c7.1-0.8,14.6-0.5,21.6,0.9C699.2,498.3,701.5,503.7,701.8,510.1z"/>
		<path fill="#39B54A" d="M549.1,512.2c-0.2,4.7-5.3,10.1-9.7,10.1c-4.1,0-9.4-6-9.3-10.5c0.2-4.7,5.4-10.2,9.7-10.2
			C543.9,501.7,549.2,507.8,549.1,512.2z"/>
	</g>
</g>
<g id="IH7wnm.tif">
	<g>
		<path fill="#662D91" d="M123.9,257.8c2.1,10.9,4.1,21.8,6.3,32.7c4,20.5,8.1,41,12.1,61.5c2,10.2,4.3,12.2,15.3,12.6
			c0.2,5,0.3,10.1,0.5,15c-15.9,6.2-29.9-1.5-33.3-18.4c-5.4-26.6-10.5-53.2-15.8-79.8c-0.3-1.5-0.6-3-0.9-4.4
			c-0.8-0.1-1.2-0.2-1.5-0.2c-12.8,2.3-19.6,3.7-15.3,21.6c1.8,7.5,3,15.2,4.2,22.8c1.4,8.1,0.3,15.7-5.9,21.6
			c0.2,0.5,0.3,0.9,0.4,1c9.4,4.1,12.5,12.5,14.5,21.5c1.6,7.3,2.9,14.7,4.4,22c2.3,11.3,5.6,13.7,17.1,12.2c0.5-0.1,1,0,2.1,0
			c0.5,2.4,0.9,4.7,1.4,7.1c0.4,2.3,0.9,4.5,1.5,7.4c-9.3,1.5-18.3,3.1-27-1.4c-6.3-3.3-9.3-9.2-10.8-15.8c-2.1-9-3.7-18.2-5.8-27.3
			c-0.7-3.1-1.7-6.3-3.3-9c-3.2-5.4-8.1-7-14.3-5.4c-1-5.1-2-10.1-3-15.2c5.6-0.2,9.4-3.2,10.6-8.4c0.9-3.6,0.8-7.7,0.2-11.4
			c-1.4-9.3-3.6-18.4-5-27.7c-2-12.8,2.8-20.9,14.7-26.1c2.3-1,4.7-2,7-2.9C104.1,261.7,114,259.8,123.9,257.8z"/>
		<path fill="#662D91" d="M333.6,216.5c2.5,0,5.1,0,7.6,0c13,0.3,20.4,6,23.5,18.7c2.2,9,3.7,18.2,5.8,27.2c0.7,3.2,1.8,6.5,3.5,9.3
			c3,5.1,8,6.5,13.8,5.6c1,4.9,1.9,9.5,2.8,14.1c-9.6,3.9-12.4,9-10.6,19.4c1.6,9.1,3.6,18.2,5.1,27.4c2.4,15.1-3.8,24.5-18.6,28.7
			c-3.1,0.9-6.1,1.7-9.5,2.7c-1-5-1.9-9.7-2.9-14.7c1.3-0.4,2.6-0.7,3.9-1.1c8-2.2,10.8-6.5,9.4-14.6c-1.3-7.5-3-14.9-4.3-22.4
			c-0.7-3.7-1.2-7.4-1.4-11.1c-0.3-6.4,1.8-12.2,7.1-17.2c-7-2.7-11.4-7.5-13.4-14.1c-1.7-5.5-2.8-11.3-4.1-16.9
			c-1.1-5-1.9-10.1-3.1-15.2c-2-8.6-6.3-11.5-15.1-10.2c-1,0.1-2,0.3-3.6,0.5c-1-5-2-9.9-2.9-14.8
			C329.1,217.4,331.3,216.9,333.6,216.5z"/>
		<path fill="#662D91" d="M226.7,328.5c-18.1,3.6-35.8,7.1-53.4,10.5c0.6,9.9,10.1,17.4,21.1,17.2c10.1-0.2,19.1-3.8,28.2-8.7
			c1.7,4.4,3.4,8.7,4.8,13c0.2,0.7-0.7,2.2-1.4,2.6c-13.8,7.5-28.3,11.9-44.1,8.9c-9.3-1.8-16.7-6.8-21.8-14.8
			c-8.3-13.2-11.2-27.7-7.4-43c5.6-22.3,28.2-31.8,47.1-27c7.4,1.9,13.2,6.3,17.5,12.6C223.1,308.3,225.3,317.9,226.7,328.5z
			 M170.4,325.2c11.7-2.3,23.4-4.6,35-6.9c-1.6-10.8-9.8-17.6-19.1-16.1C175.1,304,168.3,313.7,170.4,325.2z"/>
		<path fill="#662D91" d="M237.1,345.7c9-0.5,17.4-0.9,25.8-1.5c2.2-0.2,4.5-1.2,6.6-2.1c3-1.3,5.2-3.4,5.2-7c0-3.5-1.6-6.2-4.7-7.4
			c-3.7-1.5-7.6-2.4-11.4-3.4c-4.9-1.2-9.9-1.9-14.7-3.3c-10.8-3-16-10.7-16.8-21.6c-0.7-9.9,4.2-16.8,12.4-21.5
			c11.2-6.4,23.5-7,36-6.1c0.8,0.1,2.1,1.3,2.1,2c0,4.5-0.2,9-0.4,13.6c-8.3-1.2-16.2-1.3-24,1.5c-5.2,1.8-7.7,4.7-7.6,8.6
			c0.1,3.9,2.6,7,7.9,8.3c7.1,1.8,14.4,2.9,21.5,4.7c6.4,1.6,12.3,4.5,15.3,10.9c7.3,15.9,3.1,28-13.5,34.7
			c-11.6,4.7-23.8,6.4-36.4,4.9c-2.4-0.3-3.5-1.1-3.4-3.6C237,353.2,237,349.1,237.1,345.7z"/>
		<path fill="#662D91" d="M339,259.2c-0.2,6.1-0.3,11-0.5,16.1c-8.2-1-16.1-1.3-23.8,1.5c-1.2,0.4-2.4,1-3.5,1.6
			c-2.8,1.6-4.5,3.9-4.3,7.2c0.3,3.4,2,6,5.2,7.1c3.4,1.2,6.9,1.9,10.4,2.7c6,1.5,12.1,2.5,18,4.4c10.2,3.5,13.7,11.9,14.4,21.8
			c0.6,8.8-3.7,15.3-11.1,19.3c-14,7.7-29.1,9.6-45.4,7.3c0-5.3,0-10.3,0.1-15.5c6.1,0.2,11.9,0.8,17.7,0.3c4.7-0.3,9.4-1.7,13.9-3
			c3.2-0.9,5.8-3,5.9-6.8c0.1-4.1-1.9-7.1-5.6-8.3c-4.6-1.5-9.5-2.4-14.2-3.6c-4.6-1.2-9.3-2.1-13.8-3.6c-15-5-19.4-28.4-6.1-38.9
			c6.3-5,13.5-7.7,21.2-8.6C324.4,259.5,331.5,259.6,339,259.2z"/>
	</g>
</g>
<g id="F7k8nR.tif">
	<g>
		<path fill="#6D6E71" d="M539.8,416.7c-1.8,0-3.5,0-5.3,0c-1.9-1.2-4.1-1.5-6-2.8c-7.7-5.3-10.2-12.6-3.8-20.9c2-2.6,3-5.5,3.1-8.8
			c0.1-2.2,0.5-4.4,0.8-6.6c0.1-0.7,0.2-1.3,1.1-1.2c1.8,0.4,3.7,0.8,4.9,2.2c1.4,1.6,2.8,2.9,5,1.8c1.3-0.7,2.7-5.9,2-7.1
			c-2-3.7-2-4.8,1-7.8c0.9-0.9,0.9-1.4,0.2-2.3c-1.7-2.1-3.3-4.3-4.8-6.5c-0.8-1.2-1.3-3.1-2.4-3.4c-1.5-0.5-2.2,1.7-3.3,2.6
			c-1.7,1.2-2.9,2.7-5.5,1.9c-8.3-2.3-16.8-4.3-25.3-6.2c-1.3-0.3-1.8-0.9-2.2-2.1c-2.7-7.5-4.3-15.3-5.9-23
			c-1.8-8.2-1.6-16.7-1.6-25.1c0-1.2,0.3-2.5,1.3-3.3c5-4,9.9-8,15.1-11.7c8.2-5.8,16.5-11.4,25.3-16.2c1.2-0.6,1.3-1.2,0.7-2.4
			c-1.9-3.9-4.7-7.2-6-11.3c-0.7-2.3-1.9-2.9-4.2-2.1c-4,1.5-8.4,2.2-11.6,5.4c-2.9,3-2,6.8,1.8,8.3c0.8,0.3,1.6,0.7,2.3,1.2
			c2.3,1.7,2,4.8-0.6,5.9c-3,1.3-5.1,0.9-6.7-2c-1.9-3.6-5-5.5-8.6-6.9c-1.4-0.5-2.6-1.3-4.6-2.2c3.5-0.4,4.1-2.6,4.3-5
			c0.1-0.6,0.3-1.3,0.6-1.8c3.5-5.7,8.8-9.3,14.3-12.7c1.1-0.7,2.5-0.8,3.5-2c-0.4-0.1-0.6-0.2-0.8-0.2c-8.4-0.7-16.7-1.7-24.5-5
			c-6.3-2.7-11.3-7.8-11.1-15.4c0.1-6.7,1.6-12.9,3.8-19.2c3.3-9.5,6.1-19.3,5-29.7c-0.2-2.2-0.7-4.3-1-6.8c3.6,2.6,7,5,10.8,6.8
			c6.7,3.1,13.8,4.7,20.9,6.5c8.2,2,16.7,3.3,24.4,7.2c5.6,2.8,9.6,7,11,13.3c0.6,3,0.6,6,0.2,9.1c-1.1,8-5.2,14.6-9.6,21
			c-0.6,0.9-2.2,1-2.2,2.6c3.2,0.5,6.4,0.2,9.2-0.9c6.1-2.4,12.6-4.7,13.2-12.9c0.1-1,0.2-1.4-1-1.5c-1.3-0.1-2.4-0.7-3.6-1.1
			c-2.8-1-3.6-3.1-3.7-5.8c-0.1-2.6,1.2-4.6,2.7-6.6c3.9-5.4,9-9.2,15.2-11.6c1.5-0.6,2.4-1.4,2.7-3c0.6-2.6,2.3-4.2,4.7-5.3
			c3.7-1.7,7-0.6,10.3,1.1c3.1,1.6,5.6,0.6,6.3-2.9c0.5-2.5,3.2-4.4,5.7-4c2.7,0.3,4.4,2.3,4.4,5c0,3.3-2.2,5.2-5.7,4.8
			c-3.6-0.3-5.3,1.5-4.6,4.9c1.7,7.9-3.5,12.2-8.9,12.2c-1.5,0-2.5,0.3-3.6,1.3c-3.4,3.4-7,6.3-11.9,7.2c-0.9,0.2-2,0.6-2.4,1.6
			c0.6,0.3,1,0,1.5-0.1c3.5-0.8,5.4,0.7,5.3,4.3c-0.1,3-2.1,5.7-4.9,6.7c-3.9,1.4-4.4,2-4.6,6.2c-0.1,1.2,0,2.4,0,3.6
			c-0.1,1.6,0.5,1.7,1.8,1c4.2-2.4,8.4-4.4,12.8-6.4c12.9-5.8,26.6-8.4,40.6-9.3c2.4-0.2,4.2-0.9,5.9-2.6c4.3-4.4,9-8.3,13.9-12
			c1.2-0.9,2.8-1.7,2.9-3.6c0.1-1.6,0.2-3.2,0.5-4.8c0.7-4.3,1.3-8.5,4.4-12c3.3-3.7,6.8-2.8,9.3,0.2c1.3,1.6,2.1,3.6,2.6,5.6
			c0.4,1.6,1.2,2,2.7,1.3c2.9-1.2,5.8-2.2,8.7-3.2c10.3-3.4,20.8-4.7,31.6-2.3c0.7,0.2,1.4,0.2,2-0.3c2.6-2.1,5.3-4.1,7.9-6.1
			c1.2-0.9,1.4-1.7,0.7-3.2c-1.5-3.2-0.8-8.2,1.3-9.9c2.1-1.8,4.2-3.6,7.1-4.3c1.3,0,2.6,0,3.8,0c0.3,0.4,0.8,0.4,1.3,0.5
			c6.8,1.8,9.4,8.8,5.2,14.2c-3.2,4.1-9,5.7-13.8,3.6c-1.9-0.8-3.1-0.5-4.4,0.6c-1.6,1.3-3.2,2.6-4.8,3.9c-2.6,2.1-2.6,2.1,0.1,3.7
			c0.5,0.3,1.1,0.7,1.6,1.1c3.5,3,6.7,6.1,7.7,10.9c0.2,0.8,0.2,2.2,1.9,1.5c6.5-2.5,13.1-4.3,20-5.4c1.1-0.2,2-0.5,2.1-2
			c0.1-1.7,0.9-3.3,2-4.5c4-4.4,9.8-5.6,15.5-3.4c6.3,2.4,7.9,9.6,2.9,14c-5.6,4.9-14,5.4-19.5-1.3c-0.6-0.7-1-1.2-2.1-1
			c-7,0.9-13.7,2.8-20.3,5.2c-1.4,0.5-1.8,1.3-1.7,2.7c0,4.3-0.2,8.6-1,12.8c0.2,0,0.3,0.1,0.5,0.1c1,0,2.1,0,3.1,0
			c10.5-0.1,21,0.2,31,3.8c4.6,1.6,9.1,3.6,11,8.7c0.3,0.7,0.8,0.9,1.5,0.9c3.2,0.1,6.4,0.2,9.6,0.4c1.1,0.1,1.9-0.4,2.7-1.1
			c3-2.9,8.6-2.9,11.6,0.1c1.5,1.5,3.1,3.4,2,5.6c-1.2,2.4-3.3,4-6.2,4.1c-3.2,0.2-6.2-0.4-7.6-3.4c-1.6-3.3-3.9-4.2-7.2-3.9
			c-1.5,0.1-3,0-4.6,0c-0.6,0-1.3-0.1-1.6,0.7c-1.9,4.4-6.2,6.1-10.1,8c-7.6,3.7-15.8,5.8-24,7.7c-4.7,1.1-9.5,2.2-14.2,3.3
			c-0.4,0.1-1.1,0-1.1,0.7c0,0.5,0.4,0.6,0.8,0.7c4.9,1.3,9.5,3.3,14.1,5.3c2.5,1.1,5.1,2.3,7.9,0.7c1.1-0.6,2.3,0.1,3.3,0.9
			c6.4,4.6,12.7,9.3,18.7,14.4c3.4,2.9,6.2,6.4,9.8,9c1.1,0.8,1.6,2,1.6,3.5c0,3.9-0.2,7.7-0.6,11.5c-0.3,2.7-0.8,5.4-1.4,8
			c-0.8,3.9-4.2,5.7-7.1,7.5c-2.6,1.6-1.6,3.3-1.2,5.2c0.1,0.4,0.5,0.7,0.6,1.2c1,6.8,1.9,13.6,3,20.4c0.3,1.7-0.2,2.4-1.8,2.9
			c-8.6,2.6-17.2,4.9-26.2,5c-1.4,0-1.8-0.3-1.9-1.7c-0.4-4.8-0.9-9.5-1.4-14.3c0-0.5-0.1-1.1-0.4-1.3c-0.6-0.4-1,0.3-1.3,0.6
			c-1.7,1.9-3.6,3.3-6.4,2.3c-0.6-0.2-1,0.2-1.3,0.8c-0.6,1.2-1.3,2.3-1.9,3.5c-2.2,4.3-4.3,8.6-7.2,12.6
			c-4.8,6.7-10.4,12.6-16.6,18c-4.4,3.8-9,7.3-13.9,10.4c-9.8,6.3-20.4,10.6-31.7,13.7c-13.9,3.8-28.1,4.3-42.3,3.4
			c-12.5-0.9-24.7-3.8-36.2-9.1c-1-0.4-1.6-0.4-2.5,0.4c-1.3,1.1-2.9,2.6-4.9,1.8c-4.7-1.7-7.9,1.5-11.7,3.1
			c2.7,2.1,4.5,4.5,6.2,7.1c-4.5,1.2-8.7,2.4-13,3.5c-0.8,0.2-1.5,0.4-2.1,1C549,412.9,545,415.6,539.8,416.7z M525.5,182.7
			c-4.2-1.1-8.4-2.1-12.6-3.2c-0.9-0.1-1.9-0.3-2.8-0.4c-3.5-1.4-7.1-2.8-10.6-4.1l0.1,0c-1.6-1.1-3.6-1.4-5-3c0.6,5-0.2,9.6-1,14.3
			c-0.6,3.2-1.7,6.3-1.4,9.9c0.3,3.4-2,7.3-3.7,10.7c-2.9,5.8-4.4,11.7-3.1,18.2c0.1,0.5,0.4,1.4,0.6,1.4c1.7,0.1,2.4,1.5,3.5,2.2
			c2.7,1.7,5.9,3.1,9.3,3.5c1,0.1,2.2,0.3,3-0.4c1.8-1.6,3.4-0.7,5.2-0.2c6.7,1.8,13.5,3.4,20.6,3c6.6-0.3,12.3-2.7,16.1-8.4
			c4-6,6.8-12.5,8-19.6c0.4-2.3,0.7-4.8-0.3-7.1l0.1,0.1c0.1-3.2-1.9-5.8-2.6-8.8c-0.2-0.9-1.3-1.4-2.3-1.1c-0.5-1-1.5-1.4-2.5-1.8
			c-6-2.6-12.2-4.2-18.6-5.2L525.5,182.7z M644.1,345.9c2.4,2.1,5,4,7.6,5.8c2-2.2,3.4-4.7,4.8-7.4c-5.2-1.1-10.2-1.4-15.7-0.8
			C642.2,344.5,643.2,345.2,644.1,345.9z M573.5,209.7c-0.7,0.1-0.8,0.7-1.1,1.2c-0.5,0.7-1.1,1-1.3,0c-0.7-2.4-2.6-3.4-4.6-4.3
			c2.9-3.5,3-3.8,2.3-6.7c-2.7,2.7-5.2,5.5-6,9.3c-0.2,1-0.4,2.3,0.4,3c1.9,1.5,5.2-0.3,5.6-2.7c1.4,0.6,1.4,2.9,3.1,2.8
			C572.8,212.2,573.3,210.8,573.5,209.7c1-1.8,2.8-1.4,4.4-1.5c1.1-0.1,2.3,0.1,3-1.4c-1.9,0.8-3.5,0.6-5.1,0.7
			C574.2,207.5,573.5,208.1,573.5,209.7z M732.9,237.7c-0.4,0.2-0.8,0.2-1.1,0.5c-4.6,4.1-10.1,3.5-15.5,2.8c0,0.7,0.6,0.7,1.3,0.8
			c4.5,0.6,8.8,0,12.9-1.6C731.6,239.8,733,239.3,732.9,237.7c1-0.9,0.5-1.7-0.2-2.4c-0.9-1-2-1.5-3.2-2c-2.8-1.2-5.8-1.5-8.8-1.8
			c-4-0.4-6.8,3.3-5.5,7.1c0.3,0.9,0.8,1,1.6,1c4.3,0.4,8.5-0.4,12.2-2.7C730.7,235.8,732,235.3,732.9,237.7z M731.9,336.4
			c1.9,0.5,3.1-0.6,4.3-1.9c0.9-0.9,1.9-1.7,2.8-2.6c3.2-3.5,6.3-7.2,9.6-10.6c1.3-1.3,1.5-2.6,1.4-4.2c-0.1-7.2,0-14.3,0-21.5
			c-0.2,1.5-0.4,3.1,0.6,4.6c0.1-0.6,0.2-1.3,0.3-1.9c0.7,6.8,1.4,13.6,1.7,20.3c0.5,10.1,0.3,20.2,0.7,30.2
			c0.1,1.6,0.4,1.9,1.9,1.4c4.3-1.3,8.6-2.4,12.9-3.6c1-0.3,1.4-0.7,1.2-1.9c-0.6-3.5-1.2-7-2-10.5c-1-4.5-1.6-9.1-2.3-13.7
			c-0.6-3.8-1.1-7.6-1.7-11.7c2.6,1.4,5,2.5,7.1,3.8c1.9,1.1,2.7,0.7,3-1.4c0.6-3.4,0.9-6.8,1.7-10.1c0.7-3.1,0.6-6.2,0.7-9.2
			c0-0.8-0.2-1.4-0.9-2c-2.9-2.7-5.6-5.5-8.4-8.1c-6.1-5.6-12.8-10.5-19.6-15.3c-1.4-1-2-0.9-2.4,0.9c-2.7,13.5-4.8,27.2-8.2,40.5
			c-1.1,4.4-1,9-3.5,13.1c-2.6,4.2-5.5,8.2-7.7,12.6c-0.6,1.3-0.6,1.8,1,2C728,335.6,729.9,336,731.9,336.4z M695,283.5
			c1.2-2.4,2.2-4.8,3.6-6.9c1.8-2.7,3.3-5.4,3.5-8.7c0.3-4.6,0.4-9.1,0.8-13.7c0.1-1.3-0.3-1.7-1.5-1.9c-3.3-0.6-6.6-1.3-9.9-1.9
			c-15.6-3-31.4-4.9-47.3-6.1c-1.9-0.1-2.4,0.4-2.5,2.3c-0.7,12,0.3,24,2.5,35.8c0.1,0.6,0,1.4,0.6,1.8c2.7,1.6,5.4,3.1,8.2,4.7
			c-0.8-1.8-2.3-2.4-3.7-3.2c-1.5-0.9-3.6-1.2-3.9-3.5c-0.5-4.4-1-8.9-1.5-13.7c9.8,7.9,19.3,15.5,28.7,23.1c-1,0.6-1.8,0.6-2.6,0.5
			c-9-0.1-18.1-0.2-27.1-0.4c-1.7,0-2.1,0.3-2,2.1c0.4,10.2,1.6,20.4,1.4,30.7c0,1.3,0.4,1.8,1.8,1.8c13.2,0.6,26.4,1.2,39.6,1.9
			c1.4,0.1,2.3-0.3,3.2-1.4c3.4-4.2,6.8-8.2,10.3-12.3c1.2-1.4,1.9-3,2-4.7c0.4-5.4,0.7-10.9,1.1-16.3c0.1-0.9,0-1.8-0.8-2.3
			c-3.5-2.4-6-5.9-9.1-8.7c-4.5-4-8.5-8.4-12.7-12.7c-1.1-1.1-2.8-1.7-3.5-3.6c1.3,0.2,2.4,0.3,3.5,0.5c6.9,1.2,13.9,2.4,20.8,3.5
			c2.1,0.3,1.8,1.2,0.9,2.2c-2.4,2.9-3,6.7-4.9,9.8C694.2,282.6,694.4,283,695,283.5z M548.4,283.4c-0.3-5.7-0.6-11.2-0.8-16.7
			c-0.1-1.6-0.4-2-1.9-1.2c-4,2.3-7.9,4.9-12.2,6.7c-4.3,1.7-4.8,4.7-4.6,8.6c0.5,11.2,0.6,22.3,3.2,33.3c1.3,5.4,2,10.8,3,16.3
			c0.2,1.2,0.8,2.1,2,2.7c5.4,2.9,10.7,6.1,16.1,9c1.2,0.7,2.4,1.8,3.9,1.4c4-0.9,8-1.9,12.5-3.1c-5.3-4.3-10.2-8.4-15.2-12.3
			c-1.1-0.8-1.7-1.5-1.8-2.8c-0.6-7.6-1.2-15.2-1.9-22.7c0-0.4-0.2-0.8,0.3-1.1c1.2,0.8,1.8,1.9,1.8,3.3c0.2,6.5,1.6,13,2.2,19.5
			c0.1,1,0.4,1.8,1.2,2.4c4.2,3.3,8.3,6.8,12.6,9.9c1.4,1,2.6,3.1,4.8,2.7c4.3-0.9,8.5-2,13.2-3.2c-2.5-2.1-4.4-4.4-6.2-6.7
			c-1-1.2-2-2.5-3.2-3.6c-3.3-2.9-6.2-5.8-3.9-10.7c0.5-1.1,0.6-2.3,0.8-3.5c1-4.6,1.9-9.2,1.4-14c-1.2-13.2-0.7-26.5-0.2-39.9
			c1.4,2,0.1,4,0.4,5.9c0.2,1.4,0.2,2.5,2.1,1.2c1.2-0.8,2.4-0.7,3.2,0.9c0.5,1,1.4,1.9,2.4,3.2c0.1-0.8,0.2-1,0.1-1.2
			c-2.5-4.9-5.4-9.6-8.5-14.1c-0.4-0.6-0.9-0.5-1.4-0.2c-7.8,2.7-15.3,5.9-22.8,9.4c-1.1,0.5-1.5,1.1-1.4,2.4
			c0.3,5.2,0.4,10.4,0.6,15.6C550.3,282.2,550.3,283.3,548.4,283.4z M606,280.2c0.6,1.7,1.7,3.2,2.4,4.8c2.7,5.8,4.7,11.9,7.7,17.7
			c2.2,4.2,3.6,8.7,5,13.2c0.7,2.3,1.3,4.6,2.5,6.7c0.3,0.5,0.5,1.1,1.2,0.8c0.7-0.3,0.1-0.8,0-1.2c-0.5-2-1.1-4-2.1-5.8
			c-1.6-2.8-1-3.8,2.1-4.6c4.4-1.2,8.9-1.9,13.2-3.5c0.9-0.3,1.8-0.5,1.7-1.6c-0.3-5.1-0.6-10.2-0.9-15.3c0-0.2-0.1-0.5-0.2-0.7
			c-3.7-5.1-5.6-11.1-8.7-16.6c-4.7-8.3-8.6-17.1-12.7-25.6c-0.6-1.3-1.3-1.7-2.8-1.4c-7.4,1.2-14.8,2.3-22.3,3.4
			c-1.1,0.2-1.6,0.5-1.9,1.7c-2,8.8-3.5,17.6-6.1,26.3c-1.4,4.7-2.3,9.6-3.2,14.5c-1.5,8.1-4,15.9-5.9,23.9
			c-0.6,2.3-0.1,3.9,1.7,5.2c1.2,0.9,2.2,1.9,3,3c2.7,3.6,6.2,6.5,9.2,9.8c0.4,0.4,0.7,0.9,1.7,0.5c-1.8-2.2-3.5-4.3-5.4-6.3
			c-2.2-2.3-4.4-4.6-6.5-7c-0.5-0.6-0.6-1.2,0.3-1.4c2-0.5,4.1-1.1,6.3-1c-0.2,1-1.5,0.3-1.6,1.7c3.5,0.6,6.3,3.4,10.2,3.2
			c-0.9,0-1.7,0.1-2.6,0.1c0.4,0.4,0.8,0.4,1.2,0.3c2.9-0.4,6.1,1.6,8.8-1.2c0.5-0.6,1.2,0.4,1.2,1c0,1.8,1.2,1.6,2.7,1.8
			c-2-3.6-2.8-7.4-5.2-10.5c-0.8-1-1.1-2.2-0.6-3.6c2.1-5.2,3.3-10.6,4.5-16.1c1-4.6,3.5-9.2,0.9-14.1
			C604.5,281.3,604.9,280.5,606,280.2z M730.9,317.3c-2.1,1.6-3.1,3.4-4,5.2c-1.3,2.5-2.6,5-4,7.3c-1.4,2.4-3.1,4.5-6.5,3.2
			c-0.3-0.1-0.6,0-1.2,0.1c5.5,1.9,5.8,1.8,8.2-2c2.3-3.7,4.1-7.7,6.9-11.2c1.1-1.5,2.3-3,2.6-5c0.6-3.6,1.3-7.2,2-10.8
			c0.6-3.1,0.6-3.1-2.6-3.9c-3.7-0.9-7.5-1.7-11.2-2.6c-1-0.2-2-0.4-1.7-1.7c0.3-1.4,1.3-0.5,1.9-0.3c4.3,1,8.5,2.1,12.8,3.2
			c0.8,0.2,1.6,0.7,1.9-0.5c0.8-3.4,1.6-6.8,2.4-10.2c0.2-0.8-0.1-1.2-0.9-1.4c-5.2-1.9-10.3-3.9-15.5-5.8c-1.1-0.4-2.4-0.7-1.9-2.1
			c0.5-1.3,1.7-0.1,2.4,0.1c4.8,1.7,9.6,3.6,14.3,5.4c1.5,0.6,2.2,0.3,2.5-1.4c0.7-4.4,1.5-8.8,2.5-13.2c0.4-1.6,0-2.4-1.6-3.1
			c-8.4-3.5-16.8-6.8-25.4-9.9c-2.8-1-5.6-1.8-8.4-2.8c-1.2-0.4-1.7-0.1-1.8,1.2c-0.1,1.8-0.3,3.7-0.5,5.5
			c-1.7,16.5-2.5,33-3.5,49.5c-0.1,1.4,0.4,2.1,1.8,2.3c2.3,0.4,4.6,0.8,6.8,1.2C716.5,314.7,723.4,316,730.9,317.3z M634,220.5
			c26,0.5,49.3,7.3,70.1,23.4c-0.8-1.6-2.4-2.7-1-3.8c3.8-3.1,6.3-6.9,8.5-11.3c1.8-3.6,2.6-7.5,3.8-11.2c2.5-7.7,2.5-15.9,0.1-23.8
			c-0.2-0.8-0.5-1.3-1.4-1.8c-4.5-2.3-9.3-3.3-14.3-3.4c-8.8-0.2-17.1,2-25.2,5c-4.6,1.7-8.7,4.3-13,6.5
			C651.3,205.2,642.7,212.4,634,220.5z M526.9,276.4c-1.5,0.8-2.8,1.3-3.9,2.1c-9.2,6.3-18.5,12.5-27.1,19.7c-1,0.8-1.5,1.8-1.5,3
			c-0.4,5.5-0.2,11,0.3,16.5c0.8,10.2,2.9,20.1,6.1,29.7c0.4,1.1,1,2.1,2.3,2.4c7,1.6,14.1,3,21,4.9c3.1,0.8,5.6,1,7.8-1.8
			c1.9-2.4,4.1-4.6,6.2-6.9c-0.2-0.1-0.3-0.3-0.5-0.4c-1.2,0.8-2.2,1.8-3,3c-4.5,5.9-6.1,6.4-13.2,4.4c-0.5-0.2-1.1-0.3-1.6-0.4
			c-4.8-1.2-9.7-2.3-15-3.6c4.2-2.6,7.9-4.9,11.6-7.3c1.6-1,3-1,4.7-0.4c4.2,1.3,8.5,2.3,12.8,3.5c-0.5-1.1-1.5-1.3-2.4-1.6
			c-2.9-0.9-6.3-1.3-8.5-3.1c-2.3-1.8-4-4.9-4.9-7.7c-1.1-3.5-1.8-7.2-2.6-10.9c-0.3-1.2-0.7-1.9-1.8-2.6c-2.6-1.7-5.2-3.4-7.8-5.2
			c-0.5-0.3-1-0.7-0.6-1.3c0.3-0.5,0.9-0.1,1.3,0c0.5,0.1,0.9,0.3,1.3,0.6c4.5,2.9,9.2,5.3,14,7.6c3,1.4,6,2.8,9,4.2
			c0.1-0.2,0.2-0.4,0.3-0.5c-3.7-3.4-9-4.2-12.9-7.4c2.8-2.3,6.2-3.6,9.1-5.4c1-0.6,1.4-1.3,1.3-2.5
			C527.6,298.3,526.8,287.5,526.9,276.4z M591.4,327.3c0.2,2.5,1.1,4.5,1.7,6.6c2.4,8.2,7.3,14.8,12.7,21.2c0.5,0.6,0.9,1.8,1.9,1.5
			c0.7-0.3,0.2-1.5,0.5-2.2c0.2-0.5,0-1.1,0.6-1.4c4.4,3.5,8.7,7,13.1,10.4c2.7,2,2.7,2,0.8,4.6c-0.7,0.9-0.4,1.2,0.3,2
			c1.8,1.8,3.9,1.9,6.2,1.7c4.7-0.2,9-1.5,12.8-4.3c0.5-0.3,1.6-0.6,0.7-1.6c-0.4-0.4-1-1.5-1.5,0.1c-0.2,0.6-0.7-0.3-1-0.5
			c-0.9-0.7-0.2-2.1-1.2-2.8c-3.6-2.7-5.7-6.6-8.7-9.8c-1.1-1.2-2.1-2.7-2.3-4.7c7.4,1.1,14.4,3.1,21,6.2c0.5,0.2,1,1.2,1.6,0.3
			c0.4-0.6-0.1-1.2-0.6-1.6c-1.6-1.5-3.5-2.8-5.2-4.1c-5-3.8-10-7.4-15.3-10.6c-1.1-0.7-2-1.4-2-3c1.8,0.8,3.4,1.7,5.1,2.4
			c0.9,0.4,1.7,1.9,2.6,1.1c0.8-0.7,0.8-2.2,0.6-3.4c-0.3-1.9-1.1-3.5-2.2-5c-1.9-2.4-4.6-3.5-7.3-4.3c-5-1.5-9.8-0.6-14.7,2.3
			c3.8,1.2,7,2.4,10.1,3.9c1.4,0.7,1.4,0.7,1.5,2.6C613.1,330.3,602.6,327.6,591.4,327.3z M629.1,376.5c0.1,4.3,0.9,7.4,4.3,10.1
			c1.8,1.4,4.1,2,5.7,3.7c0.4,0.5,1.1,0.4,1.5,0c0.8-0.9,1.6-0.5,2.4-0.2c1.6,0.5,3.3,0.4,5,0.8c4.1,0.9,8.4,0.5,12.5,1.1
			c3.1,0.5,6.5,1.9,9.8,0.1c1-0.6,2.2-1,3.3-1.4c1.4-0.5,2.7-1,1-2.7c-0.4-0.5,0-0.9,0.1-1.3c0.2-1.4,1.1-3.3,0.1-4
			c-2.6-1.9-0.4-5-2.3-6.9c1.6-2.9-0.2-5.7-0.4-8.6c-0.2-3.4-1.9-6.2-3.7-8.9c-2.2-3.5-6.2-4.8-9.5-6.9c-1.1-0.7-2.4-0.9-3.4,0.4
			c-0.9,1.2-1.4,2.6-2.6,3.7c-0.5,0.5-0.3,1,0.5,1.4c2.1,1.2,3.9,2.7,5.6,4.4c0.9,0.9,1,1.5-0.3,2c-2.2,1-4.5,1.6-6.9,1.9
			c-2.4,0.2-4.8,0.3-6.7,2.1c-3.7,3.5-8.2,5.1-13.1,6.1C630,373.8,627.7,373.9,629.1,376.5z M599.5,238.9c-0.8-1.4,0-2.8,0-4.2
			c0-0.9,0.5-1.2,1.3-1.4c4.9-1,9.9-1.2,14.8-0.1c6.3,1.4,8,6.5,3.9,11.5c-1,1.2-0.8,2-0.2,3.2c2.7,5.3,6,10.3,8.3,15.7
			c0.9,2.1,1.7,4.3,3.1,6.1c1.1-0.5-0.8-1.4,0.5-1.8c0.5-0.1,1.1,0.1,1.1,0.9c0,3.1,2.5,1.1,3.6,1.4c1.3,0.3,0.7-1.2,0.6-2.1
			c-0.2-1.3,1-2,1.8-2.6c0.6-0.5,0.3,0.9,1,0.8c0-1,0.1-1.9-1-2.5c-0.5-0.2-0.9-0.8-0.6-1.4c0.5-1,1,0.4,1.6,0.1
			c0.2-6.2-0.1-12.5,0.4-18.7c0.1-1.5,0.4-2,2.1-1.9c7.6,0.5,15.1,1.2,22.7,2c0.9,0.1,2.1,0.7,2.7-0.3c0.6-1,0.1-2.2-0.4-3.2
			c-0.5-1-1.4-1.5-2.2-2.1c-2.3-1.7-5.1-2.5-7.7-3.1c-4.2-1-8.4-2.9-12.8-0.7c-0.5,0.3-1,0.2-1.3-0.3c-0.4-0.7,0.3-0.7,0.7-0.9
			c0.6-0.3,1-1.1,0.2-1.1c-1-0.1-2.4,0.1-3,1.1c-0.6,0.9-0.8,2.2-0.4,3.2c0.5,1.3,1.5-0.1,2.4,0c-0.6,1.3-1.5,1.4-2.5,1.2
			c-0.9-0.2-1.2-1-1.2-1.9c0-1.5-0.7-2.4-2.3-2.5c-1.2,0-5.3,3.3-5.2,4.5c0,2.3-1.2,2.2-2.8,1.8c-0.5-0.1-1-1.3-1.6-0.3
			c-0.4,0.7,0.5,1,0.9,1.5c0.2,0.2,0.5,0.4,0.1,0.9c-0.7-0.6-2.4-0.1-2.5-1.6c-0.2-4.6-3.6-6.6-7.1-8.2c-5-2.4-10.5-2.5-16-1.9
			c-9.6,1.2-18.3,4.5-25.3,11.4c-2.2,2.1-3.2,5-2.9,8.1c0,0.4-0.1,1.1,0.4,1.3c2.7,0.7,3.7,3.1,4.8,5.1c1.3,2.4,3.4,3.4,5.8,4.2
			c0.3,0.1,0.5,0.4,0.7,0c0.6-1.1,1-2.3,0.9-3.4c-0.1-1-1.3-0.6-2-0.8c-3.6-0.9-6.7-2.6-7.5-6.5c-0.6-2.6,1.4-4.4,2.9-6.2
			c2.9-3.3,3-3.2,6.6-0.2c0.3,0.2,0.5,0.6,1,0.4c0.4-0.9,0.4-1.6-0.4-2.4c-0.6-0.6-1.2-1.3-2-1.8c1.7-0.5,2.6,0.9,3.7,1.6
			c1.2,0.8,2.1,1.4,2.4-0.6c0.2-0.9,0.8-0.6,1.3-0.5c1.1,0.1,2.2,0.7,3.2-0.2c1-0.9,0.9-2.1,0.9-3.4
			C598.2,236.8,598,238.3,599.5,238.9z M544.6,263.3c-0.5-0.4-1-0.7-1.4-1c-6.7-5.3-12.8-11.2-17.5-18.4c-0.9-1.3-1.7-1-2.8-0.5
			c-5.4,2.3-10.5,5.1-14.9,8.9c-2.3,2-4.2,4.4-4.9,7.5c-0.3,1.5-0.3,2.4,1.8,2c2.5-0.4,4.7-0.8,6-3.4c0.8-1.5,2.5-2.3,4-3
			c3.9-1.8,8.1-3,12.3-3.9c1.4-0.3,1.6,0.5,2,1.5c1.8,4.9,4.9,9.1,7.2,13.7c0.3,0.6,0.5,1.1,1.4,0.6
			C539.7,265.9,542.1,265.1,544.6,263.3z M544.6,400.7c0.1,0.2,0.3,0.3,0.4,0.5c1.4-0.9,2.8-1.8,4.1-2.7c1.8-1.2,3.8-3.5,5.3-3.2
			c1.8,0.4,3.1,3,4.5,4.7c1.8,2.2,1.7,2.4-0.9,3.4c-2.3,0.8-4.5,1.5-6.8,2.3c0.1,0.2,0.1,0.4,0.2,0.6c4.2-0.5,8.1-2.1,12.4-3
			c-0.6-0.7-0.9-1.2-1.3-1.6c-4.2-4.1-8.1-8.5-12.9-12.1c-4.2-3.1-8.1-6.5-13.1-8.3c-0.6-0.2-1.1-0.9-1.7,0.2
			c-1.5,3-1.5,6.4-3.1,9.3c-0.1,0.1,0.4,0.6,0.7,0.8c2.8,2.8,6,5,9.3,7.1c0.7,0.4,0.8,0.3,1.4-0.4c1.8-2.1,3.9-4,5.8-6
			c0.9-0.9,1.5-0.9,2.4-0.1c1,0.9,0.9,1.6,0,2.3c-1.5,1.2-2.9,2.5-4.5,3.6C546,399,545.2,399.7,544.6,400.7z M547.5,238.9
			c0.2,5.3,1.4,10.8,2.8,16.3c0.7,2.6,2.7,3.6,5.3,2.6c1-0.4,1.2-0.7,0.9-1.9c-0.8-3-0.4-6.1-0.1-9.1c0.1-1.2,0.4-2.2-0.4-3.2
			c-0.8-0.9-0.8-1.5,0.5-2.1c1.7-0.7,3.2-1.7,4.8-2.6c3-1.6,3.3-3.1,1.2-5.8c-0.8-1.1-1.7-1.5-3-0.8c-2.7,1.6-5.7,2-8.7,2.4
			C547.1,235.2,547.5,234.3,547.5,238.9z M537.4,414.9c5.4-0.1,9.4-2.4,12.6-6.2c0.4-0.4,1-0.8,0.3-1.6c-1.9-1.9-3.3-2-5.4-0.4
			c-0.6,0.5-1.3,1-2,1.4c-3.8,2.2-7.9,1.6-11.6-1.7c-2-1.8-2.8-6.7-0.5-9.6c2.3-2.9,0.3-3.7-1.3-5.1c-0.5-0.4-0.8-0.6-1.4-0.1
			c-4.5,3.4-6.1,10.9-3.2,15.7C527.7,412.1,532,414.5,537.4,414.9z M570.5,387c-3.7-2-6.3-4.5-9.5-6.2c-1.1-0.6-1.6-0.5-2.3,0.4
			c-1.7,2.1-3.2,4.5-5.3,6.4c-1,0.8-0.8,1.9,0.3,2.5c1.3,0.7,2.2,1.8,3.2,2.8c3.1,3.1,3.1,3.1,7.2,1.2c0.2-0.1,0.4-0.2,0.6-0.3
			c2-0.8,3.7-1.6,3.6-4.3C568.4,388.5,568.9,387.4,570.5,387z M551,387.4c0.2-0.2,0.5-0.3,0.7-0.5c2-2.4,4-4.7,5.9-7.1
			c0.6-0.7,0.6-1.4-0.2-2c-2-1.6-3.9-3.2-5.8-4.9c-0.5-0.5-0.9-0.6-1.4,0.1c-1.1,1.7-3,2.2-4.8,2.3c-1.4,0.1-1.9,0.8-2.3,1.9
			c-1.5,4.1-1.6,4.1,1.9,6.5c0.4,0.3,0.8,0.6,1.2,0.8C547.8,385.4,549.3,386.4,551,387.4z M737.2,176.7c1.8-1.5,1.8-3.6,1.2-5.5
			c-0.8-2.5-2.8-4.1-5.3-4.6c-5.3-1.2-10.1,1.8-11.4,6.9c-0.3,1.1,0.8,2.7,0.9,2.6c1.5-1.4,2.4,0.3,3.4,0.5c4.5,0.9,7.7-0.5,9.6-4.4
			c0.2-0.5,0-1.5,1-1.3c0.7,0.2,1.2,0.8,1.3,1.6C738.1,174,737.8,175.4,737.2,176.7z M746.7,239c2,0.3,4-0.4,5.9-1.3
			c3.3-1.5,3.9-6,0.9-8.1c-4-2.8-9.5-2.7-12.9-0.3c-3.1,2.2-3.1,5.8,0,8C742.4,238.7,744.4,239.1,746.7,239z M760.5,199.8
			c1.7,0.2,7.1-3.1,7.7-4.8c0.1-0.3,0.1-0.9-0.1-1.1c-1-1.5-2.3-3.2-3.9-3.6c-3.1-0.8-6.4-0.6-9.1,1.6c-1.6,1.2-1.6,1.6-0.9,3.4
			c0.1,0.2,0.1,0.5,0.1,0.7c-0.9,2.4,1.1,2.9,2.4,3.4C757.8,199.8,759.2,199.7,760.5,199.8z M591.3,351.9c0.7-0.1,1.8-0.2,3-0.4
			c3.2-0.6,3.8-1.8,2.2-4.6c-0.4-0.8-0.9-1.5-1.3-2.3c-0.4-0.7-0.8-0.8-1.7-0.8c-2.6-0.2-4.8,1.3-7.3,1.4c-1.3,0-2.7,0.2-2.9,1.9
			c-0.2,1.7,0.4,3.1,2.1,3.9C587.1,351.7,588.9,351.8,591.3,351.9z M599.4,192.4c-0.5,1.1,0,2,0,3c-0.2,5.2-4.6,8.4-9.3,6.4
			c-3.5-1.5-6.3-3.9-7.1-8c-1.1-5.5,2.7-9.3,8.2-8.1c1.3,0.3,2.7,0.6,3.7,1.5c0.3,0.3,0.7,0.5,1,0c0.3-0.4-0.1-0.7-0.4-0.9
			c-2.9-1.9-5.9-2.6-9.3-1.5c-3.5,1.1-4.8,3.7-5.1,7.1c-0.5,5.2,3.3,10.1,8.9,11.8c4.8,1.5,9.2-0.6,10.6-5.3
			C601.2,196.3,601.5,194,599.4,192.4z M576.9,199.4c0,1.4-0.1,2.4,0,3.4c0.1,0.9,1,1.4,1.7,1.2c1.5-0.4,2-1.9,3-2.7
			c2-1.6-0.5-2.7-0.6-4.1c-0.1-0.7-0.6-1.3-0.7-2c-0.3-1.4-0.9-1.3-2.1-0.9c-3,1.1-5.6,2.9-8,4.8
			C572.2,201.7,574.4,200.7,576.9,199.4z M570.4,200.2c-0.1,2.5-0.2,4.3-2.2,5.3c-0.6,0.3-0.8,1,0.1,1.2c1.8,0.3,2.6,1.8,3.8,3.7
			c0.4-4.8,4-3.4,6.7-4.2c-2.9-1.1-2.3-3.6-2.5-6.1C574.2,201.7,572.5,202.1,570.4,200.2z M582.3,359.1c1.9,0,3.6-1.9,2.7-3.2
			c-0.9-1.3-2-2.5-3.1-3.5c-1.1-1-2.5-0.9-3.7,0c-0.9,0.7-1.6,1.6-1.2,2.9C577.3,356.8,580.7,359.1,582.3,359.1z M653.3,361.8
			c-3.1,0.4-6.2,0.9-9.3,1.3c4.2,0.2,8.3,0.2,12.7-1.3c-7.6-5.9-16.1-8.8-25.2-10.3C639.1,354.3,647.3,355.7,653.3,361.8z
			 M610.4,355.8c0.1,6,1.3,11.2,5.1,15.6c0.3,0.3,0.4,1.4,1.2,0.6c1.9-2.2,3.6-4.6,4.4-7.4c-1.2,1.5-2.2,3.1-3.2,4.7
			c-0.7,1.1-1.1,1.8-2.3,0.2c-2.5-3.3-3.5-6.9-4-10.9C611.5,357.8,611.8,356.8,610.4,355.8z M587.8,359.8c0.1-2.6,2.2-2.4,3.8-3.3
			c2.8-1.6,5.2-2.2,7.7,0.4c0.4,0.4,0.9,0.4,1.3,0.1c0.4-0.3,0.5-0.8,0.3-1.3c-0.8-1.6-3.6-2.9-5.3-2.3c-1.2,0.4-2.4,0.7-3.7,0.8
			C589.1,354.7,587.5,356.8,587.8,359.8z M568.8,239.7c-2-1.7-2.1-1.8-2.9-1.1c-1.8,1.7-3.8,2.8-6,3.9c-0.6,0.3-1.5,0.7-0.7,1.5
			c0.6,0.5,0.6,2.2,2.2,0.9C563.7,243.1,566.2,241.5,568.8,239.7z M792,235.4c0.9-1.4-0.4-1.1-1.3-1.2c-0.8-0.1-1.5-0.2-2.3,0
			c-1.6,0.5-3,1.3-2.8,3c0.2,1.3,1.9,1,2.9,1.2C790.6,238.9,792,237.8,792,235.4z M594.4,188.3c-4.6-2.5-6-2.3-9.2,0.6
			c-0.5,0.4-0.8,0.7-0.7,1.3c0.2,0.8,0.9,0.3,1.4,0.4C588.9,190.6,591.4,189.4,594.4,188.3z M590.5,378.1c-3-4.2-9.4-5.7-13.5-3.6
			c-0.7,0.4-0.9,1-0.7,1.7C581.3,374.2,585.7,375.4,590.5,378.1z M597.6,193.3c-2.1,1.8-3.5,3.8-4.4,6.1c-0.2,0.4-0.8,1-0.1,1.5
			c0.5,0.3,1,0.1,1.6-0.2C597.4,199.5,598.4,197.3,597.6,193.3z M603.8,183c0.1,1,0.3,2,1.5,2.1c1.2,0.1,3.5-2.2,3.5-3.5
			c0-1.6-1.4-1.4-2.3-1.4C604.9,180.3,603.8,181.2,603.8,183z M630.2,229.4c-1.2,0.2-2.1,0.7-2.1,1.9c0,1.3,0.7,2.5,2.2,2.6
			c1.2,0.1,2.3-0.7,2.2-1.9C632.5,230.7,631.6,229.7,630.2,229.4z M645.3,230.8c1.6,1.1,2.9,1.7,4.4,2.1c0.9,0.3,1.8,0.2,2.2-0.8
			c0.3-1-0.5-1.7-1.3-1.9C648.9,229.6,647.1,229.5,645.3,230.8z M588.8,197.7c-1-1.2-1.7-2.5-2.2-4c-0.3-0.8-0.8-0.8-1.5-0.8
			c-0.4,0-0.8,0.2-0.9,0.6C583.9,195.2,587,198.1,588.8,197.7z M635.1,228.3c-0.3,3,0.6,3.6,3.7,3c1-0.2,2.4,0,2.6-1.2
			c0.1-1.1-1-1.7-2-2.4c-0.2,1.1,0.8,2.3-0.8,2.6C637.1,230.5,635.4,230.8,635.1,228.3z M539.9,399.8c-0.8-0.6-1.5-1.2-2.2-1.6
			c-0.6-0.3-1.1-1.5-2-0.7c-0.7,0.6-0.7,1.6-0.3,2.4c0.4,0.9,1.2,1.2,2.2,1C538.3,400.8,539.1,400.7,539.9,399.8z M553.9,213.5
			c2.3-3.5,2.3-12.9,0-15.9C556,202.9,555.7,208.2,553.9,213.5z M640,273.1c0.2-0.8,0.1-1.5-0.6-2.1c-0.8-0.6-1.4-0.6-2,0.2
			c-0.7,1-0.2,1.7,0.5,2.2c1.1,0.8,0.8-0.3,1.1-0.8C639.6,271.7,639.5,273.3,640,273.1z M564.1,369.2c-0.9,0.2-1.6,0.7-1.6,1.7
			c0,0.9,0.7,1.2,1.4,1.2c0.9,0,1.5-0.4,1.6-1.4C565.5,369.8,565.1,369.3,564.1,369.2z M662.4,350.3c-1.6-0.1-0.1-1.9-1.3-2.2
			c-0.7-0.2-1.4,0.4-1.5,1.2c-0.1,1.1,0.6,1.6,1.5,1.8C661.7,351.2,662.2,351.1,662.4,350.3z M671.9,242.2c1.8,2,3.5,2.1,5.4,1
			C675.7,242.9,674.1,242.6,671.9,242.2z M593.8,191.7c-2-0.3-3.1,1.4-4.7,1.6c-0.4,0-1.1-0.3-1,0.6c0,0.3,0.2,0.6,0.4,0.8
			c0.4,0.3,0.7,0,1-0.2C590.8,193.6,592.2,192.7,593.8,191.7z M544.1,369.8c0.6-0.2,1.1-0.6,1.1-1.4c0-0.7-0.3-1.3-1.1-1.2
			c-0.8,0.1-1.3,0.6-1.3,1.4C542.8,369.3,543.3,369.6,544.1,369.8z M573.8,389.2c0-0.8-0.6-0.9-1.2-0.9c-0.7,0.1-1.3,0.2-1.3,1
			c0,0.7,0.6,0.9,1.2,0.9C573.2,390.3,573.7,389.9,573.8,389.2z"/>
		<path fill="#6D6E71" d="M551.3,199.5c0.6,6.4-1.1,12.3-4.6,17.7c-1.2,1.9-2.1,4-3.2,5.9c-4.5,7.6-11.2,10.9-19.9,10.3
			c-6.6-0.4-12.8-2.6-19.2-4.1c-4.5-1-7.4-3.4-10.5-6.1c-5.9-5.1-4.3-14.6,0.3-17.9c5.9-4.2,12.1-4.5,18.7-4.1
			c1.5,0.1,3,0.4,4.5,0.7c1.1,0.2,1.8,0,2.1-1.2c1.1-4.8,3.5-8.7,7.8-11.4c-3.4,1.9-4.8-1.1-6.6-2.6c-1.3-1-2.5-1.9-4.2-2.1
			c-2.5-0.4-4.3-2-6.4-3.2c-3.4-1.9-7.5-2-10.7-4.4c-1-0.7-1.6-1.3,0-1.9c0,0-0.1,0-0.1,0c3.1,2.6,6.9,3.2,10.6,4.1
			c0.9,0.1,1.9,0.3,2.8,0.4c4,2,8.2,2.7,12.6,3.2l-0.1,0c0.1,0.1,0.2,0.2,0.4,0.3c6.9,1.8,13.9,3.5,20.2,6.9c0.1,0,0.3-0.2,0.5-0.3
			c0.8,0.6,1.3,1.3,1.7,2.2C549.4,194.3,550.5,196.9,551.3,199.5L551.3,199.5z M544.6,192.9l-0.1-0.2c-1-1.2-2.4-1.8-3.9-2.2
			c-9.1-2.5-18,3.3-18.9,13c-0.1,1.5-0.3,2.1-2.1,1.6c-4.3-1.1-8.7-1.1-13.1-0.8c-3.3,0.2-6.5,0.6-9.3,2.6c-3.7,2.7-5.4,7.9-3.7,11
			c3.2,5.9,8.5,8.9,14.5,10.9c1.3,0.4,2.3,0.3,3.5-0.6c3.6-3,7.7-5.2,11.8-7.3c7.3-3.8,15.1-6.4,23.1-8.5c0.7-0.2,1.2-0.4,1.4-1.1
			c1.5-4.9,2.5-9.8,0.4-14.8c-0.4-1-0.9-2.1-2.4-1.8l0.1,0C545.4,194.2,544.8,193.8,544.6,192.9z M511.5,229.8
			c3.3,1.3,6.6,1.7,9.8,2.2c7.2,1.1,13.6-0.6,18.8-5.9c2.5-2.6,2.8-3.6,1.3-6.8c-0.3-0.6-0.6-1.1-0.8-1.8c-0.5-1.7-1.5-2-3.1-1.4
			c-5,1.8-9.9,3.6-14.5,6.2C519.1,224.4,515,226.5,511.5,229.8z M546.6,213.7c-1.9,0.4-3.3,0.8-4.8,1.1c-0.8,0.2-1.1,0.6-0.7,1.3
			c0.8,1.4,1.2,3,2.3,4.4C544.7,218.4,545.7,216.4,546.6,213.7z"/>
		<path fill="#6D6E71" d="M731.9,336.4c-1.4-0.9-3-1-4.6-1.3c-1.4-0.3-1.8-0.9-1.1-2.1c2.9-4.7,5.8-9.3,8.7-14
			c0.7-1.1,1.7-0.7,2.6-0.5c3.4,0.6,6.7,1.3,10.3,2c-0.8,1.5-1.9,2.5-3.1,3.6c-3.4,3.1-6,6.7-8.5,10.5
			C735,335.8,733.8,336.8,731.9,336.4z"/>
		<path fill="#6D6E71" d="M651.8,351.6c-2.7-1.8-5.2-3.7-7.6-5.8c-0.4-1.3,0.6-1.2,1.4-1.2c2.6-0.1,5.1,0.3,7.6,0.5
			c1.8,0.2,2,0.8,1.1,2.2C653.3,348.8,651.6,349.7,651.8,351.6z"/>
		<path fill="#6D6E71" d="M669.6,314.1c7.9,0,15.8,0,23.7,0c0.7,0,1.6-0.4,1.9,0.4c0.2,0.6-0.4,1.2-0.8,1.7
			c-2.8,3.4-5.7,6.8-8.6,10.3c-0.7,0.8-1.6,1-2.6,0.9c-10.6-0.5-21.2-1.1-31.9-1.6c-1.4-0.1-2.1-0.7-2.6-2c-0.6-1.6-1.3-3.2-3.3-3.8
			c-1.5-0.5-2.4-3.7-1.8-5.2c0.4-0.9,1.2-0.6,1.8-0.6c8,0,16,0,24,0C669.6,314.2,669.6,314.1,669.6,314.1z"/>
		<path fill="#6D6E71" d="M540.7,333.2c3.8-1.4,7.3-2.7,10.8-4c1.7-0.6,2.9,0.5,3.9,1.2c3.5,2.6,6.8,5.3,10.1,8
			c1.3,1,1.2,1.8-0.4,2.2c-4.8,1.2-9.5,2.7-14.1-1.1C548,337.1,543.9,336,540.7,333.2z"/>
		<path fill="#6D6E71" d="M558.2,326.2c0.8-0.2,1.1-0.7,2.1,0c1.8,1.1,2.6,3.5,4.4,3.8c1.7,0.2,3.5,0.5,5.3,0.7
			c2.1,0.2,4.3,0.3,6.5,0.3c0.5,0,1.4,0.6,1.2-0.9c-0.1-0.8,1-0.6,1.6,0c1.2,1.3,2.3,2.7,3.4,4c1.2,1.4,0.5,1.9-0.9,2.2
			c-1.2,0.3-2.5,0.5-3.7,1c-3.6,1.7-6.3,0-8.9-2.2C565.6,332.1,562.1,328.9,558.2,326.2z"/>
		<path fill="#6D6E71" d="M764.3,297.4c-3.4-2.2-6.9-4.4-10.2-6.5c-1.5-1-3-2.3-4.7,0.1c-0.5-1.9-0.3-3.6-0.4-5.4
			c1.7,1,3.2,1.8,4.6,2.7c3.2,2,6.4,4.1,9.7,6.1C764.4,295,764.9,295.8,764.3,297.4z"/>
		<path fill="#6D6E71" d="M689.1,223.7c-5,0.3-9.7-2.2-13.4-6.7c-2.5-3-2.3-9.9,0.2-13.2c4.9-6.5,11.3-9.6,19.5-8.9
			c4.9,0.4,8.9,2.6,12,6.3c3.1,3.7,2.4,11.2-1.1,14.6C700.1,221.8,696.4,223.6,689.1,223.7z M696.5,220.9c1.5-0.6,2.9-1.3,4.4-1.9
			c1.4-1.2,2.8-2.4,3.9-3.8c6.8-8.6,1.5-15.8-5.3-18.4c-5.4-2.1-10.9-1.3-16,1.4c-3.8,2-6.3,5.2-7.8,9c-2.6,6.2,3.6,13,8.3,14.1
			C688.2,222.3,692.4,222.5,696.5,220.9z"/>
		<path fill="#6D6E71" d="M515,303.2c-0.7,4-4.3,4-6.3,5.8C509.8,306.2,512.1,304.8,515,303.2z"/>
		<path fill="#6D6E71" d="M660.3,242.9c-5.5-0.1-10.1-1.3-14.2-4c-0.9-0.6-1.6-1.2-1.4-2.3c0.2-1.2,1.2-1.5,2.2-1.5
			c2.5-0.1,5-0.2,7.5,1c2.2,1.1,4.7,1.6,7,2.4c0.9,0.3,1.7,0.8,2.6,1.2c0.6,0.3,1.1,0.7,1,1.5c-0.1,0.9-0.8,1.3-1.5,1.4
			C662.3,242.8,661,242.8,660.3,242.9z"/>
		<path fill="#6D6E71" d="M545.9,194.7c2.4,2.2,3.1,4.9,3,8.2c-1.3-2-2.5-3.9-3.8-5.8c-0.4-0.5-1.3-0.8-0.9-1.7
			C544.4,194.7,545.3,194.8,545.9,194.7C546,194.8,545.9,194.7,545.9,194.7z"/>
		<path fill="#6D6E71" d="M544.6,192.9c-2,2.7-2.2-0.3-3.2-0.9c1.2-0.4,2.2,0.1,3.2,0.7C544.6,192.7,544.6,192.9,544.6,192.9z"/>
		<path fill="#6D6E71" d="M745,236.1c-1.6-0.2-3.4-0.5-4-2.6c-0.4-1.5,0.5-2.4,1.7-3.1c0.7-0.4,1.4-0.8,1.7,0.6
			c0.4,1.7,1.6,1.5,2.8,1c0.6-0.2,1-1.4,1.7-0.4c0.7,0.8,0.6,1.8,0,2.6C748,235.6,746.6,236,745,236.1z"/>
		<path fill="#6D6E71" d="M696.5,220.9c-1.3,0.6-2.7-0.1-4.2,0.6c1.7-2.5,6.9-4.9,9-4.4c0,0-0.2-0.1-0.2-0.1
			c0.2,0.7-0.1,1.3-0.3,1.9C699.4,219.6,697.9,220.2,696.5,220.9z"/>
		<path fill="#6D6E71" d="M509,211.7c1.5,0,2.9,0.4,3.9,1.6c1,1.1,1.4,2.3,1,3.7c-0.4,1.3-1.4,1.8-2.7,2c-0.8,0.1-1.6,0.2-2.4,0.2
			c-2.5-0.1-4.4-2-4.2-4C504.7,213.2,506.6,211.7,509,211.7z"/>
		<path fill="#6D6E71" d="M536.3,207.2c-1.9,0-3.3-1.8-3.3-4c0-2.4,2.1-4.6,4.3-4.7c2.4,0,4.2,1.8,4.1,4.1
			C541.2,204.9,538.6,207.2,536.3,207.2z"/>
		<path fill="#6D6E71" d="M687.5,204.9c0.3,0,0.6-0.1,1-0.1c3.3-0.1,5.8,1.5,6.3,4c0.5,2.3-1,4.6-4,6c-2.5,1.2-5,1.5-7.7,1
			c-2.7-0.5-4.8-2.8-4.8-5c0-2.4,2-4.8,4.6-5.4c1.5-0.3,3-0.4,4.5-0.6C687.5,204.8,687.5,204.9,687.5,204.9z M684.7,208.8
			c1.1-0.1,2.5,0,2.6-1.5c0.1-1.2-1.1-1.6-2.2-1.6c-1.1,0-2.4,0.2-2.6,1.6C682.4,208.7,683.7,208.6,684.7,208.8z"/>
		<path fill="#6D6E71" d="M701.1,217c0,0,0.2,0.1,0.2,0.1c-0.4-1.9,1-2.6,2.2-3.4c0.2-0.2,0.7,0.2,0.6,0.5
			C703.7,215.7,702.9,216.9,701.1,217z"/>
	</g>
</g>
<g id="_x37_K4BgK.tif">
	<g>
		<path fill="#27AAE1" d="M323.4,133.4c1.6-4.4,3.3-8.8,4.6-13.3c0.6-2,1.5-2.4,3.4-2.4c9.2-0.2,12-2.2,14.9-11.2
			c4.6-14.7,9.1-29.5,13.5-44.4c0.9-2.9,2.1-4,5.1-3.6c5.2,0.6,10.4,0.9,16.3,1.3c-1.4,5.1-2.5,9.8-3.9,14.4
			c-4.5,14.9-8.8,29.8-13.9,44.5c-1.7,4.8-4.9,9.3-8.4,13c-2.3,2.4-6.3,4.3-9.6,4.5c-6.8,0.4-13.6-0.6-20.4-1.1c-0.5,0-1-0.6-1.5-1
			C323.3,133.9,323.3,133.6,323.4,133.4z"/>
		<path fill="#27AAE1" d="M463.1,97.9c3.4,0.5,6.3,0.9,10.2,1.4c-1.9,5.6-3.6,10.9-5.6,16c-0.2,0.5-1.6,0.9-2.4,0.9
			c-18.5-1.4-37.1-2.4-55.6-4.4c-13.1-1.4-22.8-13.2-22.7-27.4c0.1-17.2,5.4-33,16.3-46.4c10.6-13,24.9-17.4,41.2-15.6
			c9.3,1,18.1,3.7,24.5,10.9c9.3,10.4,10.4,22.6,6.1,35.3c-2.9,8.7-6.9,17.1-10.5,25.6C464.3,95.3,463.8,96.4,463.1,97.9z
			 M431.2,95.2c1,0.1,1.9,0.2,2.9,0.2c11,0.7,8.3,2.2,12-7.6c3.4-9.1,6.5-18.3,9.1-27.7c1.9-6.8-1.2-13.5-6.5-16.5
			c-7.3-4.2-19-3.5-25.2,2.2c-10.4,9.5-14,22.1-13.8,35.7c0.1,8,5.1,12.3,13.1,13C425.6,94.8,428.4,95,431.2,95.2z"/>
		<path fill="#27AAE1" d="M615.8,111.1c-1.5,5.5-2.9,10.7-4.4,15.7c-0.2,0.6-1.5,1.3-2.2,1.2c-13.4-1.2-26.9-1.6-40.1-4
			c-15.1-2.7-17.8-12.6-16.7-24c1-9.6,4-18.8,8.3-27.5c7.1-14.1,19-20.1,34.3-19.8c5.2,0.1,10.6,0.6,15.6,2
			c13.9,3.9,16.1,12.6,15,23.9c-0.5,5.4-2.6,10.6-3.6,16c-0.7,3.8-2.7,4.4-6.2,4c-12.2-1.1-24.4-2-36.6-2.8c-2.2-0.2-5.1-1.5-6.2,2
			c-0.9,3,0.8,7.2,3.8,8.3c3,1.1,6.3,1.8,9.6,2.2c8.3,0.9,16.6,1.4,24.9,2.1C612.5,110.6,613.8,110.8,615.8,111.1z M577.8,80.3
			c1.7,0.3,2.8,0.6,3.9,0.7c6.2,0.5,12.4,1,18.6,1.4c4.2,0.3,5.9-1.3,4.6-5.3c-0.7-2.2-2.5-4.7-4.5-5.6c-5-2.3-10.4-2.4-15.5,0.1
			C581.5,73.3,579.3,76,577.8,80.3z"/>
		<path fill="#27AAE1" d="M513.4,47.6c-4,14.7-7.9,28.7-11.7,42.6c-2.1,7.9,0.4,11.3,8.4,12c1.7,0.1,3.4,0.3,5.1,0.4
			c8.7,0.6,6.7,1.5,9.1-6.2c4.5-14.7,8.7-29.4,13.2-44.1c0.3-0.9,1.2-2.4,1.8-2.3c5.8,0.3,11.6,0.8,17.9,1.3
			c-2.5,8.5-4.8,16.7-7.2,24.8c-4.2,14.1-8.5,28.2-12.5,42.4c-0.8,2.8-2,3.4-4.6,3.1c-11.6-1-23.2-1.8-34.8-2.8
			c-11.3-1-18.4-9-17.2-20.3c0.8-7.8,2.8-15.6,4.7-23.2c2.2-8.7,5.2-17.2,7.6-25.9c0.7-2.5,1.8-3.1,4.1-3
			C502.6,46.7,507.9,47.1,513.4,47.6z"/>
		<path fill="#27AAE1" d="M764,56c-4.6,5.3-8.5,9.7-12.4,14.2c-12.9,14.7-25.7,29.5-38.9,44c-4.4,4.8-5.5,10.8-7.5,16.5
			c-1.1,3.1-2.5,4.3-5.7,3.9c-4.6-0.6-9.3-0.7-13.9-1c-2.4-0.2-3.9-1.1-2.5-3.6c6.6-11.7,2.6-23.4,0.2-35.1
			c-0.7-3.5-1.4-7.1-2.3-11.8c7.3,0.6,14,1,20.6,1.7c0.6,0.1,1.5,1.5,1.6,2.4c0.6,3,1,6,1.6,9.9c1.4-1.6,2.3-2.6,3.2-3.7
			c9.6-11.9,19.2-23.8,28.7-35.7c1.9-2.4,4-3.5,7.2-3.1C750.2,55.1,756.6,55.4,764,56z"/>
		<path fill="#27AAE1" d="M622.8,128.5c3.9-13.5,7.6-26.3,11.4-39.1c2.8-9.6,5.8-19.1,8.5-28.7c0.6-2.2,1.4-3,3.8-2.8
			c14.7,1.2,29.5,2.3,44.2,3.5c5.6,0.5,9.2,4,10.1,9.4c0.5,2.7,0.8,5.5,1.2,8.6c-2.4,0-4.2,0-6-0.1c-11.5-0.8-22.9-1.6-34.4-2.6
			c-3-0.3-4.3,0.5-5.2,3.6c-4.2,15.1-8.7,30.2-13,45.3c-0.8,2.9-2,4.5-5.5,4.1C633.2,129.1,628.2,128.9,622.8,128.5z"/>
		<path fill="#27AAE1" d="M388.2,37.9c-1.5,5.1-2.8,9.3-4.1,13.7c-0.6,2.1-1.6,3.2-4.2,3c-5.4-0.6-10.9-0.9-17.2-1.4
			c1.6-5.4,3-10.4,4.5-15.3c0.2-0.6,1.3-1.4,1.9-1.4C375.3,36.9,381.5,37.4,388.2,37.9z"/>
	</g>
</g>
</svg>
