<?xml version="1.0" encoding="utf-8"?>
<!-- Generator: Adobe Illustrator 17.1.0, SVG Export Plug-In . SVG Version: 6.00 Build 0)  -->
<!DOCTYPE svg PUBLIC "-//W3C//DTD SVG 1.1//EN" "http://www.w3.org/Graphics/SVG/1.1/DTD/svg11.dtd">
<svg version="1.1" id="Layer_1" xmlns="http://www.w3.org/2000/svg" xmlns:xlink="http://www.w3.org/1999/xlink" x="0px" y="0px"
	 viewBox="0 0 841.9 595.3" enable-background="new 0 0 841.9 595.3" xml:space="preserve">
<g id="_x37_3Xofi.tif">
	<g>
		<path fill="#8B4887" d="M790.8,88.1c0.1,2.3-1.4,2.6-3.3,2.9c-17.3,2.4-34.6,4.8-51.9,7.3c-2.3,0.3-2.7,0.9-1.6,3
			c8.1,14.6,28,16.6,37.7,3.4c1.5-2,3-3.1,5.5-3.3c3.4-0.2,6.7-0.8,10-1.3c1.8-0.2,2.5,0.1,1.7,2.1c-4.5,12.2-12.9,20.6-25.4,23.8
			c-20,5.1-39.1-5.9-44.8-24.5c-6-19.5,2.4-39.2,21-46.8c19.4-7.9,41.9,1.8,48.6,21.8c0.6,1.7,0.4,3.6,1.6,5
			C790.2,83.8,790.5,85.9,790.8,88.1z M774.9,80.4c-4.9-11.5-18-17.3-29.3-12.9c-7.8,3.1-12.8,9-14.4,17.4c-0.3,1.4,0.1,1.6,1.4,1.4
			C746.6,84.3,760.7,82.4,774.9,80.4z"/>
		<path fill="#D6C4D6" d="M122,78.9c0-0.1,0-0.3,0-0.4c4.2-0.6,8.4-1.2,12.6-1.8c0,0.1,0,0.3,0.1,0.4
			C130.4,77.7,126.2,78.3,122,78.9z"/>
		<path fill="#C2A4C1" d="M149.1,248.1c0-0.2,0-0.3-0.1-0.4c2.7-0.4,5.3-0.7,8-1.1c0,0.1,0,0.3,0,0.4
			C154.4,247.3,151.8,247.7,149.1,248.1z"/>
		<path fill="#8B4887" d="M157,246.5c-2.7,0.4-5.3,0.7-8,1.1c-23,2.3-43.5-4.1-61.6-18.3c-13.8-10.8-23.4-24.7-28.4-41.4
			c-7.7-25.6-4.4-50,10.3-72.6c11.2-17.2,27-28.5,46.3-35c2.1-0.7,4.2-1,6.4-1.5c4.2-0.6,8.4-1.2,12.6-1.8
			c22.2-1.7,41.9,4.5,59.3,18.1c13,10.1,22.3,22.9,27.7,38.3c8.6,25,6.5,49.3-6.9,72.3c-10.3,17.8-25.5,29.9-44.7,37.2
			C165.9,244.7,161.5,246,157,246.5z M209,153.3c-3.8-36.4-39.3-64.4-77.5-59.2c-37.7,5.2-62.7,40.5-59.1,74.8
			c4.2,40.8,40.9,67,77.9,61.8C190.8,225.1,214.6,187.2,209,153.3z"/>
		<path fill="#8B4887" d="M481.7,103c2.3-3.9,4.4-6.9,7-9.7c6.9-7.2,20.7-7.7,28.1-2c2.5,1.9,5.1,3.7,6.8,6.4c1.3,2,1.7,1,2.3-0.4
			c2.6-6.3,6.9-10.9,13-13.8c11.6-5.5,26.7-1.5,33,8.8c1.5,2.5,2.4,5.2,2.9,8.1c2,11,3.6,22.1,5.1,33.2c0.2,1.4,0.7,2,2.1,1.5
			c0.1,0,0.3-0.1,0.5-0.1c2.3-0.2,5.3-1.8,6.7-0.5c1.4,1.2,1,4.4,1.3,6.7c0.3,2,0.5,4.1,0.9,6c0.3,1.4-0.2,1.7-1.5,1.9
			c-10.4,1.4-20.8,2.9-31.2,4.4c-1.2,0.2-1.7,0-1.8-1.3c-0.5-4-1-7.9-1.7-11.9c-0.2-1.3,0.2-1.6,1.4-1.8c2.1-0.2,4.2-0.6,6.3-0.8
			c1.3-0.1,1.8-0.6,1.5-2c-1.9-8.4-2.5-16.9-3.9-25.3c-1.3-7.9-4.7-11.8-11.2-13.2c-7.3-1.5-16.5,3-18.6,12.8
			c-0.1,0.5,0,1.1,0.1,1.6c1.1,9.5,2.9,18.9,3.7,28.4c0.1,1.1,0.6,1.5,1.7,1.3c2.2-0.4,4.4-0.6,6.5-1c1.2-0.2,1.7,0.1,1.8,1.3
			c0.5,4,1,7.9,1.7,11.9c0.2,1.3-0.2,1.6-1.4,1.8c-10.4,1.4-20.8,2.9-31.2,4.4c-1.3,0.2-1.8-0.1-1.9-1.4c-0.4-3.8-1-7.6-1.6-11.4
			c-0.3-1.6,0.3-2,1.8-2.2c1.9-0.2,3.9-0.6,5.8-0.8c0.9-0.1,1.5-0.4,1.3-1.5c-1.7-10.3-2-20.8-5.3-30.7c-2.2-6.6-9.2-9.6-16-8
			c-7.2,1.6-10.6,6.8-11.8,13.5c-0.4,2.3,0,4.8,0.3,7.2c0.9,7.2,2,14.3,2.9,21.4c0.2,1.5,0.7,2.1,2.2,1.8c1.9-0.4,3.9-0.5,5.8-0.8
			c1.2-0.2,1.6,0.2,1.8,1.4c0.5,4,1.1,7.9,1.7,11.9c0.2,1.1-0.1,1.5-1.2,1.7c-10.6,1.4-21.1,2.9-31.7,4.4c-0.9,0.1-1.4,0-1.6-1.1
			c-0.5-4.1-1.1-8.2-1.7-12.3c-0.2-1,0.2-1.4,1.2-1.5c2.1-0.2,4.2-0.6,6.3-0.8c1.3-0.1,1.7-0.5,1.5-1.9c-1.8-12.7-3.6-25.5-5.4-38.2
			c-0.2-1.4-0.7-1.7-2-1.4c-2.1,0.4-4.2,0.6-6.3,0.9c-1,0.2-1.4-0.1-1.5-1.1c-0.5-4.1-1.1-8.2-1.7-12.3c-0.2-1.1,0.2-1.4,1.2-1.5
			c7-1,14-1.9,21-3c1.4-0.2,1.6,0.4,1.7,1.5C480.8,96.4,481.2,99.3,481.7,103z"/>
		<path fill="#8B4887" d="M366.9,117.9c-0.4-2.7-0.7-5.4-1.2-8.1c-0.2-1.3-0.1-1.9,1.5-2.1c7.3-0.9,14.6-2,21.9-3.1
			c1.2-0.2,1.7,0.1,1.8,1.3c0.5,4,1,7.9,1.7,11.9c0.2,1.3-0.2,1.6-1.4,1.8c-1.9,0.2-3.9,0.6-5.8,0.8c-1.1,0.1-1.4,0.5-1.3,1.6
			c1.8,12.9,3.7,25.8,5.4,38.6c0.2,1.2,0.6,1.4,1.7,1.2c2-0.3,4-0.5,6-0.9c1-0.2,1.4,0.1,1.5,1.1c0.5,4.1,1.1,8.2,1.7,12.3
			c0.2,1.1-0.3,1.3-1.2,1.5c-7.5,1-14.9,2.1-22.3,3.1c-1.1,0.2-1.5-0.1-1.7-1.3c-0.3-2.6-0.7-5.2-1.2-8.4c-1.6,2.4-2.8,4.1-4.2,5.7
			c-6,6.8-13.8,9.4-22.6,9.1c-16.3-0.5-27.7-8.6-33.7-23.5c-7.9-19.7,2.1-41.3,20.9-48.8c8.5-3.4,17.1-3.9,25.4,1
			C362.3,114.3,364.5,116,366.9,117.9z M370.6,143.4c-1.3-11.7-12.2-19.6-23-18.7c-13.8,1-20.9,13.7-20.1,23.5
			c1.1,14.5,14.4,21,22.8,20.3C363.9,167.6,372.6,154.6,370.6,143.4z"/>
		<path fill="#8B4787" d="M653.5,77.9c1.8-2.3,2.7-4.4,4.2-6.2c7.8-9.2,22.4-10.8,32.8-5.2c7,3.8,11.3,9.6,12.3,17.5
			c1.4,10.6,3.5,21,4.9,31.6c0.2,1.5,0.7,1.9,2.1,1.5c0.1,0,0.2,0,0.2,0c2.2-0.1,5.1-1.7,6.5-0.4c1.3,1.2,0.9,4.2,1.3,6.5
			c0.3,2.1,0.5,4.2,0.9,6.3c0.2,1.1,0,1.7-1.3,1.9c-10.3,1.4-20.7,2.9-31,4.3c-1.2,0.2-1.7-0.1-1.8-1.3c-0.5-4-1-7.9-1.7-11.9
			c-0.2-1.3,0.3-1.7,1.4-1.7c0.2,0,0.3,0,0.5-0.1c2.2-0.5,5.3,0.3,6.4-1.4c0.9-1.4-0.3-4.2-0.6-6.3c-0.9-6.8-1.9-13.7-2.9-20.5
			c-1.1-7.4-5.5-12.3-13-12.8C666.2,79,658,82.8,656.5,93c-0.3,2.4-0.1,5,0.2,7.4c0.9,7.2,2,14.4,3,21.7c0.2,1.6,0.8,2,2.3,1.7
			c0.9-0.2,1.9-0.3,2.8-0.4c4.5-0.6,4.5-0.6,5.2,4c0.4,2.8,0.7,5.6,1.2,8.4c0.2,1.3,0.1,1.9-1.5,2.1c-10.4,1.4-20.8,2.9-31.2,4.4
			c-1.2,0.2-1.7-0.1-1.8-1.3c-0.5-4-1-7.9-1.7-11.9c-0.2-1.3,0.2-1.6,1.4-1.8c2.1-0.2,4.2-0.6,6.3-0.8c1.1-0.1,1.4-0.5,1.3-1.7
			c-1.8-12.9-3.7-25.8-5.4-38.7c-0.2-1.2-0.7-1.4-1.7-1.2c-2.2,0.4-4.4,0.6-6.5,1c-1,0.2-1.4-0.1-1.5-1.1c-0.5-4.1-1.1-8.2-1.7-12.3
			c-0.2-1.1,0.3-1.3,1.2-1.5c7.5-1,14.9-2.1,22.4-3.1c1.1-0.2,1.5,0.2,1.6,1.3C652.6,71.9,653,74.6,653.5,77.9z"/>
		<path fill="#8B4887" d="M297.1,137.8c1.2,8.6,2.5,17.2,3.6,25.8c0.7,5.5,0.4,10.8-2.4,15.9c-10,18.6-36.3,20-48.4,6.9
			c-3.8-4.1-5.5-9.1-7-14.3c-0.3-1,0.1-1.4,1.1-1.5c5.3-0.7,10.6-1.4,15.8-2.2c1.1-0.2,1.4,0.2,1.8,1.2c1.6,4.3,3.9,8,9,8.8
			c6.2,1,12-3.9,12.1-10.2c0-2.1-0.1-4.1-0.4-6.1c-2.3-16.1-4.5-32.3-6.7-48.4c-0.2-1.8-0.8-2.2-2.5-1.9c-2.2,0.5-4.5,0.6-6.7,1
			c-1.1,0.2-1.5-0.2-1.6-1.3c-0.5-4-1.1-7.9-1.7-11.9c-0.2-1.2,0-1.7,1.3-1.8c11.9-1.6,23.7-3.3,35.6-5c1.2-0.2,1.6,0.1,1.8,1.4
			c0.5,4,1,7.9,1.7,11.9c0.2,1.3-0.3,1.6-1.4,1.7c-2.3,0.3-4.7,0.7-7,0.9c-1.4,0.1-1.6,0.7-1.4,1.9c1.3,9,2.6,18,3.8,27
			C297.4,137.7,297.2,137.7,297.1,137.8z"/>
		<path fill="#8B4887" d="M417.3,167.2c0,0.5-0.1,0.7,0,0.9c0.6,5.2,0.6,5.2-4.5,5.9c-1.9,0.3-3.7,0.5-5.6,0.8
			c-1,0.2-1.4-0.1-1.5-1.1c-0.8-6-1.6-12-2.5-17.9c-0.2-1.1,0.2-1.4,1.2-1.5c4.6-0.5,9.2-0.9,13.8-1.5c1.5-0.2,1.5,0.9,1.8,1.6
			c2.7,5.4,7.4,7.9,13.2,6.8c6.4-1.2,9.8-7.8,6.9-13.4c-1.2-2.3-3.2-3.3-5.5-4c-4.6-1.3-9.3-1.4-14-2.3c-3.4-0.6-6.7-1.3-9.9-2.6
			c-10.1-4-14.8-14.9-11.1-25.2c4.9-13.7,24.5-17.9,33.7-12.6c0.9,0.5,1.9,2,2.7,1.5c1-0.6,0.1-2.1,0-3.2c-0.1-1,0.2-1.4,1.2-1.5
			c3-0.4,5.9-0.8,8.8-1.2c1.1-0.2,1.5,0,1.7,1.2c0.7,5.4,1.5,10.9,2.3,16.3c0.2,1.1-0.2,1.5-1.3,1.6c-4.2,0.4-8.4,0.8-12.6,1.4
			c-1.2,0.2-1.6-0.4-1.9-1.2c-1.7-4.4-7.5-6.9-12.9-4.4c-3.4,1.6-5.6,4.5-5.3,7.5c0.3,3.9,2.6,6.6,6.6,7.5c3.3,0.7,6.7,1,10.1,1.5
			c4.5,0.6,9,1.2,13.2,2.8c7.1,2.7,11.5,7.4,12.4,15.2c1.5,12.1-4.5,21.4-16.4,24.9C431.9,173.8,426.5,173,417.3,167.2z"/>
		<path fill="#8B4787" d="M616.4,101.5c1.2,8.7,2.5,17.4,3.6,26.1c0.2,1.6,0.6,2.2,2.3,1.8c1.8-0.4,3.7-0.5,5.6-0.9
			c1.5-0.3,1.9,0.2,2,1.6c0.4,3.8,1,7.6,1.6,11.4c0.2,1.3-0.1,1.8-1.4,1.9c-10.4,1.4-20.8,2.9-31.2,4.4c-1.1,0.2-1.7,0-1.8-1.3
			c-0.5-4-1-7.9-1.7-11.9c-0.2-1.2,0.2-1.7,1.4-1.8c2.1-0.2,4.2-0.6,6.3-0.8c1.1-0.1,1.5-0.5,1.3-1.6c-1.8-12.9-3.7-25.8-5.4-38.7
			c-0.2-1.2-0.6-1.4-1.7-1.2c-2.2,0.4-4.4,0.6-6.5,1c-1,0.2-1.4-0.1-1.5-1.1c-0.5-4.1-1.1-8.2-1.7-12.3c-0.2-1.1,0.3-1.3,1.2-1.5
			c7.5-1,14.9-2,22.4-3.2c1.7-0.2,1.6,0.7,1.7,1.7C614,83.9,615.2,92.7,616.4,101.5z"/>
		<path fill="#8B4787" d="M594.4,60c-0.3-2.3-0.6-4.7-1-7c-0.2-1,0.1-1.4,1.1-1.5c4.4-0.6,8.9-1.2,13.3-1.9c1.1-0.2,1.4,0.2,1.5,1.2
			c0.6,4.7,1.3,9.3,2,14c0.2,1.1-0.1,1.5-1.2,1.7c-4.4,0.6-8.7,1.2-13,1.8c-1.2,0.2-1.5-0.2-1.6-1.3C595.1,64.7,594.8,62.4,594.4,60
			z"/>
		<path fill="#8B4787" d="M145.6,124.6c0.7,5.1,1.4,10.2,2.2,15.3c0.5,3.4-2.1,6.9-5.5,7.4c-1.7,0.2-3.4,0.6-5.1,0.7
			c-1.6,0.1-3.5,1.4-4.9,0.1c-2.1-1.9-4-3.8-4.4-7.1c-1.1-9.8-2.6-19.5-4.1-29.3c-0.3-1.7,0.1-2.3,1.9-2.5
			c5.1-0.6,10.3-1.3,15.3-2.2c1.8-0.3,2.2,0.2,2.4,1.9C144,114.2,144.8,119.4,145.6,124.6z"/>
		<path fill="#8B4887" d="M127.8,153.5c-0.6,3.7-1.2,7.5-1.9,11.3c-0.2,1.1-4.6,3.1-6,2.9c-10.6-1.8-21.1-3.6-31.6-5.8
			c-1.5-0.3-2.1-1-1.8-2.5c0.9-4.9,1.7-9.8,2.6-14.7c0.2-1.4,0.7-2.1,2.5-1.7c10.5,2,21.1,3.8,31.6,5.6
			C124.8,148.9,127.7,151.9,127.8,153.5z"/>
		<path fill="#8B4887" d="M161.8,161.7c-3.5,0.5-5.3-0.3-6.7-3.2c-1.1-2.2-2.2-4.4-3.3-6.7c-1.2-2.4,0-6.3,2.4-7.5
			c9.8-4.8,19.7-9.6,29.5-14.4c1-0.5,1.4-0.2,1.8,0.6c2.5,5,4.9,10,7.4,15c0.4,0.8,0.2,1.2-0.6,1.6c-9.9,4.7-19.7,9.5-29.6,14.3
			C162.4,161.6,161.9,161.7,161.8,161.7z"/>
		<path fill="#8B4887" d="M140.5,180.5c0.4,1.2,0.3,1.9-0.2,2.8c-5.1,9.4-10.2,18.8-15.3,28.3c-0.9,1.6-1.6,1.9-3.2,1
			c-4.3-2.4-8.6-4.8-12.9-7.1c-1-0.6-1.7-1-0.9-2.5c4.8-9.1,9.5-18.4,14.6-27.3c2.4-4.2,5-4.9,9.3-2.7c1.5,0.8,3,1.8,4.6,2.4
			C139.1,176.2,140.4,178.1,140.5,180.5z"/>
		<path fill="#8B4887" d="M146.1,178.9c-0.8-1.7-0.1-3,1.3-4.2c1.8-1.6,3.4-3.4,5.2-5.1c3-2.8,6.1-2.8,9.1,0
			c6.1,5.6,11.7,11.8,17.4,17.7c1.6,1.6,3.1,3.3,4.6,5c0.8,0.8,0.8,1.5,0,2.3c-3.7,3.6-7.4,7.2-11,10.9c-1.1,1.1-1.7,0.8-2.7-0.1
			c-5.9-5.6-11.5-11.5-17.1-17.4c-1.7-1.7-3.3-3.6-5-5.2C146.8,181.8,146,180.6,146.1,178.9z"/>
		<path fill="#8B4787" d="M143.9,203.9c-0.5-3.8-1-7.6-1.6-11.4c-0.2-1.5,0.1-2,1.6-2.2c3.3-0.4,3.2-0.5,3.7,2.7
			c1,7.2,1.9,14.4,3.1,21.6c0.4,2.5-1.3,1.9-2.5,2.2c-1.3,0.2-2.5,0.8-2.7-1.5C145.1,211.5,144.4,207.7,143.9,203.9z"/>
		<path fill="#8C4A88" d="M168.7,113.9c-0.3,0.8-0.4,1.5-0.8,2.1c-3.4,6.5-6.9,13-10.3,19.5c-1.3,2.4-2.5,0.7-3.8,0.3
			c-1.6-0.6-1.2-1.4-0.6-2.5c3.6-6.7,7.1-13.4,10.7-20.1c0.3-0.6,0.5-1.7,1.6-1.2C166.7,112.4,168,112.8,168.7,113.9z"/>
		<path fill="#8C4A88" d="M115.2,175.5c0.5,1-0.3,1.3-1,1.6c-7,3.4-14,6.7-20.9,10.2c-1.1,0.5-1.6,0.3-2-0.6c-0.4-1.1-2-2.2-0.3-3.5
			c0.9-0.6,1.9-1.1,2.9-1.6c5.7-2.8,11.4-5.6,17.1-8.4C113.6,171.9,114.7,172.5,115.2,175.5z"/>
		<path fill="#8C4A88" d="M103.8,120.3c0.5-0.1,0.9,0.2,1.2,0.6c5.6,5.7,11.2,11.5,16.8,17.3c1.3,1.3-0.3,1.7-0.8,2.3
			c-0.8,0.9-1.6,2-3,0.5c-4.4-4.5-8.9-9-13.3-13.5c-0.8-0.8-1.7-1.7-2.4-2.6c-0.5-0.6-1.5-1.1-0.9-2.2
			C101.9,121.7,102.8,120.9,103.8,120.3z"/>
		<path fill="#8C4987" d="M194.3,173.4c-0.8,0-1.1,0.1-1.3,0c-7.4-1.3-14.8-2.4-22.2-4.1c-1.8-0.4-1.8-1.5-1.5-3
			c0.3-1.7,1.2-1.7,2.5-1.5c7.3,1.3,14.7,2.5,22,3.8c1.1,0.2,2.1,0.6,1.8,1.9C195.3,171.6,195.9,173.4,194.3,173.4z"/>
	</g>
</g>
</svg>
