<?xml version="1.0" encoding="utf-8"?>
<!-- Generator: Adobe Illustrator 17.1.0, SVG Export Plug-In . SVG Version: 6.00 Build 0)  -->
<!DOCTYPE svg PUBLIC "-//W3C//DTD SVG 1.1//EN" "http://www.w3.org/Graphics/SVG/1.1/DTD/svg11.dtd">
<svg version="1.1" id="Layer_1" xmlns="http://www.w3.org/2000/svg" xmlns:xlink="http://www.w3.org/1999/xlink" x="0px" y="0px"
	 viewBox="0 0 841.9 595.3" enable-background="new 0 0 841.9 595.3" xml:space="preserve">
<g>
	<path fill="#27AAE1" d="M106.6,135.4l-24.5,44.1l-10.4-19.2l-10.4,19.2l-24.4-44.1h14.8l9.5,17.3l10.6-19.4l10.5,19.4l9.6-17.3
		H106.6z"/>
	<path fill="#27AAE1" d="M146.3,162.8h-4.9v14.4h-13v-14.4h-8.8v14.4h-13v-41.8h13v14.5h8.8v-14.5h13v14.5h4.9V162.8z"/>
	<path fill="#27AAE1" d="M180.2,177.2l-2.2-3.6h-18.9l-2.1,3.6h-15l26.5-46l26.5,46H180.2z M170.5,160.6l-2-3.4l-2,3.4H170.5z"/>
	<path fill="#27AAE1" d="M217.7,148.3h-9.1v28.9h-12.9v-28.9h-9.1v-12.9h31.1V148.3z"/>
	<path fill="#2E3192" d="M205.5,218.4h-22.8v72.4h-32.4v-72.4h-22.8V186h78V218.4z"/>
	<path fill="#2E3192" d="M242.9,258.4h44.2v32.4h-77V186.2h77v32.6h-44.2v3.5h44.2v32.6h-44.2V258.4z"/>
	<path fill="#2E3192" d="M387.7,277.8c-0.2,0.2-0.3,0.3-0.5,0.5c-11,11-24.2,16.4-39.6,16.4c-15.3,0-28.6-5.4-39.5-16.4
		c-11-11-16.5-24.2-16.5-39.6s5.5-28.6,16.5-39.6c10.9-11,24.2-16.4,39.5-16.4c15.5,0,28.6,5.4,39.6,16.4c0.2,0.2,0.3,0.3,0.5,0.5
		l-23.1,22.9c-0.2-0.2-0.2-0.2-0.3-0.3c-4.6-4.6-10.3-6.9-16.7-6.9c-6.4,0-12.1,2.3-16.7,6.9c-4.6,4.6-6.9,10.1-6.9,16.5
		c0,6.6,2.3,12.1,6.9,16.7c4.6,4.6,10.3,6.9,16.7,6.9c6.4,0,12.1-2.3,16.7-6.9c0.2-0.2,0.3-0.3,0.5-0.5L387.7,277.8z"/>
	<path fill="#2E3192" d="M478.2,290.8h-32.6v-36.1h-22v36.1H391V186h32.6v36.1h22V186h32.6V290.8z"/>
	<path fill="#27AAE1" d="M381,335.4c-3.6,3.6-7.9,5.4-13,5.4h-15.1v-36.9H368c5.1,0,9.4,1.8,13,5.5s5.5,7.9,5.5,13
		S384.6,331.8,381,335.4z M375,322.4c0-1.8-0.6-3.4-1.9-4.9c-1.2-1.5-3-2.2-5.1-2.2h-3.6v14h1.1c2.6,0.1,5.3,0.1,7.5-2.1
		C374.4,325.8,375,324.1,375,322.4z"/>
	<path fill="#27AAE1" d="M399.5,340.8h-11.4v-37h11.4V340.8z"/>
	<path fill="#27AAE1" d="M429.2,335.4c-3.6,3.6-7.9,5.4-13,5.4h-15.1v-36.9h15.1c5.1,0,9.4,1.8,13,5.5c3.6,3.6,5.5,7.9,5.5,13
		S432.9,331.8,429.2,335.4z M423.2,322.4c0-1.8-0.6-3.4-1.9-4.9c-1.2-1.5-3-2.2-5.1-2.2h-3.6v14h1.1c2.6,0.1,5.3,0.1,7.5-2.1
		C422.6,325.8,423.2,324.1,423.2,322.4z"/>
	<path fill="#27AAE1" d="M454.3,303.9h11.4v10.5l8.6-11.5l8.3,11.4v-10.4h11.4v39.4l-19.8-22.7l-20,22.6V303.9z"/>
	<path fill="#27AAE1" d="M523,328.1h-15.8v1.2h11.4v11.4h-22.9v-36.9h22.9v11.5h-11.4v1.2H523V328.1z"/>
	<path fill="#2E3192" d="M581.3,415.6c0,11.8-4.1,21.7-12.5,30.1c-8.4,8.3-18.5,12.4-30.3,12.4c-11.6,0-22.5-4.6-30.3-12.4
		c-7.8-7.8-12.7-18.4-12.7-30.1v-64h32.4v64c0,2.6,1.2,5.4,3.1,7.2c2,1.8,4.6,3.1,7.5,3.1c5.7,0,10.3-4.6,10.3-10.3v-64h32.6V415.6z
		"/>
	<path fill="#2E3192" d="M653.8,428.3c-2,6.9-5.8,13-11.2,18.5c-8.9,8.9-19.4,13.3-32,13.3c-12.4,0-23-4.4-31.8-13.3l23.1-23.1
		c2.4,2.4,5.4,3.7,8.7,3.7c3.5,0,6.4-1.2,8.9-3.7c2.3-2.4,3.5-5.4,3.5-8.7c0-4.3-0.6-12.9-16.7-15.8c-16.2-2.8-21.1-15.5-21.1-22.2
		c0-14.1,11.3-25.4,25.4-25.4h28.6v28.6c1.2,0.9,2.3,1.8,3.2,2.9c8.9,8.9,13.3,19.4,13.3,31.8C655.8,419.5,655.2,424,653.8,428.3z"
		/>
	<path fill="#2E3192" d="M691.6,424h44.2v32.4h-77V351.8h77v32.6h-44.2v3.5h44.2v32.6h-44.2V424z"/>
	<path fill="#2E3192" d="M805,384c0,7.5-2.6,15.3-8,21.4c-3.8,4.4-7.8,9.2-11.9,13.6l-1.2,1.2c-0.5,0.6-0.9,1.2-0.9,2.3v2.8v2.8
		h-5.8c4.1,3.1,6.9,8,6.9,13.5c0,9.2-7.5,16.5-16.7,16.5c-9.2,0-16.7-7.3-16.7-16.5c0-5.5,2.6-10.4,6.7-13.5h-6.9v-8.3
		c0-10.9,5.4-16.8,10.4-22.5c2.6-2.9,5.2-5.8,7.7-8.7l3.8-4.4l-30.9,8.4c-0.8-2.9-1.1-5.7-1.1-8.3c0-10.6,5.2-20.8,14.2-26.9
		c5.5-3.8,11.8-5.5,18.1-5.5c10.4,0,20.7,4.9,26.8,14.1C803.1,371.5,805,377.8,805,384z M772.8,384.2c0-0.2,0.2-0.2-0.3,0
		c0,0.2,0,0.2,0,0.2h0.2c0,0,0.2-0.2,0.2,0C772.8,384.3,772.8,384.3,772.8,384.2z"/>
</g>
</svg>
