<?xml version="1.0" encoding="utf-8"?>
<!-- Generator: Adobe Illustrator 17.1.0, SVG Export Plug-In . SVG Version: 6.00 Build 0)  -->
<!DOCTYPE svg PUBLIC "-//W3C//DTD SVG 1.1//EN" "http://www.w3.org/Graphics/SVG/1.1/DTD/svg11.dtd">
<svg version="1.1" id="Layer_1" xmlns="http://www.w3.org/2000/svg" xmlns:xlink="http://www.w3.org/1999/xlink" x="0px" y="0px"
	 viewBox="0 0 841.9 595.3" enable-background="new 0 0 841.9 595.3" xml:space="preserve">
<g>
	<rect x="273.8" y="61" fill="#F1F2F2" width="305.3" height="172.1"/>
	<g>
		<path fill="#1C75BC" d="M422.9,156.9c0,12.8-2.5,23.6-7.5,32.7c-5,9-11.1,13.4-18.1,13.4c-6.9,0-13.4-5-18.1-13.4
			s-7.6-19.9-7.6-32.7V87.5H391v69.4c0,2.8,0.7,5.8,1.8,7.8c1.2,2,2.7,3.3,4.5,3.3c3.4,0,6.1-5,6.1-11.1V87.5h19.5V156.9z"/>
		<path fill="#1C75BC" d="M476.5,201.4h-21.7l-5.3-19.3l-5.3,19.3h-21.7l16.1-58.3l-15.3-55.4H445l4.6,16.3l4.6-16.3h21.7
			l-15.3,55.4L476.5,201.4z"/>
	</g>
	<g>
		<circle fill="#414042" cx="269.6" cy="260.4" r="6.5"/>
		<path fill="none" d="M116.9,233h305.3V61H116.9V233z"/>
		<path fill="#414042" stroke="#E6E7E8" stroke-miterlimit="10" d="M582.3,47.6h-154h-5.2h-154c-5.5,0-10.2,4.2-10.2,9.7v189.8v0.7
			v17.6v1.1c0,5.5,4.7,10.1,10.2,10.1h123.4c-0.1,3.1-1.1,16.7-7.6,23.2c-5.1,5.2-12.1,10-9.4,12.5c0.7,1.5,3.8,2.4,11,2.4
			c15.9,0,33,0,39.3,0c1.6,0,2.5,0,2.5,0c6.3,0,23.5,0,39.3,0c8.2,0,11.1-1.3,11.1-3.3h-0.3v-0.7h-0.3c-0.4-2.7-5.8-6.7-10-10.9
			c-6.4-6.6-7.4-20.1-7.6-23.2h121.7c5.5,0,9.9-4.6,9.9-10.1v-1.1v-17.6v-0.7V57.3C592.3,51.8,587.8,47.6,582.3,47.6z M425.6,266.9
			c-3.6,0-6.5-2.9-6.5-6.5s2.9-6.5,6.5-6.5c3.6,0,6.5,2.9,6.5,6.5C432.1,264,429.1,266.9,425.6,266.9z M578.2,233H272.9V61h305.3
			L578.2,233L578.2,233z"/>
	</g>
</g>
</svg>
