<?xml version="1.0" encoding="utf-8"?>
<!-- Generator: Adobe Illustrator 17.1.0, SVG Export Plug-In . SVG Version: 6.00 Build 0)  -->
<!DOCTYPE svg PUBLIC "-//W3C//DTD SVG 1.1//EN" "http://www.w3.org/Graphics/SVG/1.1/DTD/svg11.dtd">
<svg version="1.1" id="Layer_1" xmlns="http://www.w3.org/2000/svg" xmlns:xlink="http://www.w3.org/1999/xlink" x="0px" y="0px"
	 viewBox="0 0 841.9 595.3" enable-background="new 0 0 841.9 595.3" xml:space="preserve">
<g>
	<g>
		<path fill="#F7941E" d="M306.7,279.1h-10.6v-34.3h10.6V279.1z"/>
	</g>
	<g>
		<path fill="#F7941E" d="M342.6,283.2l-23.8-18.9v14.7h-10.7v-36.6l23.8,18.8v-16.5h10.7V283.2z"/>
	</g>
	<g>
		<path fill="#F7941E" d="M369.7,255.4h-7.5v23.7h-10.6v-23.7h-7.5v-10.6h25.5V255.4z"/>
	</g>
	<g>
		<path fill="#F7941E" d="M396.4,267.3h-14.6v1.2h10.6v10.6h-21.2v-34.2h21.2v10.7h-10.6v1.2h14.6V267.3z"/>
	</g>
	<g>
		<path fill="#F7941E" d="M435.8,277.3c-2.8,1.6-5.8,2.5-8.8,2.9c-0.8,0.1-1.8,0.1-2.6,0.1c-2,0-4-0.2-6-0.8l0,0
			c-3.6-1-7-2.8-9.8-5.5h-0.1v4.9h-10.6v-34.3h16.9c4.1,0,7.5,1.5,10.4,4.3c2.9,2.9,4.3,6.4,4.3,10.4c0,4-1.6,7.6-4.2,10.2
			c1.8-0.1,3.6-0.6,5.2-1.6L435.8,277.3z M414.8,255.5h-6.3v8.1h6.3c2.2,0,4.1-1.8,4.1-4C418.8,257.3,417,255.5,414.8,255.5z"/>
	</g>
	<g>
		<path fill="#F7941E" d="M461,267.3h-14.5v11.8h-10.7v-34.3H461v10.7h-14.5v1.2H461V267.3z"/>
	</g>
	<g>
		<path fill="#F7941E" d="M487.7,279.1l-1.8-3h-15.5l-1.7,3h-12.3l21.8-37.7l21.8,37.7H487.7z M479.8,265.5l-1.6-2.8l-1.6,2.8H479.8
			z"/>
	</g>
	<g>
		<path fill="#F7941E" d="M517.6,279.7c-1.4,0.2-2.9,0.5-4.3,0.5c-5.1,0-9.4-1.8-13-5.4c-3.5-3.6-5.4-7.9-5.4-13
			c0-5,1.8-9.4,5.4-12.9c3.6-3.6,7.9-5.4,13-5.4c1.4,0,2.9,0.2,4.3,0.5l-2.5,10.3c-0.6-0.2-1.2-0.2-1.8-0.2c-2.1,0-3.9,0.8-5.4,2.2
			s-2.4,3.3-2.4,5.5c0,2.2,0.8,4.1,2.4,5.6c1.5,1.5,3.3,2.2,5.4,2.2c0.3,0,0.5,0,0.9-0.1c0.2,0,0.6-0.1,0.9-0.1L517.6,279.7z"/>
	</g>
	<g>
		<path fill="#F7941E" d="M544.3,267.3h-14.6v1.2h10.6v10.6h-21.2v-34.2h21.2v10.7h-10.6v1.2h14.6V267.3z"/>
	</g>
	<g>
		<path fill="#F7941E" d="M312.6,354.9c-6.7,6.7-14.7,10-24.1,10h-27.9v-68.4h27.9c9.4,0,17.4,3.4,24.1,10.1
			c6.7,6.7,10.1,14.7,10.1,24.1S319.3,348.2,312.6,354.9z M301.5,330.8c0-3.3-1.2-6.3-3.6-9c-2.3-2.7-5.5-4-9.4-4h-6.7v25.9h2.1
			c4.9,0.1,9.8,0.2,13.8-3.8C300.4,337.2,301.5,334,301.5,330.8z"/>
	</g>
	<g>
		<path fill="#F7941E" d="M376.2,341.4H347v2.3h21.1v21.2h-42.4v-68.4h42.4v21.3H347v2.3h29.2V341.4z"/>
	</g>
	<g>
		<path fill="#F7941E" d="M420,296.4l-18.9,18.9c-0.8,0.8-1.3,2-1.6,3.2v0.7c0,1.5,0.5,2.9,1.6,4l3.4,3.4c4.9,4.9,7.6,11.3,7.9,17.8
			v1.1c0,6.9-2.6,13.8-7.9,19l-0.3,0.3h-30l15.3-15.3c1.1-1.1,1.6-2.5,1.6-4v-0.7c-0.1-1.2-0.7-2.4-1.6-3.2l-3.3-3.4
			c-5.3-5.2-7.9-12.1-7.9-19V318c0.3-6.4,2.9-12.9,7.8-17.8l3.8-3.8H420z"/>
	</g>
	<g>
		<path fill="#F7941E" d="M441.2,364.9H420v-68.5h21.2V364.9z"/>
	</g>
	<g>
		<path fill="#F7941E" d="M496,328c-0.5-3.5-2.5-6.7-5.2-9c-2.7-2.3-6.1-3.7-10-3.7c-4.3,0-7.9,1.5-10.9,4.5s-4.5,6.6-4.5,10.9
			c0,5.7,3.2,10.6,7.7,13.3v-12.5h27.4v21.2h-6.1V366l-9.4,1c-0.7,0-1.3,0.1-1.7,0.1c-0.1,0-0.3,0.1-0.4,0.1h-2.1
			c-10.1,0-18.7-3.6-25.9-10.7c-7.1-7.1-10.7-15.7-10.7-25.8s3.6-18.8,10.7-25.9c7.2-7.1,15.8-10.7,25.9-10.7
			c9.1,0,17.3,3.3,23.8,8.8c2.8,2.4,5.3,5.3,7.2,8.5L496,328z"/>
	</g>
	<g>
		<path fill="#F7941E" d="M578.2,373.2l-47.6-37.7v29.4h-21.3v-73.2l47.6,37.6v-32.9h21.3V373.2z"/>
	</g>
</g>
<g id="Your_Icon_2_">
	<path fill="#414042" d="M451.3,90.3l4.9-7c1.7-2.4,1-5.9-1.7-7.7l-20.3-14.1c-2.6-1.8-6.1-1.3-7.9,1.1l-4.9,7L451.3,90.3z"/>
	<path fill="#414042" d="M417.1,75.7l-29.7,42.1c-1.4,9,21.1,24.7,29.8,20.8l29.8-42.1L417.1,75.7z"/>
	<path fill="#414042" d="M382.8,125c-1.9,4.5-4,26.3-3.3,32.3c0.1,1.2,0.4,1.9,0.7,2.1c2.2,1.5,27.8-10.9,31.8-14.2
		C403.1,148.1,382.7,133.8,382.8,125z"/>
</g>
<g>
	<path fill="#414042" d="M643.5,520.2h51.7v-25.2h-51.7V520.2z M647.7,499.3H691V516h-43.3V499.3z"/>
	<path fill="#414042" d="M643.5,489.5h110.4v-36.3H643.5V489.5z M705.9,470.9l43.9-13.5v27L705.9,470.9z M740.3,485.3h-81.7
		l40.8-12.5L740.3,485.3z M699.4,469.4l-39.1-12h78.3L699.4,469.4z M691.6,470.9l-43.9,13.5v-27L691.6,470.9z"/>
	<rect x="707.8" y="506.2" fill="#414042" width="44.7" height="4.2"/>
	<rect x="707.8" y="499.3" fill="#414042" width="44.7" height="4.2"/>
	<rect x="707.8" y="513.2" fill="#414042" width="44.7" height="4.2"/>
	<circle fill="#414042" cx="703" cy="500.8" r="2.5"/>
	<circle fill="#414042" cx="703" cy="507.9" r="2.5"/>
	<circle fill="#414042" cx="703" cy="515" r="2.5"/>
	<path fill="#414042" d="M765.1,436.6c0-2.4-2-4.4-4.4-4.4H638.1c-2.4,0-4.4,2-4.4,4.4V527c0,2.4,2,4.4,4.4,4.4h122.6
		c2.4,0,4.4-2,4.4-4.4V436.6z M657.6,436.5c1.4,0,2.5,1.1,2.5,2.5c0,1.4-1.1,2.5-2.5,2.5c-1.4,0-2.5-1.1-2.5-2.5
		C655.1,437.6,656.2,436.5,657.6,436.5z M650.5,436.5c1.4,0,2.5,1.1,2.5,2.5c0,1.4-1.1,2.5-2.5,2.5c-1.4,0-2.5-1.1-2.5-2.5
		C648.1,437.6,649.2,436.5,650.5,436.5z M643.5,436.5c1.4,0,2.5,1.1,2.5,2.5c0,1.4-1.1,2.5-2.5,2.5c-1.4,0-2.5-1.1-2.5-2.5
		C641,437.6,642.1,436.5,643.5,436.5z M758.1,524.4H640.7v-74.1v-3v-3.9h29.3v4.2h88V524.4z"/>
</g>
<g>
	<g>
		<g>
			<g>
				<line fill="none" stroke="#F7941E" stroke-width="6" stroke-miterlimit="10" x1="705.5" y1="392" x2="705.5" y2="107.5"/>
				<g>
					<polygon fill="#F7941E" points="691.5,387.9 705.5,412.3 719.6,387.9 					"/>
				</g>
			</g>
		</g>
		<line fill="none" stroke="#F7941E" stroke-width="6" stroke-miterlimit="10" x1="708.6" y1="107.5" x2="499.6" y2="107.5"/>
	</g>
</g>
<g>
	<path d="M353.1,178.2v5h-0.8v-11.4h2.7c1.4,0,2.5,0.3,3.1,0.8c0.7,0.5,1,1.3,1,2.4c0,0.8-0.2,1.4-0.6,1.9c-0.4,0.5-1,0.9-1.8,1.1
		l3.1,5.2h-1l-2.9-5H353.1z M353.1,177.5h2.2c1,0,1.7-0.2,2.2-0.6s0.8-1.1,0.8-1.9c0-0.9-0.3-1.5-0.8-1.9c-0.5-0.4-1.4-0.6-2.5-0.6
		h-1.9V177.5z"/>
	<path d="M366.8,183.2l-0.2-1.3h-0.1c-0.4,0.5-0.9,0.9-1.3,1.2c-0.5,0.2-1,0.3-1.6,0.3c-0.8,0-1.5-0.2-1.9-0.6
		c-0.5-0.4-0.7-1-0.7-1.8c0-0.8,0.3-1.5,1-1.9c0.7-0.5,1.7-0.7,3-0.7l1.6,0v-0.6c0-0.8-0.2-1.4-0.5-1.8c-0.3-0.4-0.9-0.6-1.6-0.6
		c-0.8,0-1.6,0.2-2.4,0.7l-0.3-0.7c0.9-0.4,1.9-0.7,2.8-0.7c0.9,0,1.6,0.2,2.1,0.7s0.7,1.2,0.7,2.3v5.6H366.8z M363.6,182.6
		c0.9,0,1.6-0.3,2.1-0.8c0.5-0.5,0.8-1.2,0.8-2.2v-0.8l-1.5,0.1c-1.2,0.1-2,0.2-2.6,0.6c-0.5,0.3-0.8,0.8-0.8,1.5
		c0,0.5,0.2,0.9,0.5,1.2C362.6,182.5,363,182.6,363.6,182.6z"/>
	<path d="M373.7,183.3c-1.3,0-2.3-0.5-2.9-1.5h-0.1l0,0.7c0,0.4,0,0.8,0,1.3v3.2h-0.8v-12.3h0.7l0.1,1.2h0c0.6-0.9,1.5-1.4,2.8-1.4
		c1.1,0,2,0.4,2.6,1.1c0.6,0.8,0.9,1.8,0.9,3.3c0,1.4-0.3,2.5-0.9,3.2C375.7,182.9,374.8,183.3,373.7,183.3z M373.7,182.6
		c0.9,0,1.5-0.3,2-1c0.5-0.6,0.7-1.5,0.7-2.7c0-2.5-0.9-3.7-2.7-3.7c-1,0-1.7,0.3-2.2,0.8c-0.5,0.5-0.7,1.4-0.7,2.7v0.2
		c0,1.3,0.2,2.3,0.7,2.8C372,182.3,372.7,182.6,373.7,182.6z"/>
	<path d="M379.5,172.3c0-0.5,0.2-0.8,0.5-0.8c0.2,0,0.3,0.1,0.4,0.2c0.1,0.1,0.1,0.3,0.1,0.6c0,0.2,0,0.4-0.1,0.6
		c-0.1,0.1-0.2,0.2-0.4,0.2C379.7,173.1,379.5,172.8,379.5,172.3z M380.4,183.2h-0.8v-8.5h0.8V183.2z"/>
	<path d="M386.3,174.5c0.6,0,1.1,0.1,1.6,0.3c0.4,0.2,0.8,0.6,1.2,1.1h0c0-0.7,0-1.3,0-1.9V171h0.8v12.2h-0.5l-0.2-1.3h-0.1
		c-0.6,1-1.6,1.5-2.8,1.5c-1.2,0-2.1-0.4-2.7-1.1c-0.6-0.7-0.9-1.8-0.9-3.2c0-1.5,0.3-2.6,0.9-3.4
		C384.3,174.9,385.2,174.5,386.3,174.5z M386.3,175.2c-0.9,0-1.6,0.3-2.1,1c-0.5,0.7-0.7,1.6-0.7,2.8c0,2.4,0.9,3.6,2.8,3.6
		c1,0,1.7-0.3,2.1-0.8c0.4-0.6,0.7-1.5,0.7-2.8v-0.1c0-1.3-0.2-2.3-0.7-2.8C388,175.5,387.3,175.2,386.3,175.2z"/>
	<path d="M404,175c0,1.1-0.4,2-1.1,2.5c-0.8,0.6-1.8,0.9-3.2,0.9h-1.8v4.7h-0.8v-11.4h2.8C402.6,171.7,404,172.8,404,175z
		 M397.9,177.8h1.6c1.3,0,2.2-0.2,2.8-0.6c0.6-0.4,0.9-1.1,0.9-2.1c0-0.9-0.3-1.5-0.8-2c-0.5-0.4-1.4-0.6-2.5-0.6h-1.9V177.8z"/>
	<path d="M409.6,174.5c0.4,0,0.7,0,1.2,0.1l-0.1,0.7c-0.4-0.1-0.7-0.1-1.1-0.1c-0.7,0-1.3,0.3-1.8,0.9c-0.5,0.6-0.7,1.4-0.7,2.3v4.7
		h-0.8v-8.5h0.7l0.1,1.5h0.1c0.3-0.6,0.7-1.1,1.1-1.3C408.6,174.6,409,174.5,409.6,174.5z"/>
	<path d="M419.5,178.9c0,1.4-0.3,2.5-1,3.2c-0.7,0.8-1.6,1.2-2.8,1.2c-0.7,0-1.4-0.2-2-0.5c-0.6-0.4-1-0.9-1.3-1.5
		c-0.3-0.7-0.5-1.4-0.5-2.3c0-1.4,0.3-2.5,1-3.2s1.6-1.2,2.8-1.2c1.2,0,2.1,0.4,2.7,1.2C419.2,176.5,419.5,177.5,419.5,178.9z
		 M412.8,178.9c0,1.2,0.3,2.1,0.8,2.7c0.5,0.7,1.2,1,2.2,1s1.7-0.3,2.2-1c0.5-0.7,0.8-1.6,0.8-2.7c0-1.2-0.3-2.1-0.8-2.7
		c-0.5-0.6-1.2-1-2.2-1s-1.7,0.3-2.2,1C413.1,176.8,412.8,177.7,412.8,178.9z"/>
	<path d="M424.1,182.6c0.5,0,0.9,0,1.3-0.1v0.6c-0.4,0.1-0.8,0.2-1.3,0.2c-0.8,0-1.3-0.2-1.7-0.6c-0.4-0.4-0.5-1-0.5-1.9v-5.5h-1.3
		v-0.5l1.3-0.4l0.4-1.9h0.4v2.1h2.5v0.7h-2.5v5.4c0,0.7,0.1,1.1,0.3,1.4S423.6,182.6,424.1,182.6z"/>
	<path d="M434.2,178.9c0,1.4-0.3,2.5-1,3.2c-0.7,0.8-1.6,1.2-2.8,1.2c-0.7,0-1.4-0.2-2-0.5s-1-0.9-1.3-1.5s-0.5-1.4-0.5-2.3
		c0-1.4,0.3-2.5,1-3.2s1.6-1.2,2.8-1.2c1.2,0,2.1,0.4,2.7,1.2C433.9,176.5,434.2,177.5,434.2,178.9z M427.5,178.9
		c0,1.2,0.3,2.1,0.8,2.7c0.5,0.7,1.2,1,2.2,1s1.7-0.3,2.2-1c0.5-0.7,0.8-1.6,0.8-2.7c0-1.2-0.3-2.1-0.8-2.7c-0.5-0.6-1.2-1-2.2-1
		s-1.7,0.3-2.2,1C427.8,176.8,427.5,177.7,427.5,178.9z"/>
	<path d="M438.8,182.6c0.5,0,0.9,0,1.3-0.1v0.6c-0.4,0.1-0.8,0.2-1.3,0.2c-0.8,0-1.3-0.2-1.7-0.6c-0.4-0.4-0.5-1-0.5-1.9v-5.5h-1.3
		v-0.5l1.3-0.4l0.4-1.9h0.4v2.1h2.5v0.7h-2.5v5.4c0,0.7,0.1,1.1,0.3,1.4S438.4,182.6,438.8,182.6z"/>
	<path d="M440.5,174.7h0.8l1.8,4.8c0.5,1.5,0.9,2.5,1,3h0c0.2-0.7,0.6-1.7,1.1-3l1.8-4.7h0.8l-3.8,9.9c-0.3,0.8-0.6,1.3-0.8,1.6
		s-0.5,0.5-0.7,0.6s-0.6,0.2-1,0.2c-0.3,0-0.6-0.1-1-0.2v-0.7c0.3,0.1,0.6,0.1,1,0.1c0.3,0,0.5-0.1,0.7-0.2s0.4-0.3,0.6-0.6
		c0.2-0.3,0.4-0.7,0.6-1.2s0.4-0.9,0.4-1.1L440.5,174.7z"/>
	<path d="M452.9,183.3c-1.3,0-2.3-0.5-2.9-1.5H450l0,0.7c0,0.4,0,0.8,0,1.3v3.2h-0.8v-12.3h0.7l0.1,1.2h0c0.6-0.9,1.5-1.4,2.8-1.4
		c1.1,0,2,0.4,2.6,1.1c0.6,0.8,0.9,1.8,0.9,3.3c0,1.4-0.3,2.5-0.9,3.2C454.9,182.9,454,183.3,452.9,183.3z M452.9,182.6
		c0.9,0,1.5-0.3,2-1c0.5-0.6,0.7-1.5,0.7-2.7c0-2.5-0.9-3.7-2.7-3.7c-1,0-1.7,0.3-2.2,0.8c-0.5,0.5-0.7,1.4-0.7,2.7v0.2
		c0,1.3,0.2,2.3,0.7,2.8C451.2,182.3,451.9,182.6,452.9,182.6z"/>
	<path d="M458.7,172.3c0-0.5,0.2-0.8,0.5-0.8c0.2,0,0.3,0.1,0.4,0.2c0.1,0.1,0.1,0.3,0.1,0.6c0,0.2,0,0.4-0.1,0.6
		c-0.1,0.1-0.2,0.2-0.4,0.2C458.9,173.1,458.7,172.8,458.7,172.3z M459.6,183.2h-0.8v-8.5h0.8V183.2z"/>
	<path d="M468.4,183.2v-5.5c0-0.9-0.2-1.5-0.5-1.9c-0.4-0.4-0.9-0.6-1.7-0.6c-1,0-1.8,0.3-2.2,0.8c-0.5,0.5-0.7,1.3-0.7,2.5v4.7
		h-0.8v-8.5h0.7l0.1,1.2h0c0.6-0.9,1.5-1.3,2.9-1.3c1.9,0,2.9,1,2.9,3.1v5.6H468.4z"/>
	<path d="M478.5,174.7v0.5l-1.8,0.1c0.5,0.6,0.7,1.2,0.7,1.9c0,0.8-0.3,1.5-0.8,2s-1.3,0.8-2.2,0.8c-0.4,0-0.7,0-0.8,0
		c-0.3,0.2-0.5,0.4-0.7,0.6s-0.2,0.5-0.2,0.7c0,0.3,0.1,0.5,0.3,0.6s0.6,0.2,1,0.2h1.5c0.9,0,1.6,0.2,2.1,0.6
		c0.5,0.4,0.7,0.9,0.7,1.7c0,0.9-0.4,1.6-1.1,2.1c-0.7,0.5-1.8,0.7-3.1,0.7c-1.1,0-1.9-0.2-2.5-0.6c-0.6-0.4-0.9-1-0.9-1.7
		c0-0.6,0.2-1.1,0.5-1.5s0.9-0.6,1.5-0.8c-0.3-0.1-0.5-0.3-0.6-0.5c-0.2-0.2-0.2-0.4-0.2-0.7c0-0.6,0.4-1.1,1.1-1.5
		c-0.5-0.2-0.9-0.5-1.2-1c-0.3-0.4-0.4-0.9-0.4-1.5c0-0.8,0.3-1.5,0.8-2c0.5-0.5,1.3-0.8,2.2-0.8c0.6,0,1,0.1,1.3,0.2H478.5z
		 M471.6,184.6c0,1.2,0.9,1.8,2.6,1.8c2.2,0,3.3-0.7,3.3-2.1c0-0.5-0.2-0.9-0.5-1.1s-0.9-0.3-1.7-0.3H474
		C472.4,182.8,471.6,183.4,471.6,184.6z M472.3,177.3c0,0.7,0.2,1.2,0.6,1.5c0.4,0.4,0.9,0.5,1.6,0.5c0.7,0,1.3-0.2,1.6-0.5
		s0.6-0.9,0.6-1.6c0-0.7-0.2-1.3-0.6-1.6c-0.4-0.4-0.9-0.5-1.6-0.5c-0.7,0-1.2,0.2-1.6,0.6C472.5,176.1,472.3,176.6,472.3,177.3z"/>
</g>
<g>
	<path d="M667.2,558h-0.7l-2.5-8.8c-0.2-0.7-0.4-1.3-0.5-1.8c-0.1,0.5-0.2,1-0.4,1.6c-0.2,0.6-1,3.6-2.5,9H660l-3.1-11.4h0.8l2,7.4
		c0.1,0.3,0.2,0.6,0.2,0.8c0.1,0.3,0.1,0.5,0.2,0.7s0.1,0.4,0.1,0.6c0,0.2,0.1,0.4,0.1,0.6c0.1-0.7,0.4-1.8,0.8-3.2l2-6.9h0.9l2.3,8
		c0.3,0.9,0.5,1.7,0.6,2.2c0.1-0.4,0.2-0.8,0.3-1.2c0.1-0.4,0.9-3.4,2.4-9h0.8L667.2,558z"/>
	<path d="M672.1,547.2c0-0.5,0.2-0.8,0.5-0.8c0.2,0,0.3,0.1,0.4,0.2c0.1,0.1,0.1,0.3,0.1,0.6c0,0.2,0,0.4-0.1,0.6
		c-0.1,0.1-0.2,0.2-0.4,0.2C672.2,547.9,672.1,547.7,672.1,547.2z M673,558h-0.8v-8.5h0.8V558z"/>
	<path d="M679.2,549.4c0.4,0,0.7,0,1.2,0.1l-0.1,0.7c-0.4-0.1-0.7-0.1-1.1-0.1c-0.7,0-1.3,0.3-1.8,0.9c-0.5,0.6-0.7,1.4-0.7,2.3v4.7
		h-0.8v-8.5h0.7l0.1,1.5h0.1c0.3-0.6,0.7-1.1,1.1-1.3C678.1,549.5,678.6,549.4,679.2,549.4z"/>
	<path d="M685.5,558.2c-1.2,0-2.2-0.4-2.9-1.1c-0.7-0.8-1-1.8-1-3.2c0-1.4,0.3-2.4,1-3.3c0.7-0.8,1.6-1.2,2.7-1.2c1,0,1.8,0.3,2.4,1
		s0.9,1.6,0.9,2.8v0.6h-6.1c0,1.2,0.3,2.1,0.8,2.7c0.5,0.6,1.3,0.9,2.3,0.9c0.5,0,0.9,0,1.3-0.1s0.8-0.2,1.4-0.4v0.7
		c-0.5,0.2-0.9,0.4-1.3,0.4S686,558.2,685.5,558.2z M685.2,550c-0.8,0-1.5,0.3-2,0.8c-0.5,0.5-0.8,1.3-0.9,2.3h5.2
		c0-1-0.2-1.8-0.6-2.3C686.6,550.3,686,550,685.2,550z"/>
	<path d="M694,550.2h-2v7.8h-0.8v-7.8h-1.6v-0.5l1.6-0.3v-0.7c0-1,0.2-1.8,0.6-2.3s1-0.7,1.9-0.7c0.5,0,0.9,0.1,1.4,0.2l-0.2,0.7
		c-0.4-0.1-0.8-0.2-1.2-0.2c-0.6,0-1,0.2-1.3,0.5c-0.3,0.4-0.4,0.9-0.4,1.7v0.8h2V550.2z"/>
	<path d="M699,549.4c0.4,0,0.7,0,1.2,0.1l-0.1,0.7c-0.4-0.1-0.7-0.1-1.1-0.1c-0.7,0-1.3,0.3-1.8,0.9c-0.5,0.6-0.7,1.4-0.7,2.3v4.7
		h-0.8v-8.5h0.7l0.1,1.5h0.1c0.3-0.6,0.7-1.1,1.1-1.3C697.9,549.5,698.4,549.4,699,549.4z"/>
	<path d="M707,558l-0.2-1.3h-0.1c-0.4,0.5-0.9,0.9-1.3,1.2s-1,0.3-1.6,0.3c-0.8,0-1.5-0.2-1.9-0.6c-0.5-0.4-0.7-1-0.7-1.8
		c0-0.8,0.3-1.5,1-1.9c0.7-0.5,1.7-0.7,3-0.7l1.6,0v-0.6c0-0.8-0.2-1.4-0.5-1.8s-0.9-0.6-1.6-0.6c-0.8,0-1.6,0.2-2.4,0.7L702,550
		c0.9-0.4,1.9-0.7,2.8-0.7c0.9,0,1.6,0.2,2.1,0.7s0.7,1.2,0.7,2.3v5.6H707z M703.9,557.5c0.9,0,1.6-0.3,2.1-0.8s0.8-1.2,0.8-2.2
		v-0.8l-1.5,0.1c-1.2,0.1-2,0.2-2.6,0.6s-0.8,0.8-0.8,1.5c0,0.5,0.2,0.9,0.5,1.2C702.8,557.3,703.3,557.5,703.9,557.5z"/>
	<path d="M720.9,558v-5.6c0-0.8-0.2-1.4-0.5-1.8s-0.8-0.6-1.5-0.6c-0.9,0-1.5,0.2-1.9,0.7s-0.6,1.2-0.6,2.3v5h-0.8v-5.8
		c0-1.4-0.7-2.1-2-2.1c-0.9,0-1.5,0.3-1.9,0.8s-0.6,1.3-0.6,2.5v4.7h-0.8v-8.5h0.6l0.2,1.2h0c0.2-0.4,0.6-0.7,1-1s0.9-0.3,1.4-0.3
		c1.3,0,2.2,0.5,2.6,1.5h0c0.3-0.5,0.6-0.9,1.1-1.1s1-0.4,1.6-0.4c0.9,0,1.6,0.2,2.1,0.7s0.7,1.3,0.7,2.4v5.6H720.9z"/>
	<path d="M724.3,547.2c0-0.5,0.2-0.8,0.5-0.8c0.2,0,0.3,0.1,0.4,0.2s0.1,0.3,0.1,0.6c0,0.2,0,0.4-0.1,0.6s-0.2,0.2-0.4,0.2
		C724.5,547.9,724.3,547.7,724.3,547.2z M725.2,558h-0.8v-8.5h0.8V558z"/>
	<path d="M734,558v-5.5c0-0.9-0.2-1.5-0.5-1.9s-0.9-0.6-1.7-0.6c-1,0-1.8,0.3-2.2,0.8s-0.7,1.3-0.7,2.5v4.7h-0.8v-8.5h0.7l0.1,1.2h0
		c0.6-0.9,1.5-1.3,2.9-1.3c1.9,0,2.9,1,2.9,3.1v5.6H734z"/>
	<path d="M744.1,549.5v0.5l-1.8,0.1c0.5,0.6,0.7,1.2,0.7,1.9c0,0.8-0.3,1.5-0.8,2s-1.3,0.8-2.2,0.8c-0.4,0-0.7,0-0.8,0
		c-0.3,0.2-0.5,0.4-0.7,0.6s-0.2,0.5-0.2,0.7c0,0.3,0.1,0.5,0.3,0.6s0.6,0.2,1,0.2h1.5c0.9,0,1.6,0.2,2.1,0.6s0.7,0.9,0.7,1.7
		c0,0.9-0.4,1.6-1.1,2.1c-0.7,0.5-1.8,0.7-3.1,0.7c-1.1,0-1.9-0.2-2.5-0.6c-0.6-0.4-0.9-1-0.9-1.7c0-0.6,0.2-1.1,0.5-1.5
		c0.4-0.4,0.9-0.6,1.5-0.8c-0.3-0.1-0.5-0.3-0.6-0.5s-0.2-0.4-0.2-0.7c0-0.6,0.4-1.1,1.1-1.5c-0.5-0.2-0.9-0.5-1.2-1
		s-0.4-0.9-0.4-1.5c0-0.8,0.3-1.5,0.8-2s1.3-0.8,2.2-0.8c0.6,0,1,0.1,1.3,0.2H744.1z M737.2,559.5c0,1.2,0.9,1.8,2.6,1.8
		c2.2,0,3.3-0.7,3.3-2.1c0-0.5-0.2-0.9-0.5-1.1c-0.3-0.2-0.9-0.3-1.7-0.3h-1.4C738,557.6,737.2,558.2,737.2,559.5z M737.9,552.2
		c0,0.7,0.2,1.2,0.6,1.5s0.9,0.5,1.6,0.5c0.7,0,1.3-0.2,1.6-0.5s0.6-0.9,0.6-1.6c0-0.7-0.2-1.3-0.6-1.6s-0.9-0.5-1.6-0.5
		c-0.7,0-1.2,0.2-1.6,0.6S737.9,551.5,737.9,552.2z"/>
</g>
</svg>
