<?xml version="1.0" encoding="utf-8"?>
<!-- Generator: Adobe Illustrator 17.1.0, SVG Export Plug-In . SVG Version: 6.00 Build 0)  -->
<!DOCTYPE svg PUBLIC "-//W3C//DTD SVG 1.1//EN" "http://www.w3.org/Graphics/SVG/1.1/DTD/svg11.dtd">
<svg version="1.1" id="Layer_1" xmlns="http://www.w3.org/2000/svg" xmlns:xlink="http://www.w3.org/1999/xlink" x="0px" y="0px"
	 viewBox="0 0 841.9 595.3" enable-background="new 0 0 841.9 595.3" xml:space="preserve">
<g>
	<g>
		<path fill="#F7941E" d="M306.7,279.1h-10.6v-34.3h10.6V279.1z"/>
	</g>
	<g>
		<path fill="#F7941E" d="M342.6,283.2l-23.8-18.9v14.7h-10.7v-36.6l23.8,18.8v-16.5h10.7V283.2z"/>
	</g>
	<g>
		<path fill="#F7941E" d="M369.7,255.4h-7.5v23.7h-10.6v-23.7h-7.5v-10.6h25.5V255.4z"/>
	</g>
	<g>
		<path fill="#F7941E" d="M396.4,267.3h-14.6v1.2h10.6v10.6h-21.2v-34.2h21.2v10.7h-10.6v1.2h14.6V267.3z"/>
	</g>
	<g>
		<path fill="#F7941E" d="M435.8,277.3c-2.8,1.6-5.8,2.5-8.8,2.9c-0.8,0.1-1.8,0.1-2.6,0.1c-2,0-4-0.2-6-0.8l0,0
			c-3.6-1-7-2.8-9.8-5.5h-0.1v4.9h-10.6v-34.3h16.9c4.1,0,7.5,1.5,10.4,4.3c2.9,2.9,4.3,6.4,4.3,10.4c0,4-1.6,7.6-4.2,10.2
			c1.8-0.1,3.6-0.6,5.2-1.6L435.8,277.3z M414.8,255.5h-6.3v8.1h6.3c2.2,0,4.1-1.8,4.1-4C418.8,257.3,417,255.5,414.8,255.5z"/>
	</g>
	<g>
		<path fill="#F7941E" d="M461,267.3h-14.5v11.8h-10.7v-34.3H461v10.7h-14.5v1.2H461V267.3z"/>
	</g>
	<g>
		<path fill="#F7941E" d="M487.7,279.1l-1.8-3h-15.5l-1.7,3h-12.3l21.8-37.7l21.8,37.7H487.7z M479.8,265.5l-1.6-2.8l-1.6,2.8H479.8
			z"/>
	</g>
	<g>
		<path fill="#F7941E" d="M517.6,279.7c-1.4,0.2-2.9,0.5-4.3,0.5c-5.1,0-9.4-1.8-13-5.4c-3.5-3.6-5.4-7.9-5.4-13
			c0-5,1.8-9.4,5.4-12.9c3.6-3.6,7.9-5.4,13-5.4c1.4,0,2.9,0.2,4.3,0.5l-2.5,10.3c-0.6-0.2-1.2-0.2-1.8-0.2c-2.1,0-3.9,0.8-5.4,2.2
			s-2.4,3.3-2.4,5.5c0,2.2,0.8,4.1,2.4,5.6c1.5,1.5,3.3,2.2,5.4,2.2c0.3,0,0.5,0,0.9-0.1c0.2,0,0.6-0.1,0.9-0.1L517.6,279.7z"/>
	</g>
	<g>
		<path fill="#F7941E" d="M544.3,267.3h-14.6v1.2h10.6v10.6h-21.2v-34.2h21.2v10.7h-10.6v1.2h14.6V267.3z"/>
	</g>
	<g>
		<path fill="#F7941E" d="M312.6,354.9c-6.7,6.7-14.7,10-24.1,10h-27.9v-68.4h27.9c9.4,0,17.4,3.4,24.1,10.1
			c6.7,6.7,10.1,14.7,10.1,24.1S319.3,348.2,312.6,354.9z M301.5,330.8c0-3.3-1.2-6.3-3.6-9c-2.3-2.7-5.5-4-9.4-4h-6.7v25.9h2.1
			c4.9,0.1,9.8,0.2,13.8-3.8C300.4,337.2,301.5,334,301.5,330.8z"/>
	</g>
	<g>
		<path fill="#F7941E" d="M376.2,341.4H347v2.3h21.1v21.2h-42.4v-68.4h42.4v21.3H347v2.3h29.2V341.4z"/>
	</g>
	<g>
		<path fill="#F7941E" d="M420,296.4l-18.9,18.9c-0.8,0.8-1.3,2-1.6,3.2v0.7c0,1.5,0.5,2.9,1.6,4l3.4,3.4c4.9,4.9,7.6,11.3,7.9,17.8
			v1.1c0,6.9-2.6,13.8-7.9,19l-0.3,0.3h-30l15.3-15.3c1.1-1.1,1.6-2.5,1.6-4v-0.7c-0.1-1.2-0.7-2.4-1.6-3.2l-3.3-3.4
			c-5.3-5.2-7.9-12.1-7.9-19V318c0.3-6.4,2.9-12.9,7.8-17.8l3.8-3.8H420z"/>
	</g>
	<g>
		<path fill="#F7941E" d="M441.2,364.9H420v-68.5h21.2V364.9z"/>
	</g>
	<g>
		<path fill="#F7941E" d="M496,328c-0.5-3.5-2.5-6.7-5.2-9c-2.7-2.3-6.1-3.7-10-3.7c-4.3,0-7.9,1.5-10.9,4.5s-4.5,6.6-4.5,10.9
			c0,5.7,3.2,10.6,7.7,13.3v-12.5h27.4v21.2h-6.1V366l-9.4,1c-0.7,0-1.3,0.1-1.7,0.1c-0.1,0-0.3,0.1-0.4,0.1h-2.1
			c-10.1,0-18.7-3.6-25.9-10.7c-7.1-7.1-10.7-15.7-10.7-25.8s3.6-18.8,10.7-25.9c7.2-7.1,15.8-10.7,25.9-10.7
			c9.1,0,17.3,3.3,23.8,8.8c2.8,2.4,5.3,5.3,7.2,8.5L496,328z"/>
	</g>
	<g>
		<path fill="#F7941E" d="M578.2,373.2l-47.6-37.7v29.4h-21.3v-73.2l47.6,37.6v-32.9h21.3V373.2z"/>
	</g>
</g>
</svg>
