<?xml version="1.0" encoding="utf-8"?>
<!-- Generator: Adobe Illustrator 17.1.0, SVG Export Plug-In . SVG Version: 6.00 Build 0)  -->
<!DOCTYPE svg PUBLIC "-//W3C//DTD SVG 1.1//EN" "http://www.w3.org/Graphics/SVG/1.1/DTD/svg11.dtd">
<svg version="1.1" id="Layer_1" xmlns="http://www.w3.org/2000/svg" xmlns:xlink="http://www.w3.org/1999/xlink" x="0px" y="0px"
	 viewBox="0 0 841.9 595.3" enable-background="new 0 0 841.9 595.3" xml:space="preserve">
<g>
	<path fill="#EC008C" d="M348,396.7l-20.4,36.9l-8.7-16.1l-8.7,16.1l-20.4-36.9h12.3l8,14.4l8.8-16.2l8.8,16.2l8-14.4H348z"/>
	<path fill="#EC008C" d="M371.9,423.7c-3.2,3.2-7,4.8-11.6,4.8c-4.5,0-8.4-1.6-11.6-4.8c-3.2-3.2-4.8-7-4.8-11.6
		c0-4.5,1.6-8.4,4.8-11.6c3.2-3.2,7-4.8,11.6-4.8c4.5,0,8.4,1.6,11.6,4.8s4.8,7,4.8,11.6C376.8,416.7,375.1,420.5,371.9,423.7z
		 M360.3,406.6c-3.1,0-5.5,2.5-5.5,5.6c0,3.1,2.4,5.6,5.5,5.6s5.6-2.5,5.6-5.6C365.9,409.1,363.4,406.6,360.3,406.6z"/>
	<path fill="#EC008C" d="M416.9,429.8c-2.9,1.6-5.9,2.6-9,3c-0.9,0.2-1.8,0.2-2.7,0.2c-2,0-4.1-0.3-6.1-0.8l-0.1,0.1
		c-3.7-1-7.1-2.9-10-5.6h-0.1v5h-10.8v-34.9h17.2c4.1,0,7.6,1.5,10.6,4.4s4.4,6.5,4.4,10.6c0,4.1-1.6,7.8-4.3,10.5
		c1.8-0.2,3.7-0.7,5.4-1.6L416.9,429.8z M395.5,407.5h-6.4v8.3h6.4c2.2,0,4.1-1.9,4.1-4.1C399.6,409.4,397.7,407.5,395.5,407.5z"/>
	<path fill="#EC008C" d="M455.7,429.8c-1.4,0.8-2.9,1.5-4.4,1.9c-1.5,0.5-3,0.8-4.5,1c-0.5,0.1-0.9,0.1-1.3,0.1
		c-0.5,0.1-0.9,0.1-1.3,0.1c-1,0-2-0.1-3.1-0.2c-1-0.2-2-0.4-3.1-0.6c-1.8-0.5-3.6-1.1-5.4-2.1c-1.7-0.9-3.4-2.1-4.8-3.5v5.1h-10.8
		v-35h10.8v11.6l12.7-12.7l7.6,7.6l-14,14c4.1,5.3,11.2,6.1,16.1,3.3L455.7,429.8z"/>
	<path fill="#EC008C" d="M466.5,431.6h-10.8v-34.9h10.8V431.6z"/>
	<path fill="#EC008C" d="M503.1,435.8l-24.3-19.2v15H468v-37.3l24.3,19.2v-16.8h10.9V435.8z"/>
	<path fill="#EC008C" d="M531.1,412.8c-0.3-1.8-1.3-3.4-2.7-4.6s-3.1-1.9-5.1-1.9c-2.2,0-4,0.8-5.6,2.3c-1.5,1.5-2.3,3.4-2.3,5.6
		c0,2.9,1.6,5.4,3.9,6.8v-6.4h14v10.8h-3.1v6.8l-4.8,0.5c-0.4,0-0.7,0.1-0.9,0.1c-0.1,0-0.2,0.1-0.2,0.1h-1.1
		c-5.2,0-9.5-1.8-13.2-5.5c-3.6-3.6-5.5-8-5.5-13.2s1.8-9.6,5.5-13.2c3.7-3.6,8.1-5.5,13.2-5.5c4.6,0,8.8,1.7,12.1,4.5
		c1.4,1.2,2.7,2.7,3.7,4.3L531.1,412.8z"/>
	<path fill="#EC008C" d="M283.1,459.9h-11.3v36h-16.1v-36h-11.3v-16.1h38.8V459.9z"/>
	<path fill="#EC008C" d="M324,484c-4.8,4.8-10.5,7.1-17.3,7.1c-6.8,0-12.5-2.4-17.3-7.1c-4.8-4.8-7.1-10.5-7.1-17.3
		c0-6.8,2.4-12.5,7.1-17.3c4.8-4.8,10.5-7.1,17.3-7.1c6.8,0,12.5,2.4,17.3,7.1c4.8,4.8,7.2,10.5,7.2,17.3
		C331.3,473.5,328.8,479.2,324,484z M306.8,458.5c-4.6,0-8.2,3.7-8.2,8.3c0,4.6,3.6,8.3,8.2,8.3c4.6,0,8.3-3.7,8.3-8.3
		C315.1,462.2,311.3,458.5,306.8,458.5z"/>
	<path fill="#EC008C" d="M372.9,467.8c-0.4-2.7-1.9-5.1-4-6.8c-2.1-1.7-4.6-2.8-7.6-2.8c-3.3,0-6,1.1-8.3,3.4
		c-2.3,2.3-3.4,5-3.4,8.3c0,4.3,2.4,8.1,5.9,10.1v-9.5h20.8v16.1h-4.6v10.1l-7.1,0.8c-0.5,0-1,0.1-1.3,0.1c-0.1,0-0.2,0.1-0.3,0.1
		h-1.6c-7.7,0-14.2-2.7-19.7-8.1c-5.4-5.4-8.1-11.9-8.1-19.6c0-7.7,2.7-14.3,8.1-19.7c5.5-5.4,12-8.1,19.7-8.1
		c6.9,0,13.1,2.5,18.1,6.7c2.1,1.8,4,4,5.5,6.5L372.9,467.8z"/>
	<path fill="#EC008C" d="M421.4,477.9h-22.2v1.7h16v16.1H383v-52h32.2V460h-16v1.7h22.2V477.9z"/>
	<path fill="#EC008C" d="M456.3,459.9H445v36h-16.1v-36h-11.3v-16.1h38.8V459.9z"/>
	<path fill="#EC008C" d="M508.1,477.9h-6.2v17.9h-16.2v-17.9h-10.9v17.9h-16.2v-52.1h16.2v18h10.9v-18h16.2v18h6.2V477.9z"/>
	<path fill="#EC008C" d="M548.8,477.9h-22.2v1.7h16v16.1h-32.2v-52h32.2V460h-16v1.7h22.2V477.9z"/>
	<path fill="#EC008C" d="M608.7,493.1c-4.3,2.4-8.8,3.9-13.4,4.4c-1.3,0.2-2.7,0.2-4,0.2c-3,0-6.1-0.4-9-1.2l-0.1,0.1
		c-5.5-1.4-10.6-4.3-14.9-8.3h-0.2v7.4H551v-52.1h25.6c6.2,0,11.4,2.2,15.7,6.5c4.3,4.3,6.5,9.7,6.5,15.8c0,6.1-2.4,11.6-6.4,15.6
		c2.7-0.2,5.5-1,8-2.4L608.7,493.1z M576.7,459.9h-9.5v12.3h9.5c3.3,0,6.2-2.8,6.2-6.2C582.8,462.7,580,459.9,576.7,459.9z"/>
</g>
</svg>
