<?xml version="1.0" encoding="utf-8"?>
<!-- Generator: Adobe Illustrator 17.1.0, SVG Export Plug-In . SVG Version: 6.00 Build 0)  -->
<!DOCTYPE svg PUBLIC "-//W3C//DTD SVG 1.1//EN" "http://www.w3.org/Graphics/SVG/1.1/DTD/svg11.dtd">
<svg version="1.1" id="Layer_1" xmlns="http://www.w3.org/2000/svg" xmlns:xlink="http://www.w3.org/1999/xlink" x="0px" y="0px"
	 viewBox="0 0 841.9 595.3" enable-background="new 0 0 841.9 595.3" xml:space="preserve">
<path fill="#EC008C" d="M451.4,243.6c-0.5-0.7-1.3-1-2.1-0.8l-27.7,7.2l10-25.8c0.3-0.7,0.1-1.5-0.4-2c-0.5-0.6-1.2-0.8-2-0.6
	l-34.3,8c-0.8,0.2-1.4,0.8-1.5,1.6l-7.4,46.2c-0.1,0.6,0.1,1.3,0.6,1.8c0.5,0.5,1.2,0.6,1.8,0.5l24.3-5.1l-10.9,38.2
	c-0.3,0.9,0.2,1.9,1.1,2.4c0.3,0.1,0.6,0.2,0.8,0.2c0.7,0,1.3-0.3,1.7-0.9l46-68.6C451.9,245.2,451.9,244.3,451.4,243.6z"/>
<g id="Your_Icon">
	<g>
		<path fill="#414042" d="M287.8,209.6l42.8-0.3c11.2-0.1,20.1-9.3,20.1-20.4c-0.1-11.1-9.2-20.1-20.4-19.9l-50.5,0.3
			c0.5,1.4,0.9,2.8,1.2,4.3L287.8,209.6z"/>
		<path fill="#414042" d="M287.4,250c-1.5,2.2-3.4,4.2-5.5,5.8l63.8-0.6c11.2-0.1,20.1-9.3,20.1-20.4c-0.1-11.1-9.2-20.1-20.4-19.9
			l-56.5,0.6l2.8,14.7C293,237.1,291.5,244.2,287.4,250z"/>
		<path fill="#414042" d="M245.5,282.2c0,4.6,1.6,8.7,4.2,12.1c3.7,4.8,9.6,7.9,16.2,7.8l69-0.4c11.2-0.1,20.1-9.3,20.1-20.4
			c0-4.6-1.6-8.7-4.1-12.1c-3.7-4.8-9.6-7.9-16.2-7.8l-69,0.4C254.4,261.8,245.4,271,245.5,282.2z"/>
		<path fill="#414042" d="M277.5,353.8c-8.1,0.1-15.6-3.5-20.5-9.9c-3.4-4.4-5.2-9.7-5.3-15.3c-0.1-6.8,2.6-13.3,7.4-18.2
			c0.3-0.3,0.5-0.5,0.8-0.8c-4.4-3.2-9.3-6.5-14.7-9.6c-6.2-3.6-12.1-6.4-17.7-8.5l-0.2-0.6c0,0,11.8-9.1,10.5-48.2
			c-0.5-14-8.5-42.4-8.5-42.4l7.8-2.1l7.7,40.7c0.6,3.4,2,6.5,4,9.1c4.7,6.1,12.5,9.4,20.6,7.9c11.5-2.1,19.2-13.2,17.1-24.7
			l-11.9-62.2c-0.6-3.4-2.1-6.6-4.1-9.2c-4.7-6.1-12.5-9.5-20.6-7.7c-6.1,1.3-44.4,9.1-57.2,17.1c-3.5,2.2-9.3,8.3-11.4,11.8
			c-12.8,20.9-31.5,94.1-31.5,94.1L48.2,335.6l76.3,99.5l78.3-63.2c12.9,1,30.2,0.5,50.9-4.5c10.6-2.5,20.6-8.5,27.8-13.6
			L277.5,353.8z"/>
		<path fill="#414042" d="M336.9,327.5c0-4.6-1.6-8.7-4.1-12.1c-3.7-4.8-9.6-7.9-16.2-7.8l-39.4,0.5c-11.2,0.1-20.1,9.3-20.1,20.4
			c0,4.6,1.6,8.7,4.1,12.1c3.7,4.8,9.6,7.9,16.2,7.8l39.4-0.5C328,347.8,337,338.6,336.9,327.5z"/>
	</g>
</g>
<g id="Your_Icon_1_">
	<g>
		<g>
			<path fill="#414042" d="M548.1,209.6l-42.8-0.3c-11.2-0.1-20.1-9.3-20.1-20.4c0.1-11.1,9.2-20.1,20.4-19.9l50.5,0.3
				c-0.5,1.4-0.9,2.8-1.2,4.3L548.1,209.6z"/>
			<path fill="#414042" d="M548.5,250c1.5,2.2,3.4,4.2,5.5,5.8l-63.8-0.6c-11.2-0.1-20.1-9.3-20.1-20.4c0.1-11.1,9.2-20.1,20.4-19.9
				l56.5,0.6l-2.8,14.7C542.9,237.1,544.4,244.2,548.5,250z"/>
			<path fill="#414042" d="M590.4,282.2c0,4.6-1.6,8.7-4.2,12.1c-3.7,4.8-9.6,7.9-16.2,7.8l-69-0.4c-11.2-0.1-20.1-9.3-20.1-20.4
				c0-4.6,1.6-8.7,4.1-12.1c3.7-4.8,9.6-7.9,16.2-7.8l69,0.4C581.5,261.8,590.5,271,590.4,282.2z"/>
			<path fill="#414042" d="M558.4,353.8c8.1,0.1,15.6-3.5,20.5-9.9c3.4-4.4,5.2-9.7,5.3-15.3c0.1-6.8-2.6-13.3-7.4-18.2
				c-0.3-0.3-0.5-0.5-0.8-0.8c4.4-3.2,9.3-6.5,14.7-9.6c6.2-3.6,12.1-6.4,17.7-8.5l0.2-0.6c0,0-11.8-9.1-10.5-48.2
				c0.5-14,8.5-42.4,8.5-42.4l-7.8-2.1l-7.7,40.7c-0.6,3.4-2,6.5-4,9.1c-4.7,6.1-12.5,9.4-20.6,7.9c-11.5-2.1-19.2-13.2-17.1-24.7
				l11.9-62.2c0.6-3.4,2.1-6.6,4.1-9.2c4.7-6.1,12.5-9.5,20.6-7.7c6.1,1.3,44.4,9.1,57.2,17.1c3.5,2.2,9.3,8.3,11.4,11.8
				c12.8,20.9,31.5,94.1,31.5,94.1l101.5,60.6L711.3,435L633,371.8c-12.9,1-30.2,0.5-50.9-4.5c-10.6-2.5-20.6-8.5-27.8-13.6
				L558.4,353.8z"/>
			<path fill="#414042" d="M499,327.5c0-4.6,1.6-8.7,4.1-12.1c3.7-4.8,9.6-7.9,16.2-7.8l39.4,0.5c11.2,0.1,20.1,9.3,20.1,20.4
				c0,4.6-1.6,8.7-4.1,12.1c-3.7,4.8-9.6,7.9-16.2,7.8l-39.4-0.5C507.9,347.8,498.9,338.6,499,327.5z"/>
		</g>
	</g>
</g>
<g>
	<path fill="#EC008C" d="M223.8,117.1c-4.7,4.7-10.3,7-16.9,7h-19.5V76.2h19.5c6.6,0,12.2,2.4,16.9,7.1s7.1,10.3,7.1,16.9
		S228.5,112.4,223.8,117.1z M216,100.2c0-2.3-0.8-4.4-2.5-6.3c-1.6-1.9-3.9-2.8-6.6-2.8h-4.7v18.1h1.5c3.4,0.1,6.9,0.1,9.7-2.7
		C215.2,104.7,216,102.4,216,100.2z"/>
	<path fill="#EC008C" d="M247.9,109.2h20.2v14.8h-35.2V76.2h35.2v14.9h-20.2v1.6h20.2v14.9h-20.2V109.2z"/>
	<path fill="#EC008C" d="M326.8,76.1L297.5,127l-29.3-50.9h17.2l12.2,21.1l12.1-21.1H326.8z"/>
</g>
<g>
	<path fill="#EC008C" d="M587.8,105.4c0,5.4-1.9,9.9-5.7,13.8c-3.9,3.8-8.5,5.7-13.9,5.7c-5.3,0-10.3-2.1-13.9-5.7
		s-5.8-8.4-5.8-13.8V76.1h14.8v29.3c0,1.2,0.6,2.5,1.4,3.3c0.9,0.8,2.1,1.4,3.4,1.4c2.6,0,4.7-2.1,4.7-4.7V76.1h14.9V105.4z"/>
	<path fill="#EC008C" d="M628.9,124.1h-16.6l-4.1-8.1l-4.1,8.1h-16.6l12.3-24.6l-11.8-23.4h16.6l3.5,6.9l3.5-6.9h16.6l-11.8,23.4
		L628.9,124.1z"/>
</g>
<g>
	<path fill="#EC008C" d="M348,396.7l-20.4,36.9l-8.7-16.1l-8.7,16.1l-20.4-36.9h12.3l8,14.4l8.8-16.2l8.8,16.2l8-14.4H348z"/>
	<path fill="#EC008C" d="M371.9,423.7c-3.2,3.2-7,4.8-11.6,4.8c-4.5,0-8.4-1.6-11.6-4.8c-3.2-3.2-4.8-7-4.8-11.6
		c0-4.5,1.6-8.4,4.8-11.6c3.2-3.2,7-4.8,11.6-4.8c4.5,0,8.4,1.6,11.6,4.8s4.8,7,4.8,11.6C376.8,416.7,375.1,420.5,371.9,423.7z
		 M360.3,406.6c-3.1,0-5.5,2.5-5.5,5.6c0,3.1,2.4,5.6,5.5,5.6s5.6-2.5,5.6-5.6C365.9,409.1,363.4,406.6,360.3,406.6z"/>
	<path fill="#EC008C" d="M416.9,429.8c-2.9,1.6-5.9,2.6-9,3c-0.9,0.2-1.8,0.2-2.7,0.2c-2,0-4.1-0.3-6.1-0.8l-0.1,0.1
		c-3.7-1-7.1-2.9-10-5.6h-0.1v5h-10.8v-34.9h17.2c4.1,0,7.6,1.5,10.6,4.4s4.4,6.5,4.4,10.6c0,4.1-1.6,7.8-4.3,10.5
		c1.8-0.2,3.7-0.7,5.4-1.6L416.9,429.8z M395.5,407.5h-6.4v8.3h6.4c2.2,0,4.1-1.9,4.1-4.1C399.6,409.4,397.7,407.5,395.5,407.5z"/>
	<path fill="#EC008C" d="M455.7,429.8c-1.4,0.8-2.9,1.5-4.4,1.9c-1.5,0.5-3,0.8-4.5,1c-0.5,0.1-0.9,0.1-1.3,0.1
		c-0.5,0.1-0.9,0.1-1.3,0.1c-1,0-2-0.1-3.1-0.2c-1-0.2-2-0.4-3.1-0.6c-1.8-0.5-3.6-1.1-5.4-2.1c-1.7-0.9-3.4-2.1-4.8-3.5v5.1h-10.8
		v-35h10.8v11.6l12.7-12.7l7.6,7.6l-14,14c4.1,5.3,11.2,6.1,16.1,3.3L455.7,429.8z"/>
	<path fill="#EC008C" d="M466.5,431.6h-10.8v-34.9h10.8V431.6z"/>
	<path fill="#EC008C" d="M503.1,435.8l-24.3-19.2v15H468v-37.3l24.3,19.2v-16.8h10.9V435.8z"/>
	<path fill="#EC008C" d="M531.1,412.8c-0.3-1.8-1.3-3.4-2.7-4.6s-3.1-1.9-5.1-1.9c-2.2,0-4,0.8-5.6,2.3c-1.5,1.5-2.3,3.4-2.3,5.6
		c0,2.9,1.6,5.4,3.9,6.8v-6.4h14v10.8h-3.1v6.8l-4.8,0.5c-0.4,0-0.7,0.1-0.9,0.1c-0.1,0-0.2,0.1-0.2,0.1h-1.1
		c-5.2,0-9.5-1.8-13.2-5.5c-3.6-3.6-5.5-8-5.5-13.2s1.8-9.6,5.5-13.2c3.7-3.6,8.1-5.5,13.2-5.5c4.6,0,8.8,1.7,12.1,4.5
		c1.4,1.2,2.7,2.7,3.7,4.3L531.1,412.8z"/>
	<path fill="#EC008C" d="M283.1,459.9h-11.3v36h-16.1v-36h-11.3v-16.1h38.8V459.9z"/>
	<path fill="#EC008C" d="M324,484c-4.8,4.8-10.5,7.1-17.3,7.1c-6.8,0-12.5-2.4-17.3-7.1c-4.8-4.8-7.1-10.5-7.1-17.3
		c0-6.8,2.4-12.5,7.1-17.3c4.8-4.8,10.5-7.1,17.3-7.1c6.8,0,12.5,2.4,17.3,7.1c4.8,4.8,7.2,10.5,7.2,17.3
		C331.3,473.5,328.8,479.2,324,484z M306.8,458.5c-4.6,0-8.2,3.7-8.2,8.3c0,4.6,3.6,8.3,8.2,8.3c4.6,0,8.3-3.7,8.3-8.3
		C315.1,462.2,311.3,458.5,306.8,458.5z"/>
	<path fill="#EC008C" d="M372.9,467.8c-0.4-2.7-1.9-5.1-4-6.8c-2.1-1.7-4.6-2.8-7.6-2.8c-3.3,0-6,1.1-8.3,3.4
		c-2.3,2.3-3.4,5-3.4,8.3c0,4.3,2.4,8.1,5.9,10.1v-9.5h20.8v16.1h-4.6v10.1l-7.1,0.8c-0.5,0-1,0.1-1.3,0.1c-0.1,0-0.2,0.1-0.3,0.1
		h-1.6c-7.7,0-14.2-2.7-19.7-8.1c-5.4-5.4-8.1-11.9-8.1-19.6c0-7.7,2.7-14.3,8.1-19.7c5.5-5.4,12-8.1,19.7-8.1
		c6.9,0,13.1,2.5,18.1,6.7c2.1,1.8,4,4,5.5,6.5L372.9,467.8z"/>
	<path fill="#EC008C" d="M421.4,477.9h-22.2v1.7h16v16.1H383v-52h32.2V460h-16v1.7h22.2V477.9z"/>
	<path fill="#EC008C" d="M456.3,459.9H445v36h-16.1v-36h-11.3v-16.1h38.8V459.9z"/>
	<path fill="#EC008C" d="M508.1,477.9h-6.2v17.9h-16.2v-17.9h-10.9v17.9h-16.2v-52.1h16.2v18h10.9v-18h16.2v18h6.2V477.9z"/>
	<path fill="#EC008C" d="M548.8,477.9h-22.2v1.7h16v16.1h-32.2v-52h32.2V460h-16v1.7h22.2V477.9z"/>
	<path fill="#EC008C" d="M608.7,493.1c-4.3,2.4-8.8,3.9-13.4,4.4c-1.3,0.2-2.7,0.2-4,0.2c-3,0-6.1-0.4-9-1.2l-0.1,0.1
		c-5.5-1.4-10.6-4.3-14.9-8.3h-0.2v7.4H551v-52.1h25.6c6.2,0,11.4,2.2,15.7,6.5c4.3,4.3,6.5,9.7,6.5,15.8c0,6.1-2.4,11.6-6.4,15.6
		c2.7-0.2,5.5-1,8-2.4L608.7,493.1z M576.7,459.9h-9.5v12.3h9.5c3.3,0,6.2-2.8,6.2-6.2C582.8,462.7,580,459.9,576.7,459.9z"/>
</g>
</svg>
